<svg xmlns="http://www.w3.org/2000/svg" viewBox="0 0 26.34 14.35"><defs><style>.cls-1{fill:#00a7d2;}.cls-2{fill:#bdc3c7;}</style></defs><title>1_1</title><g id="Layer_2" data-name="Layer 2"><g id="Isolation_Mode" data-name="Isolation Mode"><path class="cls-1" d="M12.83,1.39a.74.74,0,0,0,.49-.2.75.75,0,0,0,.21-.5.75.75,0,0,0-.21-.5.75.75,0,0,0-1,0,.79.79,0,0,0-.2.5.79.79,0,0,0,.2.5.79.79,0,0,0,.5.2Z"/><path class="cls-1" d="M9.74,1.4H.86A.72.72,0,0,1,.13.7.72.72,0,0,1,.86,0H9.74a.72.72,0,0,1,.73.7.72.72,0,0,1-.73.7Z"/><path class="cls-2" d="M25.61,8.35H.73A.7.7,0,1,1,.73,7H25.61a.7.7,0,1,1,0,1.4Z"/><path class="cls-1" d="M19.72,1.4H15.85a.72.72,0,0,1-.74-.7.72.72,0,0,1,.74-.7h3.87a.71.71,0,0,1,.73.7.71.71,0,0,1-.73.7Z"/><path class="cls-2" d="M25.61,14.35H.73a.7.7,0,1,1,0-1.4H25.61a.7.7,0,1,1,0,1.4Z"/></g></g></svg>