<svg xmlns="http://www.w3.org/2000/svg" viewBox="0 0 32.55 12.03"><defs><style>.cls-1{fill:#bdc3c7;}.cls-2{fill:#00a7d2;}</style></defs><title>2</title><g id="Layer_2" data-name="Layer 2"><g id="Layer_1-2" data-name="Layer 1"><path class="cls-1" d="M27.61,10.8H26.15V6.14a.61.61,0,0,0-.61-.61.61.61,0,0,0-.62.61V10.8H21.24V7.73a.62.62,0,0,0-.62-.62.61.61,0,0,0-.61.62V10.8H16.32v-5a.62.62,0,0,0-1.23,0v5s-2.37,0-2.46,0H11.4V7.73a.61.61,0,0,0-.61-.62.62.62,0,0,0-.62.62V10.8H3.22A2,2,0,0,1,1.23,9V3.07A1.85,1.85,0,0,1,3.07,1.23H29.48a1.84,1.84,0,0,1,1.84,1.84V9a1.84,1.84,0,0,1-1.84,1.84H27.37C27,10.8,27,12,27.37,12h2.11A3.08,3.08,0,0,0,32.55,9V3.07A3.08,3.08,0,0,0,29.48,0H3.07A3.08,3.08,0,0,0,0,3.07V9C0,10.65,1.17,11.85,3.29,12H29.73"/><path class="cls-2" d="M6.09,10.8h.38v-5a.61.61,0,0,0-.62-.61.61.61,0,0,0-.61.61v5H5.7"/></g></g></svg>