<svg xmlns="http://www.w3.org/2000/svg" viewBox="0 0 25.94 20.14"><defs><style>.cls-1{fill:#bdc3c7;}.cls-2{fill:#00a7d2;}</style></defs><title>3</title><g id="Layer_2" data-name="Layer 2"><g id="Layer_1-2" data-name="Layer 1"><path class="cls-1" d="M4,2A2,2,0,1,1,2,0,2,2,0,0,1,4,2Z"/><path class="cls-1" d="M4,10.07a2,2,0,1,1-2-2,2,2,0,0,1,2,2Z"/><path class="cls-2" d="M4,18.14a2,2,0,1,1-2-2,2,2,0,0,1,2,2Z"/><path class="cls-1" d="M25.21,2.73H8.34a.73.73,0,1,1,0-1.46H25.21a.73.73,0,1,1,0,1.46Z"/><path class="cls-1" d="M25.21,10.8H8.34a.74.74,0,1,1,0-1.47H25.21a.74.74,0,0,1,0,1.47Z"/><path class="cls-2" d="M25.21,18.87H8.34a.74.74,0,1,1,0-1.47H25.21a.74.74,0,0,1,0,1.47Z"/></g></g></svg>