<svg xmlns="http://www.w3.org/2000/svg" viewBox="0 0 31.4 17.84"><defs><style>.cls-1{fill:#bdc3c7;}.cls-2{fill:#00a7d2;}</style></defs><title>4</title><g id="Layer_2" data-name="Layer 2"><g id="Layer_1-2" data-name="Layer 1"><path class="cls-1" d="M30.6,4.8H13a.8.8,0,0,1,0-1.6H30.6a.8.8,0,0,1,0,1.6Z"/><path class="cls-1" d="M30.6,16.4H13a.8.8,0,1,1,0-1.6H30.6a.8.8,0,0,1,0,1.6Z"/><path class="cls-1" d="M7.4,8a.8.8,0,0,1-.56-.23L.43,1.37A.81.81,0,0,1,.43.23a.81.81,0,0,1,1.14,0L8,6.64A.8.8,0,0,1,8,7.77.83.83,0,0,1,7.4,8Z"/><path class="cls-1" d="M1,8a.85.85,0,0,1-.57-.23.8.8,0,0,1,0-1.13L6.84.23A.8.8,0,0,1,8,.23.81.81,0,0,1,8,1.37l-6.4,6.4A.85.85,0,0,1,1,8Z"/><path class="cls-2" d="M.11,14.64a.34.34,0,0,1,0-.5l.49-.5a.35.35,0,0,1,.5,0l0,0,2,2.1a.18.18,0,0,0,.25,0l4.77-4.95h0a.35.35,0,0,1,.5,0l.5.5a.35.35,0,0,1,0,.5h0l-5.69,5.9a.34.34,0,0,1-.5,0l-2.77-3Z"/></g></g></svg>