<svg xmlns="http://www.w3.org/2000/svg" width="25.366" height="16.348" viewBox="0 0 25.366 16.348">
  <path id="Path_18866" data-name="Path 18866" d="M1037.5,292.526a2.212,2.212,0,1,1,2.212,2.212,2.212,2.212,0,0,1-2.212-2.212m14,0a2.212,2.212,0,1,0,2.212-2.212,2.212,2.212,0,0,0-2.212,2.212m7.369,11.691a1,1,0,0,0-.949-1.76c-2.562,1.381-6.751,2.2-11.208,2.2s-8.646-.825-11.208-2.2a1,1,0,1,0-.949,1.76c2.883,1.554,7.314,2.445,12.157,2.445S1055.987,305.771,1058.869,304.217Z" transform="translate(-1034.029 -290.314)" fill="#fff"/>
</svg>
