<svg id="Component_1_1" data-name="Component 1 – 1" xmlns="http://www.w3.org/2000/svg" width="21" height="21" viewBox="0 0 21 21">
  <g id="Ellipse_554" data-name="Ellipse 554" fill="none" stroke="#e99328" stroke-width="2">
    <circle cx="10.5" cy="10.5" r="10.5" stroke="none"/>
    <circle cx="10.5" cy="10.5" r="9.5" fill="none"/>
  </g>
  <path id="Path_13833" data-name="Path 13833" d="M42.113,221.248,39.592,226l2.289-.211,1.108,2.014,2.521-4.749Z" transform="translate(-34.516 -211.622)" fill="#e95454"/>
  <g id="Group_2134" data-name="Group 2134" transform="translate(7.158 9.626)">
    <path id="Path_13834" data-name="Path 13834" d="M132.647,259.826a.322.322,0,0,0-.151-.412l-.145-.077a.31.31,0,0,1,.3-.544l.41.218a.259.259,0,0,0,.351-.109l.01-.019a.245.245,0,0,0-.094-.345l-1.226-.651a.323.323,0,0,1-.153-.412.311.311,0,0,1,.427-.143l1.137.6a.262.262,0,0,0,.353-.108l.007-.017,0,0a.272.272,0,0,0-.112-.371l-.638-.338a.323.323,0,0,1-.152-.414.312.312,0,0,1,.427-.143l.7.374a.263.263,0,0,0,.357-.121l0,0,0,0a.263.263,0,0,0-.1-.364l-.76-.4a.322.322,0,0,1-.151-.411.311.311,0,0,1,.427-.143l1.876,1-2.521,4.749-.695-1.263A.3.3,0,0,0,132.647,259.826Z" transform="translate(-131.92 -254.657)" fill="#ed6362"/>
    <path id="Path_13835" data-name="Path 13835" d="M213.2,221.248,215.717,226l-2.289-.211-1.108,2.014-2.521-4.749Z" transform="translate(-208.044 -221.248)" fill="#ed6362"/>
  </g>
  <path id="Path_13836" data-name="Path 13836" d="M212.924,259.841a.322.322,0,0,1,.151-.412l.145-.077a.31.31,0,0,0-.3-.544l-.41.218a.259.259,0,0,1-.351-.109l-.01-.019a.245.245,0,0,1,.094-.345l1.227-.651a.323.323,0,0,0,.153-.412.311.311,0,0,0-.427-.143l-1.137.6a.262.262,0,0,1-.353-.108l-.006-.017,0,0a.272.272,0,0,1,.112-.371l.638-.338a.323.323,0,0,0,.152-.414.312.312,0,0,0-.427-.143l-.705.375a.263.263,0,0,1-.357-.121l0,0,0,0a.263.263,0,0,1,.1-.364l.76-.4a.322.322,0,0,0,.151-.411.311.311,0,0,0-.427-.143l-1.876,1,2.521,4.749.695-1.263A.3.3,0,0,1,212.924,259.841Z" transform="translate(-200.901 -245.046)" fill="#e95454"/>
  <circle id="Ellipse_550" data-name="Ellipse 550" cx="4.212" cy="4.212" r="4.212" transform="translate(5.742 4.636)" fill="#ffcc5b"/>
  <path id="Path_13837" data-name="Path 13837" d="M74.459,17.428H71.79a.379.379,0,0,1-.378-.378l0-.026v-.006a.394.394,0,0,1,.4-.4h1.85a.468.468,0,0,0,.476-.427.452.452,0,0,0-.45-.473H71.726a.381.381,0,0,1-.375-.4v-.012a.381.381,0,0,1,.375-.4h2.05a.467.467,0,0,0,.473-.424.451.451,0,0,0-.45-.473H72.3a4.211,4.211,0,0,0,0,7.79H74.2a.467.467,0,0,0,.473-.424.45.45,0,0,0-.45-.473H72.059a.449.449,0,0,1-.448-.473.466.466,0,0,1,.473-.425h.841a.449.449,0,0,0-.013-.9H71.638a.375.375,0,0,1-.375-.378V18.7a.355.355,0,0,1,.355-.378h2.815a.468.468,0,0,0,.476-.424A.451.451,0,0,0,74.459,17.428Z" transform="translate(-63.933 -9.064)" fill="#fdbc4b"/>
  <path id="Path_13838" data-name="Path 13838" d="M125.59,59.452a3.006,3.006,0,1,1,3.006-3.006A3.01,3.01,0,0,1,125.59,59.452Z" transform="translate(-115.636 -47.599)" fill="#ffdb70"/>
  <path id="Path_13839" data-name="Path 13839" d="M230.94,56.822a3.008,3.008,0,0,0-2.834-3h-.28a.356.356,0,0,0-.361.323.344.344,0,0,0,.343.361h1.654a.342.342,0,0,1,.342.361.355.355,0,0,1-.361.324H228.8a.343.343,0,0,0,.01.685h.972a.286.286,0,0,1,.286.288v.024a.27.27,0,0,1-.271.288h-2.147a.357.357,0,0,0-.363.323.344.344,0,0,0,.343.361h2.035a.289.289,0,0,1,.288.288l0,.02v0a.3.3,0,0,1-.3.3h-1.411a.357.357,0,0,0-.363.326.345.345,0,0,0,.343.361h1.494a.291.291,0,0,1,.286.3v.009a.291.291,0,0,1-.286.3h-1.564a.356.356,0,0,0-.361.323.344.344,0,0,0,.343.361h.412A3.011,3.011,0,0,0,230.94,56.822Z" transform="translate(-217.98 -47.974)" fill="#fff" opacity="0.2"/>
  <path id="Path_13840" data-name="Path 13840" d="M158.592,91.137H157.13l-.452-1.391a.194.194,0,0,0-.369,0l-.452,1.391h-1.462a.194.194,0,0,0-.114.351l1.183.86-.452,1.391a.194.194,0,0,0,.3.217l1.183-.86,1.183.86a.194.194,0,0,0,.3-.217l-.452-1.391,1.183-.86A.194.194,0,0,0,158.592,91.137Z" transform="translate(-146.54 -82.955)" fill="#ec9922"/>
</svg>
