<svg xmlns="http://www.w3.org/2000/svg" width="49.992" height="49.992" viewBox="0 0 49.992 49.992">
  <g id="diet" transform="translate(-0.004 0)">
    <path id="Path_14228" data-name="Path 14228" d="M94.7,69.94h.833a.833.833,0,0,0,0-1.666H94.7a.833.833,0,0,0,0,1.666Zm0,0" transform="translate(-84.702 -61.607)" fill="#fff"/>
    <path id="Path_14229" data-name="Path 14229" d="M137.368,69.94H148.2a.833.833,0,0,0,0-1.666H137.368a.833.833,0,1,0,0,1.666Zm0,0" transform="translate(-123.2 -61.607)" fill="#fff"/>
    <path id="Path_14230" data-name="Path 14230" d="M42.433,26.663H40.6a3.891,3.891,0,0,0-1.119.167.77.77,0,0,0-.083.024,3.859,3.859,0,0,0-1.21.684c.181-1.917,1.13-4.7,4.731-6.826a.833.833,0,0,0-.847-1.435,10.974,10.974,0,0,0-4.936,5.531c-.044-.144-.092-.285-.143-.416a6.965,6.965,0,0,0-2-2.833V7.5A2.5,2.5,0,0,0,32.5,5H29.013a2.5,2.5,0,0,0-2.346-1.666H22.2a4.982,4.982,0,0,0-9.4,0H8.336A2.5,2.5,0,0,0,5.99,5H2.5A2.5,2.5,0,0,0,0,7.5V47.493a2.5,2.5,0,0,0,2.5,2.5H32.5a2.439,2.439,0,0,0,1.12-.271,10.234,10.234,0,0,0,2.322.271h3.115C45.087,49.992,50,44.761,50,38.327V34.72a7.832,7.832,0,0,0-7.563-8.057ZM35.44,24.988A11.191,11.191,0,0,1,35.905,27c-.083-.036-.158-.084-.241-.111a3.782,3.782,0,0,0-1.278-.222H32.563c-.228,0-.453.016-.677.037-.021-.006-.036-.019-.058-.023-2.758-.552-2.719-3.769-2.615-4.921a13.538,13.538,0,0,1,1.6-.089h.018a4.916,4.916,0,0,1,4.607,3.325ZM26.974,44.993H5V10H5.99a2.5,2.5,0,0,0,2.346,1.666h18.33A2.5,2.5,0,0,0,29.013,10H30V20.01c-2.152.077-2.295.676-2.371,1.018-.293,1.714-.144,4.749,1.84,6.352A8.1,8.1,0,0,0,25,34.72v3.608a12.121,12.121,0,0,0,1.975,6.666ZM33.332,7.5V20.538a6.666,6.666,0,0,0-1.666-.457V10A1.666,1.666,0,0,0,30,8.332h-.833V6.666H32.5a.833.833,0,0,1,.833.833ZM8.336,5h5.083a.685.685,0,0,0,.083-.018.8.8,0,0,0,.153-.031.785.785,0,0,0,.153-.063.8.8,0,0,0,.326-.326.744.744,0,0,0,.064-.153.7.7,0,0,0,.033-.077,3.333,3.333,0,0,1,6.53,0,.837.837,0,0,0,.035.088.964.964,0,0,0,.047.119.8.8,0,0,0,.1.151.786.786,0,0,0,.078.088.824.824,0,0,0,.162.109.652.652,0,0,0,.4.113h5.083a.833.833,0,0,1,.833.833V9.166a.833.833,0,0,1-.833.833H8.336A.833.833,0,0,1,7.5,9.166V5.833A.833.833,0,0,1,8.336,5ZM2.5,48.326a.833.833,0,0,1-.833-.833V7.5A.833.833,0,0,1,2.5,6.666H5.837V8.332H5A1.666,1.666,0,0,0,3.337,10V44.993A1.666,1.666,0,0,0,5,46.659H28.3a11.145,11.145,0,0,0,2.035,1.666Zm45.825-10c0,5.512-4.161,10-9.274,10H35.94c-5.113,0-9.274-4.484-9.274-10V34.72a6.167,6.167,0,0,1,5.9-6.39H34.4a2.133,2.133,0,0,1,.7.125,2.493,2.493,0,0,1,1.565,2.382v.826a.833.833,0,1,0,1.666,0v-.828a2.494,2.494,0,0,1,1.555-2.386l.04-.011a2.273,2.273,0,0,1,.666-.109h1.84a6.169,6.169,0,0,1,5.9,6.392Zm0,0" fill="#fff"/>
    <path id="Path_14231" data-name="Path 14231" d="M293.206,307.236a4.957,4.957,0,0,0-3.07,4.956.833.833,0,1,0,1.666,0,3.356,3.356,0,0,1,1.937-3.378.833.833,0,1,0-.534-1.579Zm0,0" transform="translate(-261.804 -277.198)" fill="#fff"/>
    <path id="Path_14232" data-name="Path 14232" d="M72.436,145.074h-2.5a1.666,1.666,0,0,0-1.666,1.666v2.5a1.666,1.666,0,0,0,1.666,1.666h2.5A1.666,1.666,0,0,0,74.1,149.24v-2.5a1.666,1.666,0,0,0-1.666-1.666Zm-2.5,4.166v-2.5h2.5v2.5Zm0,0" transform="translate(-61.6 -130.909)" fill="#fff"/>
    <path id="Path_14233" data-name="Path 14233" d="M72.436,221.875h-2.5a1.666,1.666,0,0,0-1.666,1.666v2.5a1.667,1.667,0,0,0,1.666,1.667h2.5a1.667,1.667,0,0,0,1.666-1.667v-2.5a1.666,1.666,0,0,0-1.666-1.666Zm-2.5,4.166v-2.5h2.5v2.5Zm0,0" transform="translate(-61.6 -200.211)" fill="#fff"/>
    <path id="Path_14234" data-name="Path 14234" d="M72.436,298.676h-2.5a1.666,1.666,0,0,0-1.666,1.666v2.5a1.666,1.666,0,0,0,1.666,1.666h2.5a1.666,1.666,0,0,0,1.666-1.666v-2.5a1.666,1.666,0,0,0-1.666-1.666Zm-2.5,4.166v-2.5h2.5v2.5Zm0,0" transform="translate(-61.6 -269.513)" fill="#fff"/>
    <path id="Path_14235" data-name="Path 14235" d="M72.436,375.473h-2.5a1.666,1.666,0,0,0-1.666,1.666v2.5a1.666,1.666,0,0,0,1.666,1.666h2.5a1.666,1.666,0,0,0,1.666-1.666v-2.5a1.666,1.666,0,0,0-1.666-1.666Zm-2.5,4.166v-2.5h2.5v2.5Zm0,0" transform="translate(-61.6 -338.812)" fill="#fff"/>
    <path id="Path_14236" data-name="Path 14236" d="M145.9,172.342h11.665a.833.833,0,1,0,0-1.666H145.9a.833.833,0,1,0,0,1.666Zm0,0" transform="translate(-130.902 -154.011)" fill="#fff"/>
    <path id="Path_14237" data-name="Path 14237" d="M155.069,247.473H145.9a.833.833,0,1,0,0,1.666h9.165a.833.833,0,1,0,0-1.666Zm0,0" transform="translate(-130.902 -223.31)" fill="#fff"/>
    <path id="Path_14238" data-name="Path 14238" d="M153.4,324.273h-7.5a.833.833,0,1,0,0,1.666h7.5a.833.833,0,1,0,0-1.666Zm0,0" transform="translate(-130.902 -292.611)" fill="#fff"/>
    <path id="Path_14239" data-name="Path 14239" d="M153.4,401.074h-7.5a.833.833,0,1,0,0,1.666h7.5a.833.833,0,1,0,0-1.666Zm0,0" transform="translate(-130.902 -361.913)" fill="#fff"/>
  </g>
</svg>
