<svg xmlns="http://www.w3.org/2000/svg" width="25.367" height="16.528" viewBox="0 0 25.367 16.528">
  <path id="Path_18864" data-name="Path 18864" d="M1383.594,292.526a2.212,2.212,0,1,1,2.212,2.212,2.212,2.212,0,0,1-2.212-2.212m14,0a2.212,2.212,0,1,0,2.212-2.212,2.212,2.212,0,0,0-2.212,2.212m7.7,13.79a1,1,0,0,0-.405-1.355c-2.884-1.553-7.316-2.444-12.158-2.444s-9.274.891-12.158,2.444a1,1,0,1,0,.95,1.761c2.562-1.381,6.752-2.2,11.208-2.2s8.646.824,11.209,2.2a1,1,0,0,0,1.354-.406Z" transform="translate(-1380.043 -290.314)" fill="#fff"/>
</svg>
