<svg xmlns="http://www.w3.org/2000/svg" xmlns:xlink="http://www.w3.org/1999/xlink" width="599.209" height="452.619" viewBox="0 0 599.209 452.619"><defs><style>.a{fill:#e7eff1;opacity:0.6;}.b,.c,.d{fill:#91d1e2;}.c{opacity:0.5;}.d,.q{opacity:0.25;}.e{fill:#6e7281;}.f{fill:#e0e0e0;}.g{fill:#5cb8a2;}.h{fill:#c4c6cc;}.i{fill:#fafafa;}.j{fill:#263238;}.k,.n{fill:#fff;}.l{fill:#455a64;}.m{fill:#ffc10e;}.ab,.n{opacity:0.3;}.o{opacity:0.13;}.p{fill:#d97441;}.ah,.am,.q{mix-blend-mode:multiply;isolation:isolate;}.r,.t{fill:#2a507a;}.aa,.ac,.ar,.s,.u,.v,.y{fill:none;stroke-miterlimit:10;}.s,.u,.v{stroke:#2a507a;}.s,.y{stroke-width:1.083px;}.t,.z{opacity:0.7;}.aa,.ac,.ar,.u,.v{stroke-linecap:round;}.aa,.u{stroke-width:5.414px;}.ac,.v{stroke-width:3.248px;}.w{fill:#c13d4c;}.x{fill:#e6505c;}.ac,.y{stroke:#101747;}.z{fill:#ace2f9;}.aa{stroke:#707070;}.ad{fill:#231e21;}.ae{opacity:0.2;}.af{fill:#707070;}.ag{fill:#219991;}.ah{opacity:0.45;fill:url(#a);}.ai{fill:#484848;}.aj{fill:#00a5d1;}.ak{fill:#fdaeb3;}.al{fill:#e58099;}.am{opacity:0.47;fill:url(#b);}.an{fill:#1177a3;}.ao{fill:#fcae24;}.ap{fill:#fecb22;}.aq{fill:#ffd664;}.ar{stroke:#fff;stroke-width:0.247px;}</style><linearGradient id="a" x1="0.443" y1="-0.08" x2="0.443" y2="0.935" gradientUnits="objectBoundingBox"><stop offset="0.366" stop-color="#86cf94"/><stop offset="0.989" stop-color="#008166"/></linearGradient><linearGradient id="b" x1="1" y1="0.5" x2="0" y2="0.5" gradientUnits="objectBoundingBox"><stop offset="0" stop-color="#f7941e"/><stop offset="1" stop-color="#f7941e" stop-opacity="0"/></linearGradient></defs><g transform="translate(-105.606 -37)"><path class="a" d="M121.876,439.165s-38.9-52.738,18.566-100.805c23.094-19.316,112.924-32.921,37.4-140.67-44.407-63.355,20.1-155.636,123.055-97.041,87.62,49.867,148.56-56.319,226.139-63.369,59.01-5.362,94.5,67.408,58.9,123.987-39.945,63.484,36.215,52.821,52.772,73.837,29.153,37-65.45,80.916-22.054,127.915,44.194,47.865,13.886,76.146,13.886,76.146Z"/><path class="b" d="M561.6,440.665H107.23a1.624,1.624,0,0,1-1.624-1.625h0a1.625,1.625,0,0,1,1.624-1.624H561.6a1.625,1.625,0,0,1,1.624,1.624h0A1.624,1.624,0,0,1,561.6,440.665Z"/><path class="b" d="M635.425,440.665H567.018a1.624,1.624,0,0,1-1.624-1.625h0a1.625,1.625,0,0,1,1.624-1.624h68.407a1.625,1.625,0,0,1,1.624,1.624h0A1.625,1.625,0,0,1,635.425,440.665Z"/><path class="c" d="M376.919,449.319H182.113a1.624,1.624,0,0,1-1.624-1.624h0a1.624,1.624,0,0,1,1.624-1.624H376.919a1.624,1.624,0,0,1,1.624,1.624h0A1.624,1.624,0,0,1,376.919,449.319Z"/><path class="c" d="M514.98,449.319H384.7a1.624,1.624,0,0,1-1.624-1.624h0a1.624,1.624,0,0,1,1.624-1.624H514.98A1.624,1.624,0,0,1,516.6,447.7h0A1.624,1.624,0,0,1,514.98,449.319Z"/><path class="d" d="M491.945,458.432H258.475a1.624,1.624,0,0,1-1.624-1.624h0a1.624,1.624,0,0,1,1.624-1.624h233.47a1.624,1.624,0,0,1,1.624,1.624h0A1.624,1.624,0,0,1,491.945,458.432Z"/><path class="d" d="M553.507,458.432H500.563a1.624,1.624,0,0,1-1.624-1.624h0a1.624,1.624,0,0,1,1.624-1.624h52.944a1.624,1.624,0,0,1,1.624,1.624h0A1.624,1.624,0,0,1,553.507,458.432Z"/><g transform="translate(151.375 179.28)"><g transform="translate(226.283 -90.975)"><path class="e" d="M474.951,198.017v35.672a11.636,11.636,0,0,0,11.686,11.437H614.548a11.687,11.687,0,0,0,11.687-11.687V203.3l15.924-16.731-155.485-.485A11.741,11.741,0,0,0,474.951,198.017Z" transform="translate(-474.951 -186.081)"/><g transform="translate(16.358 17.508)"><path class="f" d="M611.242,211.828l-116.07-.536.012-3.568,116.07.536Z" transform="translate(-495.172 -207.724)"/></g><g transform="translate(16.358 29.245)"><path class="f" d="M611.242,226.337l-116.07-.536.012-3.568,116.07.536Z" transform="translate(-495.172 -222.233)"/></g><g transform="translate(86.501 40.995)"><rect class="f" width="3.568" height="45.926" transform="matrix(0.005, -1, 1, 0.005, 0, 3.567)"/></g></g><g transform="translate(13.487 104.395)"><path class="g" d="M187.8,396.462c17.886-12.5,21.944-35.69,21.236-56.54-.118-3.48.265-7.149-1.391-10.2s-5.519-5.14-8.635-3.673c-2.585,1.217-3.711,4.223-5.157,6.709a20.36,20.36,0,0,1-8.162,7.8c-2.216,1.15-4.958,1.853-7.146.647-3-1.657-3.355-5.8-3.334-9.266q.061-9.677.121-19.353c.022-3.461.032-7-1.044-10.281s-3.456-6.337-6.748-7.259-7.365.976-8.06,4.364a31.989,31.989,0,0,0-.1,4.31c-.1,1.437-.765,3.027-2.13,3.427-1.382.406-2.767-.575-3.8-1.588-3.573-3.5-6-8-8.263-12.475s-4.465-9.062-7.707-12.873-7.725-6.833-12.683-7.114-10.24,2.78-11.492,7.646,1.59,9.831,4.689,13.781a77.256,77.256,0,0,0,16.087,15.334,6.355,6.355,0,0,1,2.691,2.894c.752,2.308-1.434,4.6-3.713,5.358-2.58.859-5.379.591-8.078.909s-5.623,1.508-6.645,4.058c-1.417,3.538,1.542,7.246,4.453,9.676a66.181,66.181,0,0,0,19.588,11.307c2.547.932,5.226,1.749,7.28,3.538s3.292,4.9,2.052,7.338-4.426,3.221-7.093,2.726-5.054-1.942-7.6-2.9c-4.757-1.8-10.9-1.467-13.947,2.644-2,2.7-2.178,6.465-1.166,9.686a25.251,25.251,0,0,0,5.248,8.555,66.554,66.554,0,0,0,28.42,19.972c11.034,3.826,21.258,4.862,32.225.851" transform="translate(-113 -273.072)"/><g transform="translate(5.305 2.915)"><path class="f" d="M189.325,412.609a152.013,152.013,0,0,0-5.655-28.528,310.176,310.176,0,0,0-12.312-33.394q-1.863-4.348-3.677-8.587c-1.213-2.816-2.416-5.608-3.762-8.266A154.835,154.835,0,0,0,155.313,319c-2.966-4.586-5.947-8.829-8.764-12.776s-5.53-7.568-8.135-10.768a122.967,122.967,0,0,0-13.4-14.168c-1.708-1.543-3.072-2.7-4.007-3.465l-1.068-.869a2.741,2.741,0,0,0-.378-.278,2.341,2.341,0,0,0,.336.329l1.027.917c.907.8,2.243,1.984,3.923,3.553a129.861,129.861,0,0,1,13.221,14.27c2.576,3.208,5.252,6.841,8.055,10.792s5.758,8.207,8.7,12.789a156.723,156.723,0,0,1,8.54,14.793c1.334,2.646,2.523,5.415,3.737,8.238l3.673,8.584a317.822,317.822,0,0,1,12.335,33.31,154.618,154.618,0,0,1,5.769,28.4" transform="translate(-119.558 -276.675)"/></g><g transform="translate(49.466 21.967)"><path class="f" d="M174.168,338.308a6.974,6.974,0,0,0,.338-1.476c.182-.957.4-2.348.642-4.073.489-3.446,1-8.228,1.549-13.5s1.126-10.039,1.666-13.468c.266-1.716.494-3.1.665-4.058a6.946,6.946,0,0,0,.193-1.5,6.877,6.877,0,0,0-.435,1.45c-.245.942-.543,2.321-.865,4.032-.657,3.423-1.31,8.2-1.857,13.478-.526,5.207-1,9.917-1.364,13.516-.174,1.625-.322,2.995-.441,4.093A6.989,6.989,0,0,0,174.168,338.308Z" transform="translate(-174.149 -300.227)"/></g><g transform="translate(4.981 51.686)"><path class="f" d="M119.158,337.011a9.669,9.669,0,0,0,1.775.212c1.142.1,2.8.24,4.832.476,4.076.44,9.685,1.245,15.835,2.4s11.67,2.466,15.635,3.519c1.988.512,3.584.97,4.689,1.28a9.52,9.52,0,0,0,1.737.426,9.491,9.491,0,0,0-1.663-.666c-1.086-.383-2.667-.909-4.645-1.48-3.946-1.168-9.469-2.538-15.637-3.713a157.132,157.132,0,0,0-15.909-2.223c-2.049-.178-3.712-.248-4.862-.272A9.362,9.362,0,0,0,119.158,337.011Z" transform="translate(-119.158 -336.965)"/></g><g transform="translate(68.866 52.662)"><path class="f" d="M198.135,395.012a2.3,2.3,0,0,0,.306-.543l.76-1.611c.655-1.4,1.549-3.453,2.621-6,2.147-5.1,4.892-12.234,7.813-20.148s5.6-15.07,7.636-20.206c1-2.5,1.821-4.549,2.431-6.076.261-.663.476-1.209.653-1.658a2.29,2.29,0,0,0,.188-.6,2.364,2.364,0,0,0-.306.544l-.76,1.609c-.655,1.4-1.549,3.453-2.621,6-2.148,5.1-4.892,12.234-7.814,20.152s-5.6,15.066-7.634,20.2c-1,2.5-1.821,4.55-2.431,6.075l-.653,1.658A2.329,2.329,0,0,0,198.135,395.012Z" transform="translate(-198.132 -338.173)"/></g><g transform="translate(9.732 90.436)"><path class="f" d="M125.031,384.874a2.354,2.354,0,0,0,.587.242l1.717.576,6.332,2.052c5.347,1.734,12.7,4.214,20.831,6.965s15.515,5.167,20.9,6.79c2.691.813,4.876,1.449,6.395,1.857l1.751.46a2.351,2.351,0,0,0,.623.118,2.388,2.388,0,0,0-.586-.243l-1.717-.574-6.332-2.052c-5.347-1.733-12.705-4.214-20.833-6.966s-15.513-5.166-20.9-6.789c-2.692-.813-4.876-1.449-6.4-1.857l-1.751-.46A2.332,2.332,0,0,0,125.031,384.874Z" transform="translate(-125.031 -384.868)"/></g></g><g transform="translate(0)"><path class="h" d="M225.885,153.075v27.64a9.056,9.056,0,0,1-9.055,9.055H117.721a9.056,9.056,0,0,1-9.055-9.055V157.361L96.327,144.4,216.8,144.02A9.055,9.055,0,0,1,225.885,153.075Z" transform="translate(-96.327 -144.02)"/><g transform="translate(26.939 13.566)"><path class="i" d="M129.638,163.97l89.935-.415-.01-2.764-89.934.416Z" transform="translate(-129.629 -160.791)"/></g><g transform="translate(26.939 22.66)"><path class="i" d="M129.638,175.212l89.935-.415-.01-2.764-89.934.415Z" transform="translate(-129.629 -172.032)"/></g><g transform="translate(26.936 31.765)"><rect class="i" width="35.585" height="2.764" transform="translate(0 0.175) rotate(-0.282)"/></g></g></g><g transform="translate(232.367 230)"><g transform="translate(0)"><g transform="translate(0)"><path class="j" d="M11.55,0H197.241A11.549,11.549,0,0,1,208.79,11.549V288.083a11.549,11.549,0,0,1-11.549,11.549H11.549A11.549,11.549,0,0,1,0,288.082V11.55A11.55,11.55,0,0,1,11.55,0Z" transform="translate(0 208.79) rotate(-90)"/><g transform="translate(20.499 6.584)"><rect class="k" width="195.622" height="250.228" transform="translate(0 195.622) rotate(-90)"/></g><g transform="translate(274.943 94.763)"><circle class="l" cx="8.011" cy="8.011" r="8.011" transform="matrix(0.229, -0.973, 0.973, 0.229, 0, 15.597)"/></g><g transform="translate(8.629 72.953)"><rect class="l" width="62.885" height="3.31" rx="1.215" transform="translate(0 62.885) rotate(-90)"/></g></g><g transform="translate(46.591 82.273)"><circle class="m" cx="20.216" cy="20.216" r="20.216" transform="translate(0 33.772) rotate(-56.646)"/><circle class="n" cx="20.216" cy="20.216" r="20.216" transform="translate(0 33.772) rotate(-56.646)"/><g transform="translate(19.794 22.904)"><path class="j" d="M279.746,336.741c.765-.063,1.461.781,1.552,1.888s-.456,2.053-1.222,2.116-1.462-.782-1.552-1.888S278.98,336.8,279.746,336.741Z" transform="translate(-278.514 -336.738)"/></g><g transform="translate(32.403 22.642)"><path class="j" d="M295.576,336.415c-.768-.032-1.427.84-1.473,1.95s.54,2.033,1.308,2.064,1.428-.842,1.474-1.95S296.344,336.446,295.576,336.415Z" transform="translate(-294.101 -336.414)"/></g><g transform="translate(19.251 31.573)"><path class="j" d="M294.674,347.885c0,.239-3.768.432-8.415.432s-8.417-.193-8.417-.432,3.768-.431,8.417-.431S294.674,347.647,294.674,347.885Z" transform="translate(-277.842 -347.454)"/></g><g transform="translate(18.269 20.093)"><path class="j" d="M280.931,333.755c-.049.24-1.008.231-2.132.415-1.128.168-2.038.469-2.158.256-.124-.195.722-.908,2.025-1.107S280.989,333.531,280.931,333.755Z" transform="translate(-276.628 -333.262)"/></g><g transform="translate(33.264 19.94)"><path class="j" d="M299.428,334.7c-.153.193-1.026-.265-2.149-.6-1.118-.352-2.1-.464-2.115-.709-.031-.228,1.071-.518,2.368-.116S299.582,334.527,299.428,334.7Z" transform="translate(-295.164 -333.073)"/></g></g><g transform="translate(196.949 84.609)"><circle class="m" cx="20.954" cy="20.954" r="20.954" transform="translate(0 41.386) rotate(-80.951)"/><circle class="o" cx="20.954" cy="20.954" r="20.954" transform="translate(0 41.386) rotate(-80.951)"/><g transform="translate(15.483 18.706)"><path class="j" d="M460.332,334.438c.794-.065,1.514.811,1.609,1.957s-.473,2.128-1.267,2.194-1.515-.811-1.609-1.957S459.538,334.5,460.332,334.438Z" transform="translate(-459.055 -334.435)"/></g><g transform="translate(28.552 18.434)"><path class="j" d="M476.741,334.1c-.8-.033-1.48.872-1.527,2.021s.561,2.107,1.357,2.14,1.48-.873,1.527-2.022S477.537,334.131,476.741,334.1Z" transform="translate(-475.211 -334.099)"/></g><g transform="translate(14.916 24.461)"><path class="j" d="M475.805,345.226a15.106,15.106,0,0,1-2.454-1.272,13.583,13.583,0,0,0-6.238-1.541,15.529,15.529,0,0,0-6.255,1.624,13.482,13.482,0,0,1-2.5,1.19,6.862,6.862,0,0,1,2.214-1.728,13.607,13.607,0,0,1,6.526-1.948,12.253,12.253,0,0,1,6.55,1.871A6.515,6.515,0,0,1,475.805,345.226Z" transform="translate(-458.355 -341.549)"/></g><g transform="translate(13.907 16.26)"><path class="j" d="M461.562,331.453c.071.089-.066.351-.413.656a3.485,3.485,0,0,1-1.64.768,3.147,3.147,0,0,1-1.818-.2c-.428-.2-.625-.425-.577-.527.11-.228,1.1.1,2.244-.12C460.51,331.823,461.4,331.253,461.562,331.453Z" transform="translate(-457.107 -331.411)"/></g><g transform="translate(29.418 15.931)"><path class="j" d="M480.727,332.391c.035.105-.195.31-.658.457a3.111,3.111,0,0,1-1.883-.069,3.664,3.664,0,0,1-1.541-1.03c-.307-.355-.419-.634-.337-.715.182-.189,1.025.533,2.16.93S480.645,332.149,480.727,332.391Z" transform="translate(-476.282 -331.004)"/></g></g><g transform="translate(98.826 152.118)"><g transform="translate(79.212)"><path class="f" d="M419.283,409.406,424.138,407l4.734,2.635-.788-5.36,3.969-3.688-5.342-.907-2.281-4.914-2.513,4.8-5.379.651,3.789,3.873Z" transform="translate(-416.538 -394.765)"/></g><g transform="translate(59.409)"><path class="p" d="M394.8,409.406,399.657,407l4.734,2.635-.788-5.36,3.969-3.688-5.342-.907-2.281-4.914-2.513,4.8-5.379.651,3.789,3.873Z" transform="translate(-392.057 -394.765)"/></g><g transform="translate(39.606)"><path class="p" d="M370.323,409.406,375.177,407l4.734,2.635-.788-5.36,3.969-3.688-5.342-.907-2.281-4.914-2.513,4.8-5.379.651,3.789,3.873Z" transform="translate(-367.577 -394.765)"/></g><g transform="translate(19.803)"><path class="p" d="M345.843,409.406,350.7,407l4.734,2.635-.788-5.36,3.969-3.688-5.342-.907-2.281-4.914-2.513,4.8-5.379.651,3.789,3.873Z" transform="translate(-343.097 -394.765)"/></g><path class="p" d="M321.362,409.406,326.217,407l4.734,2.635-.789-5.36,3.969-3.688-5.342-.907-2.281-4.914-2.513,4.8-5.379.651,3.789,3.873Z" transform="translate(-318.617 -394.765)"/></g><g transform="translate(96.734 47.346)"><path class="j" d="M413.071,265.463c0,.119-21.725.215-48.518.215s-48.522-.1-48.522-.215,21.72-.216,48.522-.216S413.071,265.344,413.071,265.463Z" transform="translate(-316.03 -265.247)"/></g><g transform="translate(121.99 41.518)"><path class="j" d="M395.182,258.258c0,.119-10.731.215-23.965.215s-23.966-.1-23.966-.215,10.728-.216,23.966-.216S395.182,258.139,395.182,258.258Z" transform="translate(-347.251 -258.042)"/></g><g transform="translate(114.352 69.034)"><g transform="translate(0.308)"><g transform="translate(0)"><circle class="m" cx="27.603" cy="27.603" r="27.603" transform="matrix(0.307, -0.952, 0.952, 0.307, 0, 52.546)"/><g transform="translate(23.532 27.778)"><path class="j" d="M368.961,326.4c1.046-.086,1.995,1.068,2.12,2.578s-.623,2.8-1.669,2.89-2-1.069-2.119-2.578S367.915,326.487,368.961,326.4Z" transform="translate(-367.279 -326.396)"/></g><g transform="translate(40.748 27.419)"><path class="j" d="M390.576,325.955c-1.048-.043-1.949,1.149-2.011,2.663s.738,2.775,1.787,2.818,1.95-1.149,2.011-2.663S391.625,326,390.576,325.955Z" transform="translate(-388.562 -325.954)"/></g><g transform="translate(22.787 36.469)"><path class="j" d="M389.344,337.151c.043.042-.181.327-.626.81a15.769,15.769,0,0,1-2.069,1.863,14.744,14.744,0,0,1-3.651,2,12.934,12.934,0,0,1-5.06.793,14.928,14.928,0,0,1-4.977-1.147,21.456,21.456,0,0,1-3.666-1.92,11.941,11.941,0,0,1-2.933-2.4,26.543,26.543,0,0,1,3.249,1.877,26.027,26.027,0,0,0,3.635,1.7,15.392,15.392,0,0,0,4.732,1.026,13.033,13.033,0,0,0,4.754-.68,16.253,16.253,0,0,0,3.567-1.751c.941-.646,1.7-1.192,2.191-1.611C389,337.313,389.3,337.109,389.344,337.151Z" transform="translate(-366.359 -337.141)"/></g><g transform="translate(20.593 21.05)"><path class="j" d="M369.514,318.6c-.048.243-1.369.155-2.936.411-1.572.235-2.8.722-2.922.5-.125-.191,1.042-1.089,2.789-1.356S369.575,318.382,369.514,318.6Z" transform="translate(-363.647 -318.079)"/></g><g transform="translate(42.861 20.773)"><path class="j" d="M397,319.826c-.152.2-1.322-.5-2.886-.97-1.56-.489-2.919-.568-2.935-.816-.032-.226,1.45-.548,3.188-.008S397.15,319.659,397,319.826Z" transform="translate(-391.174 -317.737)"/></g></g><g transform="translate(20.501 34.494)"><path class="j" d="M366.271,334.7c.108-.019.283.266.311.788a3.25,3.25,0,0,1-2.2,3.1c-.5.146-.829.074-.846-.034-.04-.239,1.018-.595,1.746-1.661C366.046,335.857,366.033,334.74,366.271,334.7Z" transform="translate(-363.533 -334.699)"/></g><g transform="translate(44.935 34.79)"><path class="j" d="M396.908,337.307c.021.109-.205.276-.637.313a2.5,2.5,0,0,1-2.5-1.853c-.089-.424,0-.689.115-.7.241-.019.514.8,1.325,1.371C396,337.044,396.857,337.07,396.908,337.307Z" transform="translate(-393.738 -335.065)"/></g></g><g transform="translate(0 0.028)"><path class="m" d="M406.606,326.559s-.024-.189-.05-.555l-.1-1.628q-.033-.538-.071-1.2c-.046-.439-.14-.915-.217-1.433s-.171-1.074-.265-1.669a18.419,18.419,0,0,0-.448-1.869,32.691,32.691,0,0,0-3.8-9.1,34.081,34.081,0,0,0-8.685-9.686l-1.476-1.1c-.519-.34-1.065-.651-1.6-.984-.551-.314-1.073-.695-1.664-.963l-1.772-.849-.9-.427-.947-.345-1.92-.7c-.652-.215-1.335-.354-2.01-.538a17.307,17.307,0,0,0-2.064-.468,31.737,31.737,0,0,0-4.312-.5c-.735-.026-1.476-.1-2.223-.086l-2.257.116c-.378.027-.76.024-1.139.074l-1.137.175c-.759.125-1.531.214-2.293.372a36.065,36.065,0,0,0-4.546,1.335,35.528,35.528,0,0,0-4.446,1.954c-.72.391-1.41.845-2.123,1.268-.349.224-.721.414-1.053.666l-1,.751a38.443,38.443,0,0,0-3.866,3.287l-1.732,1.907-.436.48-.392.518-.78,1.044-.784,1.048-.687,1.121-.685,1.129-.344.565-.291.6-1.157,2.4q-.461,1.257-.925,2.524a33.774,33.774,0,0,0,0,21.506q.463,1.268.925,2.525.58,1.207,1.157,2.4l.291.6.344.566.685,1.128.687,1.122.784,1.048.78,1.045.391.518.436.48,1.733,1.908a38.294,38.294,0,0,0,3.867,3.288l1,.751c.333.252.705.443,1.054.666.713.423,1.4.878,2.123,1.268a35.712,35.712,0,0,0,4.447,1.954,36.122,36.122,0,0,0,4.546,1.334c.764.158,1.535.247,2.294.373l1.137.175c.379.05.761.048,1.14.074l2.257.116c.747.011,1.488-.06,2.223-.086a31.635,31.635,0,0,0,4.313-.5,17.534,17.534,0,0,0,2.064-.468c.675-.184,1.358-.323,2.01-.539l1.92-.7.947-.345.9-.428,1.772-.849c.591-.269,1.113-.65,1.664-.963.54-.332,1.086-.644,1.6-.984l1.475-1.1a34.066,34.066,0,0,0,8.685-9.686,32.7,32.7,0,0,0,3.8-9.1,18.693,18.693,0,0,0,.447-1.869q.141-.892.265-1.669c.077-.518.171-.993.217-1.432q.039-.66.071-1.2c.044-.7.079-1.246.1-1.627s.05-.555.05-.555,0,.188-.006.556-.034.925-.061,1.632q-.023.541-.05,1.2c-.04.441-.127.919-.2,1.439s-.159,1.081-.246,1.679a18.666,18.666,0,0,1-.43,1.882,32.531,32.531,0,0,1-3.752,9.18,34.19,34.19,0,0,1-8.707,9.805l-1.485,1.116c-.522.345-1.072.661-1.615,1-.555.319-1.082.7-1.677.977l-1.786.864-.908.434-.955.352-1.938.712c-.658.22-1.347.362-2.029.55a17.665,17.665,0,0,1-2.085.478,32.113,32.113,0,0,1-4.358.516c-.743.027-1.492.1-2.247.091l-2.281-.112c-.383-.026-.769-.023-1.153-.073l-1.15-.174c-.768-.125-1.548-.214-2.321-.373a36.307,36.307,0,0,1-4.6-1.341,35.814,35.814,0,0,1-4.5-1.971c-.729-.394-1.429-.853-2.15-1.28-.353-.226-.73-.418-1.067-.673l-1.017-.759a38.615,38.615,0,0,1-3.917-3.323q-.875-.96-1.756-1.93l-.442-.485-.4-.524-.791-1.056-.794-1.061-.7-1.135-.695-1.143-.348-.574-.3-.6L340.527,340q-.467-1.274-.938-2.556a34.161,34.161,0,0,1,0-21.777l.938-2.555,1.173-2.433.3-.6.349-.573.694-1.142.7-1.135.794-1.061.79-1.056.4-.524.442-.485,1.755-1.929a38.7,38.7,0,0,1,3.917-3.322l1.016-.759c.336-.254.714-.447,1.067-.672.722-.427,1.421-.887,2.15-1.28a35.8,35.8,0,0,1,4.5-1.971,36.458,36.458,0,0,1,4.6-1.341c.773-.159,1.553-.247,2.321-.372l1.15-.175c.383-.049.769-.046,1.152-.072l2.282-.112c.755-.011,1.5.064,2.246.091a31.844,31.844,0,0,1,4.357.515,17.727,17.727,0,0,1,2.086.477c.682.188,1.37.331,2.029.55l1.937.713.955.351.908.434,1.786.864c.6.273,1.122.659,1.677.977.544.337,1.094.654,1.615,1l1.485,1.115a34.194,34.194,0,0,1,8.708,9.805,32.507,32.507,0,0,1,3.752,9.18,18.532,18.532,0,0,1,.431,1.882q.131.9.246,1.679c.07.52.158,1,.2,1.44q.027.663.05,1.2c.026.707.047,1.25.061,1.632C406.611,326.371,406.606,326.559,406.606,326.559Z" transform="translate(-337.809 -292.093)"/></g></g><rect class="f" width="250.228" height="12.485" transform="translate(20.499 6.584)"/><path class="k" d="M230.973,221.749a1.69,1.69,0,1,1-1.691-1.691A1.691,1.691,0,0,1,230.973,221.749Z" transform="translate(-202.399 -209.267)"/><path class="k" d="M237.916,221.749a1.69,1.69,0,1,1-1.691-1.691A1.691,1.691,0,0,1,237.916,221.749Z" transform="translate(-203.726 -209.267)"/><path class="k" d="M244.859,221.749a1.69,1.69,0,1,1-1.691-1.691A1.69,1.69,0,0,1,244.859,221.749Z" transform="translate(-205.052 -209.267)"/><g transform="translate(49.22 57.191)"><path class="f" d="M451.232,277.632c0,.119-43.418.216-96.965.216-53.564,0-96.974-.1-96.974-.216s43.409-.215,96.974-.215C407.814,277.417,451.232,277.513,451.232,277.632Z" transform="translate(-257.294 -277.417)"/></g><g transform="translate(49.22 61.998)"><path class="f" d="M451.232,283.575c0,.119-43.418.215-96.965.215-53.564,0-96.974-.1-96.974-.215s43.409-.216,96.974-.216C407.814,283.359,451.232,283.456,451.232,283.575Z" transform="translate(-257.294 -283.359)"/></g></g></g><g transform="translate(34 9)"><g class="q"><rect class="r" width="19.49" height="14.437" transform="translate(421.805 205.19) rotate(-31.727)"/><path class="r" d="M421.8,205.191h0a24.423,24.423,0,0,1,16.578-10.25h0Z"/><rect class="r" width="14.437" height="19.49" transform="matrix(0.526, -0.851, 0.851, 0.526, 555.711, 207.221)"/><path class="r" d="M579.881,205.191h0a24.425,24.425,0,0,0-16.578-10.25h0Z"/><rect class="r" width="30.498" height="9.971" transform="translate(485.594 184.097)"/><path class="r" d="M521.6,163.882V184.1H480.086V163.882A58.116,58.116,0,0,1,521.6,163.882Z"/><line class="s" y1="20.212" transform="translate(482.436 163.885)"/><line class="s" y1="20.212" transform="translate(485.75 163.885)"/><line class="s" y1="20.212" transform="translate(489.064 163.885)"/><line class="s" y1="20.212" transform="translate(492.378 163.885)"/><line class="s" y1="20.212" transform="translate(495.691 163.885)"/><line class="s" y1="20.212" transform="translate(499.005 163.885)"/><line class="s" y1="20.212" transform="translate(502.319 163.885)"/><line class="s" y1="20.212" transform="translate(505.633 163.885)"/><line class="s" y1="20.212" transform="translate(508.947 163.885)"/><line class="s" y1="20.212" transform="translate(512.261 163.885)"/><line class="s" y1="20.212" transform="translate(515.575 163.885)"/><line class="s" y1="20.212" transform="translate(518.889 163.885)"/><path class="r" d="M521.6,163.882H480.086A58.116,58.116,0,0,1,521.6,163.882Z"/><circle class="r" cx="120.188" cy="120.188" r="120.188" transform="translate(330.871 310.647) rotate(-45)"/><circle class="t" cx="108.278" cy="108.278" r="108.278" transform="translate(347.715 310.647) rotate(-45)"/><circle class="r" cx="104.488" cy="104.488" r="104.488" transform="translate(396.355 206.159)"/><line class="u" x1="10.286" transform="translate(588.548 310.647)"/><line class="u" y1="10.286" transform="translate(500.843 398.352)"/><line class="u" x2="10.286" transform="translate(402.852 310.647)"/><line class="u" y2="10.286" transform="translate(500.843 212.655)"/><line class="v" x1="8.908" y1="5.143" transform="translate(576.796 354.502)"/><line class="v" y1="8.908" x2="5.144" transform="translate(451.844 386.6)"/><line class="v" x2="8.908" y2="5.144" transform="translate(415.982 261.648)"/><line class="v" x1="5.143" y2="8.908" transform="translate(544.698 225.786)"/><line class="v" x1="5.141" y1="8.909" transform="translate(544.681 386.609)"/><line class="v" y1="5.141" x2="8.909" transform="translate(415.971 354.485)"/><line class="v" x2="5.142" y2="8.909" transform="translate(451.863 225.775)"/><line class="v" x1="8.909" y2="5.142" transform="translate(576.806 261.667)"/><path class="r" d="M526.342,348.876a3.244,3.244,0,0,1-2.628-1.335l-26.521-36.387,26.1-70.7a3.249,3.249,0,0,1,6.1,2.25L504.493,310.14l24.472,33.574a3.248,3.248,0,0,1-2.623,5.162Z"/><circle class="r" cx="8.121" cy="8.121" r="8.121" transform="translate(492.722 302.526)"/></g><rect class="w" width="19.49" height="14.437" transform="translate(416.598 199.983) rotate(-31.727)"/><path class="w" d="M416.6,199.983h0a24.422,24.422,0,0,1,16.577-10.249h0Z"/><rect class="w" width="14.437" height="19.49" transform="matrix(0.526, -0.851, 0.851, 0.526, 550.503, 202.014)"/><path class="w" d="M574.673,199.983h0a24.422,24.422,0,0,0-16.578-10.249h0Z"/><rect class="w" width="30.498" height="9.971" transform="translate(480.386 178.89)"/><path class="x" d="M516.392,158.674V178.89H474.879V158.674A58.114,58.114,0,0,1,516.392,158.674Z"/><line class="y" y1="20.212" transform="translate(477.228 158.678)"/><line class="y" y1="20.212" transform="translate(480.542 158.678)"/><line class="y" y1="20.212" transform="translate(483.856 158.678)"/><line class="y" y1="20.212" transform="translate(487.17 158.678)"/><line class="y" y1="20.212" transform="translate(490.484 158.678)"/><line class="y" y1="20.212" transform="translate(493.798 158.678)"/><line class="y" y1="20.212" transform="translate(497.112 158.678)"/><line class="y" y1="20.212" transform="translate(500.426 158.678)"/><line class="y" y1="20.212" transform="translate(503.74 158.678)"/><line class="y" y1="20.212" transform="translate(507.054 158.678)"/><line class="y" y1="20.212" transform="translate(510.368 158.678)"/><line class="y" y1="20.212" transform="translate(513.682 158.678)"/><path class="w" d="M516.392,158.674H474.879A58.114,58.114,0,0,1,516.392,158.674Z"/><circle class="x" cx="120.188" cy="120.188" r="120.188" transform="translate(325.663 305.439) rotate(-45)"/><circle class="z" cx="108.278" cy="108.278" r="108.278" transform="translate(342.507 305.439) rotate(-45)"/><circle class="k" cx="104.488" cy="104.488" r="104.488" transform="translate(391.147 200.951)"/><line class="aa" x1="10.286" transform="translate(583.34 305.439)"/><line class="aa" y1="10.286" transform="translate(495.635 393.144)"/><line class="aa" x2="10.286" transform="translate(397.644 305.439)"/><line class="aa" y2="10.286" transform="translate(495.635 207.448)"/><g class="ab"><line class="ac" x1="8.908" y1="5.143" transform="translate(571.588 349.295)"/><line class="ac" y1="8.908" x2="5.144" transform="translate(446.636 381.392)"/><line class="ac" x2="8.908" y2="5.144" transform="translate(410.774 256.44)"/><line class="ac" x1="5.143" y2="8.908" transform="translate(539.491 220.578)"/><line class="ac" x1="5.141" y1="8.909" transform="translate(539.474 381.402)"/><line class="ac" y1="5.141" x2="8.909" transform="translate(410.763 349.278)"/><line class="ac" x2="5.142" y2="8.909" transform="translate(446.655 220.567)"/><line class="ac" x1="8.909" y2="5.142" transform="translate(571.598 256.459)"/></g><path class="x" d="M521.134,343.668a3.243,3.243,0,0,1-2.628-1.335l-26.52-36.386,26.1-70.7a3.249,3.249,0,1,1,6.1,2.25l-24.893,67.438,24.471,33.575a3.247,3.247,0,0,1-2.623,5.161Z"/><circle class="ad" cx="8.121" cy="8.121" r="8.121" transform="translate(487.515 297.318)"/></g><g transform="translate(551.558 365.124)"><g transform="translate(-380)"><g transform="translate(11.411)"><path class="p" d="M618.623,403.713c-2.019,2.885-5.944,1.929-7.764.169s-2.589-4.312-3.289-6.746c-1.6-5.559-3.213-11.391-2.023-17.053a9.477,9.477,0,0,1,2.178-4.637,4.951,4.951,0,0,1,4.691-1.56c1.979.523,3.209,2.461,4.1,4.305a40.648,40.648,0,0,1,4.018,17.445c.009,2.809-.322,5.757-1.907,8.076" transform="translate(-605.136 -373.758)"/></g><g class="ae" transform="translate(11.411)"><path d="M618.623,403.713c-2.019,2.885-5.944,1.929-7.764.169s-2.589-4.312-3.289-6.746c-1.6-5.559-3.213-11.391-2.023-17.053a9.477,9.477,0,0,1,2.178-4.637,4.951,4.951,0,0,1,4.691-1.56c1.979.523,3.209,2.461,4.1,4.305a40.648,40.648,0,0,1,4.018,17.445c.009,2.809-.322,5.757-1.907,8.076" transform="translate(-605.136 -373.758)"/></g><g transform="translate(0 42.937)"><path class="p" d="M608.362,428.461a17.506,17.506,0,0,0-10.858-1.319,9.025,9.025,0,0,0-5.364,2.394c-1.34,1.48-1.594,4.083-.055,5.355a5.14,5.14,0,0,0,3.382.857c2.87-.033,6.055-.539,8.348,1.188,1.308.985,2.178,2.623,3.743,3.108a3.7,3.7,0,0,0,4.069-1.81,6.323,6.323,0,0,0,.46-4.664A7.122,7.122,0,0,0,608.362,428.461Z" transform="translate(-591.029 -426.836)"/></g><g transform="translate(28.314 9.281)"><path class="p" d="M628.162,410.044a10.5,10.5,0,0,1-1.633-9.659,18.61,18.61,0,0,1,5.721-8.3,30.8,30.8,0,0,1,10.243-6.044,10.915,10.915,0,0,1,4.607-.782,4.832,4.832,0,0,1,3.866,2.339c1.078,2.056.045,4.55-1.073,6.585a77.957,77.957,0,0,1-6.728,10.245c-2.017,2.6-4.326,5.164-7.4,6.339s-6.266,1.037-7.9-1.095" transform="translate(-626.031 -385.231)"/></g><g transform="translate(9.963 46.942)"><path class="af" d="M618.418,458.31a6.34,6.34,0,0,1-.182-1.31c-.093-.955-.209-2.152-.349-3.577a51.864,51.864,0,0,0-.8-5.247,40.573,40.573,0,0,0-1.907-6.192,22.85,22.85,0,0,0-3.161-5.6,11.819,11.819,0,0,0-4-3.323,11.176,11.176,0,0,0-3.367-1.048,6.367,6.367,0,0,1-1.3-.188,6.139,6.139,0,0,1,1.328-.021,10.188,10.188,0,0,1,3.511.914,11.774,11.774,0,0,1,4.217,3.352,22.309,22.309,0,0,1,3.278,5.715,37.864,37.864,0,0,1,1.893,6.294,44.338,44.338,0,0,1,.7,5.313c.114,1.519.157,2.749.178,3.6A6.109,6.109,0,0,1,618.418,458.31Z" transform="translate(-603.345 -431.787)"/></g><g transform="translate(18.089 11.589)"><path class="af" d="M620.091,447.208a2.573,2.573,0,0,1-.036-.608c0-.457,0-1.033,0-1.739,0-1.509,0-3.694-.078-6.391-.133-5.394-.6-12.84-1.495-21.024s-2.1-15.551-3.193-20.834c-.258-1.324-.518-2.517-.763-3.56s-.432-1.947-.625-2.677l-.406-1.691a2.6,2.6,0,0,1-.107-.6,2.537,2.537,0,0,1,.212.57c.133.438.3.989.5,1.666.224.723.453,1.619.715,2.661s.56,2.229.843,3.55a197.592,197.592,0,0,1,3.356,20.855c.9,8.2,1.3,15.668,1.34,21.076.032,2.7-.025,4.892-.095,6.4-.043.706-.078,1.282-.106,1.738A2.572,2.572,0,0,1,620.091,447.208Z" transform="translate(-613.391 -388.084)"/></g><g transform="translate(24.729 15.993)"><path class="af" d="M621.623,433.846a11.638,11.638,0,0,1,.013-1.817c.067-1.167.227-2.855.557-4.922a64.691,64.691,0,0,1,1.6-7.171,63.608,63.608,0,0,1,3-8.486,45.21,45.21,0,0,1,8.807-13.712,22.423,22.423,0,0,1,2.071-1.925c.319-.269.6-.537.886-.749l.8-.554a11.519,11.519,0,0,1,1.53-.979A53.922,53.922,0,0,0,635.875,398a47.643,47.643,0,0,0-8.587,13.663,67.753,67.753,0,0,0-3.016,8.407c-.786,2.635-1.309,5.058-1.7,7.1-.374,2.046-.592,3.716-.723,4.873A11.688,11.688,0,0,1,621.623,433.846Z" transform="translate(-621.599 -393.529)"/></g></g><g transform="translate(-257.558 -364.124)"><path class="ag" d="M371.51,400.379s15.95-.865,15.969-4.106c.014-2.52-9.743-.387-9.743-.387s10.672-3.1,15.606-5.631a8.658,8.658,0,0,0,2.945-2.108,3.118,3.118,0,0,0,.473-3.4c-.83-1.423-2.823-1.538-4.459-1.341-6.569.794-11.187,4.307-17.1,7.276a54.171,54.171,0,0,0,11.788-8.179c3.317-2.964,7.178-5.744,9.389-9.707,1.385-2.483,1.935-6.151-.518-8.193-2.379-1.981-5.788-1.055-8.4-.138a34.274,34.274,0,0,0-17.209,13.6,59.021,59.021,0,0,0,2.426-8.952c.231-1.226.316-2.737-.7-3.463-1.314-.942-3.068.318-4.089,1.57a30.884,30.884,0,0,0-5.53,10.284c.805-8.373,1.6-16.912-.219-25.123a13.254,13.254,0,0,0-2.161-5.292,5.742,5.742,0,0,0-4.956-2.415,7.534,7.534,0,0,0-4.514,2.839,24.969,24.969,0,0,0-.784,32.36,34.332,34.332,0,0,0-6.524-5.341c-.536-.337-1.321-.627-1.724-.139a1.274,1.274,0,0,0-.174.939c.367,3.981,3.037,7.32,5.593,10.394a25.835,25.835,0,0,0-21.278-8.8,3.073,3.073,0,0,0-2.537,1.117,2.657,2.657,0,0,0-.236,1.626c.424,3.993,3.947,6.889,7.411,8.919,2.914,1.709,5.982,3.137,9.045,4.562a24.847,24.847,0,0,0-5.292-.186,1.455,1.455,0,0,0-1.1.412c-.464.605.19,1.426.808,1.873a23.523,23.523,0,0,0,15.444,4.34"/><path class="ah" d="M389.622,370.6c.2-.141.389.171.2.314A89.921,89.921,0,0,0,375.9,383.874a107.652,107.652,0,0,0-10.8,15.648.179.179,0,0,1-.316-.168c5.432-11.391,14.678-21.407,24.833-28.752Zm-22.953,4.114a60.526,60.526,0,0,0-4.078,24.909.158.158,0,0,0,.316-.013c.13-8.088,1.337-17.132,4.185-24.736.09-.24-.33-.4-.423-.16Zm-10.1-16.495a115.686,115.686,0,0,0,3.407,41.611c.061.222.377.11.334-.106a183.409,183.409,0,0,1-3.235-21.025,175.4,175.4,0,0,1-.263-20.457c0-.136-.229-.161-.243-.023ZM344.179,378.7c4.117,5.85,8.679,16.67,14.086,21.387a.224.224,0,0,0,.3-.329c-4.886-5.375-9.676-15.449-14.059-21.27-.15-.2-.478,0-.331.212Zm44.371,9.065c-8.166,3.683-16.586,8.016-23.5,13.773-.215.178-.007.543.241.378,7.619-5.059,14.992-10.038,23.371-13.817.2-.092.1-.427-.107-.334Zm-50.779-1.01c5.946,3.552,12.3,11.135,18.787,13.611.2.078.373-.208.165-.31-6.282-3.07-12.7-10.145-18.781-13.623-.2-.117-.372.2-.171.322Z"/><path class="af" d="M373.964,437.416H351.388l-6.111-37.987h34.8Z"/><path class="ai" d="M373.942,437.416H367.1l6.134-37.987h6.837Z"/></g></g><g transform="translate(289.606 183)"><path class="aj" d="M362.412,107.744h48.572a4.955,4.955,0,0,0-.475-1.7,54.674,54.674,0,0,0-6.849-8.72c-5.037-1.542-7.615-1.877-15.192-3.107l-8.554-.552S369.055,96.19,365.4,98.8A12.469,12.469,0,0,0,362.412,107.744Z" transform="translate(-362.151 -60.907)"/><path class="aj" d="M362.4,107.744h32.471a5.409,5.409,0,0,0-.475-1.7,7.39,7.39,0,0,0-3.851-.031c-1.189.316-1.981.523-1.981.523H367.444C363.324,106.54,362.4,107.744,362.4,107.744Z" transform="translate(-346.043 -60.907)"/><path class="ak" d="M388.143,85.728A13.371,13.371,0,0,1,388,81.99a8.505,8.505,0,0,1,1.7-3.315,9.058,9.058,0,0,1,1.8.448c-.031.067,0,2.531,0,2.531s-.614,3.539-.793,3.9a16,16,0,0,1-1,1.814,5.031,5.031,0,0,1-.832-.269Z" transform="translate(-368.171 -60.907)"/><path class="ak" d="M388.952,98.5a2.71,2.71,0,0,0,2.786-2.082,10.794,10.794,0,0,1,.677-1.719c.364-.807.794-1.692,1.067-2.422l-2.851-2.083-6.08-4.465s-.755,5.7-2.213,7.941C382.338,93.669,381.856,98.1,388.952,98.5Z" transform="translate(-364.575 -60.907)"/><path class="al" d="M382.331,89.165c.169.273,2.682,4.062,4.856,5.533.364-.807.794-1.692,1.067-2.422L385.4,90.193Z" transform="translate(-359.347 -60.907)"/><path class="ak" d="M368.817,83.1a17.432,17.432,0,0,0-.075,3.372,2.566,2.566,0,0,0,.06.365,2.788,2.788,0,0,0,.08.366c.964,3.814,12.749,8.187,13.106,7.958,6.585-4.234,8.868-19.905,8.181-20.946-.755-1.144-10.09-2.227-10.284-2.244s-9.165.63-9.165.63A96.652,96.652,0,0,0,368.817,83.1Z" transform="translate(-347.737 -60.907)"/><path class="ad" d="M391.593,70.526s-.29,6.844-11.534,4.106c-3.086-.751-5.809-1.453-7.339-.627-2.3,7.231-2.373,10.7-3.187,10.415-1.018-.356,1.741-6.362-1.776-5.714-2.69.5-2.924,7.022-2.924,7.022s-.229.532-.323-.986c-.057-.907-.681-15.579,1.545-18.654a4.085,4.085,0,0,1,5.407-1.218s-.189-7.423,10.451-1.95c6.142,3.16,9.114,1.011,9.1,1.2A13.245,13.245,0,0,1,391.593,70.526Z" transform="translate(-344.862 -60.907)"/><path class="ak" d="M377.025,156.916a11.089,11.089,0,0,0,1.37,1.361,3.769,3.769,0,0,0,1.815.732,4.347,4.347,0,0,1,1.946,1.493c.264.322,0,.468-.556.351s-1.273-.556-1.507-.556-.234.285,0,.8a5.791,5.791,0,0,0,1.258,1.658c.381.292,1.435.878,1.552,1.229s.029.527-.527.351a14.869,14.869,0,0,1-1.873-.995,3.278,3.278,0,0,1-.708-.549,4.656,4.656,0,0,1-1.554.159,1.716,1.716,0,0,1-.729-.32,1.446,1.446,0,0,1-.229-.054c-.5-.2-.761-1.929-1.025-2.4a20.042,20.042,0,0,0-2.484-2.173Z" transform="translate(-345.484 -60.907)"/><path class="ak" d="M361.283,111.088a2.475,2.475,0,0,0,1.173-.856c.158-.158.38-.428.618-.713.221-.159.428-.3.6-.412a1.654,1.654,0,0,1,.919-.3h.048v-.016c2.3-.047,3.327-1.046,6.148-1.046,0,0-6.592-3.169-10.57-.919a13.409,13.409,0,0,1-1.68.174c-1.157.016-.824.6-.459.793a5.366,5.366,0,0,0,.776.142l-.063.064c-.174.19-.333.38-.476.554-.507.619-1.188,1.427-1.315,1.553-.174.206-.063.333-.063.333C356.693,110.819,359.236,112.1,361.283,111.088Z" transform="translate(-316.459 -60.907)"/><path class="am" d="M367.818,107.792a5.366,5.366,0,0,0,.776.142,11.039,11.039,0,0,1,1.363-1.109,13.409,13.409,0,0,1-1.68.174C367.12,107.015,367.453,107.6,367.818,107.792Z" transform="translate(-326.195 -60.907)"/><path class="ak" d="M401,140.34s7.2-1.071,7.737-2.453c.316-.818.222-7.393.087-12.573-.023-1.109-.055-2.163-.091-3.069-.043-1.991-.094-3.345-.094-3.345l-13.456,1.263C396.449,125.96,401,140.34,401,140.34Z" transform="translate(-392.903 -60.907)"/><path class="ak" d="M386.76,137.885a41.691,41.691,0,0,1,5.471,5c1.189,1.426,4.887,7.06,7.727,10.952a36.77,36.77,0,0,0,3.3,3.928l-1.777,1.763s-7.374-4.862-13.44-9.44-7.934-6.269-9.018-9.747S384.595,136.117,386.76,137.885Z" transform="translate(-370.92 -60.907)"/><path class="aj" d="M411.238,107.744l-.454,12.321s-7.257,2.542-13.795.986c0,0-4.122-9.754-.852-19.077" transform="translate(-394.876 -60.907)"/></g><g transform="translate(-144.46 -83.236)"><path class="ak" d="M775.084,511.264l2.925,5.067,3.734-.723-2.564-5.931"/><path class="ad" d="M781.738,515.238a4.4,4.4,0,0,1-2.642.705,4.44,4.44,0,0,0-1.245-.2c-.3.071-.807.909-1.023,1.15a9.709,9.709,0,0,1-1.977,1.32c-.52.244-2.5.934-2.86,1.7a.487.487,0,0,0,.452.686c.6-.005,2.241-.044,3.392-.056a7.63,7.63,0,0,0,2.118-.314,48.033,48.033,0,0,0,4.982-1.708A4.115,4.115,0,0,0,781.738,515.238Z"/><path class="an" d="M748.757,462c-14.34-9.215-12.57,4.549-12.57,4.549l40.45,47.869a4.912,4.912,0,0,0,3.926-2.5S764.949,472.5,748.757,462Z"/><path class="an" d="M753.486,420.944a16.791,16.791,0,0,1,1.251,8.035c-.383,4.061-1.312,7.5-1.652,11.206s-4.639,25.762-4.639,25.762-11.623,3.526-12.461.071c-1.7-6.993-4.1-44.832-4.1-44.832S743.071,423.528,753.486,420.944Z"/><path class="aj" d="M757.878,419.867s3.449,9.279-8.066,19.939c-2.994,2.771-5.72,3.823-9.39,7.225-2.728,2.529-19.474,19.107-19.474,19.107s-10.347-8.223-9.048-11.533c2.629-6.7,21.2-40.243,21.2-40.243S747.868,416,757.878,419.867Z"/><path class="ak" d="M697.975,511.318l-1.426,5.733,3.8.183,3.078-5.429"/><path class="aj" d="M724.022,458.516c-1-19.271-12.122-3.911-12.122-3.911l-14.66,58.757a6.884,6.884,0,0,0,4.594,1.84S725.018,477.787,724.022,458.516Z"/><path class="ak" d="M761.774,356.179C757,358.523,749,356.5,749,356.5l2.684-8.545,1.153-3.646s.819-.7,2.029-1.671c3.722-3,11.139-8.475,9.207-3.131C761.512,346.574,761.774,356.179,761.774,356.179Z"/><path class="al" d="M757.349,343.766a13.55,13.55,0,0,1-5.665,4.187l1.153-3.646s.819-.7,2.029-1.671l.4-.072Z"/><path class="ak" d="M747.124,327.832s-3.1,15.522-.648,18.118,13.935-2.183,13.935-2.183,8.973-8.386,8.338-15.963c-.536-6.394-13.963-11.739-19.734-5.132C747.947,323.895,747.574,325.737,747.124,327.832Z"/><path class="ad" d="M745.9,317.4s-2.528,7.982,3.454,10.867c3.968,1.915,8.5,2.34,8.5,4.3s.836.542,1.711.18c1.858-.769,2.779,1.8,1.634,4.211-.874,1.838-.767,4.725,2.018,5.421a76.967,76.967,0,0,0,4.722-6.927c1.251-2.227,4.482-10.071-.75-11.783a6.722,6.722,0,0,0-3.8-4.338c-5.011-2.3-9.713-1.615-13.306-1.462C748.427,317.946,746.627,314.495,745.9,317.4Z"/><path class="ak" d="M736,369.931c-1.875-.753-4.584-1.989-7.428-3.341-2.229-1.063-4.54-2.2-6.593-3.217-3.814-1.878-6.766-3.394-6.766-3.394s2.471-7.6,4.061-7.929c.941-.194,8.039,1.105,13.628,2.185,1.193.227,2.323.452,3.295.66,2.157.406,3.606.705,3.606.705Z"/><path class="ak" d="M715.212,359.975c-3.567-1.8-5.051-4.127-8.918-11.521-1.393-2.656-4.494-8.864-5.705-11.429l1.319-3.571c.729.448,10.877,10.256,12.2,11.8,2.122,2.473,5.161,6.788,5.161,6.788C720.8,354.716,718.779,361.785,715.212,359.975Z"/><path class="ao" d="M749.083,357.31c-5.828-1.938-18.956-4.294-18.956-4.294s-3.588,8.066-3.733,13.956c4.237,2.666,14.871,5.917,14.871,5.917"/><path class="ap" d="M764.582,392.91c-.156.338-.325.69-.494,1.028-.847,1.679-1.667,3.372-2.4,5.077-5.884,13.6-3.814,20.857-3.814,20.857-9.66,1.262-25.817-3.581-25.817-3.581s.04-1.38.014-2.46a264.212,264.212,0,0,1,.989-30.686c.117-1,.234-1.978.378-2.929.637-4.765,1.575-8.931,2.916-11.639C741.852,357.459,749,356.5,749,356.5a48.507,48.507,0,0,0,12.771-.312C773.3,362.8,770.285,380.932,764.582,392.91Z"/><path class="ak" d="M714.74,378.163s-.488-7.976.874-8.863c.806-.526,7.886-1.92,13.478-2.953,1.2-.228,2.334-.433,3.315-.6,2.146-.408,3.613-.66,3.613-.66l1.7,14.732C731.212,379.783,714.74,378.163,714.74,378.163Z"/><path class="ak" d="M715.616,369.3a45.748,45.748,0,0,0-6.611-4.736c-1.8-.952-8.691-3.641-13.513-5.8a40.292,40.292,0,0,1-4.968-2.648l-1.488,2.309s6.9,6.811,13.19,12.281,8.534,7.092,12.514,7.465S718.006,371.219,715.616,369.3Z"/><path class="ao" d="M754.128,379.826c-7.264,4.14-18.564,3.515-21.064,3.319.117-1,.234-1.978.378-2.929Z"/><path class="ap" d="M756,379.147c-9.033,3.721-23.39,1.739-23.39,1.739a53.029,53.029,0,0,1-1.556-15.124c3.749-1.25,15.075-3.072,15.075-3.072s11.513-1.45,13.2,6.348C761.076,377.086,756,379.147,756,379.147Z"/><path class="ak" d="M689.819,359.184a3.354,3.354,0,0,0-2.125-.99,3.144,3.144,0,0,1-2.622-1.488c-.11-.557,1.573-3.261,1.874-3.445s1.814.967,2.309,1.144.406,1.153,2.033,2.173"/><path class="ak" d="M689.974,355.559a3.914,3.914,0,0,0-.488-1.839c-.144-.293-.5-1.347-.683-1.35s-.42.231-.492.505a6.817,6.817,0,0,0,.028,1.277"/><path class="ao" d="M749,356.5l1.5-1.957a29.686,29.686,0,0,0,11.274.132l0,1.506-4.735.985A15.7,15.7,0,0,1,749,356.5Z"/><path class="aq" d="M750.5,354.541l.377,4.5s7.553-.291,11.76-2.324l-.853-2.577S757.657,355.257,750.5,354.541Z"/><path class="ad" d="M700.647,516.707a7.207,7.207,0,0,1-3.165.318s-.381-.832-1.007-.839-1.4.864-1.821,1.061-8.493,2.663-5.784,3.211c.1.116,9.573.146,11.653.151a.519.519,0,0,0,.511-.416A4.1,4.1,0,0,0,700.647,516.707Z"/><path class="ar" d="M747.077,362.013a8.737,8.737,0,0,1,6.787.226c4.117,1.9,6.874,5.5,5.456,11.315"/><path class="ar" d="M758.213,358.559a5.529,5.529,0,0,1-1.934,5.135"/><path class="ak" d="M695.736,331.411s-.094-3.658.774-4.635,2.523-1.085,2.74.217-3.124,3.362-3.124,3.362Z"/></g></g></svg>