<svg xmlns="http://www.w3.org/2000/svg" xmlns:xlink="http://www.w3.org/1999/xlink" width="417" height="387.928" viewBox="0 0 417 387.928"><defs><style>.a{fill:#e7eff1;opacity:0.6;}.a,.ad,.d,.e,.l,.m,.n{mix-blend-mode:multiply;}.a,.ad,.d,.e,.l,.m,.n,.u,.v{isolation:isolate;}.b{fill:#231e21;}.c{fill:#00a5d1;}.d,.f{fill:#219991;}.d,.m,.y{opacity:0.7;}.e{fill:#e1e1e1;}.ad,.e,.n,.x{opacity:0.5;}.g{fill:#16746e;}.h{fill:none;}.i{fill:#eeb58f;}.aa,.j,.x{fill:#fff;}.k,.m{fill:#f4d3af;}.l{fill:url(#a);}.n{fill:url(#b);}.o{fill:#d97441;}.p{fill:#1177a3;}.q{fill:#ffcdb4;}.r{fill:#843f1c;}.s{fill:#be541f;}.t,.u{fill:#707070;}.u{opacity:0.4;}.u,.v{mix-blend-mode:screen;}.v{fill:rgba(112,112,112,0.35);opacity:0.8;}.w,.y{fill:#d2dadc;}.z{fill:#ffc10e;}.aa{opacity:0.3;}.ab{fill:#263238;}.ac{opacity:0.13;}.ad{fill:url(#c);}</style><linearGradient id="a" x1="-32.696" y1="1.001" x2="-32.696" y2="-0.012" gradientUnits="objectBoundingBox"><stop offset="0" stop-color="#fff"/><stop offset="1" stop-color="#807b80"/></linearGradient><linearGradient id="b" x1="-61.085" y1="0.091" x2="-61.085" y2="1" gradientUnits="objectBoundingBox"><stop offset="0" stop-color="#00a5d1"/><stop offset="1" stop-color="#fff"/></linearGradient><linearGradient id="c" x1="0.5" y1="0.02" x2="0.5" y2="1.125" gradientUnits="objectBoundingBox"><stop offset="0" stop-color="#c366a1"/><stop offset="1" stop-color="#807b80"/></linearGradient></defs><g transform="translate(145 470)"><g transform="translate(-145 -470)"><path class="a" d="M487.628,256.374a160.344,160.344,0,0,1,7.694-79.17,45.876,45.876,0,0,0,2.943-18.47c-1.136-19.892-20.474-37.133-40.98-39.286-27.61-2.9-32.973,25.127-50.374,38.706-14.192,11.071-32.139,4.575-48.122,4.592-15.928.016-32.128,5.05-45.925,13.467-28.181,17.193-56.893,24.39-88.111,11.31-44.99-18.852-103.462-24.038-133.111,26.8-18.495,31.712-10.616,79.076,11.8,105.148,14.371,16.717,33.813,28.7,53.876,35.81,31.126,11.029,57.028,3.332,81.37,31.46C258.82,410,271.355,441.7,299.6,455.6c40.827,20.093,90.963-4.732,127.132-25.54,52.4-30.148,65.248-97.5,62.624-156.117A163.171,163.171,0,0,0,487.628,256.374Z" transform="translate(-81.333 -119.24)"/><path class="b" d="M1463.8,920.2a23.449,23.449,0,0,1-4.424,2.991c-10.156,5.171-17.6-2.84-21.686-9.395a34.1,34.1,0,0,1-4.416-11.033c-.963-4.608-1.64-8.933.334-15.119a60.211,60.211,0,0,1,2.987-7.734,12.021,12.021,0,0,1,6.173-5.88c.2-.083.386-.157.573-.227a10.023,10.023,0,0,1,5.528-.561c4.666.679,8.71,3.057,10.226,7.65.068.208.13.415.184.619a9.882,9.882,0,0,1,.264,1.365c.031.223.049.443.062.664a13.593,13.593,0,0,1-.3,3.545c-.031.153-.064.3-.1.456-.058.274-.122.547-.19.819-.012.047-.023.093-.035.14-.066.274-.136.549-.206.825a23.923,23.923,0,0,0-.951,5.509c-.076,3.752,2.129,7.516,4.051,10.554.089.14.175.278.258.415.027.043.054.087.078.13h0C1468.583,916.387,1463.8,920.2,1463.8,920.2Z" transform="translate(-1153.682 -717.596)"/><path class="c" d="M1314.347,927.256l-13.071-9.409-2.8-4.895a8.537,8.537,0,0,1-7.628,3.786l1.1,3.049a13.28,13.28,0,0,0,4.137,5.746l5.389,5.511,18.78,19.2,4.06-6.547,3.975-6.407C1325.3,932.407,1317.884,928.77,1314.347,927.256Z" transform="translate(-1041.383 -749.246)"/><path class="d" d="M1367.869,1007.92l-2.678,5.4-4.059,6.547-18.78-19.2,17.436,12.52C1364.07,1008.654,1367.869,1007.92,1367.869,1007.92Z" transform="translate(-1082.26 -818.866)"/><path class="c" d="M1429.72,1030.957s-2.255.356-5.218,5.537l-3.826,8s-4.171,7.508-.576,13.713l2.765,3.687a54.488,54.488,0,0,1,.139,6.962,50,50,0,0,1-.614,6.468c-.546,3.3-2.684,7.969,2.583,8.065a4.063,4.063,0,0,0,2.46-.772,13.662,13.662,0,0,0,5.109-7.359Z" transform="translate(-1142.813 -842.911)"/><ellipse class="e" cx="181.318" cy="7.996" rx="181.318" ry="7.996" transform="translate(29.772 371.936)"/><g transform="translate(225.5 278.613)"><path class="f" d="M1282.931,1499.056c2.049.768,2.945-.512,2.945-.512,2.815-1.914,5.134.329,5.653.9a2.193,2.193,0,0,1,.17.213l1.731,2.474c3.329,2.689,3.329-2.817,3.329-2.817,0-1.665-1.28-4.225-4.61-6.274s-2.817-3.97-2.817-3.97c.3-3.921,3.366-3.422,4.669-3.026a2.639,2.639,0,0,0,1.718-.061c3.033-1.167,1.494-5.164.949-6.365a5.979,5.979,0,0,1-.37-1.084,6.917,6.917,0,0,1,3.381-7.9,3.811,3.811,0,0,1,4.017,0,6.917,6.917,0,0,1,3.383,7.9,5.979,5.979,0,0,1-.37,1.084c-.544,1.2-2.084,5.2.949,6.365a2.64,2.64,0,0,0,1.718.061c1.3-.4,4.367-.895,4.669,3.026,0,0,.512,1.921-2.817,3.97s-4.61,4.61-4.61,6.274c0,0,0,5.506,3.329,2.817l1.732-2.474a2.157,2.157,0,0,1,.17-.213c.519-.57,2.839-2.813,5.653-.9,0,0,.9,1.281,2.945.512s6.275-.384,5.25,3.329c0,0-1.409,2.049-1.153,3.713s-.64,5.506-3.969,4.354-4.482,1.536-4.482,1.536a7.294,7.294,0,0,1-4.866,2.3h-1.921s-1.793,0-1.793,2.561a2.408,2.408,0,0,0,2.561,2.561h2.561a3.043,3.043,0,0,1,3.329,3.713s-.256,2.048-4.225,3.585c-3.108,1.2-7.15,5.444-2.306,7.427,1.272.521,2.839,1.866,2.782,3.347-.077,2.021-2.194,2.531-3.806,2.8-2.3.384-3.329,1.409-3.457,2.689v2.433a3.292,3.292,0,1,1-6.531,0v-2.433c-.128-1.28-1.153-2.3-3.457-2.689-1.612-.268-3.728-.778-3.806-2.8-.057-1.482,1.51-2.827,2.782-3.347,4.844-1.982.8-6.224-2.306-7.427-3.969-1.537-4.225-3.585-4.225-3.585a3.043,3.043,0,0,1,3.329-3.713h2.561a2.408,2.408,0,0,0,2.561-2.561c0-2.561-1.793-2.561-1.793-2.561h-1.921a7.293,7.293,0,0,1-4.866-2.3s-1.153-2.689-4.482-1.536-4.225-2.689-3.969-4.354-1.153-3.713-1.153-3.713C1276.656,1498.672,1280.882,1498.288,1282.931,1499.056Z" transform="translate(-1256.302 -1470.057)"/><path class="g" d="M1178.522,1641.148a4.991,4.991,0,0,0,1.819-1.263,1.925,1.925,0,0,0,.391-.645,6.171,6.171,0,0,1,2.8-2.352,5.8,5.8,0,0,1,2.075-.448,1.549,1.549,0,0,1,.212.014l1.139.16,1.154.178a3,3,0,0,0,1.84-.656,1.4,1.4,0,0,0,.416-1.147,3.173,3.173,0,0,0-.307-1.1,3.617,3.617,0,0,0-.27-.488,2.991,2.991,0,0,0-2.026-1.008,9.122,9.122,0,0,0-4.063.515,5.816,5.816,0,0,1-3.072.433c-.5-.133-.584-.426-.584-.426-1.3-1.846,1-3.763,2.111-4.489a3.925,3.925,0,0,0,1.186-1.214c.806-1.318.443-2.214-.248-2.756a4.41,4.41,0,0,0-2.157-.782,3.641,3.641,0,0,1-2.82-1.963,5.865,5.865,0,0,1-.4-2.554,16.333,16.333,0,0,1,.28-2.391,9.165,9.165,0,0,1,.226-1.074,11.054,11.054,0,0,1,.795-.769,8.005,8.005,0,0,1,2.136-1.291,5.211,5.211,0,0,1,2.933-.332,4.537,4.537,0,0,1,2.855,1.979,4.067,4.067,0,0,1,.436.848,7.654,7.654,0,0,0,1.329,2.34,2.344,2.344,0,0,0,3.068.494,3.116,3.116,0,0,0,1.25-1.151,5.423,5.423,0,0,1,1.851-1.936c.878-.477,2-.51,3.3.677a1.686,1.686,0,0,1,.593.912,5.1,5.1,0,0,1-.468,3.512,12.558,12.558,0,0,0-1.09,4.291,4.037,4.037,0,0,0,.556,2.536,5.751,5.751,0,0,0,.406.5,4.219,4.219,0,0,0,1,.844,1.563,1.563,0,0,0,1.3.193,2.457,2.457,0,0,0,1.289-1.51l.139-1.323.125-1.341a2,2,0,0,1,.037-.245,5.816,5.816,0,0,1,.889-2.088,4.053,4.053,0,0,1,3.21-1.78,1.878,1.878,0,0,0,.859,0,2.938,2.938,0,0,0,1.792-1.3,5.817,5.817,0,0,1,3.04-2.167c1.227-.31,2.451.1,3.065,1.917a8.949,8.949,0,0,0,.089,1.385,4.852,4.852,0,0,0,.867,2.311,4.855,4.855,0,0,1,1,3.018,2.558,2.558,0,0,1-2.39,2.5,3.826,3.826,0,0,0-2.9,1.895,3.022,3.022,0,0,0-.368,1.389,4.164,4.164,0,0,1-.178.445,7.85,7.85,0,0,1-.588,1.066,6.788,6.788,0,0,1-2.659,2.4l-1.705.834a1.975,1.975,0,0,0-.683.618,1.943,1.943,0,0,0-.045,1.984s.714,1.876,3.151.838l2.325-1s3.406-1.716,4.236,1.658a2.22,2.22,0,0,1-.213,1.194,7.8,7.8,0,0,1-2.654,3.079,9.017,9.017,0,0,0-3,3.9,1.754,1.754,0,0,0,.23,1.707,3.314,3.314,0,0,0,2.416.785,5.478,5.478,0,0,1,2.091.505,2.147,2.147,0,0,1,1.265,1.366c.34,1.616-1.6,2.5-3.107,3.068-2.151.819-2.97,1.8-2.884,2.77l.2.9.173.9a2.4,2.4,0,0,1-.209,1.206,4.075,4.075,0,0,1-2.457,2.091,4.423,4.423,0,0,1-3.048-1.067,2.181,2.181,0,0,1-.618-.983l-.163-.848-.187-.842c-.321-.861-1.466-1.345-3.739-1.076-1.585.182-3.7.341-4.106-.909a1.732,1.732,0,0,1,.521-1.52,6.341,6.341,0,0,1,1.553-1.342c2.1-1.293,2.012-2.423.94-3.123a7.888,7.888,0,0,0-4.594-.85,10.162,10.162,0,0,1-3.862-.174,1.514,1.514,0,0,1-.833-.476c-1.373-2.007,2.171-3.375,2.171-3.375l2.325-1c2.452-1.044,1.612-2.584,1.612-2.584a1.492,1.492,0,0,0-1.443-.986,2.259,2.259,0,0,0-.89.2l-1.705.834a9.479,9.479,0,0,1-3.407.889,10.007,10.007,0,0,1-1.1.026c-.263-.01-.416-.026-.416-.026a2.487,2.487,0,0,0-1.2-.16,5.748,5.748,0,0,0-3.13,1.461,3.816,3.816,0,0,1-3.168,1.053,1.7,1.7,0,0,1-1.355-1.09c-.091-.431-.594-.651-1.041-.782a4.309,4.309,0,0,0-.871-.144c-.916-.431-.511-1.281.306-2.133A11.016,11.016,0,0,1,1178.522,1641.148Z" transform="translate(-1174.639 -1583.691)"/><path class="h" d="M1331.107,1772.6h-21.524v-13.153a10.762,10.762,0,0,1,21.524,0Z" transform="translate(-1281.75 -1691.215)"/><g transform="translate(21.276 49.253)"><path class="i" d="M1383.381,1791.706a6.238,6.238,0,0,1,4.111-5.457c3.843-1.4,10.05.395,10.05.395s-2.192,4.252-5.782,6.211c-3.159,1.723-6.629,1.163-7.6-.133v19.006h-.782v-20.022Z" transform="translate(-1361.603 -1769.862)"/><path class="i" d="M1373.021,1718.475a10.021,10.021,0,0,1,6.6-8.767c6.174-2.247,16.146.634,16.146.634s-3.522,6.832-9.29,9.978c-5.074,2.768-10.649,1.868-12.205-.213v30.534h-1.256v-32.166Z" transform="translate(-1353.379 -1708.851)"/><path class="i" d="M1296.313,1758.213v12.76c-.086,0-.171-.006-.259-.006a5.042,5.042,0,0,0-.764.056v-11.48c-.749,1-2.652,1.67-4.935,1.575a11.447,11.447,0,0,1-5-1.4c-4.7-2.563-7.563-8.124-7.563-8.124s7.507-2.168,12.551-.708c.2.056.4.121.593.192A8.159,8.159,0,0,1,1296.313,1758.213Z" transform="translate(-1277.792 -1741.815)"/><g transform="translate(21.171 2.368)"><path class="j" d="M1380.435,1728.318s2.536-10.242,18.532-7.531C1398.967,1720.787,1386.774,1720.216,1380.435,1728.318Z" transform="translate(-1380.435 -1720.33)"/><path class="j" d="M1380.435,1740.56s2.535-7.078,13.667-4.056C1394.1,1736.5,1385.509,1735.259,1380.435,1740.56Z" transform="translate(-1380.435 -1732.572)"/></g><g transform="translate(3.634 10.847)"><path class="j" d="M1309.21,1767.389s-1.889-7.626-13.8-5.607C1295.413,1761.782,1304.491,1761.357,1309.21,1767.389Z" transform="translate(-1295.413 -1761.442)"/><path class="j" d="M1323.149,1776.5s-1.888-5.27-10.176-3.02C1312.973,1773.485,1319.371,1772.558,1323.149,1776.5Z" transform="translate(-1309.351 -1770.557)"/></g><g transform="translate(22.66 16.92)"><path class="j" d="M1387.656,1795.872s1.583-6.393,11.568-4.7C1399.224,1791.171,1391.613,1790.814,1387.656,1795.872Z" transform="translate(-1387.656 -1790.885)"/><path class="j" d="M1387.656,1803.513s1.583-4.418,8.531-2.532C1396.187,1800.981,1390.823,1800.2,1387.656,1803.513Z" transform="translate(-1387.656 -1798.527)"/></g></g><path class="b" d="M1293.8,1841.919a4.031,4.031,0,0,0-1.911-.477h-23.648a4.058,4.058,0,0,0-1.91.477c-2.727,1.459-9.991,6.314-6.616,15.272a10.857,10.857,0,0,0,2.471,3.839l3.05,3.05a5.72,5.72,0,0,0,4.044,1.675h21.568a5.72,5.72,0,0,0,4.044-1.675l3.05-3.05a10.765,10.765,0,0,0,2.472-3.839C1303.794,1848.233,1296.531,1843.378,1293.8,1841.919Z" transform="translate(-1241.475 -1764.842)"/></g><path class="k" d="M1656.875,1232.923a.4.4,0,0,1-.132.332.41.41,0,0,1-.343.1l-.433-.079a8.7,8.7,0,0,1-2.414,2.025.118.118,0,0,1-.156-.049c-.3-.562,1.54-2.318,1.54-2.318l-2.178-.376a.218.218,0,0,1-.173-.162.212.212,0,0,1,.082-.222,4.47,4.47,0,0,1,2.269-.274l-.362-3.286a.582.582,0,0,0-.211-.386l-2.576-2.074a.271.271,0,0,0-.269-.038.265.265,0,0,0-.17.211,11.853,11.853,0,0,0,.079,3.721.467.467,0,0,1-.869.239c-1.431-2.39-1.494-9.663-1.494-9.663l.036-.011c-2.617-3.658-9.865-13.748-12.926-18.01-.863-1.2-1.395-1.94-1.395-1.94l.943-6.174,5.566,2,4.33,9.9,5.895,13.475.044-.014,4.464,5.963a2.1,2.1,0,0,1,.419,1.123Z" transform="translate(-1314.375 -972.71)"/><g transform="translate(272.613 329.641)"><path class="k" d="M1465.418,1719.365c-.255,1.614-.841,5.56-1.559,10.427-.606,4.1-1.3,8.86-1.973,13.431-1.411,9.676-2.7,18.514-2.7,18.514l-9.832,6.237h-3.067l1.126-2.768s3.938-1.916,5.834-4.237a5.51,5.51,0,0,0,.923-1.653v-41.854Z" transform="translate(-1437.372 -1717.463)"/><path class="j" d="M1424.878,1932.127a15.54,15.54,0,0,1,2.443,8.389h-23.155a1.107,1.107,0,0,1-1.069-.839,1.125,1.125,0,0,1,.535-1.259,5.146,5.146,0,0,1,3.571-.359,2.332,2.332,0,0,0,1.5-.213l4.4-2.249.867,1.405Z" transform="translate(-1403.062 -1887.851)"/></g><path class="k" d="M1572.43,1705.875l-5.24,10.4-2.631,1.573-.452-2.954s2.4-3.664,2.834-6.629a5.491,5.491,0,0,0-.057-1.891l-15.631-26.245-1.494-2.507-5.815-9.761,8.427-10.5c.485,1.2,1.713,4.185,3.335,8.12,2.151,5.209,4.993,12.085,7.728,18.684C1568.094,1695.42,1572.43,1705.875,1572.43,1705.875Z" transform="translate(-1242.272 -1340.112)"/><path class="j" d="M1479.712,1290.673c-2.326,11.178,2.069,24.276,2.808,26.5.057.172,1.6,5.592,1.6,5.592,2.55,7.769-2.028,14.857-8.732,18.609-5.489,3.083-12.41,3.919-17.991,1.066-1.57-.8-1.18-10.451-1.295-12.146-.361-5.512-.728-11.024-1-16.541a255.4,255.4,0,0,1,.149-32.71c.355-4.48,6.2-50.008,4.612-50.368l18.071,6.113,8.193-1.272,5.535,10.365c3.8,8.99-2.074,21.434-2.074,21.434Z" transform="translate(-1171.395 -1001.439)"/><g transform="translate(313.847 365.765)"><path class="j" d="M1619.292,1892.6l-6.862,9.78-1.463-.759-2.626,4.186a2.3,2.3,0,0,1-1.058.9,1.2,1.2,0,0,1-.167-.023,5.136,5.136,0,0,0-3.567.358,1.12,1.12,0,0,0,.533,2.1h3.89l5.905-3.532,11.814-7.06A15.532,15.532,0,0,0,1619.292,1892.6Z" transform="translate(-1602.978 -1892.602)"/></g><path class="j" d="M1451.834,1021.23a62.388,62.388,0,0,0-5.3,21.907,34.918,34.918,0,0,0,2.255,13.881l2.321,6.13a11.26,11.26,0,0,1,.729,3.986v2.965s.518,6.177,24.252,0l-6.452-37.054-4.839-14.344Z" transform="translate(-1164.927 -833.184)"/><path class="c" d="M1531.506,1069.6a6.63,6.63,0,0,1-1.411,1.131,6.265,6.265,0,0,1-2.8.906c-10.421.806-10.366-2.958-15.316-12.543-5.11-9.905,3.5-40.377,3.5-40.377a38.952,38.952,0,0,1,8.064,2.588l2.953,15.8.275,1.487c-.605,4.61-4.84,15.441,2.763,22.814C1533.643,1065.376,1532.983,1068.013,1531.506,1069.6Z" transform="translate(-1215.617 -833.191)"/><path class="l" d="M1558.609,1102.419c.33-2.332,1.667-3.168-4.339-8.008s-5.341-14.015-5.341-14.015l-2.333-4.835c-4.84-9.51.165-15.351.165-15.351l6.827,9.825.275,1.486c-.606,4.61-4.84,15.441,2.763,22.814,4.1,3.979,3.444,6.617,1.967,8.2C1558.6,1102.5,1558.6,1102.459,1558.609,1102.419Z" transform="translate(-1242.705 -866.13)"/><path class="k" d="M1472.2,965.366s4.321,3.565,0,5.984a7.66,7.66,0,0,0,1.178,4.206,3.725,3.725,0,0,0,4.64,1.16c1.963-.948,5.812-3.332,7.143-7.893,0,0-3.283-2.592-3.629-5.7v-7.258l-9.374,9.4Z" transform="translate(-1185.297 -783.304)"/><path class="c" d="M1556.12,1031.27a10.183,10.183,0,0,0-.951.826c-4.718,4.553-4.739,11.468-1.58,17.214,4.828,8.783,14.641,20.521,15.005,21.8a5.929,5.929,0,0,1,6.507-4.171s-3.543-8.938-6.769-16.772S1562.13,1033.235,1556.12,1031.27Z" transform="translate(-1248.188 -843.159)"/><path class="m" d="M1480.556,966.412l-1.128-.306-7.266,7.285.041.107s4.321,3.564,0,5.984a9.361,9.361,0,0,0,.96,3.8,3.723,3.723,0,0,0,3.224,1.924c-.95-.01-1.605-1.839-1.676-2.583-.295-3.105,2.277-7.48,3.968-9.915A12.711,12.711,0,0,0,1480.556,966.412Z" transform="translate(-1185.297 -791.436)"/><path class="k" d="M1457.579,914.195a19.062,19.062,0,0,1-9.009,5.262c-9.039,1.5-5.724-15.166-2.2-19.938,0,0,2.369-4.345,8.414,1.411,0,0,4.351,4.173,3.934,8.014Z" transform="translate(-1161.951 -737.334)"/><path class="j" d="M1445.307,933.48c-.548,1.852-1.936,3.074-3.1,2.729s-1.662-2.125-1.113-3.977,1.936-3.074,3.1-2.729S1445.856,931.628,1445.307,933.48Z" transform="translate(-1160.459 -762.336)"/><path class="j" d="M1470.986,941.087c-.548,1.852-1.936,3.074-3.1,2.729s-1.662-2.125-1.114-3.977,1.936-3.074,3.1-2.729S1471.535,939.235,1470.986,941.087Z" transform="translate(-1180.842 -768.374)"/><path class="k" d="M1512.885,953.524a2.383,2.383,0,0,1,2.271-1.922c.724-.021,1.358.2,1.312,1.06,0,0,.325,3.7-4.231,4.154Z" transform="translate(-1217.106 -779.922)"/><path class="n" d="M1545.851,1294.671s5.873-12.445,2.074-21.434l-4.325-8.1c-.016.019-.032.039-.049.057a6.627,6.627,0,0,1-1.412,1.131,6.261,6.261,0,0,1-2.8.906,29.123,29.123,0,0,1-3.308.089c2.718,5.351,6.942,16.772,1.532,28.84-7.139,15.928-19.549,40.29-5.913,72.571,6.7-3.753,11.281-10.84,8.732-18.609,0,0-1.541-5.42-1.6-5.592-.739-2.229-5.134-15.326-2.807-26.5Z" transform="translate(-1227.663 -1028.791)"/><g transform="translate(309.288 284.104)"><path class="o" d="M1731.345,1519.582a.479.479,0,0,0,.268.054c.142-.013.361-.035.5-.053a11.946,11.946,0,0,0,8.751-6.246,9.008,9.008,0,0,0,.918-6.133c-.316-2.01-1.162-3.985-.893-6.049.2-1.515.959-2.9,1.2-4.408l.011-.066s-8.287,1.985-12.363,9.355a12.967,12.967,0,0,0-1.513,7.952C1728.507,1516.121,1729.3,1518.5,1731.345,1519.582Z" transform="translate(-1697.749 -1496.68)"/><path class="o" d="M1734.122,1753.119h1.054a16.093,16.093,0,0,1,.2-3.261,4.077,4.077,0,0,1,2.214-3.053,31.265,31.265,0,0,1,3.222-1.434c2.088-.737,1.841-3.869,3.929-5.4,2.115-1.553,2.254-2.614,1.986-3.238a.965.965,0,0,0-1.163-.542,14.45,14.45,0,0,0-9.642,9.044A18.334,18.334,0,0,0,1734.122,1753.119Z" transform="translate(-1702.508 -1686.756)"/><path class="o" d="M1604.712,1663.585s-7.245-5.894-14.365-4.175c-2.731.659-6.024,3.117-6.045,6.168-.021,3.033,2.922,2.474,4.9,1.625,2.491-1.069,4.509-2.961,7.155-3.684a14.082,14.082,0,0,1,3.883-.457C1601.255,1663.076,1603.908,1662.931,1604.712,1663.585Z" transform="translate(-1583.595 -1625.597)"/><path class="o" d="M1580.876,1572.028c0,6.985,5.5,8.075,9.242,8.3a9.605,9.605,0,0,1,5.1,1.834c.231.165.463.334.7.5,1.586,1.15,3.205,2.3,4.781,3.5.2.149.386.3.565.463a5.708,5.708,0,0,1,.535.486l.5.525c.162.178.3.38.453.568l.221.287c.073.1.132.2.2.3l.4.608.35.635c.119.208.231.423.33.644a27.063,27.063,0,0,1,1.864,5.356,54.853,54.853,0,0,1,1.282,8.508q.059.778.106,1.517c.175,2.964.162,5.445.126,7.177-.02.872-.05,1.553-.073,2.015h.74c.02-.466.046-1.146.059-2,.027-1.745.027-4.242-.168-7.233a62.012,62.012,0,0,0-1.107-8.545c-.109-.525-.228-1.054-.36-1.586a27.541,27.541,0,0,0-1.939-5.469,7.024,7.024,0,0,0-.344-.664l-.37-.654-.413-.631c-.073-.106-.139-.212-.211-.314l-.234-.3c-.162-.195-.307-.4-.479-.591l-.525-.555a7.663,7.663,0,0,0-.572-.512c-.2-.169-.393-.334-.591-.476-1.593-1.2-3.225-2.346-4.814-3.483s-3.149-2.267-4.6-3.423a43.272,43.272,0,0,1-4-3.549,26.157,26.157,0,0,1-3.043-3.674c-1.887-2.829-2.683-5.915-3.648-9.133Z" transform="translate(-1580.876 -1548.897)"/><path class="o" d="M1659.866,1703.232s2.671-7.183-2.763-10.774a15.8,15.8,0,0,0-5.986-2.671S1647.619,1700.746,1659.866,1703.232Z" transform="translate(-1636.263 -1649.958)"/><path class="o" d="M1692.006,1746.315s.07.241.172.664c.05.208.119.462.181.76s.139.628.222.991.152.76.238,1.176.178.859.248,1.319.159.935.241,1.414.145.975.215,1.467.135.982.2,1.464.1.965.152,1.424c.007.05.01.1.013.149.043.41.079.806.119,1.186.02.168.033.334.046.5.016.241.03.476.043.7.04.634.073,1.177.1,1.589h1.084c-.046-.426-.109-1-.182-1.682-.04-.377-.076-.78-.149-1.206s-.129-.876-.2-1.341-.132-.945-.221-1.427-.182-.978-.274-1.47-.175-.985-.287-1.464-.211-.955-.311-1.414-.215-.9-.314-1.312-.2-.813-.3-1.177-.192-.69-.271-.984-.162-.549-.221-.76c-.125-.423-.2-.658-.2-.658Z" transform="translate(-1669.085 -1694.748)"/><path class="o" d="M1682.831,1785.456s-1.057-4.858-4.99-5.975a.5.5,0,0,0-.622.609C1677.531,1781.287,1678.672,1783.651,1682.831,1785.456Z" transform="translate(-1657.334 -1721.136)"/><path class="o" d="M1628.052,1566.2a1.838,1.838,0,0,1,1.784,1.219c.853,2.382,2.039,7.114,2.633,15.837.146,2.115.254,4.464.317,7.071.073,3.04.079,6.427,0,10.2v.505h1.949c.006-.38.017-.78.026-1.193.109-5.62.1-14.043-.747-18.956-1.276-7.411.836-19.627,1.8-22.743a.458.458,0,0,0-.036-.367.475.475,0,0,0-.291-.225l-.013,0a.449.449,0,0,0-.545.324c-.555,2.26-3.017,12.648-2.528,16.766a45.638,45.638,0,0,0-1.761-7.818,5.2,5.2,0,0,1-.109-3c4.421-17.017-17.638-19.28-17.638-19.28C1612.2,1564.663,1623.558,1566.321,1628.052,1566.2Zm4.358,8.5c0,.016,0,.033.007.049C1632.417,1574.744,1632.414,1574.727,1632.41,1574.694Z" transform="translate(-1606.268 -1534.669)"/><path class="o" d="M1717.006,1638a14.563,14.563,0,0,0-4.371,11c-.03-.914,1.053-2.431,1.552-3.113,3.362-4.592,7.946-3.677,12.823-2.607Z" transform="translate(-1685.453 -1608.85)"/><path class="o" d="M1721.412,1738.078a.444.444,0,0,0-.491-.5c-1.55.183-5.9,1.26-7.3,7.575C1713.618,1745.154,1720.23,1746.925,1721.412,1738.078Z" transform="translate(-1686.239 -1687.889)"/><path class="o" d="M1719.818,1701.561s-4.788,1.965-4.788,6.63C1715.03,1708.191,1718.713,1709.3,1719.818,1701.561Z" transform="translate(-1687.36 -1659.303)"/><path class="o" d="M1761.914,1675s-12.581-2.65-14.365,8.226c0,0,4.5,2.141,8.84,0C1760.7,1681.1,1761.914,1675,1761.914,1675Z" transform="translate(-1713.172 -1637.997)"/><path class="o" d="M1732.08,1705.1l-.118.06c-.081.04-.188.1-.328.182a12.525,12.525,0,0,0-1.092.741c-.212.171-.45.347-.682.556s-.481.425-.723.666-.482.5-.73.757-.47.548-.7.827c-.218.291-.445.577-.653.869s-.4.587-.587.874l-.507.846c-.158.271-.287.538-.417.779s-.248.463-.334.668l-.239.524-.208.457.922.36.175-.448.2-.515c.072-.2.176-.419.285-.657s.221-.5.358-.77l.441-.839.517-.871c.184-.292.386-.578.581-.871.211-.28.417-.565.634-.834s.433-.533.663-.769.443-.473.662-.682.433-.4.628-.574a12.042,12.042,0,0,1,1.011-.771c.128-.082.23-.149.3-.188l.108-.062Z" transform="translate(-1695.082 -1662.114)"/><path class="o" d="M1760.01,1622.126s-9.577-15.716-26.152-3.07C1733.858,1619.056,1745.4,1630.107,1760.01,1622.126Z" transform="translate(-1702.305 -1589.909)"/><path class="o" d="M1716.789,1639.688h2.888c-2.244-23.589,3.684-46,3.684-46l-.631-.443c-3.38,13.521-4.332,30.085-4.593,39.588a22.835,22.835,0,0,1-.344,3.354,20.193,20.193,0,0,1-.542,2.313A7.633,7.633,0,0,1,1716.789,1639.688Z" transform="translate(-1688.756 -1573.325)"/><path class="p" d="M1695.705,1663.109c1.532.285,3.036.684,4.571.889-1.389-.757-2.875-1.513-4.346-2.193q.129-.67.285-1.355a48.09,48.09,0,0,0,6.4,2.178c-1.969-1.436-3.867-2.942-5.834-4.357.378-1.318.83-2.663,1.353-4.013a12.988,12.988,0,0,0,1.822.229c-.523-.322-1.026-.644-1.529-.966q.22-.543.455-1.087a22.076,22.076,0,0,0,3.653,1.408,16.416,16.416,0,0,1-2.831-3.211,48.193,48.193,0,0,1,3.894-6.689v-.176l.061.088.061-.088v.176q1.053,1.509,1.984,3.1c-.475.957-.962,1.918-1.475,2.852.648-.648,1.3-1.338,1.975-1.978.653,1.169,1.254,2.359,1.8,3.556a20.538,20.538,0,0,1-1.923,3.016c.857-.594,1.607-1.3,2.426-1.884q.234.547.454,1.094c-1.3,1.445-2.8,2.72-4.009,4.256a50.244,50.244,0,0,1,4.553-2.837,44.266,44.266,0,0,1,1.737,5.984c-1.283,1.323-2.7,2.511-3.952,3.866,1.459-.625,2.858-1.37,4.3-1.977.082.524.151,1.041.2,1.545a77.766,77.766,0,0,0-6.843,4.3l6.985-2.022a14.738,14.738,0,0,1-.546,4.517c-1.881.929-3.62,2.158-5.552,2.906,1.64-.266,3.206-.8,4.793-1.2a5.335,5.335,0,0,1-.392.553,8.156,8.156,0,0,1-5.814,3.225v2.978h-1.671V1676.8a8.2,8.2,0,0,1-5.678-3.215,7.911,7.911,0,0,1-1.49-3.717,23.51,23.51,0,0,0,5.416,1.381c-1.926-1.133-3.734-2.425-5.617-3.569A25.861,25.861,0,0,1,1695.705,1663.109Z" transform="translate(-1671.761 -1613.429)"/><g transform="translate(24.447 44.93)"><path class="q" d="M1741.9,1723.8a24.466,24.466,0,0,0,.117,4.449,11.8,11.8,0,0,1,.38,4.479c-.234,2.313-1.171,7.669-1.229,7.874s-.468-8.694-.468-8.694a4.418,4.418,0,0,0,.293-1.756C1740.992,1729.013,1740.9,1725.676,1741.9,1723.8Z" transform="translate(-1732.181 -1721.887)"/><path class="o" d="M1746.639,1777.6h2.038a3.811,3.811,0,0,0,.776-1.809,4.633,4.633,0,0,1,.352-1.346l.468-1.322.029-.083a6.744,6.744,0,0,0,.5-2.634c-.027-2.5.564-3.325.637-3.416a6.509,6.509,0,0,0-1.514,3.328,9.857,9.857,0,0,1-.644,1.844l-.517,1.065Z" transform="translate(-1736.896 -1756.168)"/><path class="r" d="M1753.36,1797.844h1.273a2.482,2.482,0,0,0,.359-1.634c-.029-1.053.351-.965.615-1.287s.38-.088.5-.878a3.145,3.145,0,0,1,1.112-1.551,3.177,3.177,0,0,0-1.61.873A10,10,0,0,0,1753.36,1797.844Z" transform="translate(-1742.231 -1776.41)"/><path class="q" d="M1753.593,1746.838s.44-7.755.6-9.237a32.533,32.533,0,0,0-1.53,9.15Z" transform="translate(-1741.677 -1732.839)"/><path class="o" d="M1742.169,1737.423a17.257,17.257,0,0,0,0-5.093l.2-1.859s-.029-2.108-.146-4.069a17.553,17.553,0,0,1-.029-3.308,8.817,8.817,0,0,0-.966,4.127c-.117,2.81-.029,3.044-.351,4.332a23.13,23.13,0,0,0-.849,5.474l-.351,1.873a10.094,10.094,0,0,0-.322,3.834Z" transform="translate(-1731.046 -1721.324)"/><path class="q" d="M1738.405,1763.906h2.4a10.13,10.13,0,0,0,1.406-4.122c0-.086.006-.17.01-.252a6.458,6.458,0,0,1,.656-2.684,3.913,3.913,0,0,0,.41-1.23,5.046,5.046,0,0,0,.036-1.307,12.815,12.815,0,0,1,.351-4.435c.261-.553-.612.58-1.153,2.579,0,.018-.01.036-.014.055a11.269,11.269,0,0,0-.369,2.456,2.126,2.126,0,0,1-.351,1.1c-.037.054-.082.13-.132.22l-.064.12c-.315.608-.788,1.711-1.079,2.408a9.526,9.526,0,0,1-.56,1.124c-.085.145-.183.318-.287.511-.09.166-.185.348-.281.541l-.057.117a12.737,12.737,0,0,0-.583,1.375c-.061.172-.116.345-.163.516A5.182,5.182,0,0,0,1738.405,1763.906Z" transform="translate(-1730.36 -1742.472)"/><path class="r" d="M1699.4,1796.875s1.727-.38,2.078.322.586.176.937,1.727c.258,1.141.247,1.363.6,1.809h1.54l-1.639-3.858a2.579,2.579,0,0,0-.492-.462,1.858,1.858,0,0,0-.314-.182,1.128,1.128,0,0,0-.845-.031Z" transform="translate(-1699.402 -1779.299)"/><path class="o" d="M1707.823,1769.71a4.618,4.618,0,0,0,.409,2.576,3.119,3.119,0,0,1,.387.738,10.854,10.854,0,0,1,.4,1.281,15.759,15.759,0,0,0,.906,3.038h1.466l-.937-4.033a3.981,3.981,0,0,1-1.61-2.869,5.512,5.512,0,0,0-1.639-3.775A6.549,6.549,0,0,1,1707.823,1769.71Z" transform="translate(-1705.599 -1755.91)"/><path class="o" d="M1732.746,1726.1a80.6,80.6,0,0,0,.517,9.844h1.824v-6.068c-.007-.715-.051-1.416-.119-2.091a33,33,0,0,0-.573-3.523c-.2-.947-.4-1.734-.507-2.289-.292-1.464.147-1.757-.029-4.01a8.421,8.421,0,0,0-.906-3.452,5.193,5.193,0,0,1,0,2.779c-.41,1.64-.042,2.49-.263,3.747-.2,1.133.231,2.069.094,4.541C1732.772,1725.749,1732.76,1725.923,1732.746,1726.1Z" transform="translate(-1725.779 -1714.515)"/><path class="s" d="M1724.383,1734.95c.556,1.053.439,1.492.439,1.492-.013.223-.024.444-.031.663-.01.3-.014.6-.014.891a29.792,29.792,0,0,0,.4,4.762h2.39c-.024-.123-.046-.251-.066-.384-.048-.317-.086-.661-.118-1.039q-.036-.426-.062-.91c-.051-.906-.083-1.976-.129-3.252-.114-3.205-.677-2.857-1.194-4.782-.013-.044-.024-.089-.036-.135a17.228,17.228,0,0,1-.527-3.805,10.891,10.891,0,0,0-.819-5.357,11.988,11.988,0,0,1-.088,3.658,19.42,19.42,0,0,0-.2,3.1l.1,1.362a4.67,4.67,0,0,1-.123,1.43c-.005.02-.01.039-.014.058A2.694,2.694,0,0,0,1724.383,1734.95Z" transform="translate(-1718.998 -1721.325)"/><path class="r" d="M1719.411,1757.155a7.624,7.624,0,0,1,1.376,3.688l.615,2.986-.293,1.259-1.229-1.522S1720.055,1758.5,1719.411,1757.155Z" transform="translate(-1715.284 -1748.36)"/><path class="q" d="M1711.406,1750.268a9.56,9.56,0,0,0,.34,3.029,6.092,6.092,0,0,1,.878,2.927.013.013,0,0,0,0,.006,6.987,6.987,0,0,0,.555,2.775l.735,1.721h1.119l-.332-2.16c-.209-1.319-.294-2.222-.479-3-.041-.169-.085-.332-.137-.492a5.518,5.518,0,0,0-.643-1.337,6,6,0,0,1-.535-.94,17.685,17.685,0,0,1-.372-2.631,15.441,15.441,0,0,0-1.934-4.435A25.438,25.438,0,0,1,1711.406,1750.268Z" transform="translate(-1708.292 -1739.292)"/></g><path class="o" d="M1724.717,1595.977s-4.328-.911-4.941,2.83a3.8,3.8,0,0,0,3.041,0A4.425,4.425,0,0,0,1724.717,1595.977Z" transform="translate(-1691.127 -1575.419)"/><path class="o" d="M1716.239,1584.77s-2.786,3-.113,5.267a3.513,3.513,0,0,0,1.45-2.411A4.094,4.094,0,0,0,1716.239,1584.77Z" transform="translate(-1687.31 -1566.601)"/><g transform="translate(17.41 64.765)"><g transform="translate(2.074 4.185)"><path class="t" d="M1698.463,1830.974l-5.78,26.473h-11.559l-5.78-26.473Z" transform="translate(-1675.344 -1830.974)"/><path class="u" d="M1717.805,1830.974l5.78,26.473h2.8l5.78-26.473Z" transform="translate(-1709.047 -1830.974)"/></g><rect class="t" width="27.267" height="4.75"/><rect class="v" width="4.927" height="4.75" transform="translate(18.646)"/></g></g><path class="w" d="M389,1020.027l1.343,3.968,4.189.051-3.359,2.5,1.246,4L389,1028.129l-3.419,2.421,1.246-4-3.359-2.5,4.189-.051Z" transform="translate(-321.154 -825.637)"/><g transform="translate(53.315 115.533)"><rect class="x" width="25.716" height="25.716" transform="translate(1.837 1.837)"/><path class="y" d="M339.045,679.388v29.39h29.39v-29.39ZM366.6,706.941H340.882V681.225H366.6Z" transform="translate(-339.045 -679.388)"/></g><g transform="translate(124.688 153.926)"><circle class="z" cx="11.534" cy="11.534" r="11.534" transform="translate(0 19.269) rotate(-56.646)"/><circle class="aa" cx="11.534" cy="11.534" r="11.534" transform="translate(0 19.269) rotate(-56.646)"/><g transform="translate(11.294 13.068)"><path class="ab" d="M279.217,336.74c.437-.036.834.446.886,1.077s-.26,1.171-.7,1.207-.834-.446-.886-1.077S278.78,336.776,279.217,336.74Z" transform="translate(-278.514 -336.738)"/></g><g transform="translate(18.488 12.919)"><path class="ab" d="M294.943,336.414c-.438-.018-.814.48-.84,1.112s.308,1.16.746,1.178.815-.48.841-1.113S295.381,336.432,294.943,336.414Z" transform="translate(-294.101 -336.414)"/></g><g transform="translate(10.984 18.014)"><path class="ab" d="M287.446,347.7a46.9,46.9,0,0,1-9.6,0,47,47,0,0,1,9.6,0Z" transform="translate(-277.842 -347.454)"/></g><g transform="translate(10.424 11.464)"><path class="ab" d="M279.083,333.543c-.028.137-.575.132-1.217.237s-1.163.268-1.231.146.412-.518,1.155-.632S279.116,333.416,279.083,333.543Z" transform="translate(-276.628 -333.262)"/></g><g transform="translate(18.979 11.377)"><path class="ab" d="M297.6,334c-.087.11-.585-.151-1.226-.342s-1.2-.264-1.206-.4.611-.3,1.351-.066S297.685,333.9,297.6,334Z" transform="translate(-295.164 -333.073)"/></g></g><g transform="translate(182.603 194.391)"><path class="o" d="M972.191,1020.027l1.343,3.968,4.189.051-3.359,2.5,1.246,4-3.419-2.421-3.419,2.421,1.246-4-3.359-2.5,4.189-.051Z" transform="translate(-966.659 -1020.027)"/><path class="o" d="M1039.876,1020.027l1.343,3.968,4.189.051-3.359,2.5,1.246,4-3.419-2.421-3.419,2.421,1.246-4-3.359-2.5,4.189-.051Z" transform="translate(-1020.383 -1020.027)"/><path class="o" d="M1107.56,1020.027,1108.9,1024l4.189.051-3.359,2.5,1.246,4-3.419-2.421-3.419,2.421,1.246-4-3.359-2.5,4.189-.051Z" transform="translate(-1074.108 -1020.027)"/><path class="o" d="M1175.245,1020.027l1.343,3.968,4.189.051-3.359,2.5,1.246,4-3.419-2.421-3.419,2.421,1.246-4-3.359-2.5,4.189-.051Z" transform="translate(-1127.832 -1020.027)"/><path class="o" d="M1242.929,1020.027l1.343,3.968,4.189.051-3.359,2.5,1.246,4-3.419-2.421-3.419,2.421,1.246-4-3.359-2.5,4.189-.051Z" transform="translate(-1181.556 -1020.027)"/></g><rect class="x" width="25.716" height="25.716" transform="translate(202.941 117.37)"/><path class="y" d="M1057.6,679.388v29.39h29.39v-29.39Zm27.553,27.553H1059.44V681.225h25.716Z" transform="translate(-856.242 -563.855)"/><g transform="translate(122.361 194.391)"><path class="w" d="M680.117,1020.027,681.46,1024l4.189.051-3.359,2.5,1.246,4-3.419-2.421-3.419,2.421,1.246-4-3.359-2.5,4.189-.051Z" transform="translate(-674.585 -1020.027)"/><path class="w" d="M747.8,1020.027l1.343,3.968,4.189.051-3.359,2.5,1.246,4-3.419-2.421-3.419,2.421,1.246-4-3.359-2.5,4.189-.051Z" transform="translate(-728.309 -1020.027)"/><path class="w" d="M815.486,1020.027l1.343,3.968,4.189.051-3.359,2.5,1.246,4-3.419-2.421-3.419,2.421,1.246-4-3.359-2.5,4.189-.051Z" transform="translate(-782.033 -1020.027)"/></g><g transform="translate(126.408 115.533)"><rect class="x" width="25.716" height="25.716" transform="translate(1.837 1.837)"/><path class="y" d="M697.844,679.388v29.39h29.39v-29.39ZM725.4,706.941H699.681V681.225H725.4Z" transform="translate(-697.844 -679.388)"/></g><g transform="translate(54.174 156.505)"><circle class="z" cx="11.956" cy="11.956" r="11.956" transform="translate(0 23.613) rotate(-80.951)"/><circle class="ac" cx="11.956" cy="11.956" r="11.956" transform="translate(0 23.613) rotate(-80.951)"/><g transform="translate(8.834 10.673)"><path class="ab" d="M459.784,334.437c.453-.037.864.462.918,1.117s-.27,1.214-.723,1.252-.865-.463-.918-1.117S459.331,334.474,459.784,334.437Z" transform="translate(-459.055 -334.435)"/></g><g transform="translate(16.29 10.518)"><path class="ab" d="M476.084,334.1c-.454-.019-.844.5-.871,1.153s.32,1.2.774,1.221.845-.5.871-1.154S476.538,334.117,476.084,334.1Z" transform="translate(-475.211 -334.099)"/></g><g transform="translate(8.511 13.957)"><path class="ab" d="M468.312,343.647a8.621,8.621,0,0,1-1.4-.726,7.75,7.75,0,0,0-3.559-.879,8.86,8.86,0,0,0-3.569.926,7.7,7.7,0,0,1-1.427.679,3.915,3.915,0,0,1,1.263-.986,7.764,7.764,0,0,1,3.724-1.111,6.991,6.991,0,0,1,3.737,1.068A3.716,3.716,0,0,1,468.312,343.647Z" transform="translate(-458.355 -341.549)"/></g><g transform="translate(7.935 9.277)"><path class="ab" d="M459.649,331.435c.041.051-.038.2-.236.374a1.988,1.988,0,0,1-.936.438,1.8,1.8,0,0,1-1.037-.115c-.244-.114-.356-.243-.329-.3.063-.13.625.057,1.28-.069S459.558,331.321,459.649,331.435Z" transform="translate(-457.107 -331.411)"/></g><g transform="translate(16.785 9.089)"><path class="ab" d="M478.818,331.8c.02.06-.111.177-.375.261a1.775,1.775,0,0,1-1.074-.039,2.091,2.091,0,0,1-.879-.588c-.175-.2-.239-.362-.192-.408.1-.108.585.3,1.232.531S478.772,331.657,478.818,331.8Z" transform="translate(-476.282 -331.004)"/></g></g><path class="k" d="M1221.038,762.2l2.534,4.058a6.627,6.627,0,0,0,3.551,2.143l2.626.073-1.4-7.787-2.449-3.307Z" transform="translate(-985.968 -625.76)"/><path class="o" d="M1162.15,740.708l-9.758-10.3,4-3.79,6.126,6.466,16.516-14.365,3.617,4.158Z" transform="translate(-931.481 -595.074)"/><g transform="translate(234.208 129.564)"><path class="k" d="M1216.871,768.436c-.1.458.482,1.274.85,1.951s1.638.045,1.62-.5a4.494,4.494,0,0,0-.937-2A1,1,0,0,0,1216.871,768.436Z" transform="translate(-1216.859 -763.512)"/><path class="k" d="M1223.086,760.778a1.027,1.027,0,0,0-.563,1.507c.289.59.775,1.666,1.406,1.888.728.256,1.1.011,1.132-.8S1224.2,760.637,1223.086,760.778Z" transform="translate(-1221.254 -758.017)"/><path class="k" d="M1228,753c-.306.314-.138.971.149,1.873s.836,1.892,1.443,1.967,1.274-.441.673-1.62a11.382,11.382,0,0,1-.875-2.514A1.366,1.366,0,0,0,1228,753Z" transform="translate(-1225.572 -751.553)"/><path class="k" d="M1234.5,747.73c-.388.322-.219,1.085.067,1.986s.836,1.892,1.443,1.967,1.371,0,1.141-1.3a5.876,5.876,0,0,0-1.093-2.516A.989.989,0,0,0,1234.5,747.73Z" transform="translate(-1230.682 -747.417)"/></g><path class="k" d="M1253.812,768.316l-1.729-5.475s-.974-.247-1.06,1.295a1.431,1.431,0,0,0,.013.282l.475,3.29s-1.815,2.6.376,4.263l1.49.826Z" transform="translate(-1009.595 -630.084)"/><path class="k" d="M1264.838,824.508a8.539,8.539,0,0,1-7.629,3.784l-4.138-12.167-4.6-13.543,3.247-1.058,11.493,20.131Z" transform="translate(-1007.74 -660.8)"/><path class="m" d="M1282.555,880.7a8.539,8.539,0,0,1-7.629,3.784l-4.138-12.167c2.729,3.812,6.566,7.594,10.137,5.53Z" transform="translate(-1025.457 -716.989)"/><path class="m" d="M1494.2,1777.239c-.606,4.1-1.3,8.86-1.973,13.431a16.149,16.149,0,0,0-7.714-10.655v-2.48A19.157,19.157,0,0,0,1494.2,1777.239Z" transform="translate(-1195.1 -1435.269)"/><path class="m" d="M1585.811,1715.407c-4.524-5.374-9.652-4.787-12.181-4.031l-1.494-2.507c3.656-3.127,6.07-7.4,5.947-12.146C1580.235,1701.933,1583.077,1708.808,1585.811,1715.407Z" transform="translate(-1264.651 -1371.359)"/><path class="m" d="M1641.29,1204.071h0a5.929,5.929,0,0,0-6.507,4.171h0v0s.532.737,1.395,1.94c1.828-.263,4.5-1.88,9.443,3.787Z" transform="translate(-1314.375 -980.294)"/><path class="b" d="M1501.94,914.295l.631-2.131-.267-4.386s-.194.36-.475.966l-4.027-2.952-1.173.436a6.248,6.248,0,0,1,1.333,4.31,2.416,2.416,0,0,0,2.3,2.511c-.56,2.172-.785,4.588.162,6.358l.839-2.832a2.016,2.016,0,0,1,1.99-1.3Z" transform="translate(-1204.718 -743.562)"/><path class="j" d="M1463.112,946.1h-8.122l-5.128-1.589a.516.516,0,1,1,.305-.985l4.979,1.542h7.966a.516.516,0,0,1,0,1.031Z" transform="translate(-1167.308 -773.492)"/><path class="ad" d="M1491.473,905.929h0c-.194-.08-.39-.157-.592-.223h0v0c-1.108-.417-2.106-.833-3.137-1.219a10.245,10.245,0,0,0-1.11-3.436,18.688,18.688,0,0,1-2.038-8.06,26.56,26.56,0,0,1,.606-6.472c.606-2.875.881-4.936-1.7-6.862a13.016,13.016,0,0,0-6.73-2.116c-2.553-.177-5.579-.237-7.565-1.834a12.029,12.029,0,0,1,2.828-1.679c.2-.083.386-.157.573-.227a10.023,10.023,0,0,1,5.528-.561c4.666.679,8.71,3.057,10.226,7.65.068.208.13.415.184.619h0a10.149,10.149,0,0,1,.266,1.365c.029.223.047.443.062.664a13.774,13.774,0,0,1-.3,3.545c-.031.153-.064.3-.1.456-.06.274-.124.547-.19.819-.012.047-.023.093-.035.14-.066.274-.136.549-.206.825a23.917,23.917,0,0,0-.951,5.509c-.076,3.752,2.129,7.516,4.051,10.554.089.14.175.278.258.415Z" transform="translate(-1182.946 -717.596)"/><g transform="translate(195.201 149.626)"><g transform="translate(0.176)"><g transform="translate(0)"><circle class="z" cx="15.749" cy="15.749" r="15.749" transform="matrix(0.307, -0.952, 0.952, 0.307, 0, 29.981)"/><g transform="translate(13.426 15.849)"><path class="ab" d="M368.239,326.4c.6-.049,1.138.609,1.21,1.471s-.355,1.6-.952,1.649-1.139-.61-1.209-1.471S367.642,326.448,368.239,326.4Z" transform="translate(-367.279 -326.396)"/></g><g transform="translate(23.249 15.644)"><path class="ab" d="M389.711,325.954c-.6-.024-1.112.655-1.147,1.519s.421,1.584,1.02,1.608,1.112-.656,1.147-1.519S390.31,325.979,389.711,325.954Z" transform="translate(-388.562 -325.954)"/></g><g transform="translate(13.002 20.808)"><path class="ab" d="M379.473,337.147c.024.024-.1.186-.357.462a9,9,0,0,1-1.181,1.063,8.413,8.413,0,0,1-2.083,1.141,7.379,7.379,0,0,1-2.887.452,8.517,8.517,0,0,1-2.84-.654,12.239,12.239,0,0,1-2.092-1.1,6.814,6.814,0,0,1-1.674-1.368,15.144,15.144,0,0,1,1.854,1.071,14.846,14.846,0,0,0,2.074.971,8.783,8.783,0,0,0,2.7.586,7.436,7.436,0,0,0,2.713-.388,9.275,9.275,0,0,0,2.035-1c.537-.369.969-.68,1.25-.919S379.449,337.123,379.473,337.147Z" transform="translate(-366.359 -337.141)"/></g><g transform="translate(11.75 12.01)"><path class="ab" d="M366.994,318.378c-.027.139-.781.089-1.675.234s-1.6.412-1.667.288c-.071-.109.595-.621,1.591-.774S367.029,318.252,366.994,318.378Z" transform="translate(-363.647 -318.079)"/></g><g transform="translate(24.455 11.852)"><path class="ab" d="M394.5,318.929c-.087.113-.754-.286-1.647-.553s-1.665-.324-1.674-.466.827-.312,1.819,0S394.584,318.834,394.5,318.929Z" transform="translate(-391.174 -317.737)"/></g></g><g transform="translate(11.697 19.681)"><path class="ab" d="M365.1,334.7c.062-.011.162.152.178.45a1.854,1.854,0,0,1-1.257,1.77c-.287.083-.473.042-.483-.019-.023-.137.581-.339,1-.948C364.967,335.36,364.959,334.722,365.1,334.7Z" transform="translate(-363.533 -334.699)"/></g><g transform="translate(25.638 19.85)"><path class="ab" d="M395.547,336.344c.012.062-.117.157-.364.179a1.426,1.426,0,0,1-1.425-1.057c-.051-.242,0-.393.066-.4.138-.011.294.455.756.782C395.027,336.194,395.518,336.209,395.547,336.344Z" transform="translate(-393.738 -335.065)"/></g></g><g transform="translate(0 0.016)"><path class="z" d="M377.062,311.758s-.014-.108-.029-.317l-.059-.929q-.019-.307-.041-.684c-.026-.251-.08-.522-.124-.817s-.1-.613-.151-.952a10.5,10.5,0,0,0-.256-1.067,18.652,18.652,0,0,0-2.166-5.191,19.446,19.446,0,0,0-4.956-5.527l-.842-.627c-.3-.194-.607-.372-.916-.561s-.612-.4-.949-.549l-1.011-.485-.514-.244-.54-.2-1.1-.4c-.372-.123-.762-.2-1.147-.307a9.88,9.88,0,0,0-1.178-.267,18.108,18.108,0,0,0-2.461-.284c-.42-.015-.842-.055-1.268-.049l-1.288.066c-.216.015-.434.014-.65.042l-.649.1c-.433.072-.873.122-1.308.212a20.58,20.58,0,0,0-2.594.762,20.265,20.265,0,0,0-2.537,1.115c-.411.223-.8.482-1.211.723-.2.128-.411.236-.6.38l-.573.429a21.929,21.929,0,0,0-2.206,1.875l-.988,1.088-.249.274-.223.3-.445.6-.447.6-.392.64-.391.644-.2.323-.166.34-.66,1.371-.528,1.44a19.27,19.27,0,0,0,0,12.27l.528,1.44.66,1.372.166.341.2.323.391.644.392.64.447.6.445.6.223.3.249.274.989,1.089a21.844,21.844,0,0,0,2.206,1.876l.572.429c.19.144.4.253.6.38.407.241.8.5,1.211.724a20.362,20.362,0,0,0,2.537,1.115,20.6,20.6,0,0,0,2.594.761c.436.09.876.141,1.309.213l.649.1c.216.029.434.027.65.042l1.288.066c.426.006.849-.034,1.268-.049a18.048,18.048,0,0,0,2.461-.284,10,10,0,0,0,1.178-.267c.385-.1.775-.184,1.147-.307l1.1-.4.54-.2.514-.244,1.011-.485c.337-.153.635-.371.949-.549s.62-.367.916-.561l.842-.628a19.437,19.437,0,0,0,4.955-5.527,18.657,18.657,0,0,0,2.166-5.19,10.656,10.656,0,0,0,.255-1.067q.08-.509.151-.952c.044-.3.1-.566.124-.817s.028-.479.041-.684c.025-.4.045-.711.059-.928s.029-.317.029-.317,0,.107,0,.317-.019.528-.035.931q-.013.309-.029.687c-.023.252-.072.524-.113.821s-.09.617-.14.958a10.648,10.648,0,0,1-.246,1.073,18.56,18.56,0,0,1-2.141,5.238,19.507,19.507,0,0,1-4.968,5.594l-.847.636c-.3.2-.612.377-.922.57s-.617.4-.957.558l-1.019.493-.518.248-.545.2-1.106.406c-.375.126-.768.207-1.158.314a10.083,10.083,0,0,1-1.189.273,18.317,18.317,0,0,1-2.486.294c-.424.016-.851.058-1.282.052l-1.3-.064c-.218-.015-.439-.013-.658-.042l-.656-.1c-.438-.072-.883-.122-1.324-.213a20.722,20.722,0,0,1-2.626-.765,20.44,20.44,0,0,1-2.569-1.124c-.416-.225-.815-.487-1.227-.73-.2-.129-.417-.239-.609-.384l-.58-.433a22.021,22.021,0,0,1-2.235-1.9l-1-1.1-.252-.277-.226-.3-.451-.6-.453-.606-.4-.648-.4-.652-.2-.327-.168-.344-.669-1.388-.535-1.458a19.491,19.491,0,0,1,0-12.425l.535-1.458.669-1.388.168-.344.2-.327.4-.652.4-.648.453-.606.451-.6.227-.3.252-.277,1-1.1a22.084,22.084,0,0,1,2.235-1.9l.58-.433c.192-.145.407-.255.609-.384.412-.244.811-.506,1.227-.73a20.425,20.425,0,0,1,2.568-1.124,20.808,20.808,0,0,1,2.625-.765c.441-.09.886-.141,1.324-.212l.656-.1c.218-.028.439-.026.657-.041l1.3-.064c.431-.006.858.036,1.282.052a18.171,18.171,0,0,1,2.486.294,10.111,10.111,0,0,1,1.19.272c.389.107.782.189,1.158.314l1.105.407.545.2.518.248,1.019.493c.34.156.64.376.957.558s.624.373.922.57l.847.636a19.509,19.509,0,0,1,4.969,5.594,18.547,18.547,0,0,1,2.141,5.238,10.578,10.578,0,0,1,.246,1.074q.075.512.14.958c.04.3.09.57.113.822s.02.481.029.687c.015.4.027.713.035.931S377.062,311.758,377.062,311.758Z" transform="translate(-337.809 -292.093)"/></g></g></g></g></svg>