<svg xmlns="http://www.w3.org/2000/svg" width="40" height="40" viewBox="0 0 40 40">
  <path id="Path_13822" data-name="Path 13822" d="M39.765,38.125,22.82,15.531a3.8,3.8,0,0,0-1.649-1.282V8.62h8.244a1.172,1.172,0,0,0,.792-2.036L27.933,4.31,30.242,2a1.172,1.172,0,0,0-.829-2H20a1.172,1.172,0,0,0-1.172,1.172V14.25a3.8,3.8,0,0,0-1.648,1.282L.234,38.125A1.172,1.172,0,0,0,1.171,40H38.828a1.172,1.172,0,0,0,.938-1.875ZM21.171,2.344h5.413L25.447,3.481a1.172,1.172,0,0,0,0,1.657l1.138,1.138H21.171ZM19.054,16.938a1.072,1.072,0,0,1,1.891,0l5.571,7.428-2.5,2.764-3.147-3.477a1.172,1.172,0,0,0-1.738,0l-3.147,3.477-2.5-2.764ZM3.515,37.656l8.536-11.381,3.064,3.387a1.171,1.171,0,0,0,1.738,0L20,26.184l3.147,3.478a1.172,1.172,0,0,0,1.738,0l3.064-3.386,8.535,11.381Zm0,0" transform="translate(0.001)" fill="#fff"/>
</svg>
