<svg xmlns="http://www.w3.org/2000/svg" width="45.213" height="44" viewBox="0 0 45.213 44">
  <g id="lotus" transform="translate(0.001)">
    <path id="Path_14200" data-name="Path 14200" d="M246.883,2.908A.883.883,0,0,1,246,2.024V.883a.883.883,0,1,1,1.766,0V2.024A.883.883,0,0,1,246.883,2.908Zm0,0" transform="translate(-224.277)" fill="#fff"/>
    <path id="Path_14201" data-name="Path 14201" d="M337.771,67.721a.883.883,0,0,1-.624-1.508l1.49-1.49a.883.883,0,0,1,1.249,1.249l-1.491,1.49A.88.88,0,0,1,337.771,67.721Zm0,0" transform="translate(-307.14 -58.772)" fill="#fff"/>
    <path id="Path_14202" data-name="Path 14202" d="M140.608,67.721a.879.879,0,0,1-.624-.259l-1.491-1.49a.883.883,0,0,1,1.249-1.249l1.491,1.49a.883.883,0,0,1-.624,1.508Zm0,0" transform="translate(-126.028 -58.772)" fill="#fff"/>
    <path id="Path_14203" data-name="Path 14203" d="M464.125,71.784a.883.883,0,0,1-.624-1.508l.612-.612a.883.883,0,0,1,1.249,1.249l-.612.612A.88.88,0,0,1,464.125,71.784Zm0,0" transform="translate(-422.336 -63.277)" fill="#fff"/>
    <path id="Path_14204" data-name="Path 14204" d="M26.382,71.784a.88.88,0,0,1-.624-.259l-.612-.612a.883.883,0,0,1,1.249-1.249l.612.612a.883.883,0,0,1-.624,1.508Zm0,0" transform="translate(-22.69 -63.277)" fill="#fff"/>
    <path id="Path_14205" data-name="Path 14205" d="M449.965,324.152h0a.883.883,0,1,0,.884.883A.883.883,0,0,0,449.964,324.152Zm0,0" transform="translate(-409.426 -295.527)" fill="#fff"/>
    <path id="Path_14206" data-name="Path 14206" d="M45.034,61.43a.883.883,0,0,0-.585-.343L43,60.889l-.02,0a20.878,20.878,0,0,0-2.715-.133,17.863,17.863,0,0,0,.38-7.4l-.185-1.228a.883.883,0,0,0-1-.742l-1.382.208-.019,0a19.853,19.853,0,0,0-8.523,3.655,16.711,16.711,0,0,0-5.705-7.674c-.205-.164-.461-.368-.526-.441a.884.884,0,0,0-1.344-.053c-.036.032-.124.1-.2.168a19.248,19.248,0,0,0-5.974,8.075,19.845,19.845,0,0,0-8.623-3.73l-.019,0-1.382-.208a.883.883,0,0,0-1,.742l-.185,1.228a18.353,18.353,0,0,0,.359,7.4,20.909,20.909,0,0,0-2.694.133l-.02,0-1.449.2a.883.883,0,0,0-.754,1l.185,1.306a20.627,20.627,0,0,0,16.279,17.33l.017.018L21.958,86.4a.882.882,0,0,0,.635.269h0a.883.883,0,0,0,.635-.27l5.439-5.646.011-.012a20.519,20.519,0,0,0,8.492-3.872,20.808,20.808,0,0,0,1.715-1.473.883.883,0,1,0-1.221-1.275,19.161,19.161,0,0,1-1.57,1.348A18.734,18.734,0,0,1,24.629,79.37l6.077-5.3a.883.883,0,1,0-1.161-1.331l-6.07,5.3c1.071-5.7,2.933-9.509,5.666-11.61A18.774,18.774,0,0,1,42.77,62.64l.561.077-.061.428a18.961,18.961,0,0,1-1.606,5.407.883.883,0,1,0,1.6.75,20.731,20.731,0,0,0,1.756-5.91l.185-1.306a.886.886,0,0,0-.17-.656ZM22.593,48.85l.13.1a14.758,14.758,0,0,1,5.347,7.5,19.663,19.663,0,0,0-2.586,2.872,19.338,19.338,0,0,0-2.879,5.651,19.336,19.336,0,0,0-2.879-5.651,19.712,19.712,0,0,0-2.5-2.8,17.206,17.206,0,0,1,5.368-7.683ZM6.313,53.616l.053-.355.5.075A17.942,17.942,0,0,1,18.3,60.376a17.394,17.394,0,0,1,3.4,11.041,14.887,14.887,0,0,0-4.562-6.394A20.515,20.515,0,0,0,6.786,60.866a16.661,16.661,0,0,1-.473-7.25ZM1.942,63.145l-.061-.428.561-.077a18.777,18.777,0,0,1,13.629,3.783c2.73,2.1,4.574,5.843,5.637,11.443l-.022.123-6.019-5.251a.883.883,0,1,0-1.161,1.331l6.077,5.3A18.846,18.846,0,0,1,1.942,63.145ZM25.877,81.1,22.591,84.51l-3.3-3.415q.647.041,1.3.041,1,0,2.018-.1,1.016.1,2.027.1.625,0,1.245-.038Zm2.187-16.077A15.036,15.036,0,0,0,23.5,71.415a17.394,17.394,0,0,1,3.4-11.04,17.942,17.942,0,0,1,11.439-7.04l.5-.075.054.355a16.23,16.23,0,0,1-.5,7.253,20.519,20.519,0,0,0-10.335,4.153Zm0,0" transform="translate(0 -42.664)" fill="#fff"/>
  </g>
</svg>
