<svg id="noun_group_chat_643675" data-name="noun_group chat_643675" xmlns="http://www.w3.org/2000/svg" width="33.539" height="30.35" viewBox="0 0 33.539 30.35">
  <circle id="Ellipse_469" data-name="Ellipse 469" cx="2.315" cy="2.315" r="2.315" transform="translate(13.323 9.774)" fill="#fff"/>
  <circle id="Ellipse_470" data-name="Ellipse 470" cx="2.006" cy="2.006" r="2.006" transform="translate(19.29 11.266)" fill="#fff"/>
  <circle id="Ellipse_471" data-name="Ellipse 471" cx="2.006" cy="2.006" r="2.006" transform="translate(7.819 11.266)" fill="#fff"/>
  <path id="Path_13751" data-name="Path 13751" d="M60.215,61.82A2.95,2.95,0,0,0,57.745,63a3.341,3.341,0,0,0-3.189-1.9,3.455,3.455,0,0,0-3.292,2.109,2.843,2.843,0,0,0-2.572-1.389c-3.4,0-3.292,4.115-3.292,4.115H63.455C63.507,65.935,63.558,61.82,60.215,61.82Z" transform="translate(-38.918 -45.719)" fill="#fff"/>
  <path id="Path_13753" data-name="Path 13753" d="M47.975,61.55a15.192,15.192,0,1,1,11.934-5.813l6.43,5.761Zm0-27.984a12.638,12.638,0,0,0-9.1,3.807,12.84,12.84,0,0,0,9.1,21.914h.051l12.243-.051-3.6-3.241.823-.874a13.071,13.071,0,0,0,3.344-8.745A12.821,12.821,0,0,0,47.975,33.566Z" transform="translate(-32.8 -31.2)" fill="#fff"/>
</svg>
