<svg xmlns="http://www.w3.org/2000/svg" width="25.198" height="18.696" viewBox="0 0 25.198 18.696">
  <path id="Path_18865" data-name="Path 18865" d="M792.157,292.526a2.212,2.212,0,1,1,2.212,2.212,2.212,2.212,0,0,1-2.212-2.212m14,0a2.212,2.212,0,1,0,2.212-2.212,2.212,2.212,0,0,0-2.212,2.212m7.738,9.018a1,1,0,0,0-1.854-.751c-1.506,3.719-5.8,6.217-10.673,6.217s-9.167-2.5-10.672-6.216a1,1,0,1,0-1.853.75c1.806,4.466,6.841,7.466,12.525,7.466S812.087,306.01,813.9,301.544Z" transform="translate(-788.77 -290.314)" fill="#fff"/>
</svg>
