<svg xmlns="http://www.w3.org/2000/svg" width="25.199" height="18.696" viewBox="0 0 25.199 18.696">
  <path id="Path_18862" data-name="Path 18862" d="M1516.312,292.526a2.212,2.212,0,1,1,2.212,2.212,2.212,2.212,0,0,1-2.212-2.212m14,0a2.212,2.212,0,1,0,2.212-2.212,2.212,2.212,0,0,0-2.212,2.212m7.186,16.411a1,1,0,0,0,.552-1.3c-1.809-4.465-6.842-7.465-12.527-7.465s-10.716,3-12.525,7.465a1,1,0,1,0,1.854.751c1.505-3.718,5.794-6.216,10.671-6.216s9.167,2.5,10.673,6.216a1,1,0,0,0,.927.625A1.013,1.013,0,0,0,1537.5,308.937Z" transform="translate(-1512.925 -290.314)" fill="#fff"/>
</svg>
