<svg xmlns="http://www.w3.org/2000/svg" width="45.425" height="36" viewBox="0 0 45.425 36">
  <g id="swimming" transform="translate(0 0.001)">
    <path id="Path_6456" data-name="Path 6456" d="M.783,23.969a4.757,4.757,0,0,1,3.195,1.168A6.271,6.271,0,0,0,8.089,26.6,6.273,6.273,0,0,0,12.2,25.136a4.96,4.96,0,0,1,6.394,0,6.509,6.509,0,0,0,8.224,0,4.963,4.963,0,0,1,6.4,0,6.514,6.514,0,0,0,8.228,0,4.769,4.769,0,0,1,3.2-1.168.783.783,0,0,0,.783-.783v-4.95a.783.783,0,0,0-.783-.783,7.807,7.807,0,0,0-4.01,1.009,6.24,6.24,0,0,1-3.3.838,4.766,4.766,0,0,1-3.2-1.168,6.57,6.57,0,0,0-2.976-1.368L24.631,9.7,31.1,4.358A2.466,2.466,0,0,0,28.117.437l-8.552,6.79a2.349,2.349,0,0,0-.344,3.344l2.389,2.865L17.381,16.96a6.421,6.421,0,0,0-1.985-.29,6.274,6.274,0,0,0-4.109,1.462,4.762,4.762,0,0,1-3.2,1.167,6.225,6.225,0,0,1-3.3-.838A7.8,7.8,0,0,0,.783,17.452.783.783,0,0,0,0,18.235v4.95a.783.783,0,0,0,.783.783Zm22.432-9.831a.783.783,0,0,0,.1-1.1l-2.89-3.467a.783.783,0,0,1,.115-1.114l8.516-6.765A.9.9,0,0,1,30.12,3.139L22.993,9.013a.784.784,0,0,0-.078,1.136L29,16.742a6.509,6.509,0,0,0-3.1,1.388,4.96,4.96,0,0,1-6.395,0c-.189-.137-.387-.275-.594-.412ZM8.089,20.865A6.271,6.271,0,0,0,12.2,19.4a4.959,4.959,0,0,1,6.394,0,6.509,6.509,0,0,0,8.224,0,4.961,4.961,0,0,1,6.4,0,6.281,6.281,0,0,0,4.115,1.464,7.819,7.819,0,0,0,4.01-1.008,6.277,6.277,0,0,1,2.52-.8v3.387a6.393,6.393,0,0,0-3.331,1.421,4.963,4.963,0,0,1-6.4,0,6.511,6.511,0,0,0-8.224,0,4.96,4.96,0,0,1-6.395,0,6.51,6.51,0,0,0-8.224,0,4.762,4.762,0,0,1-3.2,1.169A4.757,4.757,0,0,1,4.9,23.866a6.383,6.383,0,0,0-3.329-1.421V19.057a6.273,6.273,0,0,1,2.516.8,7.8,7.8,0,0,0,4.006,1.006Zm0,0" transform="translate(0 0)" fill="#fff"/>
    <path id="Path_6457" data-name="Path 6457" d="M304,78.193a3.916,3.916,0,1,0,3.916-3.916A3.916,3.916,0,0,0,304,78.193Zm3.916-2.35a2.35,2.35,0,1,1-2.35,2.35A2.35,2.35,0,0,1,307.916,75.843Zm0,0" transform="translate(-274.239 -67.007)" fill="#fff"/>
    <path id="Path_6458" data-name="Path 6458" d="M.783,280.541a4.5,4.5,0,0,1,3.168,1.273,6,6,0,0,0,4.138,1.61,6.274,6.274,0,0,0,4.112-1.464,4.96,4.96,0,0,1,6.394,0,6.509,6.509,0,0,0,8.224,0,4.963,4.963,0,0,1,6.4,0,6.277,6.277,0,0,0,4.114,1.464,6,6,0,0,0,4.142-1.61,4.51,4.51,0,0,1,3.173-1.273.783.783,0,0,0,.783-.783v-4.7a.783.783,0,0,0-.783-.783,6,6,0,0,0-4.142,1.612,4.51,4.51,0,0,1-3.172,1.273,4.764,4.764,0,0,1-3.2-1.169,6.511,6.511,0,0,0-8.224,0,4.96,4.96,0,0,1-6.395,0,6.51,6.51,0,0,0-8.224,0,4.76,4.76,0,0,1-3.2,1.169,4.5,4.5,0,0,1-3.169-1.273,6,6,0,0,0-4.138-1.612.783.783,0,0,0-.783.783v4.7a.783.783,0,0,0,.783.783Zm7.306-1.817A6.273,6.273,0,0,0,12.2,277.26a4.96,4.96,0,0,1,6.394,0,6.509,6.509,0,0,0,8.224,0,4.963,4.963,0,0,1,6.4,0,6.277,6.277,0,0,0,4.114,1.464,6,6,0,0,0,4.142-1.61,4.828,4.828,0,0,1,2.389-1.208v3.114a6.156,6.156,0,0,0-3.358,1.566,4.511,4.511,0,0,1-3.172,1.273,4.764,4.764,0,0,1-3.2-1.169,6.511,6.511,0,0,0-8.224,0,4.96,4.96,0,0,1-6.395,0,6.51,6.51,0,0,0-8.224,0,4.76,4.76,0,0,1-3.2,1.169,4.5,4.5,0,0,1-3.169-1.273,6.15,6.15,0,0,0-3.355-1.566v-3.114a4.826,4.826,0,0,1,2.385,1.208,6,6,0,0,0,4.138,1.61Zm0,0" transform="translate(0 -247.425)" fill="#fff"/>
    <path id="Path_6459" data-name="Path 6459" d="M143.926,46.358c-.255,1.44.335,2.887,1.751,4.3a.783.783,0,0,0,1.107-1.107,3.448,3.448,0,0,1-1.317-2.918c.3-1.735,2.639-2.856,2.663-2.867a.783.783,0,1,0-.664-1.419C147.339,42.407,144.373,43.818,143.926,46.358Zm0,0" transform="translate(-129.783 -38.137)" fill="#fff"/>
    <path id="Path_6460" data-name="Path 6460" d="M112.675,37.2a.783.783,0,0,0,.594-1.293,5.22,5.22,0,0,1-1.514-4.172c.366-2.428,2.877-4.037,2.9-4.053a.785.785,0,0,0-.832-1.332c-.128.078-3.138,1.994-3.618,5.135a6.691,6.691,0,0,0,1.872,5.438A.781.781,0,0,0,112.675,37.2Zm0,0" transform="translate(-99.361 -23.668)" fill="#fff"/>
  </g>
</svg>
