<svg id="weight-scale" xmlns="http://www.w3.org/2000/svg" width="32" height="32" viewBox="0 0 32 32">
  <path id="Path_14194" data-name="Path 14194" d="M29.188,0H2.813A2.816,2.816,0,0,0,0,2.813V29.188A2.816,2.816,0,0,0,2.813,32H29.188A2.816,2.816,0,0,0,32,29.188V2.813A2.816,2.816,0,0,0,29.188,0Zm.938,29.188a.939.939,0,0,1-.937.938H2.813a.939.939,0,0,1-.937-.937V2.813a.939.939,0,0,1,.938-.937H29.188a.939.939,0,0,1,.938.938Zm0,0" fill="#fff"/>
  <path id="Path_14195" data-name="Path 14195" d="M99,65.6a18.024,18.024,0,0,0-21.625,0,.938.938,0,0,0-.187,1.313L82.137,73.5a.938.938,0,0,0,1.312.187,7.9,7.9,0,0,1,9.477,0,.937.937,0,0,0,1.312-.187l4.949-6.584A.938.938,0,0,0,99,65.6ZM93.275,71.66a9.665,9.665,0,0,0-4.15-1.382V67.421a.938.938,0,0,0-1.875,0v2.857A9.664,9.664,0,0,0,83.1,71.66l-3.833-5.1a16.154,16.154,0,0,1,17.841,0Zm0,0" transform="translate(-72.187 -58.125)" fill="#fff"/>
</svg>
