<svg xmlns="http://www.w3.org/2000/svg" width="55.213" height="53.162" viewBox="0 0 55.213 53.162">
  <g id="weightlifting" transform="translate(0 -9.507)">
    <g id="Group_1168" data-name="Group 1168" transform="translate(20.12 29.021)">
      <g id="Group_1167" data-name="Group 1167" transform="translate(0)">
        <path id="Path_6442" data-name="Path 6442" d="M325.419,190.466Z" transform="translate(-325.419 -190.466)" fill="#fff"/>
      </g>
    </g>
    <g id="Group_1170" data-name="Group 1170" transform="translate(0 9.507)">
      <g id="Group_1169" data-name="Group 1169">
        <path id="Path_6443" data-name="Path 6443" d="M.82,9.507h5.5a.82.82,0,0,1,.82.82v1.792a.82.82,0,0,1-1.64,0v-.972H1.64V27.795H5.5V15.946a.82.82,0,0,1,1.64,0v2.705h.982A3.933,3.933,0,0,1,11.8,16.12a3.958,3.958,0,0,1,3.15,1.572l.691.893.005.007.045.059H39.524l.044-.057.009-.011.689-.891a3.958,3.958,0,0,1,3.149-1.572,3.932,3.932,0,0,1,3.671,2.531h.982V10.327a.82.82,0,0,1,.82-.82h5.5a.82.82,0,0,1,.82.82V28.615a.82.82,0,0,1-.82.82h-5.5a.82.82,0,0,1-.82-.82V20.291H47.34a3.933,3.933,0,0,1-.755,2.095l-3.193,5.136A.82.82,0,1,1,42,26.656l3.211-5.164.044-.064a2.3,2.3,0,0,0-3.679-2.747l-.008.011-.631.815a2.673,2.673,0,0,0-.177,1,1.929,1.929,0,0,0,1.236,1.714.84.84,0,0,1,.422,1.044.82.82,0,0,1-1.128.437A3.666,3.666,0,0,1,39.317,21.6l-3.858,4.984c0,.021,0,.042,0,.064a7.822,7.822,0,0,1-.368,2.374h0l-.017.046q-.03.094-.063.186c-.329,1.009-1.464,5.075.636,7.614l4.314-6.939a.82.82,0,1,1,1.393.866L36.626,38.4V43.32a7.528,7.528,0,0,1,.756-.039h.532a4.354,4.354,0,0,1,4.315,4.964L40.9,57.66a3.815,3.815,0,0,1,2.8,3.671v.518a.82.82,0,0,1-.82.82H33.039a.849.849,0,0,1-.423-.1.822.822,0,0,1-.407-.841l.547-3.507,0-.011.764-4.894a29.026,29.026,0,0,1-11.829,0l.766,4.9h0L23,61.723a.822.822,0,0,1-.407.841.849.849,0,0,1-.423.1H12.331a.82.82,0,0,1-.82-.82v-.518a3.814,3.814,0,0,1,2.8-3.671l-1.324-9.414A4.357,4.357,0,0,1,17.3,43.282h.533a7.493,7.493,0,0,1,.755.04V38.4L8.628,22.386a3.933,3.933,0,0,1-.755-2.094H7.144v8.324a.82.82,0,0,1-.82.82H.82a.82.82,0,0,1-.82-.82V10.327A.82.82,0,0,1,.82,9.507ZM49.709,27.795h3.864V11.147H49.709Zm-32.75-7.5L20.1,24.346A7.881,7.881,0,0,1,23,20.291Zm10.648.141A6.221,6.221,0,0,0,21.4,26.384a6.248,6.248,0,0,0,2.2-2.173.82.82,0,0,1,1.088-.3,6.22,6.22,0,0,0,5.829,0,.82.82,0,0,1,1.088.3,6.258,6.258,0,0,0,2.205,2.173A6.221,6.221,0,0,0,27.607,20.432Zm0,12.428a6.224,6.224,0,0,0,6.031-4.721,7.892,7.892,0,0,1-3.021-2.464,7.864,7.864,0,0,1-6.022,0,7.883,7.883,0,0,1-3.02,2.464A6.224,6.224,0,0,0,27.607,32.86Zm-2.882,1.09v.8a2.883,2.883,0,0,0,5.765,0v-.8h0a7.823,7.823,0,0,1-5.765,0Zm10.392-9.6,3.139-4.055H32.213A7.882,7.882,0,0,1,35.116,24.346Zm-.13,14.2a7.487,7.487,0,0,1-2.211-5.991,7.889,7.889,0,0,1-.646.509v1.685a4.523,4.523,0,1,1-9.045,0V33.061a7.908,7.908,0,0,1-.646-.509,7.486,7.486,0,0,1-2.211,5.99v2.913H34.986ZM20.227,43.1v.584a7.268,7.268,0,0,1,1.679.832h11.4a7.261,7.261,0,0,1,1.68-.833V43.1H20.227ZM42.041,61.029a2.172,2.172,0,0,0-2.136-1.866H34.267l-.291,1.866ZM31.82,51.953q.993-.154,1.972-.38l.451-2.893a.82.82,0,1,1,1.62.253l-1.34,8.59h4.744l1.337-9.505a2.713,2.713,0,0,0-2.691-3.1h-.533a5.777,5.777,0,0,0-1.38.165,5.724,5.724,0,0,0-4.182,6.866Zm-6.793.2a27.643,27.643,0,0,0,5.158,0,7.351,7.351,0,0,1,1.369-6H23.659A7.315,7.315,0,0,1,25.027,52.156ZM13.172,61.029h8.065l-.291-1.867H15.319A2.172,2.172,0,0,0,13.172,61.029Zm4.66-16.108H17.3a2.717,2.717,0,0,0-2.691,3.1l1.337,9.505H20.69l-1.341-8.591a.82.82,0,1,1,1.62-.253l.452,2.893q.98.227,1.973.381a5.716,5.716,0,0,0-5.562-7.032ZM9.963,21.432q.022.029.04.059l9.56,15.376c2.067-2.5,1-6.477.653-7.564q-.049-.135-.093-.273l0-.009h0a7.824,7.824,0,0,1-.368-2.374c0-.021,0-.042,0-.064L15.9,21.609a3.68,3.68,0,0,1-1.98,2.095.82.82,0,1,1-.728-1.47,1.945,1.945,0,0,0,1.255-1.678,2.657,2.657,0,0,0-.176-1.051l-.63-.814-.008-.01a2.3,2.3,0,1,0-3.676,2.751Z" transform="translate(0 -9.507)" fill="#fff"/>
      </g>
    </g>
    <g id="Group_1172" data-name="Group 1172" transform="translate(24.774 26.926)">
      <g id="Group_1171" data-name="Group 1171">
        <path id="Path_6444" data-name="Path 6444" d="M267.875,171.041a.82.82,0,0,1,.82.82v.917a.82.82,0,1,1-1.64,0v-.917A.82.82,0,0,1,267.875,171.041Z" transform="translate(-267.055 -171.041)" fill="#fff"/>
      </g>
    </g>
    <g id="Group_1174" data-name="Group 1174" transform="translate(28.799 26.926)">
      <g id="Group_1173" data-name="Group 1173">
        <path id="Path_6445" data-name="Path 6445" d="M230.556,171.041a.82.82,0,0,1,.82.82v.917a.82.82,0,1,1-1.64,0v-.917A.82.82,0,0,1,230.556,171.041Z" transform="translate(-229.736 -171.041)" fill="#fff"/>
      </g>
    </g>
  </g>
</svg>
