<svg id="workers" xmlns="http://www.w3.org/2000/svg" width="84.5" height="84.5" viewBox="0 0 84.5 84.5">
  <g id="Group_2921" data-name="Group 2921">
    <g id="Group_2920" data-name="Group 2920">
      <path id="Path_14263" data-name="Path 14263" d="M74.933,24.609a7.636,7.636,0,0,0,1.726-4.842V18.261a7.673,7.673,0,0,0-15.346,0v1.506a7.636,7.636,0,0,0,1.727,4.844,13.081,13.081,0,0,0-3.706,1.681V25.1A9.042,9.042,0,0,0,50.3,16.064H49.237a8.971,8.971,0,0,0,2.047-5.712V9.013a9.013,9.013,0,1,0-18.026,0v1.339A8.971,8.971,0,0,0,35.3,16.064H34.239A9.042,9.042,0,0,0,25.208,25.1v1.225a13.08,13.08,0,0,0-3.748-1.71,7.637,7.637,0,0,0,1.727-4.844V18.262a7.673,7.673,0,0,0-15.346,0v1.506a7.637,7.637,0,0,0,1.726,4.842A13.046,13.046,0,0,0,0,37.165V50.673a5.211,5.211,0,0,0,5.205,5.205H6.59V82.85A1.65,1.65,0,0,0,8.24,84.5H22.764a1.65,1.65,0,0,0,1.65-1.65V55.878h1.408a5.211,5.211,0,0,0,5.2-5.177,8.949,8.949,0,0,0,1.672.458V82.85a1.65,1.65,0,0,0,1.65,1.65H50.193a1.65,1.65,0,0,0,1.65-1.65v-16a1.65,1.65,0,0,0-3.3,0V81.2H43.921V53.358a1.65,1.65,0,0,0-3.3,0V81.2H36V46.138H48.542v7.949a1.65,1.65,0,0,0,3.3,0V51.159a8.955,8.955,0,0,0,1.631-.442,5.211,5.211,0,0,0,5.2,5.161h1.408V82.85a1.65,1.65,0,0,0,1.65,1.65H76.26a1.65,1.65,0,0,0,1.65-1.65V55.878h1.385A5.211,5.211,0,0,0,84.5,50.673V37.165A13.047,13.047,0,0,0,74.933,24.609ZM11.141,18.261a4.372,4.372,0,0,1,8.745,0v1.506a4.372,4.372,0,1,1-8.745,0ZM21.113,81.2H17.162V55.783a1.65,1.65,0,0,0-3.3,0v1.733a1.653,1.653,0,0,0-.021.248V81.2H9.89V49.346H21.113Zm6.613-30.527a1.906,1.906,0,0,1-1.9,1.9H24.414V43.793a1.65,1.65,0,0,0-3.3,0v2.252H9.89V38.539a1.65,1.65,0,0,0-3.3,0V52.577H5.205a1.907,1.907,0,0,1-1.9-1.9V37.165a9.736,9.736,0,0,1,9.725-9.725H18a9.746,9.746,0,0,1,7.2,3.192l0,0V42.262a9,9,0,0,0,2.519,6.247v2.163ZM42.271,3.3a5.719,5.719,0,0,1,5.712,5.712v1.339a5.712,5.712,0,0,1-11.424,0V9.013h0A5.719,5.719,0,0,1,42.271,3.3ZM56.033,42.262a5.74,5.74,0,0,1-4.19,5.519V25.1a1.65,1.65,0,1,0-3.3,0V42.837H36V25.1a1.65,1.65,0,0,0-3.3,0V47.78a5.74,5.74,0,0,1-4.19-5.519V25.1a5.737,5.737,0,0,1,5.73-5.731h6.326v4.51a1.65,1.65,0,0,0,3.3,0v-4.51H50.3a5.737,5.737,0,0,1,5.73,5.731Zm8.581-24a4.372,4.372,0,0,1,8.745,0v1.506a4.372,4.372,0,0,1-8.745,0Zm10,62.938H70.659V57.764a1.655,1.655,0,0,0-.021-.248V55.783a1.65,1.65,0,0,0-3.3,0V81.2H63.387V49.346H74.61Zm4.685-28.622H77.91V38.539a1.65,1.65,0,0,0-3.3,0v7.505H63.387V43.793a1.65,1.65,0,0,0-3.3,0v8.784H58.678a1.907,1.907,0,0,1-1.9-1.9V48.553a9,9,0,0,0,2.561-6.291V30.591A9.746,9.746,0,0,1,66.5,27.44h4.977A9.736,9.736,0,0,1,81.2,37.165V50.673h0A1.907,1.907,0,0,1,79.295,52.577Z" fill="#00a5d1"/>
    </g>
  </g>
  <g id="Group_2923" data-name="Group 2923" transform="translate(48.543 58.708)">
    <g id="Group_2922" data-name="Group 2922">
      <path id="Path_14264" data-name="Path 14264" d="M296.947,356.2a1.65,1.65,0,1,0,.484,1.167A1.656,1.656,0,0,0,296.947,356.2Z" transform="translate(-294.13 -355.72)" fill="#00a5d1"/>
    </g>
  </g>
  <g id="Group_2925" data-name="Group 2925" transform="translate(40.565 28.392)">
    <g id="Group_2924" data-name="Group 2924">
      <path id="Path_14265" data-name="Path 14265" d="M248.607,172.514a1.649,1.649,0,1,0,.484,1.167A1.66,1.66,0,0,0,248.607,172.514Z" transform="translate(-245.79 -172.03)" fill="#00a5d1"/>
    </g>
  </g>
</svg>
