<svg id="Yoga" xmlns="http://www.w3.org/2000/svg" width="39.992" height="40" viewBox="0 0 39.992 40">
  <g id="Yoga-2" data-name="Yoga">
    <g id="padmasana">
      <path id="Path_6463" d="M113.581,429.462a.781.781,0,1,0-.781-.781.807.807,0,0,0,.227.555A.773.773,0,0,0,113.581,429.462Z" transform="translate(-103.989 -394.477)" fill="#fff"/>
      <path id="Path_6464" d="M39.211,38.43H35.352a5.156,5.156,0,0,0,1-1.547,4.957,4.957,0,0,0-.047-3.921,4.879,4.879,0,0,0-.273-.531,3.034,3.034,0,0,0,.633-.219,2.912,2.912,0,0,0,1.672-2.648.79.79,0,0,0-.273-.594L32.072,23.8l-2.257-6.694a7.516,7.516,0,0,0-6.272-5.077,4.9,4.9,0,0,0,1.375-3.406V7.6A4.918,4.918,0,0,0,23.144,3.82V3.14a3.148,3.148,0,0,0-6.3.008v.68a4.906,4.906,0,0,0-1.773,3.781V8.631a4.9,4.9,0,0,0,1.375,3.406,7.529,7.529,0,0,0-6.272,5.077l-2.257,6.7L1.937,28.979a.79.79,0,0,0-.273.594A2.912,2.912,0,0,0,3.335,32.22a3.129,3.129,0,0,0,.625.219,4.878,4.878,0,0,0-.273.531,5.019,5.019,0,0,0,.953,5.468H.781A.781.781,0,0,0,.781,40h38.43a.785.785,0,0,0,0-1.57ZM25.956,23.941l.312.75A7.939,7.939,0,0,0,28.6,27.807l1.5,1.226-4.148-1.539ZM20,1.562a1.583,1.583,0,0,1,1.57,1.375,4.887,4.887,0,0,0-3.132,0A1.576,1.576,0,0,1,20,1.562ZM16.645,7.6a3.355,3.355,0,0,1,6.71,0V8.623a3.355,3.355,0,0,1-6.71,0ZM3.265,29.9l5.85-5.046a.719.719,0,0,0,.227-.344l2.32-6.9a5.966,5.966,0,0,1,5.655-4.07h5.358a5.956,5.956,0,0,1,5.655,4.07l2.32,6.9a.854.854,0,0,0,.227.344l5.85,5.046a1.367,1.367,0,0,1-1.656,1,1.45,1.45,0,0,1-.539-.266L29.58,26.6a6.422,6.422,0,0,1-1.875-2.515l-1.757-4.187V17.817a.781.781,0,0,0-1.562,0v9.436H15.6V17.825a.781.781,0,1,0-1.562,0V19.91l-1.75,4.179A6.556,6.556,0,0,1,10.412,26.6L5.46,30.635a1.374,1.374,0,0,1-1.929-.2,1.45,1.45,0,0,1-.266-.539Zm10.771-2.406L9.889,29.033l1.5-1.226a8.129,8.129,0,0,0,2.335-3.117l.312-.742Zm-8.944,8.8a3.452,3.452,0,0,1,1.882-4.507c.039-.016.078-.031.109-.047l7.873-2.921H25.034l7.873,2.921a3.456,3.456,0,0,1-1.07,6.694h-.227a3.336,3.336,0,0,1-1.109-.219l-7.03-2.617h1.047a.783.783,0,0,0,.781-.781.733.733,0,0,0-.148-.453l-.773-1.078,5.8,1.672a.781.781,0,0,0,.437-1.5l-8.8-2.539a5.158,5.158,0,0,0-3.663-.211L12.1,32.6a.781.781,0,0,0,.461,1.492h0l6.054-1.9a3.625,3.625,0,0,1,2.546.141.418.418,0,0,0,.086.039,3.612,3.612,0,0,1,1.406,1.179L23,34.04h-2.14a.8.8,0,0,0-.273.047L9.49,38.211a3.633,3.633,0,0,1-1.109.219H8.155A3.429,3.429,0,0,1,5.093,36.29ZM20,35.97,26.6,38.43H13.388Z" fill="#fff"/>
    </g>
  </g>
</svg>
