<svg xmlns="http://www.w3.org/2000/svg" width="70.944" height="70.944" viewBox="0 0 70.944 70.944">
  <g id="mad" transform="translate(0 0)">
    <ellipse id="Ellipse_1247" data-name="Ellipse 1247" cx="35.472" cy="35.472" rx="35.472" ry="35.472" transform="translate(0 0)" fill="#ffc10e"/>
    <g id="Group_4895" data-name="Group 4895" transform="translate(17.049 9.824)">
      <path id="Path_16379" data-name="Path 16379" d="M150.332,311.25a25.007,25.007,0,0,0-36.037,0c-1.256,1.3.723,3.28,1.98,1.98a22.176,22.176,0,0,1,32.077,0c1.258,1.3,3.236-.683,1.98-1.98Z" transform="translate(-113.893 -267.964)" fill="#333"/>
      <ellipse id="Ellipse_1248" data-name="Ellipse 1248" cx="5.571" cy="5.571" rx="5.571" ry="5.571" transform="translate(2.07 13.445)" fill="#333"/>
      <ellipse id="Ellipse_1249" data-name="Ellipse 1249" cx="5.571" cy="5.571" rx="5.571" ry="5.571" transform="translate(23.136 13.445)" fill="#333"/>
      <path id="Path_16380" data-name="Path 16380" d="M167.727,66.041,154.85,78.918h1.98L143.953,66.041a1.4,1.4,0,0,0-1.98,1.98L154.85,80.9a1.414,1.414,0,0,0,1.98,0l12.877-12.877a1.4,1.4,0,0,0-1.98-1.98Z" transform="translate(-137.419 -65.628)" fill="#333"/>
    </g>
  </g>
</svg>
