<svg xmlns="http://www.w3.org/2000/svg" width="316" height="214.348" viewBox="0 0 316 214.348">
  <g id="Group_5100" data-name="Group 5100" transform="translate(-92.904 -54.552)">
    <g id="Background_Complete" data-name="Background Complete" transform="translate(94.741 96.575)">
      <g id="Group_4966" data-name="Group 4966" transform="translate(203.22 22.576)">
        <path id="Path_16568" data-name="Path 16568" d="M474.951,194v23.669a7.72,7.72,0,0,0,7.754,7.588h84.869a7.754,7.754,0,0,0,7.754-7.754v-20l10.566-11.1-103.165-.322A7.79,7.79,0,0,0,474.951,194Z" transform="translate(-474.951 -186.081)" fill="#6e7281"/>
        <g id="Group_4963" data-name="Group 4963" transform="translate(10.853 11.617)">
          <path id="Path_16569" data-name="Path 16569" d="M572.185,210.447l-77.013-.356.008-2.367,77.013.356Z" transform="translate(-495.172 -207.724)" fill="#e0e0e0"/>
        </g>
        <g id="Group_4964" data-name="Group 4964" transform="translate(10.853 19.404)">
          <path id="Path_16570" data-name="Path 16570" d="M572.185,224.956l-77.013-.356.008-2.367,77.013.356Z" transform="translate(-495.172 -222.233)" fill="#e0e0e0"/>
        </g>
        <g id="Group_4965" data-name="Group 4965" transform="translate(57.394 27.2)">
          <rect id="Rectangle_3476" data-name="Rectangle 3476" width="2.367" height="30.472" transform="matrix(0.005, -1, 1, 0.005, 0, 2.367)" fill="#e0e0e0"/>
        </g>
      </g>
      <g id="Group_4990" data-name="Group 4990" transform="translate(8.949 69.267)">
        <g id="Group_4969" data-name="Group 4969">
          <g id="Group_4968" data-name="Group 4968">
            <g id="Group_4967" data-name="Group 4967">
              <path id="Path_16571" data-name="Path 16571" d="M162.63,354.942c11.867-8.291,14.56-23.681,14.09-37.514-.078-2.309.176-4.744-.923-6.77s-3.662-3.41-5.73-2.437c-1.715.807-2.462,2.8-3.422,4.452a13.509,13.509,0,0,1-5.416,5.173c-1.47.763-3.29,1.23-4.742.429-1.991-1.1-2.226-3.851-2.212-6.148q.04-6.421.08-12.841a21.416,21.416,0,0,0-.693-6.821,7.124,7.124,0,0,0-4.477-4.817c-2.185-.612-4.887.648-5.348,2.9a21.224,21.224,0,0,0-.065,2.86,2.415,2.415,0,0,1-1.413,2.274,2.777,2.777,0,0,1-2.522-1.054,30.541,30.541,0,0,1-5.483-8.277,42.353,42.353,0,0,0-5.113-8.542c-2.151-2.529-5.126-4.534-8.415-4.72s-6.794,1.844-7.625,5.073,1.055,6.523,3.111,9.144a51.26,51.26,0,0,0,10.674,10.174,4.217,4.217,0,0,1,1.785,1.92c.5,1.531-.952,3.052-2.464,3.555-1.712.57-3.569.392-5.36.6s-3.731,1-4.409,2.693c-.94,2.348,1.023,4.808,2.955,6.42a43.911,43.911,0,0,0,13,7.5,14.809,14.809,0,0,1,4.83,2.348c1.362,1.187,2.184,3.251,1.362,4.869s-2.936,2.137-4.706,1.809a30.59,30.59,0,0,1-5.04-1.925c-3.156-1.191-7.232-.974-9.254,1.754a7.269,7.269,0,0,0-.773,6.427,16.755,16.755,0,0,0,3.482,5.677,44.159,44.159,0,0,0,18.857,13.251c7.321,2.539,14.1,3.226,21.381.565" transform="translate(-113 -273.072)" fill="#5cb8a2"/>
            </g>
          </g>
        </g>
        <g id="Group_4973" data-name="Group 4973" transform="translate(3.52 1.934)">
          <g id="Group_4972" data-name="Group 4972">
            <g id="Group_4971" data-name="Group 4971">
              <g id="Group_4970" data-name="Group 4970">
                <path id="Path_16572" data-name="Path 16572" d="M165.849,366.868a100.863,100.863,0,0,0-3.752-18.928,205.807,205.807,0,0,0-8.169-22.157q-1.236-2.885-2.439-5.7c-.805-1.868-1.6-3.721-2.5-5.485a102.736,102.736,0,0,0-5.71-9.842c-1.968-3.043-3.946-5.858-5.815-8.477s-3.669-5.022-5.4-7.144a81.589,81.589,0,0,0-8.894-9.4c-1.133-1.024-2.038-1.789-2.658-2.3l-.708-.576a1.82,1.82,0,0,0-.251-.185,1.551,1.551,0,0,0,.223.218l.682.608c.6.531,1.488,1.316,2.6,2.357a86.165,86.165,0,0,1,8.772,9.468c1.709,2.129,3.484,4.539,5.344,7.161s3.82,5.445,5.775,8.486a103.988,103.988,0,0,1,5.666,9.815c.885,1.756,1.674,3.593,2.48,5.466l2.437,5.7a210.876,210.876,0,0,1,8.185,22.1,102.591,102.591,0,0,1,3.828,18.845" transform="translate(-119.558 -276.675)" fill="#e0e0e0"/>
              </g>
            </g>
          </g>
        </g>
        <g id="Group_4977" data-name="Group 4977" transform="translate(32.821 14.575)">
          <g id="Group_4976" data-name="Group 4976">
            <g id="Group_4975" data-name="Group 4975">
              <g id="Group_4974" data-name="Group 4974">
                <path id="Path_16573" data-name="Path 16573" d="M174.162,325.494a4.629,4.629,0,0,0,.224-.98c.121-.635.265-1.558.426-2.7.325-2.286.666-5.46,1.028-8.96s.747-6.661,1.106-8.936c.177-1.138.328-2.058.441-2.693a4.607,4.607,0,0,0,.128-1,4.563,4.563,0,0,0-.289.962c-.163.625-.36,1.54-.574,2.675-.436,2.271-.87,5.438-1.232,8.943-.349,3.455-.664,6.58-.9,8.968-.115,1.078-.214,1.987-.293,2.716A4.635,4.635,0,0,0,174.162,325.494Z" transform="translate(-174.149 -300.227)" fill="#e0e0e0"/>
              </g>
            </g>
          </g>
        </g>
        <g id="Group_4981" data-name="Group 4981" transform="translate(3.305 34.294)">
          <g id="Group_4980" data-name="Group 4980">
            <g id="Group_4979" data-name="Group 4979">
              <g id="Group_4978" data-name="Group 4978">
                <path id="Path_16574" data-name="Path 16574" d="M119.158,337a6.418,6.418,0,0,0,1.178.141c.758.068,1.855.159,3.206.316,2.7.292,6.426.826,10.507,1.595s7.743,1.637,10.374,2.335c1.319.34,2.378.644,3.111.849a6.316,6.316,0,0,0,1.152.283,6.3,6.3,0,0,0-1.1-.442c-.72-.254-1.77-.6-3.082-.982-2.618-.775-6.283-1.684-10.375-2.464a104.252,104.252,0,0,0-10.555-1.475c-1.36-.118-2.463-.165-3.226-.18A6.211,6.211,0,0,0,119.158,337Z" transform="translate(-119.158 -336.965)" fill="#e0e0e0"/>
              </g>
            </g>
          </g>
        </g>
        <g id="Group_4985" data-name="Group 4985" transform="translate(45.693 34.942)">
          <g id="Group_4984" data-name="Group 4984">
            <g id="Group_4983" data-name="Group 4983">
              <g id="Group_4982" data-name="Group 4982">
                <path id="Path_16575" data-name="Path 16575" d="M198.134,375.886a1.528,1.528,0,0,0,.2-.36l.5-1.069c.435-.929,1.028-2.291,1.739-3.983,1.424-3.383,3.246-8.117,5.184-13.368s3.714-10,5.066-13.407c.662-1.656,1.208-3.019,1.613-4.031l.433-1.1a1.519,1.519,0,0,0,.125-.4,1.57,1.57,0,0,0-.2.361l-.5,1.068c-.435.929-1.028,2.291-1.739,3.983-1.425,3.383-3.246,8.117-5.185,13.371s-3.714,10-5.065,13.4c-.663,1.656-1.208,3.019-1.613,4.031l-.433,1.1A1.546,1.546,0,0,0,198.134,375.886Z" transform="translate(-198.132 -338.173)" fill="#e0e0e0"/>
              </g>
            </g>
          </g>
        </g>
        <g id="Group_4989" data-name="Group 4989" transform="translate(6.457 60.005)">
          <g id="Group_4988" data-name="Group 4988">
            <g id="Group_4987" data-name="Group 4987">
              <g id="Group_4986" data-name="Group 4986">
                <path id="Path_16576" data-name="Path 16576" d="M125.031,384.872a1.562,1.562,0,0,0,.39.16l1.139.382,4.2,1.362c3.548,1.151,8.429,2.8,13.821,4.621s10.295,3.428,13.868,4.505c1.786.539,3.235.961,4.243,1.232l1.162.305a1.56,1.56,0,0,0,.413.078,1.584,1.584,0,0,0-.389-.162l-1.139-.381-4.2-1.362c-3.548-1.15-8.43-2.8-13.823-4.622s-10.293-3.428-13.865-4.5c-1.786-.539-3.235-.961-4.244-1.232l-1.162-.305A1.548,1.548,0,0,0,125.031,384.872Z" transform="translate(-125.031 -384.868)" fill="#e0e0e0"/>
              </g>
            </g>
          </g>
        </g>
      </g>
      <g id="Group_4994" data-name="Group 4994" transform="translate(0)">
        <path id="Path_16577" data-name="Path 16577" d="M182.289,150.028v18.339a6.008,6.008,0,0,1-6.008,6.008H110.522a6.008,6.008,0,0,1-6.008-6.008v-15.5l-8.187-8.6,79.935-.25A6.008,6.008,0,0,1,182.289,150.028Z" transform="translate(-96.327 -144.02)" fill="#c4c6cc"/>
        <g id="Group_4991" data-name="Group 4991" transform="translate(17.874 9.001)">
          <path id="Path_16578" data-name="Path 16578" d="M129.635,162.9l59.672-.276-.006-1.834-59.672.276Z" transform="translate(-129.629 -160.791)" fill="#fafafa"/>
        </g>
        <g id="Group_4992" data-name="Group 4992" transform="translate(17.874 15.035)">
          <path id="Path_16579" data-name="Path 16579" d="M129.635,174.142l59.672-.276-.006-1.834-59.672.276Z" transform="translate(-129.629 -172.032)" fill="#fafafa"/>
        </g>
        <g id="Group_4993" data-name="Group 4993" transform="translate(17.872 21.076)">
          <rect id="Rectangle_3477" data-name="Rectangle 3477" width="23.611" height="1.834" transform="translate(0 0.116) rotate(-0.282)" fill="#fafafa"/>
        </g>
      </g>
    </g>
    <g id="Floor" transform="translate(92.904 268.621)">
      <g id="Group_4995" data-name="Group 4995">
        <path id="Path_16580" data-name="Path 16580" d="M402.212,464.7c0,.077-69.247.14-154.646.14-85.43,0-154.661-.063-154.661-.14s69.232-.14,154.661-.14C332.965,464.562,402.212,464.625,402.212,464.7Z" transform="translate(-92.904 -464.562)" fill="#707070"/>
      </g>
    </g>
    <g id="Device" transform="translate(148.48 130.227)">
      <g id="Group_5035" data-name="Group 5035" transform="translate(0)">
        <g id="Group_5001" data-name="Group 5001">
          <g id="Group_5000" data-name="Group 5000">
            <g id="Group_4996" data-name="Group 4996">
              <path id="Rectangle_3478" data-name="Rectangle 3478" d="M11.55,0H126.984a11.549,11.549,0,0,1,11.549,11.549V187.258a11.549,11.549,0,0,1-11.549,11.549H11.549A11.549,11.549,0,0,1,0,187.258V11.55A11.55,11.55,0,0,1,11.55,0Z" transform="translate(0 138.533) rotate(-90)" fill="#263238"/>
            </g>
            <g id="Group_4997" data-name="Group 4997" transform="translate(13.601 4.369)">
              <rect id="Rectangle_3479" data-name="Rectangle 3479" width="129.796" height="166.028" transform="translate(0 129.796) rotate(-90)" fill="#fff"/>
            </g>
            <g id="Group_4998" data-name="Group 4998" transform="translate(182.426 62.876)">
              <circle id="Ellipse_1316" data-name="Ellipse 1316" cx="5.315" cy="5.315" r="5.315" transform="matrix(0.229, -0.973, 0.973, 0.229, 0, 10.349)" fill="#455a64"/>
            </g>
            <g id="Group_4999" data-name="Group 4999" transform="translate(5.726 48.405)">
              <rect id="Rectangle_3480" data-name="Rectangle 3480" width="41.724" height="2.196" rx="1.098" transform="translate(0 41.724) rotate(-90)" fill="#455a64"/>
            </g>
          </g>
        </g>
        <g id="Group_5007" data-name="Group 5007" transform="translate(30.913 54.589)">
          <circle id="Ellipse_1317" data-name="Ellipse 1317" cx="13.413" cy="13.413" r="13.413" transform="translate(0 22.408) rotate(-56.646)" fill="#ffc10e"/>
          <circle id="Ellipse_1318" data-name="Ellipse 1318" cx="13.413" cy="13.413" r="13.413" transform="translate(0 22.408) rotate(-56.646)" fill="#fff" opacity="0.3"/>
          <g id="Group_5002" data-name="Group 5002" transform="translate(13.134 15.197)">
            <path id="Path_16581" data-name="Path 16581" d="M279.331,336.74c.508-.042.969.518,1.03,1.253s-.3,1.362-.811,1.4-.97-.519-1.03-1.253S278.823,336.782,279.331,336.74Z" transform="translate(-278.514 -336.738)" fill="#263238"/>
          </g>
          <g id="Group_5003" data-name="Group 5003" transform="translate(21.5 15.023)">
            <path id="Path_16582" data-name="Path 16582" d="M295.08,336.415c-.51-.021-.947.558-.977,1.294s.359,1.349.868,1.37.947-.559.978-1.294S295.589,336.435,295.08,336.415Z" transform="translate(-294.101 -336.414)" fill="#263238"/>
          </g>
          <g id="Group_5004" data-name="Group 5004" transform="translate(12.773 20.949)">
            <path id="Path_16583" data-name="Path 16583" d="M289.01,347.74a54.541,54.541,0,0,1-11.168,0,54.645,54.645,0,0,1,11.168,0Z" transform="translate(-277.842 -347.454)" fill="#263238"/>
          </g>
          <g id="Group_5005" data-name="Group 5005" transform="translate(12.122 13.332)">
            <path id="Path_16584" data-name="Path 16584" d="M279.483,333.589c-.033.159-.669.154-1.415.275s-1.352.311-1.432.17.479-.6,1.343-.735S279.522,333.441,279.483,333.589Z" transform="translate(-276.628 -333.262)" fill="#263238"/>
          </g>
          <g id="Group_5006" data-name="Group 5006" transform="translate(22.071 13.23)">
            <path id="Path_16585" data-name="Path 16585" d="M297.993,334.151c-.1.128-.681-.176-1.426-.4s-1.391-.308-1.4-.47.711-.344,1.571-.077S298.1,334.038,297.993,334.151Z" transform="translate(-295.164 -333.073)" fill="#263238"/>
          </g>
        </g>
        <g id="Group_5013" data-name="Group 5013" transform="translate(130.677 56.138)">
          <circle id="Ellipse_1319" data-name="Ellipse 1319" cx="13.903" cy="13.903" r="13.903" transform="translate(0 27.46) rotate(-80.951)" fill="#ffc10e"/>
          <circle id="Ellipse_1320" data-name="Ellipse 1320" cx="13.903" cy="13.903" r="13.903" transform="translate(0 27.46) rotate(-80.951)" opacity="0.13"/>
          <g id="Group_5008" data-name="Group 5008" transform="translate(10.273 12.412)">
            <path id="Path_16586" data-name="Path 16586" d="M459.9,334.437c.527-.043,1,.538,1.068,1.3s-.314,1.412-.841,1.456-1.005-.538-1.068-1.3S459.376,334.48,459.9,334.437Z" transform="translate(-459.055 -334.435)" fill="#263238"/>
          </g>
          <g id="Group_5009" data-name="Group 5009" transform="translate(18.944 12.231)">
            <path id="Path_16587" data-name="Path 16587" d="M476.226,334.1c-.528-.022-.982.579-1.013,1.341s.372,1.4.9,1.42.982-.579,1.013-1.342S476.754,334.12,476.226,334.1Z" transform="translate(-475.211 -334.099)" fill="#263238"/>
          </g>
          <g id="Group_5010" data-name="Group 5010" transform="translate(9.897 16.23)">
            <path id="Path_16588" data-name="Path 16588" d="M469.934,343.989a10.026,10.026,0,0,1-1.628-.844,9.012,9.012,0,0,0-4.139-1.022,10.3,10.3,0,0,0-4.15,1.077,8.951,8.951,0,0,1-1.659.79,4.552,4.552,0,0,1,1.469-1.146,9.029,9.029,0,0,1,4.33-1.292,8.13,8.13,0,0,1,4.346,1.241A4.323,4.323,0,0,1,469.934,343.989Z" transform="translate(-458.355 -341.549)" fill="#263238"/>
          </g>
          <g id="Group_5011" data-name="Group 5011" transform="translate(9.227 10.789)">
            <path id="Path_16589" data-name="Path 16589" d="M460.063,331.439c.047.059-.044.233-.274.435a2.312,2.312,0,0,1-1.088.509,2.088,2.088,0,0,1-1.206-.134c-.284-.132-.414-.282-.383-.35.073-.151.727.067,1.489-.08S459.957,331.306,460.063,331.439Z" transform="translate(-457.107 -331.411)" fill="#263238"/>
          </g>
          <g id="Group_5012" data-name="Group 5012" transform="translate(19.519 10.57)">
            <path id="Path_16590" data-name="Path 16590" d="M479.231,331.924c.023.07-.129.206-.436.3a2.065,2.065,0,0,1-1.25-.046,2.431,2.431,0,0,1-1.022-.683c-.2-.236-.278-.421-.224-.474.121-.125.68.354,1.433.617S479.177,331.763,479.231,331.924Z" transform="translate(-476.282 -331.004)" fill="#263238"/>
          </g>
        </g>
        <g id="Group_5019" data-name="Group 5019" transform="translate(65.572 100.931)">
          <g id="Group_5014" data-name="Group 5014" transform="translate(52.558)">
            <path id="Path_16591" data-name="Path 16591" d="M418.359,404.479l3.221-1.6,3.141,1.748-.523-3.557,2.633-2.447-3.544-.6-1.514-3.261-1.667,3.185-3.569.432,2.514,2.57Z" transform="translate(-416.538 -394.765)" fill="#e0e0e0"/>
          </g>
          <g id="Group_5015" data-name="Group 5015" transform="translate(39.418)">
            <path id="Path_16592" data-name="Path 16592" d="M393.879,404.479l3.221-1.6,3.141,1.748-.523-3.557,2.633-2.447-3.544-.6-1.514-3.261-1.667,3.185-3.569.432,2.514,2.57Z" transform="translate(-392.057 -394.765)" fill="#d97441"/>
          </g>
          <g id="Group_5016" data-name="Group 5016" transform="translate(26.279)">
            <path id="Path_16593" data-name="Path 16593" d="M369.4,404.479l3.221-1.6,3.141,1.748-.523-3.557,2.633-2.447-3.544-.6-1.514-3.261-1.667,3.185-3.569.432,2.514,2.57Z" transform="translate(-367.577 -394.765)" fill="#d97441"/>
          </g>
          <g id="Group_5017" data-name="Group 5017" transform="translate(13.139)">
            <path id="Path_16594" data-name="Path 16594" d="M344.919,404.479l3.221-1.6,3.141,1.748-.523-3.557,2.633-2.447-3.544-.6-1.514-3.261-1.667,3.185-3.569.432,2.514,2.57Z" transform="translate(-343.097 -394.765)" fill="#d97441"/>
          </g>
          <g id="Group_5018" data-name="Group 5018">
            <path id="Path_16595" data-name="Path 16595" d="M320.438,404.479l3.221-1.6,3.141,1.748-.523-3.557,2.633-2.447-3.544-.6-1.514-3.261-1.667,3.185-3.569.432,2.514,2.57Z" transform="translate(-318.616 -394.765)" fill="#d97441"/>
          </g>
        </g>
        <g id="Group_5020" data-name="Group 5020" transform="translate(64.183 31.414)">
          <path id="Path_16596" data-name="Path 16596" d="M380.417,265.39c0,.079-14.415.143-32.192.143s-32.195-.064-32.195-.143,14.411-.143,32.195-.143S380.417,265.311,380.417,265.39Z" transform="translate(-316.03 -265.247)" fill="#263238"/>
        </g>
        <g id="Group_5021" data-name="Group 5021" transform="translate(80.941 27.547)">
          <path id="Path_16597" data-name="Path 16597" d="M379.054,258.185c0,.079-7.12.143-15.9.143s-15.9-.064-15.9-.143,7.118-.143,15.9-.143S379.054,258.106,379.054,258.185Z" transform="translate(-347.251 -258.042)" fill="#263238"/>
        </g>
        <g id="Group_5032" data-name="Group 5032" transform="translate(75.873 45.805)">
          <g id="Group_5030" data-name="Group 5030" transform="translate(0.204)">
            <g id="Group_5027" data-name="Group 5027" transform="translate(0)">
              <circle id="Ellipse_1321" data-name="Ellipse 1321" cx="18.315" cy="18.315" r="18.315" transform="matrix(0.307, -0.952, 0.952, 0.307, 0, 34.865)" fill="#ffc10e"/>
              <g id="Group_5022" data-name="Group 5022" transform="translate(15.613 18.431)">
                <path id="Path_16598" data-name="Path 16598" d="M368.395,326.4c.694-.057,1.324.708,1.407,1.711s-.413,1.86-1.107,1.918-1.324-.709-1.406-1.711S367.7,326.456,368.395,326.4Z" transform="translate(-367.279 -326.396)" fill="#263238"/>
              </g>
              <g id="Group_5023" data-name="Group 5023" transform="translate(27.037 18.193)">
                <path id="Path_16599" data-name="Path 16599" d="M389.9,325.954c-.7-.028-1.293.762-1.334,1.767s.49,1.842,1.186,1.87,1.294-.763,1.334-1.767S390.595,325.983,389.9,325.954Z" transform="translate(-388.562 -325.954)" fill="#263238"/>
              </g>
              <g id="Group_5024" data-name="Group 5024" transform="translate(15.12 24.198)">
                <path id="Path_16600" data-name="Path 16600" d="M381.61,337.148c.028.028-.12.217-.415.537a10.464,10.464,0,0,1-1.373,1.236,9.783,9.783,0,0,1-2.422,1.327,8.581,8.581,0,0,1-3.357.526,9.9,9.9,0,0,1-3.3-.761,14.237,14.237,0,0,1-2.432-1.274,7.923,7.923,0,0,1-1.946-1.591,17.61,17.61,0,0,1,2.156,1.245,17.268,17.268,0,0,0,2.412,1.129,10.214,10.214,0,0,0,3.14.681,8.647,8.647,0,0,0,3.154-.451,10.784,10.784,0,0,0,2.367-1.162c.624-.429,1.127-.791,1.453-1.069S381.582,337.12,381.61,337.148Z" transform="translate(-366.359 -337.141)" fill="#263238"/>
              </g>
              <g id="Group_5025" data-name="Group 5025" transform="translate(13.664 13.967)">
                <path id="Path_16601" data-name="Path 16601" d="M367.54,318.426c-.032.162-.908.1-1.948.273s-1.859.479-1.939.334c-.083-.127.691-.722,1.851-.9S367.58,318.28,367.54,318.426Z" transform="translate(-363.647 -318.079)" fill="#263238"/>
              </g>
              <g id="Group_5026" data-name="Group 5026" transform="translate(28.439 13.783)">
                <path id="Path_16602" data-name="Path 16602" d="M395.037,319.123c-.1.131-.877-.332-1.915-.644s-1.937-.377-1.947-.542c-.021-.15.962-.363,2.115-.005S395.139,319.012,395.037,319.123Z" transform="translate(-391.174 -317.737)" fill="#263238"/>
              </g>
            </g>
            <g id="Group_5028" data-name="Group 5028" transform="translate(13.602 22.887)">
              <path id="Path_16603" data-name="Path 16603" d="M365.35,334.7c.072-.013.188.177.207.523a2.156,2.156,0,0,1-1.462,2.059c-.333.1-.55.049-.561-.023-.027-.159.676-.395,1.158-1.1C365.2,335.468,365.191,334.726,365.35,334.7Z" transform="translate(-363.533 -334.699)" fill="#263238"/>
            </g>
            <g id="Group_5029" data-name="Group 5029" transform="translate(29.815 23.083)">
              <path id="Path_16604" data-name="Path 16604" d="M395.842,336.552c.014.072-.136.183-.423.208a1.659,1.659,0,0,1-1.657-1.23c-.059-.281,0-.457.076-.465.16-.013.341.529.879.91C395.237,336.378,395.808,336.4,395.842,336.552Z" transform="translate(-393.738 -335.065)" fill="#263238"/>
            </g>
          </g>
          <g id="Group_5031" data-name="Group 5031" transform="translate(0 0.019)">
            <path id="Path_16605" data-name="Path 16605" d="M383.456,314.962s-.016-.125-.033-.368l-.069-1.08q-.022-.357-.047-.795c-.031-.291-.093-.607-.144-.951s-.113-.713-.176-1.107a12.214,12.214,0,0,0-.3-1.24,21.69,21.69,0,0,0-2.519-6.036,22.613,22.613,0,0,0-5.763-6.427l-.98-.729c-.344-.225-.706-.432-1.065-.653s-.712-.461-1.1-.639l-1.175-.564-.6-.283-.628-.229-1.274-.464c-.433-.143-.886-.235-1.334-.357a11.483,11.483,0,0,0-1.37-.31,21.059,21.059,0,0,0-2.861-.331c-.488-.017-.98-.064-1.475-.057l-1.5.077c-.251.018-.5.016-.756.049l-.755.116c-.5.083-1.016.142-1.522.247a23.929,23.929,0,0,0-3.016.886,23.571,23.571,0,0,0-2.95,1.3c-.478.259-.936.561-1.408.841-.231.149-.478.275-.7.442l-.666.5a25.505,25.505,0,0,0-2.565,2.181l-1.149,1.266-.289.318-.26.344-.517.693-.52.7-.456.744-.455.749-.228.375-.193.4-.768,1.595-.613,1.675a22.409,22.409,0,0,0,0,14.269q.308.841.613,1.675l.768,1.6.193.4.228.376.455.749.456.744.52.7.517.693.26.344.289.318,1.15,1.266a25.41,25.41,0,0,0,2.566,2.181l.666.5c.221.167.468.294.7.442.473.281.931.582,1.408.842a23.692,23.692,0,0,0,2.95,1.3,23.968,23.968,0,0,0,3.016.885c.507.1,1.019.164,1.522.247l.755.116c.251.033.505.032.756.049l1.5.077c.5.008.987-.04,1.475-.057a20.99,20.99,0,0,0,2.862-.331,11.628,11.628,0,0,0,1.37-.31c.448-.122.9-.214,1.334-.357l1.274-.464.628-.229.6-.284,1.176-.564c.392-.178.739-.431,1.1-.639s.721-.427,1.065-.653l.979-.73a22.6,22.6,0,0,0,5.762-6.427,21.7,21.7,0,0,0,2.519-6.036,12.393,12.393,0,0,0,.3-1.24q.093-.592.176-1.107c.051-.344.113-.659.144-.95s.033-.557.047-.8c.03-.467.053-.827.069-1.079s.033-.368.033-.368,0,.125,0,.369-.023.613-.04,1.083q-.015.359-.033.8c-.026.293-.084.61-.131.955s-.105.717-.163,1.114a12.375,12.375,0,0,1-.286,1.248,21.584,21.584,0,0,1-2.489,6.091,22.684,22.684,0,0,1-5.777,6.506l-.985.74c-.346.229-.711.439-1.072.663s-.718.467-1.113.648l-1.185.573-.6.288-.633.233-1.286.472c-.436.146-.894.24-1.346.365a11.721,11.721,0,0,1-1.383.317,21.307,21.307,0,0,1-2.891.342c-.493.018-.99.067-1.491.061l-1.514-.075c-.254-.017-.51-.016-.765-.048l-.763-.115c-.509-.083-1.027-.142-1.54-.247a24.09,24.09,0,0,1-3.053-.89,23.763,23.763,0,0,1-2.987-1.307c-.484-.261-.948-.566-1.427-.849-.235-.15-.485-.277-.708-.447l-.675-.5a25.62,25.62,0,0,1-2.6-2.2l-1.165-1.281-.293-.322-.263-.348-.525-.7-.527-.7-.462-.753-.461-.758-.231-.381-.2-.4-.778-1.615q-.31-.845-.622-1.7a22.666,22.666,0,0,1,0-14.449l.622-1.7.778-1.615.2-.4.231-.38.461-.758.462-.753.527-.7.524-.7.264-.348.293-.322,1.165-1.28a25.679,25.679,0,0,1,2.6-2.2l.674-.5c.223-.169.473-.3.708-.446.479-.283.943-.588,1.427-.849a23.754,23.754,0,0,1,2.986-1.308,24.193,24.193,0,0,1,3.053-.89c.513-.105,1.031-.164,1.54-.247l.763-.116c.254-.033.51-.031.764-.048l1.514-.075c.5-.007,1,.042,1.491.061a21.13,21.13,0,0,1,2.891.342,11.759,11.759,0,0,1,1.384.317c.452.125.909.22,1.346.365l1.285.473.633.233.6.288,1.185.573c.4.181.744.437,1.113.648s.726.434,1.072.663l.985.74a22.688,22.688,0,0,1,5.778,6.506,21.569,21.569,0,0,1,2.489,6.091,12.288,12.288,0,0,1,.286,1.249q.087.6.163,1.114c.047.345.1.662.131.955s.023.559.033.8c.017.469.031.829.04,1.083S383.456,314.962,383.456,314.962Z" transform="translate(-337.809 -292.093)" fill="#ffc10e"/>
          </g>
        </g>
        <rect id="Rectangle_3481" data-name="Rectangle 3481" width="166.028" height="8.284" transform="translate(13.601 4.369)" fill="#e0e0e0"/>
        <path id="Path_16606" data-name="Path 16606" d="M229.835,221.18a1.121,1.121,0,1,1-1.122-1.122A1.122,1.122,0,0,1,229.835,221.18Z" transform="translate(-210.876 -212.898)" fill="#fff"/>
        <path id="Path_16607" data-name="Path 16607" d="M236.778,221.18a1.121,1.121,0,1,1-1.122-1.122A1.122,1.122,0,0,1,236.778,221.18Z" transform="translate(-214.093 -212.898)" fill="#fff"/>
        <path id="Path_16608" data-name="Path 16608" d="M243.721,221.18a1.122,1.122,0,1,1-1.122-1.122A1.122,1.122,0,0,1,243.721,221.18Z" transform="translate(-217.309 -212.898)" fill="#fff"/>
        <g id="Group_5033" data-name="Group 5033" transform="translate(32.658 37.946)">
          <path id="Path_16609" data-name="Path 16609" d="M385.973,277.56c0,.079-28.808.143-64.337.143s-64.343-.064-64.343-.143,28.8-.143,64.343-.143S385.973,277.481,385.973,277.56Z" transform="translate(-257.294 -277.417)" fill="#e0e0e0"/>
        </g>
        <g id="Group_5034" data-name="Group 5034" transform="translate(32.658 41.136)">
          <path id="Path_16610" data-name="Path 16610" d="M385.973,283.5c0,.079-28.808.143-64.337.143s-64.343-.064-64.343-.143,28.8-.143,64.343-.143S385.973,283.423,385.973,283.5Z" transform="translate(-257.294 -283.359)" fill="#e0e0e0"/>
        </g>
      </g>
    </g>
    <g id="Character" transform="translate(192.594 54.552)">
      <g id="Group_5082" data-name="Group 5082">
        <g id="Group_5053" data-name="Group 5053" transform="translate(0 33.068)">
          <g id="Group_5050" data-name="Group 5050">
            <g id="Group_5036" data-name="Group 5036" transform="translate(0 14.364)">
              <path id="Path_16611" data-name="Path 16611" d="M335.486,183.246s-1.135-2.569-1.347-3.135c-.577-1.542-4.292-11.862-3.4-13.425,4.119-7.227,7.31-12.364,15.434-12.364l14.344-.1s13.594-2.768,23.173,28.144Z" transform="translate(-302.711 -154.128)" fill="#00a5d1"/>
              <path id="Path_16612" data-name="Path 16612" d="M281.15,185.806l18.783-4.049,22.083-11.616.084-15.849c-3.314-.914-9.653,1.384-21.068,7.2l-16.957,8.754a10.039,10.039,0,0,0-2.925,15.56Z" transform="translate(-278.639 -154.098)" fill="#00a5d1"/>
            </g>
            <g id="Group_5043" data-name="Group 5043" transform="translate(1.977 34.161)">
              <g id="Group_5040" data-name="Group 5040" transform="translate(29.815 34.243)">
                <g id="Group_5037" data-name="Group 5037">
                  <path id="Path_16613" data-name="Path 16613" d="M350.865,263.128c-.272-.892-.087-1.464,1.212-1.028,2.866.961,5.425.648,6.052.092s.051-1.621-.88-1.53a11.276,11.276,0,0,1-3.019-.418,7.353,7.353,0,0,1-2.251-.951c-.6-.382-1.114-.738-1.572-1.067a14.81,14.81,0,0,1-3.471-3.445l-9.064,3.889,1.46,4.54a4.8,4.8,0,0,0,3.066,3.517,21.732,21.732,0,0,0,6.712.527c.756-.5,3.672,3.724,4.554,5.213.871,1.472,1.936,1.674,2.277.764.233-.62-2.358-5.243-3.264-6.7a17.707,17.707,0,0,1-1.812-3.408" transform="translate(-337.872 -254.782)" fill="#de9576"/>
                </g>
                <g id="Group_5038" data-name="Group 5038" transform="translate(5.07 9.616)">
                  <path id="Path_16614" data-name="Path 16614" d="M349.1,275.567c-.008.033-.224.023-.533-.128a2.345,2.345,0,0,1-1.241-2.219c.033-.343.137-.532.169-.521a3,3,0,0,0,1.6,2.868Z" transform="translate(-347.319 -272.698)" fill="#995037"/>
                </g>
                <g id="Group_5039" data-name="Group 5039" transform="translate(8.045 9.803)">
                  <path id="Path_16615" data-name="Path 16615" d="M354.535,275.838c-.01.033-.215.013-.505-.143a2.33,2.33,0,0,1-1.163-2.147c.028-.328.125-.511.157-.5a3.107,3.107,0,0,0,1.511,2.791Z" transform="translate(-352.861 -273.046)" fill="#995037"/>
                </g>
              </g>
              <g id="Group_5042" data-name="Group 5042">
                <path id="Path_16616" data-name="Path 16616" d="M282.323,202.279s28.776,33.073,28.743,32.527,12.9-10.216,12.9-10.216L295.75,190.983Z" transform="translate(-282.323 -190.983)" fill="#00a5d1"/>
                <g id="Group_5041" data-name="Group 5041" transform="translate(17.453 4.796)">
                  <path id="Path_16617" data-name="Path 16617" d="M314.84,199.919c.008-.006.077.061.2.2l.537.6,1.934,2.233c1.623,1.893,3.85,4.521,6.3,7.435s4.651,5.564,6.235,7.491l1.865,2.292.5.633a1.044,1.044,0,0,1,.158.233c-.008.006-.077-.061-.2-.2l-.537-.6L329.893,218c-1.623-1.894-3.851-4.522-6.3-7.437s-4.651-5.564-6.235-7.491l-1.865-2.291-.5-.633A1.051,1.051,0,0,1,314.84,199.919Z" transform="translate(-314.84 -199.918)" fill="#263238"/>
                </g>
              </g>
            </g>
            <g id="Group_5044" data-name="Group 5044" transform="translate(65.21 29.802)">
              <path id="Path_16618" data-name="Path 16618" d="M405.261,195.828a9.788,9.788,0,0,0,.345-2.119,6.349,6.349,0,0,0-1.881-4.64c-.7-.734-1.449-1.367-2.053-2.033a6.271,6.271,0,0,1-1.289-2.01,3.5,3.5,0,0,1-.234-1.595,1.408,1.408,0,0,1,.15-.571,3.99,3.99,0,0,0,.272,2.091,6.41,6.41,0,0,0,1.295,1.9c.6.641,1.353,1.264,2.068,2.016a6.591,6.591,0,0,1,1.55,2.477,6.343,6.343,0,0,1,.325,2.365,5.725,5.725,0,0,1-.3,1.578A1.76,1.76,0,0,1,405.261,195.828Z" transform="translate(-400.133 -182.861)" fill="#263238"/>
            </g>
            <g id="Group_5045" data-name="Group 5045" transform="translate(21.771 16.211)">
              <path id="Path_16619" data-name="Path 16619" d="M328.956,158.647a2.793,2.793,0,0,1,.418-.2c.279-.12.7-.281,1.246-.455a10.834,10.834,0,0,1,2.061-.42,7.085,7.085,0,0,1,2.777.259,6.435,6.435,0,0,1,2.84,1.827A7.548,7.548,0,0,1,340,163.139a13.255,13.255,0,0,1,.273,4.279,9.287,9.287,0,0,1-1.591,4.313,11.846,11.846,0,0,1-3.443,3.052c-1.259.794-2.528,1.443-3.73,2.077l-6.391,3.355-4.32,2.239-1.181.6a2.735,2.735,0,0,1-.42.19A2.839,2.839,0,0,1,319.6,183l1.156-.644,4.276-2.319,6.359-3.407c1.2-.639,2.466-1.3,3.707-2.082a11.652,11.652,0,0,0,3.359-2.982A9.042,9.042,0,0,0,340,167.385a13.1,13.1,0,0,0-.251-4.189,7.341,7.341,0,0,0-1.626-3.378,6.266,6.266,0,0,0-2.725-1.793,7,7,0,0,0-2.7-.293,11.26,11.26,0,0,0-2.044.368c-.55.156-.972.3-1.256.4A2.766,2.766,0,0,1,328.956,158.647Z" transform="translate(-319.202 -157.539)" fill="#263238"/>
            </g>
            <g id="Group_5046" data-name="Group 5046" transform="translate(18.145 35.118)">
              <path id="Path_16620" data-name="Path 16620" d="M316.9,199.637a11.723,11.723,0,0,0-4.448-6.869,3.6,3.6,0,0,1,1.059.654,9.232,9.232,0,0,1,3.226,4.981A3.607,3.607,0,0,1,316.9,199.637Z" transform="translate(-312.446 -192.766)" fill="#263238"/>
            </g>
            <g id="Group_5047" data-name="Group 5047" transform="translate(46.938 27.928)">
              <path id="Path_16621" data-name="Path 16621" d="M384.045,189.839a3.493,3.493,0,0,1-.611.165,6.161,6.161,0,0,1-1.815.078,6.672,6.672,0,0,1-2.728-.9,6.243,6.243,0,0,1-2.518-2.829,6.659,6.659,0,0,1-.347-4.567,3.743,3.743,0,0,1,1.518-2.1,1.88,1.88,0,0,1,1.371-.28,2.005,2.005,0,0,1,1.2.794,6.646,6.646,0,0,1,.641,5.725,6.8,6.8,0,0,1-1.627,2.665,6.192,6.192,0,0,1-2.8,1.581,6.394,6.394,0,0,1-5.979-1.391,6.269,6.269,0,0,1-1.794-5.452,5.4,5.4,0,0,1,1.095-2.525,2.7,2.7,0,0,1,1.071-.82,1.726,1.726,0,0,1,1.318.014,2.451,2.451,0,0,1,1.4,1.951,4.107,4.107,0,0,1-.435,2.193,10.474,10.474,0,0,1-2.284,3.046,10.867,10.867,0,0,1-2.346,1.66,10.086,10.086,0,0,1-1.675.7c-.2.065-.352.1-.455.126a.654.654,0,0,1-.158.032.707.707,0,0,1,.15-.06c.1-.037.252-.079.444-.153a11.355,11.355,0,0,0,1.641-.743,11.052,11.052,0,0,0,2.289-1.678,10.428,10.428,0,0,0,2.21-3.014,3.915,3.915,0,0,0,.4-2.081,2.23,2.23,0,0,0-1.275-1.758,1.485,1.485,0,0,0-1.138-.005,2.462,2.462,0,0,0-.967.752,5.157,5.157,0,0,0-1.028,2.407,6.011,6.011,0,0,0,1.726,5.206,6.124,6.124,0,0,0,5.714,1.319,5.913,5.913,0,0,0,2.669-1.507,6.533,6.533,0,0,0,1.561-2.551,6.991,6.991,0,0,0,.317-2.88,6.014,6.014,0,0,0-.3-1.379,3.97,3.97,0,0,0-.605-1.218,1.745,1.745,0,0,0-1.039-.7,1.627,1.627,0,0,0-1.188.242,3.513,3.513,0,0,0-1.422,1.957,6.467,6.467,0,0,0,.3,4.417,6.1,6.1,0,0,0,2.416,2.775,6.661,6.661,0,0,0,2.657.923A7.428,7.428,0,0,0,384.045,189.839Z" transform="translate(-366.091 -179.371)" fill="#fafafa"/>
            </g>
            <g id="Group_5049" data-name="Group 5049" transform="translate(59.968)">
              <g id="Group_5048" data-name="Group 5048">
                <path id="Path_16622" data-name="Path 16622" d="M402.4,135.409a6.505,6.505,0,0,1-1.282-2.549,1.732,1.732,0,0,1-.034-.931.718.718,0,0,1,.692-.532c.322.031.541.331.713.6a13.688,13.688,0,0,1,1.324,2.511,1.911,1.911,0,0,1,.155.763.774.774,0,0,1-.373.65.8.8,0,0,1-.808-.109,2.342,2.342,0,0,1-.551-.65" transform="translate(-395.307 -129.216)" fill="#cb7659"/>
                <path id="Path_16623" data-name="Path 16623" d="M404.673,133.677l-1.42-2.971a2.361,2.361,0,0,1-.294-.925.714.714,0,0,1,1.242-.591,2.373,2.373,0,0,1,.476.7l.67,1.3a4.183,4.183,0,0,1,.442,1.108,1.412,1.412,0,0,1-.222,1.138.865.865,0,0,1-1.068.253" transform="translate(-396.2 -128.085)" fill="#cb7659"/>
                <path id="Path_16624" data-name="Path 16624" d="M392.532,142.128s-1.975-2.562-2.153-3.912,1.478-3.745,5.026-4.284a8.692,8.692,0,0,0,3.647-1.249,1.145,1.145,0,0,0,.415-1.385,20.6,20.6,0,0,1-1.243-3.512c.165-.725.637-.71,1.865,1.085s2.642,3.617,2.369,4.443-4.6,3.387-4.6,3.387l1.183,1.906Z" transform="translate(-390.366 -127.337)" fill="#de9576"/>
              </g>
              <path id="Path_16625" data-name="Path 16625" d="M404.509,176.659l-13.618-26.677,8.768-4.914,18.421,29.2s.972,1.866,2.329,4.05H404.967" transform="translate(-390.609 -135.551)" fill="#00a5d1"/>
            </g>
          </g>
          <g id="Group_5051" data-name="Group 5051" transform="translate(59.947 9.516)">
            <path id="Path_16626" data-name="Path 16626" d="M399.257,145.067a.661.661,0,0,1-.151.107l-.46.279-1.763,1.027-6.333,3.608.05-.162c1.324,2.7,3.045,5.824,4.781,9.218,2.583,5.021,4.816,9.62,6.386,12.969.787,1.674,1.408,3.036,1.831,3.98l.478,1.091a2.267,2.267,0,0,1,.149.389,2.32,2.32,0,0,1-.2-.364l-.527-1.068-1.913-3.94c-1.616-3.326-3.876-7.907-6.458-12.926-1.733-3.39-3.443-6.522-4.746-9.239l-.051-.107.1-.056,6.383-3.518,1.8-.968.478-.246A.688.688,0,0,1,399.257,145.067Z" transform="translate(-390.328 -145.067)" fill="#263238"/>
          </g>
          <g id="Group_5052" data-name="Group 5052" transform="translate(30.492 37.212)">
            <path id="Path_16627" data-name="Path 16627" d="M337.732,202.937a16.371,16.371,0,0,1-2.27-6.27c.082-.019.453,1.428,1.082,3.154S337.807,202.9,337.732,202.937Z" transform="translate(-335.449 -196.668)" fill="#263238"/>
          </g>
        </g>
        <g id="Group_5081" data-name="Group 5081" transform="translate(24.541)">
          <path id="Path_16628" data-name="Path 16628" d="M393.8,116.1a5.385,5.385,0,0,0,6.351-8.144c3.075-.778,4.993-4.325,4.37-7.435a8.406,8.406,0,0,0-6.5-6.209,6.917,6.917,0,0,0-3.6.091,4.4,4.4,0,0,0-2.681,2.3" transform="translate(-355.578 -78.878)" fill="#514742"/>
          <g id="Group_5054" data-name="Group 5054" transform="translate(34.061 30.097)">
            <path id="Path_16629" data-name="Path 16629" d="M391.554,121.968c.01.033-.4.1-1.05.444a4.639,4.639,0,0,0-2.054,2.212,4.537,4.537,0,0,0,.344,4.326,4.53,4.53,0,0,0,2.005,1.69,4.5,4.5,0,0,0,5.2-1.188,4.533,4.533,0,0,0,1.073-2.393,4.539,4.539,0,0,0-1.569-4.046,4.64,4.64,0,0,0-2.811-1.1c-.732-.024-1.133.09-1.138.056a1.143,1.143,0,0,1,.288-.08,3.717,3.717,0,0,1,.853-.087,4.631,4.631,0,0,1,2.939,1.057,4.7,4.7,0,0,1,1.33,1.743,4.774,4.774,0,0,1,.371,2.49,4.788,4.788,0,0,1-1.122,2.544,4.756,4.756,0,0,1-5.524,1.261,4.774,4.774,0,0,1-2.116-1.8,4.769,4.769,0,0,1-.747-2.4,4.691,4.691,0,0,1,.441-2.148,4.633,4.633,0,0,1,2.188-2.228,3.709,3.709,0,0,1,.806-.292A1.151,1.151,0,0,1,391.554,121.968Z" transform="translate(-387.821 -121.801)" fill="#e8505b"/>
          </g>
          <path id="Path_16630" data-name="Path 16630" d="M364.48,87.532a5.276,5.276,0,0,0,2.483-9.752,6.556,6.556,0,0,0-9.785-7.672A8.7,8.7,0,0,0,341.1,72.684,8.407,8.407,0,0,0,330.31,84.091a6.512,6.512,0,0,0,1.1,12.978,5.746,5.746,0,0,0,8.708,6.45,6.286,6.286,0,0,0,11.3-1.3" transform="translate(-324.362 -65.727)" fill="#514742"/>
          <g id="Group_5066" data-name="Group 5066" transform="translate(17.343 10.45)">
            <g id="Group_5065" data-name="Group 5065">
              <g id="Group_5055" data-name="Group 5055">
                <path id="Path_16631" data-name="Path 16631" d="M372.99,121.732c.112-2.613.253-4.979.253-4.979s5.842-.737,6.094-6.7-.341-19.693-.341-19.693L368.242,85.2l-11.568,9.319,1.815,27.385a7.262,7.262,0,0,0,7.581,6.774h0A7.262,7.262,0,0,0,372.99,121.732Z" transform="translate(-356.674 -85.197)" fill="#de9576"/>
              </g>
              <g id="Group_5058" data-name="Group 5058" transform="translate(19.094 14.479)">
                <g id="Group_5057" data-name="Group 5057">
                  <g id="Group_5056" data-name="Group 5056">
                    <path id="Path_16632" data-name="Path 16632" d="M395.188,113.07c-.094.1-.651-.369-1.451-.4s-1.394.375-1.479.267c-.042-.048.055-.232.314-.421a1.932,1.932,0,0,1,2.339.106C395.154,112.834,395.235,113.026,395.188,113.07Z" transform="translate(-392.248 -112.173)" fill="#263238"/>
                  </g>
                </g>
              </g>
              <g id="Group_5061" data-name="Group 5061" transform="translate(10.229 14.479)">
                <g id="Group_5060" data-name="Group 5060">
                  <g id="Group_5059" data-name="Group 5059">
                    <path id="Path_16633" data-name="Path 16633" d="M378.671,113.07c-.094.1-.651-.369-1.451-.4s-1.394.375-1.479.267c-.042-.048.054-.232.314-.421a1.932,1.932,0,0,1,2.339.106C378.637,112.834,378.718,113.026,378.671,113.07Z" transform="translate(-375.731 -112.173)" fill="#263238"/>
                  </g>
                </g>
              </g>
              <g id="Group_5063" data-name="Group 5063" transform="translate(15.911 14.231)">
                <g id="Group_5062" data-name="Group 5062">
                  <path id="Path_16634" data-name="Path 16634" d="M386.581,118.869a4.927,4.927,0,0,1,1.3-.2c.205-.014.4-.05.436-.2a1.194,1.194,0,0,0-.126-.654l-.579-1.691a30.722,30.722,0,0,1-1.29-4.415,30.566,30.566,0,0,1,1.616,4.3q.29.89.553,1.7a1.363,1.363,0,0,1,.092.864.506.506,0,0,1-.341.306,1.274,1.274,0,0,1-.348.038A4.894,4.894,0,0,1,386.581,118.869Z" transform="translate(-386.318 -111.711)" fill="#263238"/>
                </g>
              </g>
              <g id="Group_5064" data-name="Group 5064" transform="translate(8.833 29.023)">
                <path id="Path_16635" data-name="Path 16635" d="M380.866,141.8a14.226,14.226,0,0,1-7.735-2.532s1.818,4.343,7.634,4Z" transform="translate(-373.131 -139.271)" fill="#cb7659"/>
              </g>
            </g>
          </g>
          <path id="Path_16636" data-name="Path 16636" d="M370.874,85.025a7.869,7.869,0,0,0,.108,9.112,4.573,4.573,0,0,0,3.61,2.017,2.571,2.571,0,0,0,2.515-2.81,2.964,2.964,0,1,0,5.678.1,5.345,5.345,0,0,0,.668,1.829,1.814,1.814,0,0,0,1.647.866c.9-.119,1.421-1.084,1.627-1.967a8.083,8.083,0,0,0-2.3-7.433,9.8,9.8,0,0,0-7.449-2.613,12.475,12.475,0,0,0-7.317,3.2" transform="translate(-345.261 -74.241)" fill="#514742"/>
          <path id="Path_16637" data-name="Path 16637" d="M362.172,89.737a13.9,13.9,0,0,1,1.2,5.35,7.176,7.176,0,0,1-1.933,5.022,4.882,4.882,0,0,1-5.072,1.217,5.649,5.649,0,0,1-.739,4.76,3.616,3.616,0,0,1-4.421,1.162,4.841,4.841,0,0,1-2.068-3.81,12.2,12.2,0,0,1,13.27-13.616" transform="translate(-335.802 -76.85)" fill="#514742"/>
          <g id="Group_5069" data-name="Group 5069" transform="translate(15.606 26.877)">
            <g id="Group_5068" data-name="Group 5068">
              <path id="Path_16638" data-name="Path 16638" d="M356.828,116.019a2.1,2.1,0,0,0-2.512.6,3.427,3.427,0,0,0,3.41,5.626" transform="translate(-353.438 -115.802)" fill="#de9576"/>
              <g id="Group_5067" data-name="Group 5067" transform="translate(1.23 1.76)">
                <path id="Path_16639" data-name="Path 16639" d="M357.707,121.98c0,.034-.265.072-.676-.045a1.8,1.8,0,0,1-1.226-1.1,1.31,1.31,0,0,1,.033-.952,1.4,1.4,0,0,1,.5-.587c.367-.243.649-.233.651-.2s-.238.111-.528.363a1.177,1.177,0,0,0-.38,1.287,1.772,1.772,0,0,0,1.023,1C357.459,121.9,357.711,121.935,357.707,121.98Z" transform="translate(-355.731 -119.082)" fill="#995037"/>
              </g>
            </g>
          </g>
          <g id="Group_5070" data-name="Group 5070" transform="translate(27.02 22.669)">
            <path id="Path_16640" data-name="Path 16640" d="M378.688,108.63c-.075.232-.946.147-1.984.193-1.038.031-1.9.181-1.992-.045-.1-.209.751-.771,1.961-.813S378.768,108.414,378.688,108.63Z" transform="translate(-374.704 -107.962)" fill="#263238"/>
          </g>
          <g id="Group_5071" data-name="Group 5071" transform="translate(28.667 22.912)">
            <path id="Path_16641" data-name="Path 16641" d="M377.773,108.415" transform="translate(-377.773 -108.415)" fill="none" stroke="#4e585d" stroke-miterlimit="10" stroke-width="1"/>
          </g>
          <g id="Group_5072" data-name="Group 5072" transform="translate(36.749 22.234)">
            <path id="Path_16642" data-name="Path 16642" d="M395.438,108.089c-.091.083-.27.028-.478-.024a1.947,1.947,0,0,0-.729-.046,8.981,8.981,0,0,1-.916.081c-.263,0-.446-.059-.479-.173s.084-.261.306-.409a2.291,2.291,0,0,1,1.012-.354,1.344,1.344,0,0,1,1.152.4C395.511,107.812,395.522,108.016,395.438,108.089Z" transform="translate(-392.831 -107.152)" fill="#263238"/>
          </g>
          <path id="Path_16643" data-name="Path 16643" d="M383.854,127.635a1.8,1.8,0,0,1,1.507-.213,1.128,1.128,0,0,1,.748,1.23,1.233,1.233,0,0,1-.484.686,1.569,1.569,0,0,1-1.243.3,1.216,1.216,0,0,1-.924-.845,1,1,0,0,1,.485-1.118" transform="translate(-351.726 -94.269)" fill="#cb7659"/>
          <g id="Group_5073" data-name="Group 5073" transform="translate(31.565 32.55)">
            <path id="Path_16644" data-name="Path 16644" d="M386.662,127.822c.014.032-.19.169-.575.252a2.593,2.593,0,0,1-2.681-1.117c-.212-.331-.258-.573-.226-.585s.151.188.389.464a2.9,2.9,0,0,0,2.49,1.038C386.422,127.848,386.647,127.781,386.662,127.822Z" transform="translate(-383.171 -126.371)" fill="#263238"/>
          </g>
          <g id="Group_5074" data-name="Group 5074" transform="translate(13.505 32.075)">
            <path id="Path_16645" data-name="Path 16645" d="M358.971,130.257c-.034,0-.012-.414-.2-1.122a4.64,4.64,0,0,0-1.7-2.5,4.539,4.539,0,0,0-4.293-.628,4.544,4.544,0,0,0-2.094,1.579,4.5,4.5,0,0,0,0,5.334,4.537,4.537,0,0,0,2.094,1.579,4.538,4.538,0,0,0,4.294-.629,4.638,4.638,0,0,0,1.7-2.5c.187-.707.165-1.124.2-1.122a1.144,1.144,0,0,1,.014.3,3.724,3.724,0,0,1-.105.851,4.633,4.633,0,0,1-1.685,2.629,4.691,4.691,0,0,1-2,.908,4.766,4.766,0,0,1-2.51-.193,4.768,4.768,0,0,1-2.23-1.661,4.755,4.755,0,0,1,0-5.666,4.774,4.774,0,0,1,2.23-1.661,4.77,4.77,0,0,1,2.51-.193,4.7,4.7,0,0,1,2,.908,4.635,4.635,0,0,1,1.685,2.629,3.717,3.717,0,0,1,.105.851A1.141,1.141,0,0,1,358.971,130.257Z" transform="translate(-349.523 -125.486)" fill="#e8505b"/>
          </g>
          <g id="Group_5075" data-name="Group 5075" transform="translate(26.517 10.162)">
            <path id="Path_16646" data-name="Path 16646" d="M386.6,84.661c0-.007.052,0,.149.036a1.161,1.161,0,0,1,.375.241,1.736,1.736,0,0,1,.48,1.565,2.237,2.237,0,0,1-1.858,1.646A4.655,4.655,0,0,1,382.6,87.4l-1.108-.639,1.216.4a1.316,1.316,0,0,1,.821.941,1.69,1.69,0,0,1-.17,1.283,1.8,1.8,0,0,1-1.092.773,2.558,2.558,0,0,1-1.361-.03,4.653,4.653,0,0,1-2.337-2.019l-.777-1.137.987.959a2.147,2.147,0,0,1,.531,2.029,2.222,2.222,0,0,1-1.194,1.511,2.89,2.89,0,0,1-3.055-.372,3.634,3.634,0,0,1-1.156-1.722,3.36,3.36,0,0,1-.128-.543.587.587,0,0,1-.011-.193c.023,0,.057.259.23.7a3.7,3.7,0,0,0,1.176,1.614,2.71,2.71,0,0,0,2.836.3,1.977,1.977,0,0,0,1.047-1.356,1.888,1.888,0,0,0-.466-1.769l.21-.179a4.43,4.43,0,0,0,2.187,1.9,1.881,1.881,0,0,0,2.132-.613,1.281,1.281,0,0,0-.495-1.83l.108-.24a4.478,4.478,0,0,0,2.972.764,2.073,2.073,0,0,0,1.742-1.459A1.674,1.674,0,0,0,387.066,85,2,2,0,0,0,386.6,84.661Z" transform="translate(-373.766 -84.659)" fill="#332b27"/>
          </g>
          <g id="Group_5076" data-name="Group 5076" transform="translate(7.885 10.513)">
            <path id="Path_16647" data-name="Path 16647" d="M356.223,94.553s-.019.039-.071.1a2.382,2.382,0,0,1-.251.267,3.475,3.475,0,0,1-3.37.749A3.608,3.608,0,0,1,350.4,93.83l.225-.031a3.472,3.472,0,1,1-5.84-3.053l.186.2a3.567,3.567,0,0,1-2.257.817,3.876,3.876,0,0,1-2.12-.578,3.206,3.206,0,0,1-1.269-1.491,3.768,3.768,0,0,1,.617-3.841,2.3,2.3,0,0,1,.655-.543c.018.022-.243.182-.583.6a3.707,3.707,0,0,0-.779,2.131,3.581,3.581,0,0,0,.283,1.568,3,3,0,0,0,1.2,1.371,3.65,3.65,0,0,0,1.989.519,3.316,3.316,0,0,0,2.082-.766l.186.2a3.314,3.314,0,0,0-.683,3.608,3.28,3.28,0,0,0,3.585,1.822,3.332,3.332,0,0,0,2.511-2.614l.062-.378.163.346a3.427,3.427,0,0,0,1.977,1.761,3.307,3.307,0,0,0,2.067.017,3.581,3.581,0,0,0,1.195-.637C356.1,94.67,356.21,94.542,356.223,94.553Z" transform="translate(-339.053 -85.314)" fill="#332b27"/>
          </g>
          <g id="Group_5077" data-name="Group 5077" transform="translate(2.359 22.661)">
            <path id="Path_16648" data-name="Path 16648" d="M340.806,114.585a1.364,1.364,0,0,1-.464.276,3.161,3.161,0,0,1-3.534-.768,3.313,3.313,0,0,1-.807-2.753l.245.109a5.479,5.479,0,0,1-2.016,1.646,4.327,4.327,0,0,1-1.956.417,3.988,3.988,0,0,1-1.8-.494,3.177,3.177,0,0,1-1.71-2.54,3.015,3.015,0,0,1,.552-2.014,2.322,2.322,0,0,1,.4-.41c.106-.078.164-.114.17-.106s-.209.18-.479.579a2.977,2.977,0,0,0,1.193,4.258,3.878,3.878,0,0,0,3.508.049,5.289,5.289,0,0,0,1.917-1.554l.347-.449-.1.558a3.1,3.1,0,0,0,.713,2.545,2.952,2.952,0,0,0,1.889.983,3.286,3.286,0,0,0,1.434-.145C340.632,114.664,340.8,114.567,340.806,114.585Z" transform="translate(-328.757 -107.948)" fill="#332b27"/>
          </g>
          <g id="Group_5078" data-name="Group 5078" transform="translate(40.789 17.671)">
            <path id="Path_16649" data-name="Path 16649" d="M404.372,98.65a1.8,1.8,0,0,1,.119.992,3.566,3.566,0,0,1-3.137,3.28,1.8,1.8,0,0,1-1-.074c0-.048.383-.008.963-.126a3.683,3.683,0,0,0,2.969-3.1C404.382,99.033,404.325,98.656,404.372,98.65Z" transform="translate(-400.358 -98.65)" fill="#332b27"/>
          </g>
          <g id="Group_5079" data-name="Group 5079" transform="translate(41.318 23.291)">
            <path id="Path_16650" data-name="Path 16650" d="M408.112,109.121a.869.869,0,0,1,.135.407,2.311,2.311,0,0,1-.111,1.177,1.825,1.825,0,0,1-1.3,1.194,1.864,1.864,0,0,1-1.086-.094,1.5,1.5,0,0,1-.855-.829l.27-.091a1.852,1.852,0,0,1,.067.528,2.137,2.137,0,0,1-1.346,1.912,1.79,1.79,0,0,1-1.068.044,2.068,2.068,0,0,1-.807-.444,1.948,1.948,0,0,1-.65-1.126.851.851,0,0,1,.015-.476c.026,0,.017.17.094.451a1.964,1.964,0,0,0,.671,1,1.671,1.671,0,0,0,1.65.308,1.9,1.9,0,0,0,1.153-1.671,1.59,1.59,0,0,0-.055-.443l.27-.091a1.452,1.452,0,0,0,1.624.774,1.644,1.644,0,0,0,1.17-1.015,2.478,2.478,0,0,0,.186-1.093A2.547,2.547,0,0,1,408.112,109.121Z" transform="translate(-401.342 -109.121)" fill="#332b27"/>
          </g>
          <g id="Group_5080" data-name="Group 5080" transform="translate(30.37 31.266)">
            <path id="Path_16651" data-name="Path 16651" d="M382.295,123.979c.036.005.06.122.012.3a1.255,1.255,0,0,1-1.064.882c-.187.013-.3-.033-.3-.069,0-.082.414-.121.779-.433S382.215,123.965,382.295,123.979Z" transform="translate(-380.946 -123.978)" fill="#263238"/>
          </g>
        </g>
      </g>
    </g>
    <g id="Plant" transform="translate(360.264 219.883)">
      <g id="Group_5093" data-name="Group 5093">
        <g id="Group_5083" data-name="Group 5083" transform="translate(7.571)">
          <path id="Path_16652" data-name="Path 16652" d="M614.085,393.633c-1.34,1.914-3.944,1.28-5.152.112a9.728,9.728,0,0,1-2.182-4.476c-1.062-3.688-2.132-7.558-1.342-11.315a6.288,6.288,0,0,1,1.445-3.077,3.285,3.285,0,0,1,3.113-1.035c1.313.347,2.129,1.633,2.719,2.857a26.971,26.971,0,0,1,2.666,11.575,9.358,9.358,0,0,1-1.266,5.359" transform="translate(-605.136 -373.758)" fill="#d97441"/>
        </g>
        <g id="Group_5084" data-name="Group 5084" transform="translate(7.571)" opacity="0.2">
          <path id="Path_16653" data-name="Path 16653" d="M614.085,393.633c-1.34,1.914-3.944,1.28-5.152.112a9.728,9.728,0,0,1-2.182-4.476c-1.062-3.688-2.132-7.558-1.342-11.315a6.288,6.288,0,0,1,1.445-3.077,3.285,3.285,0,0,1,3.113-1.035c1.313.347,2.129,1.633,2.719,2.857a26.971,26.971,0,0,1,2.666,11.575,9.358,9.358,0,0,1-1.266,5.359" transform="translate(-605.136 -373.758)"/>
        </g>
        <g id="Group_5085" data-name="Group 5085" transform="translate(0 28.489)">
          <path id="Path_16654" data-name="Path 16654" d="M602.53,427.914a11.616,11.616,0,0,0-7.2-.875,5.988,5.988,0,0,0-3.559,1.589,2.561,2.561,0,0,0-.037,3.553,3.411,3.411,0,0,0,2.244.569c1.9-.022,4.017-.357,5.539.788.868.654,1.445,1.741,2.483,2.062a2.454,2.454,0,0,0,2.7-1.2A4.2,4.2,0,0,0,605,431.3,4.726,4.726,0,0,0,602.53,427.914Z" transform="translate(-591.029 -426.836)" fill="#d97441"/>
        </g>
        <g id="Group_5086" data-name="Group 5086" transform="translate(18.787 6.158)">
          <path id="Path_16655" data-name="Path 16655" d="M627.445,401.695a6.964,6.964,0,0,1-1.084-6.409,12.348,12.348,0,0,1,3.8-5.505,20.436,20.436,0,0,1,6.8-4.01,7.242,7.242,0,0,1,3.057-.519,3.207,3.207,0,0,1,2.565,1.552c.716,1.364.03,3.019-.712,4.369a51.724,51.724,0,0,1-4.464,6.8,12.083,12.083,0,0,1-4.91,4.206c-2.04.78-4.157.688-5.239-.726" transform="translate(-626.031 -385.231)" fill="#d97441"/>
        </g>
        <g id="Group_5088" data-name="Group 5088" transform="translate(6.61 31.146)">
          <g id="Group_5087" data-name="Group 5087">
            <path id="Path_16656" data-name="Path 16656" d="M613.346,449.385a4.21,4.21,0,0,1-.121-.87c-.062-.633-.139-1.428-.231-2.373a34.412,34.412,0,0,0-.534-3.481,26.923,26.923,0,0,0-1.266-4.109,15.161,15.161,0,0,0-2.1-3.717,7.842,7.842,0,0,0-2.653-2.2,7.415,7.415,0,0,0-2.234-.7,4.223,4.223,0,0,1-.866-.125,4.074,4.074,0,0,1,.881-.014,6.759,6.759,0,0,1,2.329.607,7.812,7.812,0,0,1,2.8,2.224,14.8,14.8,0,0,1,2.175,3.792,25.124,25.124,0,0,1,1.256,4.176,29.413,29.413,0,0,1,.463,3.525c.076,1.008.1,1.824.118,2.388A4.052,4.052,0,0,1,613.346,449.385Z" transform="translate(-603.345 -431.787)" fill="#707070"/>
          </g>
        </g>
        <g id="Group_5090" data-name="Group 5090" transform="translate(12.002 7.689)">
          <g id="Group_5089" data-name="Group 5089">
            <path id="Path_16657" data-name="Path 16657" d="M617.837,427.313a1.708,1.708,0,0,1-.024-.4c0-.3,0-.685,0-1.154,0-1,0-2.451-.052-4.24-.089-3.579-.4-8.52-.992-13.95s-1.394-10.318-2.118-13.824c-.171-.879-.344-1.67-.506-2.362s-.287-1.292-.414-1.776l-.269-1.122a1.724,1.724,0,0,1-.071-.4,1.681,1.681,0,0,1,.141.378l.335,1.106c.149.48.3,1.074.474,1.765s.371,1.479.559,2.356a131.1,131.1,0,0,1,2.227,13.838c.6,5.441.865,10.4.889,13.984.021,1.794-.017,3.246-.063,4.248-.028.469-.052.851-.07,1.153A1.706,1.706,0,0,1,617.837,427.313Z" transform="translate(-613.391 -388.084)" fill="#707070"/>
          </g>
        </g>
        <g id="Group_5092" data-name="Group 5092" transform="translate(16.408 10.612)">
          <g id="Group_5091" data-name="Group 5091">
            <path id="Path_16658" data-name="Path 16658" d="M621.615,420.279a7.724,7.724,0,0,1,.009-1.206c.045-.775.151-1.894.369-3.266a42.928,42.928,0,0,1,1.062-4.758,42.213,42.213,0,0,1,1.99-5.63,30,30,0,0,1,5.843-9.1,14.87,14.87,0,0,1,1.374-1.277c.211-.178.4-.356.588-.5l.533-.368a7.641,7.641,0,0,1,1.015-.649,35.794,35.794,0,0,0-3.326,2.967,31.611,31.611,0,0,0-5.7,9.065,44.949,44.949,0,0,0-2,5.578c-.522,1.748-.868,3.356-1.13,4.711s-.393,2.466-.48,3.233A7.743,7.743,0,0,1,621.615,420.279Z" transform="translate(-621.599 -393.529)" fill="#707070"/>
          </g>
        </g>
      </g>
    </g>
  </g>
</svg>
