<svg xmlns="http://www.w3.org/2000/svg" xmlns:xlink="http://www.w3.org/1999/xlink" width="535.601" height="408.171" viewBox="0 0 535.601 408.171"><defs><style>.a{fill:#e7eff1;opacity:0.6;}.b{fill:#e1e1e1;opacity:0.5;}.b,.z{mix-blend-mode:multiply;}.b,.u,.v,.z{isolation:isolate;}.c{fill:#263238;}.d,.g{fill:#fff;}.e{fill:#455a64;}.f{fill:#ffc10e;}.g{opacity:0.3;}.h{opacity:0.13;}.i{fill:#e0e0e0;}.j{fill:#219991;}.k{fill:#16746e;}.ac,.l{fill:none;}.m{fill:#eeb58f;}.n{fill:#231e21;}.o{fill:#d97441;}.p{fill:#1177a3;}.q{fill:#ffcdb4;}.r{fill:#843f1c;}.s{fill:#be541f;}.t,.u{fill:#707070;}.af,.u{opacity:0.4;}.u,.v{mix-blend-mode:screen;}.v{fill:rgba(112,112,112,0.35);opacity:0.8;}.w{fill:#00a5d1;}.x{fill:#fdaeb3;}.y{fill:#e58099;}.z{opacity:0.47;fill:url(#a);}.aa{fill:#987308;}.ab{fill:#fafafa;}.ac{stroke:#87a5c0;stroke-miterlimit:10;}.ad{opacity:0.14;}.ae{fill:#15688d;}</style><linearGradient id="a" x1="1" y1="0.5" x2="0" y2="0.5" gradientUnits="objectBoundingBox"><stop offset="0" stop-color="#f7941e"/><stop offset="1" stop-color="#f7941e" stop-opacity="0"/></linearGradient></defs><g transform="translate(-56.895 70.151)"><path class="a" d="M121.876,439.165s-38.9-52.738,18.566-100.805c23.094-19.316,112.924-32.921,37.4-140.67-44.407-63.355,20.1-155.636,123.055-97.041,87.62,49.867,148.56-56.319,226.139-63.369,59.01-5.362,94.5,67.408,58.9,123.987-39.945,63.484,36.215,52.821,52.772,73.837,29.153,37-65.45,80.916-22.054,127.915,44.194,47.865,13.886,76.146,13.886,76.146Z" transform="translate(-52.11 -107.151)"/><ellipse class="b" cx="262.91" cy="11.594" rx="262.91" ry="11.594" transform="translate(66.677 314.832)"/><g transform="translate(185.291 130.227)"><g transform="translate(0)"><g transform="translate(0)"><path class="c" d="M11.55,0H189.323a11.549,11.549,0,0,1,11.549,11.549V276.72a11.549,11.549,0,0,1-11.549,11.549H11.549A11.549,11.549,0,0,1,0,276.72V11.55A11.55,11.55,0,0,1,11.55,0Z" transform="translate(0 200.872) rotate(-90)"/><g transform="translate(19.722 6.335)"><rect class="d" width="188.204" height="240.739" transform="translate(0 188.204) rotate(-90)"/></g><g transform="translate(264.517 91.17)"><circle class="e" cx="7.707" cy="7.707" r="7.707" transform="matrix(0.229, -0.973, 0.973, 0.229, 0, 15.006)"/></g><g transform="translate(8.302 70.186)"><rect class="e" width="60.5" height="3.184" rx="1.215" transform="translate(0 60.5) rotate(-90)"/></g></g><g transform="translate(44.824 79.153)"><circle class="f" cx="19.449" cy="19.449" r="19.449" transform="translate(0 32.491) rotate(-56.646)"/><circle class="g" cx="19.449" cy="19.449" r="19.449" transform="translate(0 32.491) rotate(-56.646)"/><g transform="translate(19.044 22.036)"><path class="c" d="M279.7,336.741c.736-.061,1.406.752,1.493,1.816s-.439,1.975-1.176,2.036-1.406-.753-1.493-1.816S278.962,336.8,279.7,336.741Z" transform="translate(-278.514 -336.738)"/></g><g transform="translate(31.175 21.784)"><path class="c" d="M295.521,336.415c-.739-.03-1.373.809-1.417,1.876s.52,1.956,1.258,1.986,1.374-.81,1.418-1.876S296.259,336.444,295.521,336.415Z" transform="translate(-294.101 -336.414)"/></g><g transform="translate(18.521 30.376)"><path class="c" d="M294.036,347.869c0,.23-3.625.416-8.1.416s-8.1-.186-8.1-.416,3.625-.415,8.1-.415S294.036,347.64,294.036,347.869Z" transform="translate(-277.842 -347.454)"/></g><g transform="translate(17.576 19.331)"><path class="c" d="M280.768,333.736c-.047.231-.97.223-2.051.4s-1.96.451-2.076.246c-.119-.187.694-.873,1.948-1.065S280.824,333.521,280.768,333.736Z" transform="translate(-276.628 -333.262)"/></g><g transform="translate(32.002 19.184)"><path class="c" d="M299.266,334.637c-.147.185-.987-.255-2.067-.578-1.076-.339-2.017-.446-2.034-.682-.03-.219,1.03-.5,2.278-.111S299.414,334.472,299.266,334.637Z" transform="translate(-295.164 -333.073)"/></g></g><g transform="translate(189.481 81.4)"><circle class="f" cx="20.159" cy="20.159" r="20.159" transform="translate(0 39.817) rotate(-80.951)"/><circle class="h" cx="20.159" cy="20.159" r="20.159" transform="translate(0 39.817) rotate(-80.951)"/><g transform="translate(14.896 17.997)"><path class="c" d="M460.284,334.438c.763-.063,1.457.78,1.548,1.883s-.455,2.048-1.219,2.111-1.458-.78-1.548-1.883S459.52,334.5,460.284,334.438Z" transform="translate(-459.055 -334.435)"/></g><g transform="translate(27.469 17.735)"><path class="c" d="M476.683,334.1c-.766-.032-1.423.839-1.469,1.944s.539,2.027,1.305,2.059,1.424-.84,1.469-1.946S477.448,334.13,476.683,334.1Z" transform="translate(-475.211 -334.099)"/></g><g transform="translate(14.351 23.534)"><path class="c" d="M475.144,345.087a14.544,14.544,0,0,1-2.361-1.224,13.068,13.068,0,0,0-6-1.483,14.939,14.939,0,0,0-6.017,1.562,12.981,12.981,0,0,1-2.406,1.145,6.6,6.6,0,0,1,2.13-1.662,13.091,13.091,0,0,1,6.279-1.874,11.789,11.789,0,0,1,6.3,1.8A6.267,6.267,0,0,1,475.144,345.087Z" transform="translate(-458.355 -341.549)"/></g><g transform="translate(13.38 15.643)"><path class="c" d="M461.393,331.452c.068.086-.064.338-.4.631a3.353,3.353,0,0,1-1.578.739,3.028,3.028,0,0,1-1.749-.194c-.412-.191-.6-.409-.555-.507.106-.219,1.054.1,2.159-.116C460.381,331.807,461.24,331.259,461.393,331.452Z" transform="translate(-457.107 -331.411)"/></g><g transform="translate(28.302 15.327)"><path class="c" d="M480.559,332.339c.033.1-.188.3-.633.44a2.993,2.993,0,0,1-1.812-.066,3.526,3.526,0,0,1-1.483-.991c-.3-.342-.4-.61-.325-.688.175-.181.986.513,2.078.9S480.48,332.105,480.559,332.339Z" transform="translate(-476.282 -331.004)"/></g></g><g transform="translate(95.078 146.349)"><g transform="translate(76.208)"><path class="i" d="M419.179,408.851l4.67-2.315,4.555,2.535-.758-5.157,3.818-3.549-5.139-.872-2.195-4.728-2.418,4.618-5.175.626,3.645,3.726Z" transform="translate(-416.538 -394.765)"/></g><g transform="translate(57.156)"><path class="i" d="M394.7,408.851l4.67-2.315,4.555,2.535-.759-5.157,3.818-3.549-5.139-.872-2.195-4.728-2.418,4.618-5.175.626,3.645,3.726Z" transform="translate(-392.057 -394.765)"/></g><g transform="translate(38.104)"><path class="i" d="M370.219,408.851l4.67-2.315,4.555,2.535-.758-5.157,3.818-3.549-5.139-.872-2.195-4.728-2.418,4.618-5.175.626,3.645,3.726Z" transform="translate(-367.577 -394.765)"/></g><g transform="translate(19.052)"><path class="i" d="M345.738,408.851l4.67-2.315,4.555,2.535-.758-5.157,3.818-3.549-5.139-.872-2.195-4.728-2.418,4.618-5.175.626,3.645,3.726Z" transform="translate(-343.097 -394.765)"/></g><path class="i" d="M321.258,408.851l4.67-2.315,4.555,2.535-.759-5.157,3.818-3.549-5.139-.872-2.195-4.728-2.418,4.618-5.175.626,3.645,3.726Z" transform="translate(-318.617 -394.765)"/></g><g transform="translate(93.065 45.551)"><path class="c" d="M409.391,265.455c0,.114-20.9.207-46.679.207s-46.682-.093-46.682-.207,20.9-.208,46.682-.208S409.391,265.34,409.391,265.455Z" transform="translate(-316.03 -265.247)"/></g><g transform="translate(117.363 39.943)"><path class="c" d="M393.365,258.25c0,.114-10.324.207-23.056.207s-23.057-.093-23.057-.207,10.321-.208,23.057-.208S393.365,258.135,393.365,258.25Z" transform="translate(-347.251 -258.042)"/></g><g transform="translate(110.015 66.417)"><g transform="translate(0.296)"><g transform="translate(0)"><circle class="f" cx="26.556" cy="26.556" r="26.556" transform="matrix(0.307, -0.952, 0.952, 0.307, 0, 50.554)"/><g transform="translate(22.639 26.724)"><path class="c" d="M368.9,326.4c1.006-.082,1.919,1.027,2.04,2.48s-.6,2.7-1.606,2.781-1.92-1.028-2.039-2.48S367.891,326.483,368.9,326.4Z" transform="translate(-367.279 -326.397)"/></g><g transform="translate(39.203 26.38)"><path class="c" d="M390.5,325.955c-1.009-.041-1.875,1.105-1.935,2.562s.71,2.67,1.719,2.711,1.876-1.106,1.935-2.562S391.509,326,390.5,325.955Z" transform="translate(-388.562 -325.954)"/></g><g transform="translate(21.923 35.086)"><path class="c" d="M388.473,337.151c.041.04-.174.314-.6.779a15.169,15.169,0,0,1-1.991,1.792,14.184,14.184,0,0,1-3.512,1.925,12.443,12.443,0,0,1-4.868.763,14.362,14.362,0,0,1-4.789-1.1,20.644,20.644,0,0,1-3.527-1.848,11.489,11.489,0,0,1-2.822-2.308,25.537,25.537,0,0,1,3.126,1.806,25.037,25.037,0,0,0,3.5,1.637,14.811,14.811,0,0,0,4.553.988,12.539,12.539,0,0,0,4.574-.654,15.636,15.636,0,0,0,3.432-1.685c.905-.622,1.634-1.146,2.107-1.55C388.14,337.307,388.432,337.111,388.473,337.151Z" transform="translate(-366.359 -337.141)"/></g><g transform="translate(19.812 20.251)"><path class="c" d="M369.292,318.583c-.046.234-1.317.149-2.825.4-1.512.226-2.7.694-2.811.485-.12-.184,1-1.047,2.683-1.3S369.35,318.37,369.292,318.583Z" transform="translate(-363.647 -318.079)"/></g><g transform="translate(41.236 19.985)"><path class="c" d="M396.775,319.747c-.146.19-1.272-.482-2.777-.933-1.5-.471-2.808-.546-2.824-.785-.031-.217,1.395-.527,3.067-.008S396.923,319.586,396.775,319.747Z" transform="translate(-391.174 -317.737)"/></g></g><g transform="translate(19.724 33.186)"><path class="c" d="M366.167,334.7c.1-.019.272.256.3.758a3.126,3.126,0,0,1-2.119,2.985c-.483.14-.8.072-.814-.033-.039-.23.98-.572,1.679-1.6C365.951,335.813,365.938,334.739,366.167,334.7Z" transform="translate(-363.533 -334.699)"/></g><g transform="translate(43.231 33.47)"><path class="c" d="M396.788,337.221c.02.105-.2.265-.613.3a2.4,2.4,0,0,1-2.4-1.783c-.086-.408,0-.663.111-.675.232-.019.495.767,1.275,1.319C395.911,336.969,396.739,336.994,396.788,337.221Z" transform="translate(-393.738 -335.065)"/></g></g><g transform="translate(0 0.027)"><path class="f" d="M404,325.252s-.023-.181-.048-.534l-.1-1.567q-.031-.517-.068-1.153c-.044-.423-.135-.88-.209-1.378s-.164-1.034-.254-1.606a17.709,17.709,0,0,0-.431-1.8,31.448,31.448,0,0,0-3.652-8.752,32.789,32.789,0,0,0-8.356-9.319l-1.42-1.058c-.5-.327-1.024-.627-1.544-.946-.53-.3-1.032-.669-1.6-.926l-1.7-.817-.867-.411-.911-.332-1.848-.673c-.627-.207-1.284-.341-1.934-.518a16.639,16.639,0,0,0-1.986-.45,30.533,30.533,0,0,0-4.149-.48c-.707-.025-1.42-.093-2.139-.082l-2.171.112c-.363.026-.732.023-1.1.072l-1.094.168c-.73.121-1.472.206-2.206.358a34.7,34.7,0,0,0-4.374,1.284,34.183,34.183,0,0,0-4.277,1.88c-.693.376-1.357.813-2.042,1.22-.335.216-.693.4-1.013.641l-.966.723a36.984,36.984,0,0,0-3.719,3.162l-1.666,1.835-.419.462-.377.5-.75,1-.754,1.009-.661,1.079-.659,1.086-.331.544-.28.574-1.113,2.312q-.444,1.209-.89,2.428a32.493,32.493,0,0,0,0,20.69q.446,1.22.89,2.429.558,1.161,1.113,2.313l.28.574.331.545.659,1.086.661,1.079.754,1.009.75,1.006.377.5.419.461,1.667,1.836a36.841,36.841,0,0,0,3.72,3.163l.965.723c.32.243.679.426,1.014.641.686.407,1.349.844,2.042,1.22a34.353,34.353,0,0,0,4.278,1.88,34.761,34.761,0,0,0,4.374,1.283c.735.152,1.477.237,2.207.359l1.094.168c.364.048.732.046,1.1.071l2.171.112c.718.011,1.431-.058,2.139-.082a30.443,30.443,0,0,0,4.15-.479,16.864,16.864,0,0,0,1.986-.45c.65-.177,1.307-.31,1.934-.518l1.847-.672.911-.332.866-.412,1.705-.817c.568-.258,1.071-.625,1.6-.926.52-.32,1.045-.619,1.544-.946l1.42-1.058a32.774,32.774,0,0,0,8.355-9.319,31.457,31.457,0,0,0,3.652-8.751,17.98,17.98,0,0,0,.43-1.8q.135-.858.254-1.606c.074-.5.164-.955.209-1.378q.037-.635.068-1.153c.043-.678.076-1.2.1-1.565s.048-.534.048-.534,0,.181-.006.535-.033.89-.058,1.57q-.022.521-.048,1.158c-.038.424-.122.884-.19,1.384s-.153,1.04-.237,1.616a17.935,17.935,0,0,1-.414,1.81,31.3,31.3,0,0,1-3.61,8.832,32.893,32.893,0,0,1-8.376,9.433l-1.429,1.073c-.5.331-1.031.636-1.554.961-.534.307-1.041.678-1.613.94l-1.718.831-.874.418-.918.339-1.865.685c-.633.212-1.3.349-1.952.529a17,17,0,0,1-2.006.46,30.9,30.9,0,0,1-4.193.5c-.714.026-1.435.1-2.162.088l-2.195-.108c-.368-.025-.74-.023-1.109-.07l-1.107-.167c-.739-.121-1.49-.206-2.233-.359a34.917,34.917,0,0,1-4.427-1.29,34.468,34.468,0,0,1-4.331-1.9c-.7-.379-1.374-.82-2.069-1.231-.34-.217-.7-.4-1.027-.648l-.978-.73a37.143,37.143,0,0,1-3.768-3.2q-.842-.923-1.69-1.857l-.425-.467-.381-.5-.761-1.016-.764-1.021-.669-1.092-.669-1.1-.335-.552-.284-.581-1.128-2.341q-.449-1.226-.9-2.459a32.865,32.865,0,0,1,0-20.951l.9-2.458,1.129-2.341.284-.581.335-.551.668-1.1.669-1.092.764-1.021.76-1.016.382-.5.425-.467,1.689-1.856a37.227,37.227,0,0,1,3.768-3.2l.977-.73c.324-.244.686-.43,1.027-.647.694-.411,1.367-.853,2.069-1.231a34.454,34.454,0,0,1,4.33-1.9,35.073,35.073,0,0,1,4.427-1.29c.743-.153,1.494-.237,2.233-.358l1.107-.168c.368-.047.74-.044,1.108-.069l2.2-.108c.726-.01,1.447.061,2.161.088a30.632,30.632,0,0,1,4.192.5,17.044,17.044,0,0,1,2.006.459c.656.181,1.318.318,1.952.529l1.864.686.918.338.874.418,1.718.831c.573.262,1.079.634,1.613.94.524.325,1.052.629,1.554.961l1.429,1.072a32.9,32.9,0,0,1,8.378,9.433,31.276,31.276,0,0,1,3.61,8.832,17.817,17.817,0,0,1,.415,1.811q.126.864.237,1.616c.068.5.152.96.19,1.385q.026.637.048,1.158c.025.68.045,1.2.058,1.571S404,325.252,404,325.252Z" transform="translate(-337.809 -292.093)"/></g></g><rect class="i" width="240.739" height="12.011" transform="translate(19.722 6.335)"/><path class="d" d="M230.844,221.685a1.626,1.626,0,1,1-1.627-1.627A1.627,1.627,0,0,1,230.844,221.685Z" transform="translate(-203.354 -209.676)"/><path class="d" d="M237.787,221.685a1.626,1.626,0,1,1-1.627-1.627A1.627,1.627,0,0,1,237.787,221.685Z" transform="translate(-204.894 -209.676)"/><path class="d" d="M244.73,221.685a1.626,1.626,0,1,1-1.627-1.627A1.626,1.626,0,0,1,244.73,221.685Z" transform="translate(-206.433 -209.676)"/><g transform="translate(47.354 55.022)"><path class="i" d="M443.878,277.624c0,.114-41.772.208-93.288.208-51.533,0-93.3-.093-93.3-.208s41.763-.207,93.3-.207C402.106,277.417,443.878,277.51,443.878,277.624Z" transform="translate(-257.294 -277.417)"/></g><g transform="translate(47.354 59.647)"><path class="i" d="M443.878,283.567c0,.114-41.772.207-93.288.207-51.533,0-93.3-.093-93.3-.207s41.763-.208,93.3-.208C402.106,283.359,443.878,283.452,443.878,283.567Z" transform="translate(-257.294 -283.359)"/></g></g></g><g transform="translate(92.382 183.864)"><path class="j" d="M1285.364,1512.105c2.971,1.114,4.27-.743,4.27-.743,4.081-2.775,7.444.477,8.2,1.3a3.122,3.122,0,0,1,.247.308l2.51,3.586c4.827,3.9,4.827-4.085,4.827-4.085,0-2.414-1.856-6.127-6.684-9.1s-4.085-5.756-4.085-5.756c.437-5.685,4.881-4.961,6.77-4.388a3.826,3.826,0,0,0,2.49-.089c4.4-1.691,2.166-7.488,1.377-9.229a8.649,8.649,0,0,1-.536-1.572c-1.47-6.209,2.113-9.725,4.9-11.458a5.526,5.526,0,0,1,5.825,0c2.79,1.732,6.376,5.249,4.906,11.46a8.667,8.667,0,0,1-.536,1.572c-.79,1.741-3.022,7.538,1.376,9.229a3.827,3.827,0,0,0,2.491.089c1.889-.574,6.333-1.3,6.77,4.388,0,0,.743,2.785-4.085,5.756s-6.684,6.684-6.684,9.1c0,0,0,7.984,4.827,4.085l2.511-3.586a3.089,3.089,0,0,1,.247-.308c.753-.827,4.116-4.079,8.2-1.3,0,0,1.3,1.857,4.27.743s9.1-.557,7.613,4.827c0,0-2.042,2.971-1.671,5.385s-.928,7.984-5.756,6.313-6.5,2.228-6.5,2.228-2.97,3.342-7.055,3.342h-2.785s-2.6,0-2.6,3.714a3.491,3.491,0,0,0,3.713,3.714h3.714s5.57-.372,4.827,5.384c0,0-.371,2.97-6.127,5.2-4.506,1.744-10.367,7.894-3.344,10.768,1.844.755,4.117,2.705,4.034,4.854-.112,2.931-3.181,3.67-5.518,4.059-3.342.557-4.827,2.042-5.013,3.9v3.528a4.774,4.774,0,1,1-9.469,0v-3.528c-.186-1.856-1.671-3.342-5.013-3.9-2.337-.389-5.406-1.129-5.518-4.059-.082-2.148,2.19-4.1,4.034-4.854,7.023-2.874,1.162-9.024-3.344-10.768-5.755-2.228-6.127-5.2-6.127-5.2-.742-5.756,4.828-5.384,4.828-5.384h3.714a3.491,3.491,0,0,0,3.713-3.714c0-3.714-2.6-3.714-2.6-3.714h-2.785c-4.085,0-7.055-3.342-7.055-3.342s-1.671-3.9-6.5-2.228-6.127-3.9-5.755-6.313-1.671-5.385-1.671-5.385C1276.266,1511.548,1282.393,1510.991,1285.364,1512.105Z" transform="translate(-1246.754 -1470.057)"/><path class="k" d="M1180.269,1653.717a7.238,7.238,0,0,0,2.637-1.832,2.79,2.79,0,0,0,.567-.935,8.949,8.949,0,0,1,4.053-3.41,8.408,8.408,0,0,1,3.009-.65,2.276,2.276,0,0,1,.307.02l1.652.232,1.673.258a4.342,4.342,0,0,0,2.668-.951,2.029,2.029,0,0,0,.6-1.663,4.6,4.6,0,0,0-.445-1.59,5.235,5.235,0,0,0-.392-.707,4.336,4.336,0,0,0-2.938-1.461,13.223,13.223,0,0,0-5.892.747c-2.429.8-3.725.814-4.455.628s-.847-.617-.847-.617c-1.882-2.677,1.449-5.457,3.062-6.509a5.691,5.691,0,0,0,1.72-1.761c1.168-1.911.642-3.21-.36-4a6.394,6.394,0,0,0-3.127-1.134,5.28,5.28,0,0,1-4.089-2.847,8.5,8.5,0,0,1-.574-3.7,23.732,23.732,0,0,1,.406-3.467,13.294,13.294,0,0,1,.328-1.557,15.991,15.991,0,0,1,1.152-1.115,11.613,11.613,0,0,1,3.1-1.871,7.557,7.557,0,0,1,4.253-.482,6.579,6.579,0,0,1,4.139,2.869,5.894,5.894,0,0,1,.632,1.23,11.092,11.092,0,0,0,1.927,3.394,3.4,3.4,0,0,0,4.448.717,4.517,4.517,0,0,0,1.812-1.668,7.866,7.866,0,0,1,2.685-2.808c1.273-.692,2.9-.739,4.778.982a2.446,2.446,0,0,1,.86,1.322c.321.972.369,2.609-.679,5.093a18.213,18.213,0,0,0-1.58,6.222,5.855,5.855,0,0,0,.806,3.677,8.363,8.363,0,0,0,.588.729,6.119,6.119,0,0,0,1.456,1.224,2.267,2.267,0,0,0,1.878.28,3.563,3.563,0,0,0,1.868-2.19l.2-1.918.181-1.945a2.871,2.871,0,0,1,.054-.355,8.43,8.43,0,0,1,1.29-3.027,5.877,5.877,0,0,1,4.654-2.581,2.724,2.724,0,0,0,1.245,0,4.26,4.26,0,0,0,2.6-1.887,8.435,8.435,0,0,1,4.408-3.141c1.779-.449,3.554.144,4.444,2.78a12.985,12.985,0,0,0,.13,2.008,7.035,7.035,0,0,0,1.258,3.351,7.04,7.04,0,0,1,1.454,4.376c-.086,1.674-1,3.179-3.466,3.623a5.547,5.547,0,0,0-4.2,2.748,4.384,4.384,0,0,0-.534,2.013,6,6,0,0,1-.258.645,11.4,11.4,0,0,1-.852,1.546,9.844,9.844,0,0,1-3.855,3.483l-2.472,1.209a2.861,2.861,0,0,0-.99.9,2.817,2.817,0,0,0-.065,2.876s1.035,2.72,4.568,1.216l3.371-1.45s4.938-2.488,6.142,2.4a3.219,3.219,0,0,1-.308,1.731,11.312,11.312,0,0,1-3.848,4.465,13.072,13.072,0,0,0-4.349,5.657,2.543,2.543,0,0,0,.333,2.474c.57.646,1.674,1.069,3.5,1.138a7.945,7.945,0,0,1,3.032.733,3.114,3.114,0,0,1,1.834,1.98c.494,2.343-2.316,3.624-4.506,4.449-3.118,1.187-4.306,2.61-4.182,4.016l.289,1.3.251,1.308a3.478,3.478,0,0,1-.3,1.749,5.909,5.909,0,0,1-3.562,3.032,6.413,6.413,0,0,1-4.42-1.547,3.164,3.164,0,0,1-.9-1.426s-.118-.615-.236-1.229l-.271-1.22c-.466-1.249-2.125-1.951-5.421-1.56-2.3.264-5.367.494-5.954-1.318a2.511,2.511,0,0,1,.755-2.2,9.186,9.186,0,0,1,2.251-1.945c3.049-1.874,2.917-3.513,1.363-4.528a11.437,11.437,0,0,0-6.662-1.232,14.736,14.736,0,0,1-5.6-.252,2.2,2.2,0,0,1-1.208-.691c-1.991-2.91,3.148-4.893,3.148-4.893l3.371-1.449c3.556-1.514,2.338-3.746,2.338-3.746a2.164,2.164,0,0,0-2.092-1.43,3.274,3.274,0,0,0-1.291.287l-2.472,1.209a13.745,13.745,0,0,1-4.94,1.288,14.527,14.527,0,0,1-1.6.037c-.382-.015-.6-.038-.6-.038a3.608,3.608,0,0,0-1.742-.232,8.335,8.335,0,0,0-4.538,2.119c-1.889,1.521-3.477,1.77-4.593,1.527a2.467,2.467,0,0,1-1.964-1.581c-.133-.625-.862-.945-1.509-1.134a6.256,6.256,0,0,0-1.263-.208c-1.329-.625-.741-1.857.443-3.094A15.968,15.968,0,0,1,1180.269,1653.717Z" transform="translate(-1174.639 -1570.403)"/><path class="l" d="M1340.792,1783.36h-31.209v-19.072a15.6,15.6,0,0,1,31.209,0Z" transform="translate(-1269.226 -1665.355)"/><g transform="translate(30.85 71.416)"><path class="m" d="M1383.382,1794.4a9.045,9.045,0,0,1,5.961-7.913c5.572-2.028,14.573.573,14.573.573s-3.179,6.166-8.385,9.006c-4.58,2.5-9.612,1.686-11.016-.193v27.559h-1.134V1794.4Z" transform="translate(-1351.803 -1762.728)"/><path class="m" d="M1373.021,1722.806a14.53,14.53,0,0,1,9.577-12.712c8.952-3.258,23.411.92,23.411.92s-5.107,9.906-13.47,14.468c-7.358,4.013-15.441,2.708-17.7-.309v44.273h-1.822v-46.64Z" transform="translate(-1344.541 -1708.851)"/><path class="m" d="M1304.648,1761.738v18.5c-.124,0-.248-.009-.376-.009a7.33,7.33,0,0,0-1.108.081v-16.646c-1.086,1.454-3.845,2.421-7.156,2.284a16.6,16.6,0,0,1-7.249-2.031c-6.809-3.717-10.966-11.779-10.966-11.779s10.885-3.143,18.2-1.026c.3.082.582.175.86.278A11.831,11.831,0,0,1,1304.648,1761.738Z" transform="translate(-1277.792 -1737.961)"/><g transform="translate(30.697 3.433)"><path class="d" d="M1380.435,1731.913s3.678-14.851,26.871-10.92C1407.306,1720.993,1389.627,1720.165,1380.435,1731.913Z" transform="translate(-1380.435 -1720.331)"/><path class="d" d="M1380.435,1742.723s3.676-10.263,19.817-5.881C1400.252,1736.843,1387.792,1735.037,1380.435,1742.723Z" transform="translate(-1380.435 -1731.141)"/></g><g transform="translate(5.27 15.728)"><path class="d" d="M1315.419,1770.066s-2.738-11.057-20.006-8.13C1295.413,1761.935,1308.576,1761.319,1315.419,1770.066Z" transform="translate(-1295.413 -1761.442)"/><path class="d" d="M1327.728,1778.115s-2.737-7.641-14.754-4.379C1312.973,1773.736,1322.25,1772.392,1327.728,1778.115Z" transform="translate(-1307.722 -1769.491)"/></g><g transform="translate(32.857 24.534)"><path class="d" d="M1387.656,1798.115s2.3-9.27,16.773-6.816C1404.429,1791.3,1393.394,1790.782,1387.656,1798.115Z" transform="translate(-1387.656 -1790.885)"/><path class="d" d="M1387.656,1804.863s2.295-6.406,12.37-3.671C1400.026,1801.192,1392.248,1800.065,1387.656,1804.863Z" transform="translate(-1387.656 -1797.634)"/></g></g><path class="n" d="M1309.536,1842.134a5.847,5.847,0,0,0-2.77-.692h-34.289a5.884,5.884,0,0,0-2.77.692c-3.955,2.116-14.486,9.156-9.593,22.144a15.746,15.746,0,0,0,3.584,5.567l4.423,4.423a8.294,8.294,0,0,0,5.865,2.429h31.274a8.293,8.293,0,0,0,5.864-2.429l4.423-4.423a15.61,15.61,0,0,0,3.584-5.567C1324.023,1851.289,1313.491,1844.249,1309.536,1842.134Z" transform="translate(-1233.66 -1730.372)"/></g><g transform="translate(479.222 193.276)"><path class="o" d="M1732.8,1529.888a.7.7,0,0,0,.389.078c.206-.019.524-.051.727-.077,5.6-.74,9.935-4.279,12.689-9.056a13.063,13.063,0,0,0,1.331-8.893c-.458-2.914-1.685-5.778-1.294-8.771.286-2.2,1.391-4.21,1.744-6.392l.016-.1s-12.016,2.878-17.926,13.565a18.8,18.8,0,0,0-2.194,11.53C1728.682,1524.869,1729.832,1528.318,1732.8,1529.888Z" transform="translate(-1684.083 -1496.68)"/><path class="o" d="M1734.126,1760.756h1.528a23.33,23.33,0,0,1,.292-4.729,5.912,5.912,0,0,1,3.21-4.427,45.339,45.339,0,0,1,4.671-2.08c3.028-1.068,2.669-5.61,5.7-7.833,3.066-2.252,3.268-3.79,2.88-4.7a1.4,1.4,0,0,0-1.687-.786,20.952,20.952,0,0,0-13.98,13.113A26.584,26.584,0,0,0,1734.126,1760.756Z" transform="translate(-1688.285 -1664.53)"/><path class="o" d="M1613.9,1665.6s-10.5-8.546-20.83-6.053c-3.96.956-8.735,4.52-8.765,8.944-.03,4.4,4.237,3.588,7.108,2.357,3.611-1.549,6.538-4.294,10.375-5.342a20.424,20.424,0,0,1,5.631-.663C1608.884,1664.868,1612.732,1664.657,1613.9,1665.6Z" transform="translate(-1583.277 -1610.522)"/><path class="o" d="M1580.876,1576.332c0,10.128,7.981,11.709,13.4,12.04a13.927,13.927,0,0,1,7.4,2.659c.335.24.671.484,1.011.728,2.3,1.667,4.648,3.335,6.933,5.079.3.216.56.441.819.671a8.278,8.278,0,0,1,.776.7l.719.762c.235.259.436.551.656.824l.321.417c.105.139.192.292.292.436l.575.882.508.92c.172.3.335.613.479.934a39.242,39.242,0,0,1,2.7,7.766,79.551,79.551,0,0,1,1.859,12.337q.086,1.128.153,2.2c.254,4.3.235,7.9.182,10.406-.029,1.265-.072,2.252-.106,2.922h1.073c.029-.675.067-1.662.086-2.9.039-2.53.039-6.151-.244-10.488a89.9,89.9,0,0,0-1.6-12.39c-.158-.762-.33-1.528-.522-2.3a39.919,39.919,0,0,0-2.812-7.929,10.136,10.136,0,0,0-.5-.963l-.537-.949-.6-.915c-.1-.153-.2-.307-.306-.455l-.34-.436c-.235-.282-.446-.584-.7-.857l-.761-.805c-.249-.278-.556-.493-.829-.742s-.57-.484-.857-.69c-2.309-1.744-4.676-3.4-6.981-5.05s-4.566-3.287-6.674-4.964a62.757,62.757,0,0,1-5.793-5.146,37.919,37.919,0,0,1-4.412-5.327c-2.736-4.1-3.89-8.576-5.29-13.243Z" transform="translate(-1580.876 -1542.791)"/><path class="o" d="M1664.011,1709.283s3.872-10.415-4.006-15.622a22.91,22.91,0,0,0-8.679-3.872S1646.252,1705.677,1664.011,1709.283Z" transform="translate(-1629.787 -1632.036)"/><path class="o" d="M1692.006,1746.36s.1.35.25.963c.072.3.173.67.263,1.1s.2.91.321,1.437.22,1.1.345,1.706.258,1.246.359,1.912.23,1.356.35,2.051.211,1.413.312,2.127.2,1.423.292,2.123.144,1.4.22,2.065c.01.072.015.144.02.216.062.594.115,1.169.172,1.72.029.244.048.484.067.719.023.35.043.69.063,1.01.057.92.1,1.706.138,2.3h1.572c-.067-.618-.158-1.452-.263-2.439-.057-.546-.111-1.131-.216-1.749s-.187-1.27-.292-1.945-.191-1.37-.321-2.07-.263-1.418-.4-2.132-.253-1.428-.416-2.123-.307-1.385-.45-2.051-.312-1.3-.456-1.9-.287-1.178-.431-1.706-.278-1-.393-1.427-.235-.8-.321-1.1c-.182-.614-.3-.954-.3-.954Z" transform="translate(-1658.77 -1671.588)"/><path class="o" d="M1685.364,1788.153s-1.532-7.044-7.236-8.664a.727.727,0,0,0-.9.883C1677.679,1782.109,1679.333,1785.536,1685.364,1788.153Z" transform="translate(-1648.394 -1694.891)"/><path class="o" d="M1634.886,1575.94a2.665,2.665,0,0,1,2.587,1.768c1.236,3.454,2.956,10.315,3.818,22.963.211,3.066.369,6.473.46,10.253.106,4.408.115,9.318,0,14.795v.733h2.827c.01-.551.024-1.131.039-1.729.158-8.15.139-20.362-1.083-27.487-1.85-10.746,1.212-28.459,2.611-32.977a.664.664,0,0,0-.053-.532.691.691,0,0,0-.421-.326l-.02,0a.651.651,0,0,0-.791.469c-.8,3.277-4.374,18.34-3.665,24.31a66.16,66.16,0,0,0-2.554-11.336,7.545,7.545,0,0,1-.158-4.345c6.411-24.674-25.574-27.956-25.574-27.956C1611.908,1573.718,1628.37,1576.123,1634.886,1575.94Zm6.319,12.323c.005.024.005.048.01.072C1641.215,1588.335,1641.21,1588.311,1641.205,1588.263Z" transform="translate(-1603.299 -1530.227)"/><path class="o" d="M1718.977,1638a21.115,21.115,0,0,0-6.337,15.957c-.043-1.326,1.527-3.524,2.251-4.514,4.875-6.659,11.521-5.332,18.593-3.781Z" transform="translate(-1673.225 -1595.734)"/><path class="o" d="M1724.92,1738.3a.643.643,0,0,0-.713-.724c-2.247.265-8.554,1.827-10.589,10.984C1713.618,1748.564,1723.206,1751.132,1724.92,1738.3Z" transform="translate(-1673.919 -1665.531)"/><path class="o" d="M1721.973,1701.561s-6.943,2.849-6.943,9.614C1715.03,1711.175,1720.371,1712.777,1721.973,1701.561Z" transform="translate(-1674.909 -1640.288)"/><path class="o" d="M1768.379,1675.131s-18.242-3.842-20.83,11.928c0,0,6.519,3.1,12.819,0C1766.616,1683.979,1768.379,1675.131,1768.379,1675.131Z" transform="translate(-1697.702 -1621.473)"/><path class="o" d="M1735.375,1705.1l-.172.086c-.117.059-.273.149-.475.265a18.1,18.1,0,0,0-1.584,1.074c-.307.248-.653.5-.989.806s-.7.616-1.048.965-.7.722-1.059,1.1-.681.794-1.022,1.2c-.316.422-.645.837-.947,1.261s-.582.852-.852,1.268l-.735,1.226c-.229.393-.416.78-.6,1.129s-.359.672-.485.968l-.346.76-.3.663,1.337.522.253-.65.291-.747c.1-.292.255-.607.413-.953s.321-.727.519-1.116l.639-1.216.75-1.264c.267-.423.56-.839.843-1.263.305-.406.605-.819.919-1.209s.628-.772.961-1.115.643-.686.96-.988.627-.576.911-.833a17.436,17.436,0,0,1,1.465-1.118c.186-.119.333-.217.43-.272l.156-.09Z" transform="translate(-1681.728 -1642.77)"/><path class="o" d="M1771.778,1625.722s-13.886-22.788-37.92-4.451C1733.858,1621.271,1750.593,1637.294,1771.778,1625.722Z" transform="translate(-1688.106 -1579.008)"/><path class="o" d="M1716.789,1660.589h4.188c-3.253-34.2,5.342-66.706,5.342-66.706l-.915-.642c-4.9,19.6-6.281,43.623-6.659,57.4a33.1,33.1,0,0,1-.5,4.863,29.261,29.261,0,0,1-.786,3.354A11.06,11.06,0,0,1,1716.789,1660.589Z" transform="translate(-1676.142 -1564.363)"/><path class="p" d="M1695.853,1671.814c2.222.413,4.4.992,6.628,1.289-2.013-1.1-4.169-2.195-6.3-3.181q.187-.971.414-1.965a69.7,69.7,0,0,0,9.277,3.159c-2.854-2.083-5.607-4.266-8.46-6.318.549-1.912,1.2-3.861,1.961-5.819a18.866,18.866,0,0,0,2.641.332c-.759-.467-1.488-.934-2.218-1.4q.32-.788.66-1.577a32.015,32.015,0,0,0,5.3,2.042,23.8,23.8,0,0,1-4.1-4.656,69.869,69.869,0,0,1,5.647-9.7v-.255c.03.042.058.085.088.128.029-.042.058-.085.088-.128v.255q1.527,2.188,2.876,4.493c-.689,1.387-1.394,2.781-2.139,4.135.939-.939,1.879-1.94,2.864-2.867.946,1.7,1.819,3.421,2.614,5.156a29.8,29.8,0,0,1-2.789,4.374c1.243-.861,2.331-1.878,3.517-2.732.226.529.447,1.057.659,1.586-1.879,2.1-4.062,3.944-5.812,6.172a72.841,72.841,0,0,1,6.6-4.113,64.179,64.179,0,0,1,2.518,8.676c-1.86,1.918-3.917,3.641-5.731,5.606,2.116-.907,4.145-1.987,6.237-2.867.119.76.219,1.509.3,2.24a112.7,112.7,0,0,0-9.923,6.237l10.128-2.932a21.375,21.375,0,0,1-.792,6.549c-2.728,1.347-5.249,3.129-8.05,4.213,2.377-.386,4.649-1.159,6.95-1.739a7.731,7.731,0,0,1-.569.8,11.826,11.826,0,0,1-8.431,4.676V1696h-2.423v-4.333a11.887,11.887,0,0,1-8.233-4.662,11.471,11.471,0,0,1-2.16-5.389,34.076,34.076,0,0,0,7.853,2c-2.793-1.643-5.414-3.516-8.145-5.175A37.516,37.516,0,0,1,1695.853,1671.814Z" transform="translate(-1661.134 -1599.777)"/><g transform="translate(35.447 65.147)"><path class="q" d="M1742.439,1723.8a35.475,35.475,0,0,0,.17,6.451c.424,2.547.891,3.141.552,6.494s-1.7,11.12-1.783,11.417-.679-12.606-.679-12.606a6.406,6.406,0,0,0,.425-2.546C1741.124,1731.358,1741,1726.52,1742.439,1723.8Z" transform="translate(-1728.349 -1721.025)"/><path class="o" d="M1746.639,1782.377h2.955a5.527,5.527,0,0,0,1.125-2.623,6.716,6.716,0,0,1,.51-1.952l.679-1.917.042-.121a9.778,9.778,0,0,0,.721-3.819c-.04-3.627.818-4.821.923-4.953a9.438,9.438,0,0,0-2.2,4.825,14.3,14.3,0,0,1-.935,2.673l-.75,1.544Z" transform="translate(-1732.512 -1751.298)"/><path class="r" d="M1753.36,1800.251h1.846a3.6,3.6,0,0,0,.521-2.369c-.042-1.527.509-1.4.892-1.867s.551-.128.721-1.273a4.56,4.56,0,0,1,1.613-2.25,4.606,4.606,0,0,0-2.334,1.266C1754.671,1795.615,1753.695,1798.9,1753.36,1800.251Z" transform="translate(-1737.223 -1769.172)"/><path class="q" d="M1754.013,1750.994s.638-11.245.869-13.393a47.172,47.172,0,0,0-2.218,13.267Z" transform="translate(-1736.733 -1730.697)"/><path class="o" d="M1743.474,1743.87a25.02,25.02,0,0,0,0-7.385l.3-2.7s-.042-3.056-.212-5.9a25.463,25.463,0,0,1-.042-4.8s-1.231,1.91-1.4,5.985-.042,4.414-.509,6.281a33.542,33.542,0,0,0-1.231,7.937l-.509,2.716a14.638,14.638,0,0,0-.467,5.56Z" transform="translate(-1727.346 -1720.528)"/><path class="q" d="M1738.405,1770.282h3.487a14.691,14.691,0,0,0,2.038-5.976q.005-.187.014-.366a9.364,9.364,0,0,1,.951-3.892,5.669,5.669,0,0,0,.594-1.784,7.3,7.3,0,0,0,.053-1.9c-.191-1.719,0-5.348.509-6.43.378-.8-.887.841-1.672,3.74-.007.026-.014.053-.02.079a16.341,16.341,0,0,0-.536,3.562,3.08,3.08,0,0,1-.509,1.6c-.054.078-.119.188-.191.319l-.093.174c-.457.882-1.142,2.48-1.565,3.491a13.828,13.828,0,0,1-.812,1.63c-.123.211-.265.461-.417.742-.131.24-.268.5-.408.785-.028.055-.055.112-.083.169a18.441,18.441,0,0,0-.846,1.993c-.088.249-.167.5-.236.748A7.5,7.5,0,0,0,1738.405,1770.282Z" transform="translate(-1726.741 -1739.203)"/><path class="r" d="M1699.4,1797.209s2.5-.551,3.012.467.85.255,1.359,2.5c.374,1.654.359,1.976.864,2.623h2.233l-2.376-5.594a3.735,3.735,0,0,0-.713-.669,2.7,2.7,0,0,0-.455-.263,1.636,1.636,0,0,0-1.225-.045Z" transform="translate(-1699.402 -1771.724)"/><path class="o" d="M1708.1,1771.08c-.044,1.146-.044,2.928.593,3.735a4.53,4.53,0,0,1,.561,1.07,15.768,15.768,0,0,1,.585,1.858,22.832,22.832,0,0,0,1.313,4.405h2.126l-1.359-5.848a5.772,5.772,0,0,1-2.334-4.16c-.417-3.927-2.317-5.428-2.376-5.474A9.5,9.5,0,0,1,1708.1,1771.08Z" transform="translate(-1704.874 -1751.069)"/><path class="o" d="M1732.8,1731.32c-.268,3.273.438,11.088.75,14.274h2.645v-8.8c-.01-1.036-.073-2.053-.173-3.032a47.834,47.834,0,0,0-.832-5.108c-.291-1.373-.574-2.514-.736-3.319-.424-2.122.213-2.547-.042-5.815a12.216,12.216,0,0,0-1.314-5.006,7.529,7.529,0,0,1,0,4.03c-.595,2.377-.06,3.611-.382,5.434-.29,1.643.335,3,.136,6.584C1732.834,1730.8,1732.818,1731.057,1732.8,1731.32Z" transform="translate(-1722.695 -1714.515)"/><path class="s" d="M1724.516,1740.285c.806,1.527.637,2.164.637,2.164-.02.324-.035.644-.045.962-.015.438-.021.87-.021,1.292a43.191,43.191,0,0,0,.579,6.905h3.465c-.035-.179-.066-.364-.1-.557-.07-.46-.125-.959-.171-1.506q-.053-.617-.089-1.319c-.073-1.314-.12-2.865-.187-4.716-.166-4.647-.981-4.143-1.731-6.934-.018-.064-.035-.129-.052-.2a24.974,24.974,0,0,1-.765-5.517,15.79,15.79,0,0,0-1.188-7.767,17.371,17.371,0,0,1-.127,5.3,28.162,28.162,0,0,0-.3,4.5l.141,1.974a6.769,6.769,0,0,1-.178,2.074c-.007.029-.014.057-.021.084A3.905,3.905,0,0,0,1724.516,1740.285Z" transform="translate(-1716.706 -1720.529)"/><path class="r" d="M1719.411,1757.155a11.056,11.056,0,0,1,1.995,5.348l.892,4.329-.424,1.825-1.783-2.207S1720.345,1759.107,1719.411,1757.155Z" transform="translate(-1713.427 -1744.403)"/><path class="q" d="M1711.767,1752.311a13.866,13.866,0,0,0,.493,4.392c.339,1.145.976.934,1.274,4.244a.02.02,0,0,0,0,.008c.3,3.3.805,4.024.805,4.024l1.065,2.5h1.623l-.481-3.132c-.3-1.913-.426-3.222-.694-4.352-.059-.246-.123-.481-.2-.714a8,8,0,0,0-.932-1.938,8.691,8.691,0,0,1-.776-1.364c-.3-.758-.16-1.3-.539-3.814a22.39,22.39,0,0,0-2.8-6.43A36.9,36.9,0,0,1,1711.767,1752.311Z" transform="translate(-1707.252 -1736.395)"/></g><path class="o" d="M1726.941,1596.021s-6.275-1.322-7.165,4.1a5.505,5.505,0,0,0,4.409,0C1726.335,1599.064,1726.941,1596.021,1726.941,1596.021Z" transform="translate(-1678.236 -1566.212)"/><path class="o" d="M1716.811,1584.77s-4.04,4.345-.163,7.637a5.093,5.093,0,0,0,2.1-3.5C1718.935,1586.7,1716.811,1584.77,1716.811,1584.77Z" transform="translate(-1674.864 -1558.425)"/><g transform="translate(25.245 93.909)"><g transform="translate(3.008 6.068)"><path class="t" d="M1708.866,1830.974l-8.381,38.385h-16.761l-8.38-38.385Z" transform="translate(-1675.344 -1830.974)"/><path class="u" d="M1717.805,1830.974l8.381,38.385h4.062l8.381-38.385Z" transform="translate(-1705.106 -1830.974)"/></g><rect class="t" width="39.537" height="6.888"/><rect class="v" width="7.145" height="6.888" transform="translate(27.037)"/></g></g><g transform="translate(220.496 59.183)"><path class="w" d="M362.415,114.77h72.819a7.428,7.428,0,0,0-.712-2.543c-4.154-6.108-6.364-9.1-10.268-13.073-7.551-2.312-11.416-2.814-22.776-4.658l-12.824-.828s-16.28,3.78-21.759,7.7C364.1,104.541,362.25,108.871,362.415,114.77Z" transform="translate(-362.024 -44.552)"/><path class="w" d="M362.4,108.726h48.68a8.108,8.108,0,0,0-.712-2.543,11.079,11.079,0,0,0-5.773-.046c-1.783.474-2.97.784-2.97.784H369.959C363.783,106.921,362.4,108.726,362.4,108.726Z" transform="translate(-337.875 -38.508)"/><path class="x" d="M388.26,89.249a20.046,20.046,0,0,1-.216-5.6,12.75,12.75,0,0,1,2.552-4.97,13.58,13.58,0,0,1,2.7.672c-.047.1,0,3.794,0,3.794s-.921,5.306-1.189,5.842A24,24,0,0,1,390.6,91.7a7.544,7.544,0,0,1-1.247-.4Z" transform="translate(-358.319 -52.038)"/><path class="x" d="M392.257,104.874a4.062,4.062,0,0,0,4.177-3.121,16.183,16.183,0,0,1,1.015-2.577c.546-1.21,1.19-2.537,1.6-3.631l-4.274-3.123-9.115-6.694s-1.132,8.548-3.318,11.905C382.341,97.633,381.619,104.27,392.257,104.874Z" transform="translate(-355.711 -48.517)"/><path class="y" d="M382.331,89.165c.253.409,4.021,6.09,7.28,8.3.546-1.21,1.19-2.537,1.6-3.631l-4.274-3.123Z" transform="translate(-347.873 -46.801)"/><path class="x" d="M368.881,88.655a26.137,26.137,0,0,0-.112,5.055,3.848,3.848,0,0,0,.09.547,4.177,4.177,0,0,0,.12.549c1.445,5.718,19.113,12.274,19.648,11.931,9.872-6.348,13.295-29.842,12.265-31.4C399.76,73.619,385.765,72,385.474,71.97s-13.74.944-13.74.944A144.911,144.911,0,0,0,368.881,88.655Z" transform="translate(-337.278 -55.385)"/><path class="n" d="M405.175,75.328s-.435,10.261-17.292,6.156c-4.627-1.126-8.709-2.178-11-.94-3.445,10.841-3.557,16.042-4.778,15.614-1.526-.534,2.61-9.538-2.663-8.566-4.033.745-4.384,10.527-4.384,10.527s-.343.8-.484-1.478c-.086-1.36-1.021-23.356,2.316-27.966s8.106-1.826,8.106-1.826-.283-11.129,15.668-2.923c9.208,4.738,13.664,1.516,13.638,1.8S405.881,68.89,405.175,75.328Z" transform="translate(-335.115 -60.907)"/><path class="x" d="M378.648,156.916a16.63,16.63,0,0,0,2.054,2.04,5.651,5.651,0,0,0,2.721,1.1,6.517,6.517,0,0,1,2.917,2.238c.4.483,0,.7-.834.526s-1.908-.834-2.259-.834-.351.427,0,1.2a8.682,8.682,0,0,0,1.886,2.486c.571.438,2.151,1.316,2.327,1.843s.043.79-.79.526a22.291,22.291,0,0,1-2.808-1.492,4.915,4.915,0,0,1-1.061-.823,6.98,6.98,0,0,1-2.33.238,2.573,2.573,0,0,1-1.093-.48,2.174,2.174,0,0,1-.343-.081c-.747-.3-1.141-2.892-1.537-3.594a30.047,30.047,0,0,0-3.724-3.258Z" transform="translate(-331.361 -12.979)"/><path class="x" d="M363.468,113.619a3.71,3.71,0,0,0,1.759-1.283c.237-.237.57-.642.927-1.069.331-.238.642-.451.9-.618a2.479,2.479,0,0,1,1.378-.451h.072v-.024c3.445-.07,4.988-1.568,9.217-1.568,0,0-9.883-4.751-15.847-1.378a20.1,20.1,0,0,1-2.519.261c-1.735.024-1.235.9-.688,1.189a8.043,8.043,0,0,0,1.163.213l-.094.1c-.261.285-.5.57-.714.831-.76.928-1.781,2.139-1.971,2.328-.261.309-.094.5-.094.5C356.586,113.216,360.4,115.136,363.468,113.619Z" transform="translate(-296.267 -38.388)"/><path class="z" d="M367.989,108.275a8.043,8.043,0,0,0,1.163.213,16.549,16.549,0,0,1,2.043-1.663,20.1,20.1,0,0,1-2.519.261C366.943,107.11,367.442,107.988,367.989,108.275Z" transform="translate(-305.588 -37.985)"/><path class="x" d="M403.908,151.043s10.8-1.606,11.6-3.678c.474-1.226.333-11.084.13-18.85-.034-1.663-.083-3.243-.136-4.6-.065-2.985-.141-5.015-.141-5.015l-20.173,1.893C397.079,129.484,403.908,151.043,403.908,151.043Z" transform="translate(-391.763 -31.957)"/><path class="x" d="M390.682,138.346a62.5,62.5,0,0,1,8.2,7.495c1.783,2.138,7.327,10.584,11.584,16.419a55.123,55.123,0,0,0,4.944,5.889l-2.664,2.643S401.694,163.5,392.6,156.639s-11.895-9.4-13.52-14.613S387.436,135.7,390.682,138.346Z" transform="translate(-366.935 -22.941)"/><path class="w" d="M419.406,110.624l-.681,18.472s-10.88,3.811-20.682,1.478c0,0-6.18-14.623-1.277-28.6" transform="translate(-394.876 -40.407)"/></g><g transform="translate(-88.882 -26.187)"><g transform="translate(443.207 73.275)"><g transform="translate(9.082 9.706)"><rect class="aa" width="7.636" height="11.916" transform="matrix(0.758, -0.652, 0.652, 0.758, 0, 4.979)"/></g><path class="f" d="M482.59,100.44,470.666,110.7l-8.375-9.739A29.993,29.993,0,0,1,474.215,90.7Z" transform="translate(-462.291 -90.702)"/><g transform="translate(1.585 8.177)"><path class="c" d="M473.676,114.21c-.066.057-2.086-2.156-4.512-4.945s-4.339-5.1-4.273-5.154,2.086,2.156,4.512,4.945S473.742,114.152,473.676,114.21Z" transform="translate(-464.89 -104.11)"/></g><g transform="translate(3.88 5.79)"><path class="c" d="M477.417,110.727a12.638,12.638,0,0,1-1.353-1.486c-.806-.943-1.9-2.258-3.1-3.719l-3.058-3.756-.918-1.143c-.218-.276-.33-.41-.331-.424a41.794,41.794,0,0,1,4.552,5.121c1.2,1.462,2.27,2.8,3.032,3.779A12.415,12.415,0,0,1,477.417,110.727Z" transform="translate(-468.654 -100.195)"/></g><g transform="translate(6.896 3.009)"><path class="c" d="M482.372,106.347a12.958,12.958,0,0,1-1.361-1.506c-.81-.956-1.912-2.29-3.118-3.773l-3.063-3.818-.912-1.168a3.7,3.7,0,0,1-.319-.442,8.482,8.482,0,0,1,1.4,1.467c.821.948,1.93,2.277,3.136,3.76s2.28,2.839,3.046,3.832A12.761,12.761,0,0,1,482.372,106.347Z" transform="translate(-473.599 -95.637)"/></g><g transform="translate(9.71 1.067)"><path class="c" d="M486.93,102.665c-.066.057-2.072-2.183-4.478-5s-4.3-5.153-4.237-5.21,2.072,2.183,4.479,5S487,102.609,486.93,102.665Z" transform="translate(-478.213 -92.451)"/></g></g><g transform="translate(546.787 75.07)"><g transform="translate(0 0)"><g transform="translate(0 9.301)"><rect class="aa" width="7.636" height="11.916" transform="matrix(0.691, 0.723, -0.723, 0.691, 8.615, 0)"/></g><g transform="translate(3.277)"><path class="f" d="M648.376,113.888,637.51,102.517l9.286-8.873a29.993,29.993,0,0,1,10.866,11.371Z" transform="translate(-637.51 -93.644)"/></g></g><g transform="translate(5.094 1.474)"><path class="c" d="M640.491,105.363c-.061-.063,2.044-2.2,4.7-4.765s4.861-4.6,4.922-4.537-2.044,2.2-4.7,4.765S640.552,105.427,640.491,105.363Z" transform="translate(-640.49 -96.061)"/></g><g transform="translate(7.166 3.641)"><path class="c" d="M643.888,108.918a12.576,12.576,0,0,1,1.412-1.43c.9-.854,2.155-2.017,3.552-3.293l3.59-3.251,1.094-.977c.263-.232.392-.351.406-.352a41.737,41.737,0,0,1-4.876,4.815c-1.4,1.276-2.677,2.414-3.615,3.225A12.471,12.471,0,0,1,643.888,108.918Z" transform="translate(-643.887 -99.614)"/></g><g transform="translate(9.923 6.507)"><path class="c" d="M648.408,113.636a12.92,12.92,0,0,1,1.433-1.439c.912-.859,2.186-2.03,3.6-3.311l3.651-3.258,1.12-.973a3.571,3.571,0,0,1,.425-.342,8.547,8.547,0,0,1-1.392,1.479c-.9.87-2.172,2.047-3.591,3.329s-2.716,2.427-3.667,3.243A12.841,12.841,0,0,1,648.408,113.636Z" transform="translate(-648.407 -104.314)"/></g><g transform="translate(12.502 9.215)"><path class="c" d="M652.638,117.995c-.06-.063,2.072-2.183,4.762-4.734s4.92-4.568,4.981-4.5-2.072,2.183-4.762,4.735S652.7,118.059,652.638,117.995Z" transform="translate(-652.637 -108.755)"/></g></g><g transform="translate(498.127 51.301)"><g transform="translate(0.094)"><g transform="translate(4.732 12.227)"><rect class="aa" width="9.039" height="14.106"/></g><path class="f" d="M571.117,71.115H552.5v-15.2a35.509,35.509,0,0,1,18.618,0Z" transform="translate(-552.499 -54.669)"/></g><g transform="translate(0 1.301)"><path class="c" d="M571.276,56.807a3.554,3.554,0,0,1-.687.341,17.433,17.433,0,0,1-1.961.721,22.744,22.744,0,0,1-3.019.716,23.724,23.724,0,0,1-7.579.036A22.832,22.832,0,0,1,555,57.935a17.337,17.337,0,0,1-1.968-.7,3.539,3.539,0,0,1-.69-.334c.023-.055,1.028.367,2.719.821a26.185,26.185,0,0,0,3.008.614,25.555,25.555,0,0,0,7.491-.036,26.237,26.237,0,0,0,3-.642C570.252,57.184,571.253,56.751,571.276,56.807Z" transform="translate(-552.346 -56.802)"/></g><g transform="translate(6.085 3.365)"><path class="c" d="M562.483,73.226c-.087,0-.159-2.919-.159-6.519s.071-6.519.159-6.519.159,2.918.159,6.519S562.57,73.226,562.483,73.226Z" transform="translate(-562.324 -60.188)"/></g><g transform="translate(9.628 3.395)"><path class="c" d="M568.292,73.333c-.088,0-.159-2.932-.159-6.548s.071-6.549.159-6.549.159,2.932.159,6.549S568.379,73.333,568.292,73.333Z" transform="translate(-568.133 -60.236)"/></g><g transform="translate(13.17 3.336)"><path class="c" d="M574.1,73.237c-.087,0-.159-2.932-.159-6.549s.071-6.549.159-6.549.159,2.932.159,6.549S574.187,73.237,574.1,73.237Z" transform="translate(-573.941 -60.139)"/></g><g transform="translate(16.12 2.277)"><path class="c" d="M578.937,72.559c-.087,0-.159-3.169-.159-7.078s.071-7.078.159-7.078.159,3.168.159,7.078S579.024,72.559,578.937,72.559Z" transform="translate(-578.778 -58.403)"/></g><g transform="translate(2.736 2.186)"><path class="c" d="M556.991,72.41c-.087,0-.159-3.169-.159-7.078s.071-7.078.159-7.078.159,3.169.159,7.078S557.078,72.41,556.991,72.41Z" transform="translate(-556.832 -58.254)"/></g></g><g transform="translate(413.378 46.036)"><circle class="f" cx="65.761" cy="65.761" r="65.761" transform="translate(0 93) rotate(-45)"/></g><g transform="translate(450.99 83.152)"><g transform="translate(0.158 0.13)"><circle class="ab" cx="55.229" cy="55.229" r="55.229"/></g><path class="c" d="M585.67,162.258s-.018-.3-.038-.9c-.036-.592-.013-1.475-.117-2.625a55.6,55.6,0,0,0-1.573-9.964,54.925,54.925,0,0,0-2.266-6.931,53.394,53.394,0,0,0-3.843-7.77,55.821,55.821,0,0,0-14.014-15.666,54.991,54.991,0,0,0-23.206-10.293,56,56,0,0,0-21.591.251,58.748,58.748,0,0,0-7.365,2.1,55.23,55.23,0,0,0-25.609,19.208,54.226,54.226,0,0,0-4.491,7.229c-.678,1.262-1.256,2.578-1.849,3.894-.531,1.342-1.081,2.683-1.519,4.07a53.642,53.642,0,0,0-2.1,8.52,55.009,55.009,0,0,0,0,17.73,53.785,53.785,0,0,0,2.1,8.523c.438,1.388.988,2.73,1.519,4.071.593,1.317,1.17,2.634,1.849,3.9a54.192,54.192,0,0,0,4.491,7.232,55.236,55.236,0,0,0,25.612,19.213,58.757,58.757,0,0,0,7.366,2.1,56.029,56.029,0,0,0,21.593.25,55,55,0,0,0,23.206-10.295,55.8,55.8,0,0,0,14.012-15.667,53.29,53.29,0,0,0,3.843-7.769,54.77,54.77,0,0,0,2.265-6.93,55.578,55.578,0,0,0,1.573-9.963c.1-1.15.081-2.033.117-2.625.02-.592.038-.895.038-.895s0,.3-.006.9c-.025.592.008,1.476-.085,2.628a53.974,53.974,0,0,1-3.762,16.945,53.236,53.236,0,0,1-3.83,7.8,55.9,55.9,0,0,1-14.028,15.755,55.163,55.163,0,0,1-23.294,10.375,56.23,56.23,0,0,1-21.7-.229,58.986,58.986,0,0,1-7.407-2.106,55.5,55.5,0,0,1-25.763-19.3,54.453,54.453,0,0,1-4.519-7.271c-.682-1.27-1.264-2.594-1.861-3.918-.535-1.35-1.087-2.7-1.528-4.095a54.013,54.013,0,0,1-2.11-8.573,55.267,55.267,0,0,1,0-17.831,53.837,53.837,0,0,1,2.111-8.57c.441-1.395.994-2.744,1.529-4.093.6-1.323,1.178-2.647,1.861-3.916a54.531,54.531,0,0,1,4.518-7.268,55.506,55.506,0,0,1,25.759-19.3,59.108,59.108,0,0,1,7.406-2.106,56.233,56.233,0,0,1,21.7-.229,55.174,55.174,0,0,1,23.294,10.373,55.9,55.9,0,0,1,14.03,15.754,53.307,53.307,0,0,1,3.83,7.8,53.976,53.976,0,0,1,3.763,16.947c.093,1.153.06,2.037.085,2.629C585.674,161.954,585.67,162.258,585.67,162.258Z" transform="translate(-475.053 -106.898)"/></g><g transform="translate(574.284 143.385)"><path class="ac" d="M677.225,205.665" transform="translate(-677.225 -205.665)"/></g><g transform="translate(456.143 88.557)"><g transform="translate(94.174 47.295)"><path class="c" d="M641.114,193.968a9.222,9.222,0,0,1-3.188-.149,9.254,9.254,0,0,1,3.158-.46c1.75-.1,3.178-.033,3.186.149S642.866,193.895,641.114,193.968Z" transform="translate(-637.926 -193.313)"/></g><g transform="translate(93.153 59.615)"><path class="c" d="M639.284,214.565a9.275,9.275,0,0,1-3.031-1,9.253,9.253,0,0,1,3.166.4c1.713.373,3.07.819,3.03,1S640.991,214.965,639.284,214.565Z" transform="translate(-636.252 -213.515)"/></g><g transform="translate(88.971 70.794)"><path class="c" d="M632.048,233.644a9.235,9.235,0,0,1-2.65-1.777,9.261,9.261,0,0,1,2.94,1.241c1.549.821,2.736,1.616,2.649,1.776S633.585,234.489,632.048,233.644Z" transform="translate(-629.395 -231.846)"/></g><g transform="translate(81.945 80.43)"><path class="c" d="M619.96,250.076a9.263,9.263,0,0,1-2.08-2.42,9.234,9.234,0,0,1,2.5,1.981c1.273,1.205,2.2,2.289,2.078,2.419S621.215,251.3,619.96,250.076Z" transform="translate(-617.872 -247.646)"/></g><g transform="translate(72.6 87.834)"><path class="c" d="M603.925,262.68a9.266,9.266,0,0,1-1.356-2.889,9.263,9.263,0,0,1,1.881,2.578c.9,1.5,1.512,2.795,1.356,2.888S604.806,264.2,603.925,262.68Z" transform="translate(-602.55 -259.788)"/></g><g transform="translate(61.601 92.451)"><path class="c" d="M585.085,270.506a9.241,9.241,0,0,1-.526-3.147,9.274,9.274,0,0,1,1.115,2.99c.466,1.69.7,3.1.526,3.146S585.524,272.2,585.085,270.506Z" transform="translate(-584.514 -267.358)"/></g><g transform="translate(49.489 93.947)"><path class="c" d="M564.656,272.985a9.247,9.247,0,0,1,.331-3.174,9.256,9.256,0,0,1,.279,3.179c0,1.753-.15,3.174-.332,3.173S564.628,274.738,564.656,272.985Z" transform="translate(-564.653 -269.811)"/></g><g transform="translate(36.225 92.236)"><path class="c" d="M543.544,269.973a9.209,9.209,0,0,1,1.175-2.967,9.224,9.224,0,0,1-.586,3.136c-.473,1.689-1,3.017-1.174,2.966S543.045,271.654,543.544,269.973Z" transform="translate(-542.904 -267.005)"/></g><g transform="translate(23.794 87.408)"><path class="c" d="M523.951,261.635a9.238,9.238,0,0,1,1.928-2.542,9.269,9.269,0,0,1-1.41,2.863c-.909,1.5-1.773,2.638-1.928,2.542S523.019,263.12,523.951,261.635Z" transform="translate(-522.519 -259.088)"/></g><g transform="translate(13.284 79.834)"><path class="c" d="M507.418,248.614a9.261,9.261,0,0,1,2.536-1.936,9.235,9.235,0,0,1-2.122,2.383c-1.277,1.2-2.413,2.069-2.536,1.936S506.122,249.8,507.418,248.614Z" transform="translate(-505.285 -246.669)"/></g><g transform="translate(5.461 70.075)"><path class="c" d="M495.144,231.872a9.264,9.264,0,0,1,2.963-1.184,9.262,9.262,0,0,1-2.683,1.726c-1.552.815-2.879,1.346-2.962,1.184S493.58,232.664,495.144,231.872Z" transform="translate(-492.457 -230.666)"/></g><g transform="translate(0.927 58.817)"><path class="c" d="M488.073,212.605a9.248,9.248,0,0,1,3.172-.341,9.251,9.251,0,0,1-3.05.939c-1.714.366-3.135.519-3.172.341S486.352,212.946,488.073,212.605Z" transform="translate(-485.023 -212.206)"/></g><g transform="translate(0 46.392)"><path class="c" d="M486.691,191.908a9.273,9.273,0,0,1,3.149.515,9.24,9.24,0,0,1-3.189.094c-1.75-.1-3.16-.333-3.148-.515S484.943,191.779,486.691,191.908Z" transform="translate(-483.503 -191.833)"/></g><g transform="translate(2.743 33.161)"><path class="c" d="M491.1,170.951a9.269,9.269,0,0,1,2.893,1.345,9.255,9.255,0,0,1-3.1-.77c-1.658-.571-2.953-1.173-2.893-1.345S489.45,170.355,491.1,170.951Z" transform="translate(-488.001 -170.137)"/></g><g transform="translate(8.977 21.071)"><path class="c" d="M501.006,151.9a9.241,9.241,0,0,1,2.427,2.072,9.262,9.262,0,0,1-2.777-1.573c-1.443-1-2.53-1.923-2.425-2.072S499.578,150.887,501.006,151.9Z" transform="translate(-498.224 -150.311)"/></g><g transform="translate(18.217 11.078)"><path class="c" d="M515.646,136.19a9.271,9.271,0,0,1,1.786,2.644c-.12.1-1.129-.912-2.256-2.256s-1.925-2.528-1.785-2.644S514.541,134.829,515.646,136.19Z" transform="translate(-513.375 -133.925)"/></g><g transform="translate(29.792 3.915)"><path class="c" d="M533.955,124.963a9.268,9.268,0,0,1,1.009,3.027,9.247,9.247,0,0,1-1.567-2.78c-.723-1.6-1.175-2.953-1.009-3.027S533.256,123.355,533.955,124.963Z" transform="translate(-532.354 -122.181)"/></g><g transform="translate(42.827 0.14)"><path class="c" d="M554.588,119.089a9.234,9.234,0,0,1,.156,3.187,9.257,9.257,0,0,1-.759-3.1c-.266-1.733-.335-3.16-.155-3.186S554.349,117.353,554.588,119.089Z" transform="translate(-553.729 -115.99)"/></g><g transform="translate(55.668)"><path class="c" d="M575.575,118.949a9.262,9.262,0,0,1-.7,3.114,9.258,9.258,0,0,1,.093-3.189c.2-1.741.516-3.135.7-3.113S575.806,117.212,575.575,118.949Z" transform="translate(-574.785 -115.761)"/></g><g transform="translate(67.233 3.521)"><path class="c" d="M595.289,124.582a9.271,9.271,0,0,1-1.512,2.81,9.236,9.236,0,0,1,.95-3.046c.667-1.622,1.344-2.88,1.512-2.809S595.98,122.972,595.289,124.582Z" transform="translate(-593.748 -121.534)"/></g><g transform="translate(77.501 10.45)"><path class="c" d="M612.807,135.584a9.244,9.244,0,0,1-2.209,2.3,9.264,9.264,0,0,1,1.731-2.68c1.078-1.384,2.067-2.414,2.209-2.3S613.906,134.218,612.807,135.584Z" transform="translate(-610.586 -132.896)"/></g><g transform="translate(85.772 20.254)"><path class="c" d="M626.9,151.111a9.255,9.255,0,0,1-2.744,1.629,9.249,9.249,0,0,1,2.385-2.12c1.407-1.046,2.636-1.775,2.743-1.628S628.321,150.087,626.9,151.111Z" transform="translate(-624.148 -148.972)"/></g><g transform="translate(91.434 32.225)"><path class="c" d="M636.515,170.044a9.26,9.26,0,0,1-3.081.829,9.254,9.254,0,0,1,2.867-1.4c1.637-.628,3.017-1,3.08-.829S638.161,169.441,636.515,170.044Z" transform="translate(-633.432 -168.602)"/></g><g transform="translate(94.059 45.417)"><path class="c" d="M640.929,190.956a9.263,9.263,0,0,1-3.191-.027,9.265,9.265,0,0,1,3.138-.578c1.746-.165,3.174-.153,3.19.027S642.676,190.817,640.929,190.956Z" transform="translate(-637.738 -190.234)"/></g></g><g transform="translate(442.739 78.76)"><g transform="translate(0 0)"><path class="d" d="M503.717,99.7a1,1,0,0,1-.188.088l-.561.226c-.49.207-1.234.456-2.157.866a64.027,64.027,0,0,0-7.638,3.812c-1.562.9-3.217,1.98-4.953,3.2a67.392,67.392,0,0,0-5.286,4.217,62.169,62.169,0,0,0-17.314,25.331,67.246,67.246,0,0,0-2.01,6.458c-.5,2.058-.908,3.993-1.179,5.775a64.13,64.13,0,0,0-.778,8.5c-.047,1.008-.009,1.792-.023,2.324,0,.252-.005.452-.007.6a.992.992,0,0,1-.013.207.981.981,0,0,1-.019-.206c-.006-.153-.014-.352-.024-.6-.007-.532-.065-1.317-.037-2.327a59.692,59.692,0,0,1,.679-8.532c.258-1.791.652-3.735,1.146-5.805a66.3,66.3,0,0,1,1.991-6.495,61.706,61.706,0,0,1,17.395-25.449,66.419,66.419,0,0,1,5.328-4.213c1.749-1.212,3.418-2.284,4.992-3.175a59.743,59.743,0,0,1,7.7-3.732c.932-.393,1.684-.624,2.182-.811l.572-.2A1.058,1.058,0,0,1,503.717,99.7Z" transform="translate(-461.523 -99.696)"/></g></g><g transform="translate(490.305 75.172)"><g transform="translate(0)"><path class="d" d="M552.5,93.84a12.779,12.779,0,0,1-1.9.251c-1.178.124-2.8.3-4.594.532s-3.408.478-4.579.657a12.849,12.849,0,0,1-1.905.243,10.417,10.417,0,0,1,1.866-.464c1.163-.237,2.78-.518,4.578-.751s3.432-.374,4.617-.441A10.466,10.466,0,0,1,552.5,93.84Z" transform="translate(-539.519 -93.812)"/></g></g><g class="ad" transform="translate(462.238 114.24)"><path d="M493.5,215.343s28.62,45.166,73.019,22.032c46.341-24.146,20.741-79.5,20.741-79.5s21.807,44.114-23.37,72.876c-11.252,7.163-23.5,7.169-32.846,6.234C507.159,234.591,493.5,215.343,493.5,215.343Z" transform="translate(-493.496 -157.874)"/></g><g transform="translate(505.489 109.16)"><path class="i" d="M580.7,149.544a188.78,188.78,0,0,1-.735,24.277,30.2,30.2,0,0,1-1.737,8.585,11.378,11.378,0,0,1-5.755,6.348c-2.7,1.146-6.17.671-8.057-1.572Z" transform="translate(-564.418 -149.544)"/></g><g transform="translate(500.328 100.355)"><g transform="translate(4.851)"><path class="ae" d="M563.909,168.907l20.071-33.8-12.115,38.157-6.188,1.853Z" transform="translate(-563.909 -135.106)"/><g class="af" transform="translate(5.186)"><path d="M587.3,135.106l-14.885,34.536,2.771,3.622Z" transform="translate(-572.413 -135.106)"/></g></g><g transform="translate(0 33.42)"><g transform="translate(0.159 0.13)"><circle class="ab" cx="6.46" cy="6.46" r="6.46"/></g><path class="c" d="M569.034,196.5a13.845,13.845,0,0,0-.262-1.562,6.436,6.436,0,0,0-2.358-3.483,6.326,6.326,0,0,0-5.991-.884,6.334,6.334,0,0,0-2.926,2.2,6.281,6.281,0,0,0,0,7.452,6.335,6.335,0,0,0,2.927,2.2,6.327,6.327,0,0,0,5.992-.884,6.439,6.439,0,0,0,2.357-3.483,13.826,13.826,0,0,0,.262-1.562,5,5,0,0,1-.142,1.592,6.515,6.515,0,0,1-5.1,4.882,6.588,6.588,0,0,1-3.467-.27,6.594,6.594,0,0,1-3.078-2.295,6.568,6.568,0,0,1,0-7.82,6.592,6.592,0,0,1,3.077-2.294,6.586,6.586,0,0,1,3.466-.27,6.515,6.515,0,0,1,5.1,4.882A5,5,0,0,1,569.034,196.5Z" transform="translate(-555.955 -189.907)"/><g transform="translate(0.953 0.925)"><circle class="e" cx="4.808" cy="4.808" r="4.808" transform="translate(0 9.425) rotate(-78.574)"/></g></g></g></g></g></svg>