<svg xmlns="http://www.w3.org/2000/svg" width="574.276" height="330.729" viewBox="0 0 574.276 330.729"><defs><style>.a{fill:#f0f5f6;}.b{fill:#219991;}.c{fill:#16746e;}.d{fill:#d97441;}.e{fill:#00a5d1;}.f,.g{fill:#1177a3;}.f{opacity:0.69;}.h{fill:#f2f2f2;}.i,.k{fill:#25b2d8;}.j{fill:#707070;}.k{opacity:0.45;}.l{fill:#f99746;}.m{fill:#afcdfb;}.n{fill:#fff;}.o{fill:#c65447;}.p{fill:#ffb27d;}.q{fill:#231e21;}.r{fill:#164e66;}.s{fill:#022c3e;}.t{fill:#04415b;}.u{fill:#484848;}.v{fill:#ed985f;}.w{fill:#2c3a64;}.x,.y,.z{fill:#91d1e2;}.y{opacity:0.5;}.z{opacity:0.25;}</style></defs><g transform="translate(-188.785 -317.005)"><g transform="translate(177.395 317.005)"><path class="a" d="M263.072,626.111s-68.592-73.646-11.6-153.378C302.039,401.99,361,406.826,404.25,435.534c18.423,12.227,71.538,1.507,116.746-70.477,61.651-98.167,275.357-38.629,236.391,112.4-18.856,73.089,57.387,75.746,18.538,148.806Z" transform="translate(-217.445 -317.005)"/><path class="b" d="M805.7,920.19s-33.933-48.3-47.194-42.04S805.7,920.19,805.7,920.19Z" transform="translate(-628.348 -753.458)"/><path class="b" d="M915.112,888.53s-5.183-36.318-13.354-34.893S915.112,888.53,915.112,888.53Z" transform="translate(-739.919 -734.778)"/><g transform="translate(88.155 248.75)"><path class="b" d="M633.857,1458.57s3.262-16.16-9.405-18.191c0,0-8.591-.3-13.65,2.94,0,0,14.366,8.294,12.658,10.871s-15.342-10.4-15.342-10.4-15.4,6.745-18.838,11.63c0,0,18.2,3.243,15.909,5.321s-21.385-.417-21.385-.417-12.3,9.911-6.945,17.8,11.475,7.833,13.411,6.463,11.413-12.7,12.618-11.158-2.965,11.105-7.9,14.2c0,0,15.492,5.216,20.159-1.394s2.508-11.751,5.466-15.784,6.351-5.922,5.745-3.156-6.789,8.58-6.816,13.866-.551,9.134,5.487,4.46,14.057-15.484,11.442-21.27Z" transform="translate(-575.507 -1440.372)"/><g transform="translate(8.158 17.162)"><path class="b" d="M612.348,1534.964s36.136-22.056,50.192-16.05a30.6,30.6,0,0,0,13.12,6.212l2.182,1.875s-10.169-3.172-12.687-2.3C665.155,1524.7,661.426,1509.614,612.348,1534.964Z" transform="translate(-612.348 -1517.877)"/><path class="b" d="M889.236,1550.57s11.2,1.434,17.6,11.6l-1.367.932s-8.583-9.416-15.525-11.1S889.236,1550.57,889.236,1550.57Z" transform="translate(-825.924 -1543.321)"/></g></g><g transform="translate(61.317 151.844)"><path class="b" d="M550.555,1070.69S576.8,1056,564.55,1036.054c0,0-9.8-12.245-20.292-15.394,0,0,5.6,29.739,0,30.438s-3.849-33.587-3.849-33.587-27.639-13.295-38.485-12.245c0,0,17.144,29.039,11.546,28.339s-24.84-30.088-24.84-30.088-28.339-5.248-32.887,11.545,2.8,25.19,7,26.24,31.138.7,30.438,4.2-18.893,9.1-29.039,5.948c0,0,11.2,27.639,25.89,26.24s19.243-10.5,28.339-11.2,15.744,1.749,11.2,4.2-19.942.8-27.289,7.049-13.295,10.095.35,12.893,38.135,1.05,43.033-9.446Z" transform="translate(-454.307 -1002.74)"/><g transform="translate(14.38 17.57)"><path class="c" d="M519.247,1082.086s73.472,23.791,81.869,50.381c0,0-.35,11.9,7,25.54v5.248s-7.7-17.843-11.9-20.292C596.218,1142.963,612.661,1119.872,519.247,1082.086Z" transform="translate(-519.247 -1082.086)"/><path class="c" d="M908.227,1413.464s11.33,17.206,4.871,38.15l-2.915-.783s2.83-23.069-3.1-34.671S908.227,1413.464,908.227,1413.464Z" transform="translate(-819.361 -1337.543)"/></g></g><path class="d" d="M870.931,754.4l-39.26,202.969a6.691,6.691,0,0,0,6.569,7.961h20.706Z" transform="translate(-686.697 -657.545)"/><g transform="translate(433.503 110.492)"><path class="d" d="M2149.079,860.455s-17.66-11.265-8.349-24.644c0,0,7.3-8.124,14.725-9.894,0,0-5.08,20.456-1.215,21.166s4.017-23.2,4.017-23.2,19.75-8.141,27.25-6.978c0,0-13.08,19.508-9.16,19.245s18.474-19.931,18.474-19.931,19.915-2.518,22.407,9.341-2.952,17.4-5.913,17.967-21.68-.756-21.333,1.7,12.774,7.08,19.956,5.3c0,0-8.889,18.773-19.051,17.213s-12.962-8.067-19.259-8.917-11.018.588-7.952,2.473,13.835,1.354,18.695,5.991,8.841,7.55-.758,8.952-26.561-.792-29.547-8.286Z" transform="translate(-2137.376 -815.993)"/><g transform="translate(0 12.697)"><path class="d" d="M2225.475,873.334s-52.039,13.611-58.94,31.765a38.875,38.875,0,0,1-5.885,17.481l-.209,3.649s6.064-12.1,9.082-13.636C2169.523,912.593,2159.01,895.88,2225.475,873.334Z" transform="translate(-2154.833 -873.334)"/><path class="d" d="M2140.931,1088.207s-8.566,11.512-4.911,26.334l2.059-.428s-1.047-16.154,3.539-23.986S2140.931,1088.207,2140.931,1088.207Z" transform="translate(-2135.113 -1038.962)"/></g></g><g transform="translate(375.275 25.036)"><path class="d" d="M1894.536,511.088s-27.133-5.958-21.652-26.868c0,0,5.378-13.45,13.813-19.046,0,0,3.021,27.788,8.157,26.907s-5.6-30.722-5.6-30.722,20.87-19.159,30.739-21.137c0,0-7.373,30.264-2.612,28.145s13.9-33.254,13.9-33.254,23.645-12.233,32.166,1.393,4.276,23.018.846,25.071-27.338,8.962-25.782,11.867,19.138,2.979,27.263-2.524c0,0-2.491,27.433-15.855,30.133s-19.822-4.122-28.051-2.3-13.448,5.765-8.772,6.711,17.844-4.634,26.012-1.082,14.457,5.361,3.146,11.491-33.429,11.147-40.572,3.181Z" transform="translate(-1872.153 -430.068)"/><g transform="translate(21.752 14.548)"><path class="d" d="M2032.107,495.766s-58.573,40.718-58.87,66.473c0,0,3.5,10.422.659,24.452l1.406,4.639s2.023-17.835,5.078-21.125C1980.38,570.2,1959.656,554.2,2032.107,495.766Z" transform="translate(-1972.606 -495.766)"/><path class="d" d="M1971.677,893.077s-5.406,18.246,5.917,35.03l2.367-1.473s-8.683-19.634-6.552-31.479S1971.677,893.077,1971.677,893.077Z" transform="translate(-1970.387 -802.152)"/></g></g><path class="e" d="M919.708,748.158,893.686,947.441a11.039,11.039,0,0,0,10.946,12.468h38.175L921.283,747.438Z" transform="translate(-735.002 -652.126)"/><path class="f" d="M970.5,750.689,958.85,948.7A12.976,12.976,0,0,0,971.8,962.44h56.934Z" transform="translate(-785.792 -654.657)"/><path class="g" d="M1009.564,757.988l5.664,196.4a12.976,12.976,0,0,0,12.954,13.738h56.934Z" transform="translate(-825.294 -660.34)"/><path class="h" d="M1290.226,959.391H1065.737a11.607,11.607,0,0,1-11.417-9.519l-34.159-186.8a13.81,13.81,0,0,1,13.585-16.295h221.845a11.607,11.607,0,0,1,11.418,9.519l34.634,189.4A11.606,11.606,0,0,1,1290.226,959.391Z" transform="translate(-833.366 -651.608)"/><path class="i" d="M1016.41,787.328h248.235l-6.365-35.27a6.427,6.427,0,0,0-6.325-5.285H1011.511a2.1,2.1,0,0,0-2.07,2.483Z" transform="translate(-825.171 -651.608)"/><g transform="translate(186.28 84.551)"><path class="j" d="M1029.406,698.842a10.772,10.772,0,0,0-10.763,10.76h2.068a8.7,8.7,0,1,1,11.539,8.217,8.6,8.6,0,0,1-2.348.465v2.068a10.632,10.632,0,0,0,2.75-.488,10.761,10.761,0,0,0-3.245-21.022Z" transform="translate(-1018.643 -698.842)"/><path class="j" d="M1065.892,782.776a2.391,2.391,0,0,1-.083.622,2.339,2.339,0,1,1,.083-.622Z" transform="translate(-1051.801 -762.375)"/><g transform="translate(38.586)"><path class="j" d="M1203.661,698.842A10.772,10.772,0,0,0,1192.9,709.6h2.065a8.7,8.7,0,0,1,17.392,0,8.613,8.613,0,0,1-.448,2.753,8.727,8.727,0,0,1-5.4,5.464,8.612,8.612,0,0,1-2.35.465v2.068a10.632,10.632,0,0,0,2.75-.488,10.761,10.761,0,0,0-3.243-21.022Z" transform="translate(-1192.899 -698.842)"/><path class="j" d="M1240.137,782.776a2.391,2.391,0,0,1-.083.622,2.345,2.345,0,1,1,.083-.622Z" transform="translate(-1226.048 -762.375)"/></g><g transform="translate(77.172)"><path class="j" d="M1377.918,698.842a10.772,10.772,0,0,0-10.763,10.76h2.065a8.7,8.7,0,1,1,11.541,8.217,8.614,8.614,0,0,1-2.351.465v2.068a10.651,10.651,0,0,0,2.75-.488,10.761,10.761,0,0,0-3.243-21.022Z" transform="translate(-1367.155 -698.842)"/><path class="j" d="M1414.393,782.776a2.391,2.391,0,0,1-.083.622,2.347,2.347,0,1,1,.083-.622Z" transform="translate(-1400.304 -762.375)"/></g><g transform="translate(115.758)"><path class="j" d="M1552.171,698.842a10.77,10.77,0,0,0-10.76,10.76h2.065a8.7,8.7,0,1,1,11.539,8.217,8.6,8.6,0,0,1-2.348.465v2.068a10.648,10.648,0,0,0,2.75-.488,10.761,10.761,0,0,0-3.245-21.022Z" transform="translate(-1541.411 -698.842)"/><path class="j" d="M1588.649,782.776a2.406,2.406,0,0,1-.083.622,2.339,2.339,0,1,1,.083-.622Z" transform="translate(-1574.56 -762.375)"/></g><g transform="translate(154.342)"><path class="j" d="M1726.419,698.842a10.772,10.772,0,0,0-10.762,10.76h2.065a8.7,8.7,0,1,1,11.538,8.217,8.578,8.578,0,0,1-2.348.465v2.068a10.627,10.627,0,0,0,2.75-.488,10.761,10.761,0,0,0-3.243-21.022Z" transform="translate(-1715.656 -698.842)"/><path class="j" d="M1762.893,782.776a2.386,2.386,0,0,1-.083.622,2.337,2.337,0,1,1,.083-.622Z" transform="translate(-1748.804 -762.375)"/></g><g transform="translate(192.928)"><path class="j" d="M1900.674,698.842a10.772,10.772,0,0,0-10.762,10.76h2.065a8.7,8.7,0,1,1,11.538,8.217,8.575,8.575,0,0,1-2.348.465v2.068a10.632,10.632,0,0,0,2.75-.488,10.761,10.761,0,0,0-3.243-21.022Z" transform="translate(-1889.912 -698.842)"/><path class="j" d="M1937.15,782.776a2.406,2.406,0,0,1-.083.622,2.34,2.34,0,1,1,.083-.622Z" transform="translate(-1923.061 -762.375)"/></g><g transform="translate(231.514)"><path class="j" d="M2074.928,698.842a10.77,10.77,0,0,0-10.76,10.76h2.065a8.7,8.7,0,0,1,17.392,0,8.61,8.61,0,0,1-.448,2.753,8.726,8.726,0,0,1-5.406,5.464,8.6,8.6,0,0,1-2.348.465v2.068a10.628,10.628,0,0,0,2.75-.488,10.761,10.761,0,0,0-3.245-21.022Z" transform="translate(-2064.168 -698.842)"/><path class="j" d="M2111.406,782.776a2.412,2.412,0,0,1-.083.622,2.339,2.339,0,1,1,.083-.622Z" transform="translate(-2097.317 -762.375)"/></g></g><g transform="translate(218.236 156.644)"><path class="k" d="M1625.456,1166.476h-12.549a3.364,3.364,0,0,1-3.146-2.638l-2.421-12.548a2.119,2.119,0,0,1,2.129-2.638h12.549a3.364,3.364,0,0,1,3.146,2.638l2.421,12.548A2.12,2.12,0,0,1,1625.456,1166.476Z" transform="translate(-1508.902 -1121.142)"/><path class="k" d="M1768.459,1166.476H1755.91a3.365,3.365,0,0,1-3.146-2.638l-2.42-12.548a2.119,2.119,0,0,1,2.129-2.638h12.549a3.364,3.364,0,0,1,3.146,2.638l2.42,12.548A2.119,2.119,0,0,1,1768.459,1166.476Z" transform="translate(-1620.239 -1121.142)"/><path class="i" d="M1911.46,1166.476h-12.549a3.363,3.363,0,0,1-3.146-2.638l-2.421-12.548a2.119,2.119,0,0,1,2.129-2.638h12.549a3.364,3.364,0,0,1,3.146,2.638l2.421,12.548A2.12,2.12,0,0,1,1911.46,1166.476Z" transform="translate(-1731.575 -1121.142)"/><path class="k" d="M1196.452,1166.476H1183.9a3.363,3.363,0,0,1-3.146-2.638l-2.421-12.548a2.119,2.119,0,0,1,2.129-2.638h12.549a3.364,3.364,0,0,1,3.146,2.638l2.42,12.548A2.119,2.119,0,0,1,1196.452,1166.476Z" transform="translate(-1174.893 -1121.142)"/><path class="l" d="M1170.762,1032.076h-5.393a1.445,1.445,0,0,1-1.352-1.133l-1.04-5.393a.911.911,0,0,1,.915-1.134h5.393a1.446,1.446,0,0,1,1.352,1.134l1.04,5.393A.91.91,0,0,1,1170.762,1032.076Z" transform="translate(-1162.956 -1024.417)"/><path class="k" d="M1339.453,1166.476H1326.9a3.364,3.364,0,0,1-3.146-2.638l-2.421-12.548a2.119,2.119,0,0,1,2.129-2.638h12.549a3.364,3.364,0,0,1,3.147,2.638l2.42,12.548A2.119,2.119,0,0,1,1339.453,1166.476Z" transform="translate(-1286.229 -1121.142)"/><path class="k" d="M1482.455,1166.476h-12.549a3.364,3.364,0,0,1-3.146-2.638l-2.421-12.548a2.119,2.119,0,0,1,2.129-2.638h12.549a3.364,3.364,0,0,1,3.146,2.638l2.421,12.548A2.12,2.12,0,0,1,1482.455,1166.476Z" transform="translate(-1397.565 -1121.142)"/><path class="i" d="M2054.462,1166.476h-12.549a3.364,3.364,0,0,1-3.146-2.638l-2.421-12.548a2.12,2.12,0,0,1,2.129-2.638h12.549a3.364,3.364,0,0,1,3.146,2.638l2.42,12.548A2.119,2.119,0,0,1,2054.462,1166.476Z" transform="translate(-1842.912 -1121.142)"/><path class="k" d="M1601.714,1043.392h-12.549a3.364,3.364,0,0,1-3.146-2.637l-2.421-12.549a2.119,2.119,0,0,1,2.129-2.638h12.549a3.365,3.365,0,0,1,3.146,2.638l2.42,12.549A2.119,2.119,0,0,1,1601.714,1043.392Z" transform="translate(-1490.417 -1025.313)"/><path class="k" d="M1744.716,1043.392h-12.549a3.364,3.364,0,0,1-3.146-2.637l-2.421-12.549a2.12,2.12,0,0,1,2.129-2.638h12.549a3.364,3.364,0,0,1,3.146,2.638l2.42,12.549A2.119,2.119,0,0,1,1744.716,1043.392Z" transform="translate(-1601.754 -1025.313)"/><path class="i" d="M1887.718,1043.392h-12.549a3.364,3.364,0,0,1-3.146-2.637l-2.421-12.549a2.12,2.12,0,0,1,2.129-2.638h12.549a3.364,3.364,0,0,1,3.146,2.638l2.421,12.549A2.119,2.119,0,0,1,1887.718,1043.392Z" transform="translate(-1713.09 -1025.313)"/><path class="i" d="M2030.719,1043.392H2018.17a3.364,3.364,0,0,1-3.146-2.637l-2.421-12.549a2.12,2.12,0,0,1,2.129-2.638h12.549a3.365,3.365,0,0,1,3.146,2.638l2.42,12.549A2.119,2.119,0,0,1,2030.719,1043.392Z" transform="translate(-1824.426 -1025.313)"/><path class="k" d="M1650.621,1296.93h-12.549a3.364,3.364,0,0,1-3.146-2.638l-2.421-12.549a2.119,2.119,0,0,1,2.129-2.638h12.549a3.364,3.364,0,0,1,3.146,2.638l2.421,12.549A2.12,2.12,0,0,1,1650.621,1296.93Z" transform="translate(-1528.494 -1222.709)"/><path class="k" d="M1793.622,1296.93h-12.549a3.364,3.364,0,0,1-3.146-2.638l-2.421-12.549a2.119,2.119,0,0,1,2.129-2.638h12.549a3.364,3.364,0,0,1,3.146,2.638l2.421,12.549A2.12,2.12,0,0,1,1793.622,1296.93Z" transform="translate(-1639.83 -1222.709)"/><path class="i" d="M1936.625,1296.93h-12.549a3.365,3.365,0,0,1-3.146-2.638l-2.42-12.549a2.119,2.119,0,0,1,2.129-2.638h12.549a3.364,3.364,0,0,1,3.146,2.638l2.421,12.549A2.12,2.12,0,0,1,1936.625,1296.93Z" transform="translate(-1751.167 -1222.709)"/><path class="k" d="M1221.616,1296.93h-12.549a3.364,3.364,0,0,1-3.146-2.638l-2.421-12.549a2.119,2.119,0,0,1,2.129-2.638h12.549a3.364,3.364,0,0,1,3.146,2.638l2.421,12.549A2.12,2.12,0,0,1,1221.616,1296.93Z" transform="translate(-1194.484 -1222.709)"/><path class="k" d="M1364.617,1296.93h-12.548a3.364,3.364,0,0,1-3.146-2.638l-2.421-12.549a2.119,2.119,0,0,1,2.129-2.638h12.549a3.364,3.364,0,0,1,3.146,2.638l2.421,12.549A2.119,2.119,0,0,1,1364.617,1296.93Z" transform="translate(-1305.821 -1222.709)"/><path class="k" d="M1507.619,1296.93h-12.549a3.364,3.364,0,0,1-3.146-2.638l-2.421-12.549a2.12,2.12,0,0,1,2.129-2.638h12.549a3.364,3.364,0,0,1,3.146,2.638l2.421,12.549A2.12,2.12,0,0,1,1507.619,1296.93Z" transform="translate(-1417.158 -1222.709)"/><path class="i" d="M2079.626,1296.93h-12.548a3.364,3.364,0,0,1-3.146-2.638l-2.42-12.549a2.119,2.119,0,0,1,2.129-2.638h12.549a3.364,3.364,0,0,1,3.146,2.638l2.42,12.549A2.119,2.119,0,0,1,2079.626,1296.93Z" transform="translate(-1862.504 -1222.709)"/><path class="k" d="M1675.786,1427.385h-12.549a3.364,3.364,0,0,1-3.146-2.637l-2.421-12.549a2.119,2.119,0,0,1,2.129-2.638h12.549a3.364,3.364,0,0,1,3.146,2.638l2.421,12.549A2.119,2.119,0,0,1,1675.786,1427.385Z" transform="translate(-1548.086 -1324.278)"/><path class="k" d="M1818.787,1427.385h-12.549a3.364,3.364,0,0,1-3.146-2.637l-2.421-12.549a2.119,2.119,0,0,1,2.129-2.638h12.549a3.364,3.364,0,0,1,3.146,2.638l2.421,12.549A2.119,2.119,0,0,1,1818.787,1427.385Z" transform="translate(-1659.423 -1324.278)"/><path class="i" d="M1961.788,1427.385H1949.24a3.364,3.364,0,0,1-3.146-2.637l-2.421-12.549a2.119,2.119,0,0,1,2.129-2.638h12.549a3.364,3.364,0,0,1,3.146,2.638l2.421,12.549A2.12,2.12,0,0,1,1961.788,1427.385Z" transform="translate(-1770.759 -1324.278)"/><path class="k" d="M1246.78,1427.385h-12.549a3.364,3.364,0,0,1-3.146-2.637l-2.421-12.549a2.12,2.12,0,0,1,2.129-2.638h12.549a3.364,3.364,0,0,1,3.146,2.638l2.421,12.549A2.119,2.119,0,0,1,1246.78,1427.385Z" transform="translate(-1214.077 -1324.278)"/><path class="l" d="M1389.782,1427.385h-12.549a3.364,3.364,0,0,1-3.146-2.637l-2.421-12.549a2.12,2.12,0,0,1,2.129-2.638h12.548a3.364,3.364,0,0,1,3.146,2.638l2.421,12.549A2.12,2.12,0,0,1,1389.782,1427.385Z" transform="translate(-1325.413 -1324.278)"/><path class="k" d="M1532.783,1427.385h-12.549a3.364,3.364,0,0,1-3.146-2.637l-2.421-12.549a2.119,2.119,0,0,1,2.129-2.638h12.549a3.364,3.364,0,0,1,3.146,2.638l2.42,12.549A2.119,2.119,0,0,1,1532.783,1427.385Z" transform="translate(-1436.75 -1324.278)"/><path class="i" d="M2104.791,1427.385h-12.549a3.364,3.364,0,0,1-3.146-2.637l-2.421-12.549a2.119,2.119,0,0,1,2.129-2.638h12.549a3.364,3.364,0,0,1,3.146,2.638l2.421,12.549A2.12,2.12,0,0,1,2104.791,1427.385Z" transform="translate(-1882.095 -1324.278)"/><path class="k" d="M1699.528,1550.469h-12.549a3.364,3.364,0,0,1-3.146-2.637l-2.421-12.549a2.119,2.119,0,0,1,2.129-2.637h12.548a3.364,3.364,0,0,1,3.146,2.637l2.421,12.549A2.119,2.119,0,0,1,1699.528,1550.469Z" transform="translate(-1566.571 -1420.107)"/><path class="k" d="M1842.53,1550.469h-12.549a3.364,3.364,0,0,1-3.146-2.637l-2.421-12.549a2.119,2.119,0,0,1,2.129-2.637h12.549a3.364,3.364,0,0,1,3.146,2.637l2.42,12.549A2.119,2.119,0,0,1,1842.53,1550.469Z" transform="translate(-1677.907 -1420.107)"/><path class="i" d="M1985.532,1550.469h-12.548a3.364,3.364,0,0,1-3.146-2.637l-2.421-12.549a2.119,2.119,0,0,1,2.129-2.637h12.549a3.364,3.364,0,0,1,3.147,2.637l2.42,12.549A2.119,2.119,0,0,1,1985.532,1550.469Z" transform="translate(-1789.244 -1420.107)"/><path class="k" d="M1270.523,1550.469h-12.549a3.364,3.364,0,0,1-3.146-2.637l-2.421-12.549a2.119,2.119,0,0,1,2.129-2.637h12.549a3.364,3.364,0,0,1,3.146,2.637l2.421,12.549A2.119,2.119,0,0,1,1270.523,1550.469Z" transform="translate(-1232.562 -1420.107)"/><path class="k" d="M1413.525,1550.469h-12.549a3.364,3.364,0,0,1-3.146-2.637l-2.421-12.549a2.119,2.119,0,0,1,2.129-2.637h12.549a3.363,3.363,0,0,1,3.146,2.637l2.421,12.549A2.119,2.119,0,0,1,1413.525,1550.469Z" transform="translate(-1343.899 -1420.107)"/><path class="k" d="M1556.526,1550.469h-12.549a3.364,3.364,0,0,1-3.146-2.637l-2.421-12.549a2.119,2.119,0,0,1,2.129-2.637h12.548a3.364,3.364,0,0,1,3.146,2.637l2.421,12.549A2.119,2.119,0,0,1,1556.526,1550.469Z" transform="translate(-1455.234 -1420.107)"/><path class="m" d="M1249.948,1030.381H1216.7a.893.893,0,0,1-.891-.891h0a.893.893,0,0,1,.891-.891h33.245a.893.893,0,0,1,.891.891h0A.893.893,0,0,1,1249.948,1030.381Z" transform="translate(-1204.109 -1027.673)"/><path class="m" d="M1254.513,1048.563h-33.245a.893.893,0,0,1-.891-.891h0a.894.894,0,0,1,.891-.891h33.245a.893.893,0,0,1,.891.891h0A.893.893,0,0,1,1254.513,1048.563Z" transform="translate(-1207.663 -1041.829)"/></g><g transform="translate(215.313 125.972)"><path class="n" d="M1162.864,889.3h-11.408a1.7,1.7,0,0,1-1.7-1.7h0a1.7,1.7,0,0,1,1.7-1.7h11.408a1.7,1.7,0,0,1,1.7,1.7h0A1.7,1.7,0,0,1,1162.864,889.3Z" transform="translate(-1149.757 -885.902)"/><path class="n" d="M1304.232,889.3h-11.408a1.7,1.7,0,0,1-1.7-1.7h0a1.7,1.7,0,0,1,1.7-1.7h11.408a1.7,1.7,0,0,1,1.7,1.7h0A1.7,1.7,0,0,1,1304.232,889.3Z" transform="translate(-1259.821 -885.902)"/><path class="n" d="M1445.6,889.3h-11.408a1.7,1.7,0,0,1-1.7-1.7h0a1.7,1.7,0,0,1,1.7-1.7H1445.6a1.7,1.7,0,0,1,1.7,1.7h0A1.7,1.7,0,0,1,1445.6,889.3Z" transform="translate(-1369.885 -885.902)"/><path class="n" d="M1586.966,889.3h-11.408a1.7,1.7,0,0,1-1.7-1.7h0a1.7,1.7,0,0,1,1.7-1.7h11.408a1.7,1.7,0,0,1,1.7,1.7h0A1.7,1.7,0,0,1,1586.966,889.3Z" transform="translate(-1479.949 -885.902)"/><path class="n" d="M1728.335,889.3h-11.408a1.7,1.7,0,0,1-1.7-1.7h0a1.7,1.7,0,0,1,1.7-1.7h11.408a1.7,1.7,0,0,1,1.7,1.7h0A1.7,1.7,0,0,1,1728.335,889.3Z" transform="translate(-1590.014 -885.902)"/><path class="n" d="M1869.7,889.3h-11.408a1.7,1.7,0,0,1-1.7-1.7h0a1.7,1.7,0,0,1,1.7-1.7H1869.7a1.7,1.7,0,0,1,1.7,1.7h0A1.7,1.7,0,0,1,1869.7,889.3Z" transform="translate(-1700.078 -885.902)"/><path class="n" d="M2011.07,889.3h-11.408a1.7,1.7,0,0,1-1.7-1.7h0a1.7,1.7,0,0,1,1.7-1.7h11.408a1.7,1.7,0,0,1,1.7,1.7h0A1.7,1.7,0,0,1,2011.07,889.3Z" transform="translate(-1810.143 -885.902)"/></g><g transform="translate(337.923 152.779)"><path class="o" d="M1709.634,1029.152c-2.52,0-4.354-.8-5.354-2.351-1.917-2.976-.437-7.147,4.4-12.4a61.28,61.28,0,0,1,7.7-6.9.364.364,0,1,1,.43.587c-.161.118-16.058,11.889-11.914,18.32,1.313,2.037,4.123,2.172,6.252,1.926,3.938-.456,9.074-2.577,13.737-5.674,4.827-3.206,8.227-6.819,9.329-9.913.722-2.03.5-3.467-.665-4.273-1.5-1.041-4.646-1.042-8.4,0a26.521,26.521,0,0,0-9.455,4.676.364.364,0,0,1-.471-.556,27.3,27.3,0,0,1,9.731-4.822c4.023-1.112,7.308-1.073,9.012.106,1.01.7,1.991,2.153.937,5.116-1.154,3.239-4.657,6.984-9.612,10.275-4.755,3.158-10.009,5.323-14.057,5.791A13.974,13.974,0,0,1,1709.634,1029.152Z" transform="translate(-1703.468 -1006.961)"/></g><g transform="translate(380.124 113.731)"><path class="p" d="M1995.581,979.465l-1.295-2.443s.643-4.354-4.813-7.108a2.662,2.662,0,0,0-3.119.814c-1.036,1.5,1.976,1.227,1.814,3.789a4.712,4.712,0,0,0,2.747,4.9l1.4,1.621Z" transform="translate(-1965.746 -938.912)"/><path class="q" d="M2061.917,984.417s-4.685,22.994-30.465,30.506c-8.048,2.345-26.33-24.15-26.33-24.15s.643-2.442,4.67-1.882c0,0,17.8,11.785,20.043,13.065,1.988,1.136,15.066-14.6,21.029-17.142A15.215,15.215,0,0,1,2061.917,984.417Z" transform="translate(-1980.526 -949.704)"/><g transform="translate(0 28.811)"><rect class="o" width="5.673" height="28.538" transform="translate(7.041 11.068) rotate(-100.493)"/><path class="p" d="M1894.051,989.518l7.041,1.581-1.033-5.578Z" transform="translate(-1894.051 -980.031)"/><path class="p" d="M2051.511,962.269l.327,1.764a2,2,0,0,1-1.6,2.328l-1.3.24-1.033-5.578,1.411-.262A1.882,1.882,0,0,1,2051.511,962.269Z" transform="translate(-2013.837 -960.729)"/></g><g transform="translate(54.133 86.756)"><path class="q" d="M2359.871,1635.292s3.2,2.919,2.574,4.993-3.51,3.457-3.9,5.991-1.95,3.917-3.354,3.917H2348.5s-1.034-1.783,1.463-2.321,3.438-3.516,3.281-6.281a48.774,48.774,0,0,1,.234-6.452l5.3-1.229Z" transform="translate(-2301.835 -1542.79)"/><path class="q" d="M2157.316,1665.206s.574,6.642-.83,7.334l-17.969-.037s0-2.074,2.886-2.534,7.956-2.151,8.814-5.914S2157.316,1665.206,2157.316,1665.206Z" transform="translate(-2138.517 -1565.155)"/><path class="r" d="M2154.9,1244.835s.948,11.643,2.062,25.639c1.514,19.012,3.334,42.366,3.515,46.79.311,7.682,1.561,19.971,1.561,19.971s2.963,2.919,8.893,1.689a198.35,198.35,0,0,0,6.793-36.1c.023-.3.047-.61.07-.917,1.4-18.895,3.587-58.682,3.587-58.682Z" transform="translate(-2151.274 -1238.614)"/><path class="s" d="M2154.9,1244.835s.948,11.643,2.062,25.639l20.762,32.347c.023-.3.047-.61.07-.917,1.4-18.895,3.587-58.682,3.587-58.682Z" transform="translate(-2151.274 -1238.614)"/><path class="t" d="M2174.449,1230.014s17.083,42.168,28.315,61.985,14.743,25.347,14.743,25.347,6.436-2.535,7.021-4.263c0,0-4.3-38.257-11.818-47.583-4.25-5.27-9.244-21.084-9.477-26.614s-1.521-16.476-1.521-16.476Z" transform="translate(-2166.493 -1222.41)"/></g><path class="p" d="M2211.883,914.036s-11.559,5.577-18.222,3.508a15.716,15.716,0,0,1,4.51-3.609c-.23-1.337-.41-2.5-.512-3.482a32.109,32.109,0,0,1-.282-3.558l4.46-3.508,4.229-3.356C2205.732,909.468,2211.883,914.036,2211.883,914.036Z" transform="translate(-2127.317 -884.66)"/><path class="u" d="M2150.794,1018.627a1.042,1.042,0,0,0,.694.276c2.511-.051,9.815,1.336,15.99.706a47.238,47.238,0,0,0,14.788-4.187c.667-.3,2.181-1.111,2.153-1.817-.027-.808-.1-1.943-.2-3.409-.207-2.883-.5-6.977-.592-11.83-.069-3.6-.03-7.614.232-11.866.015-.285.03-.574.042-.862.074-1.559.111-3.13.111-4.664a80.961,80.961,0,0,0-1.049-13.879c-1.258-7.319-3.616-13.047-7.1-15.6-.463-.354-3.334,1.033-6,2.322a11.084,11.084,0,0,1-7.175.859l-2.307,2.018a22.782,22.782,0,0,0-7.229,11.356c-1.126,4.493-1.793,12.617-2.153,21.047-.177,3.835-.306,7.67-.357,11.329v.126c-.027.378-.027.76-.027,1.138C2150.488,1011.055,2150.614,1018.5,2150.794,1018.627Z" transform="translate(-2093.763 -924.688)"/><path class="v" d="M2219.208,915.44s-2.922,5.325-8.483,6.813a32.137,32.137,0,0,1-.282-3.558l4.459-3.508Z" transform="translate(-2140.383 -896.461)"/><path class="p" d="M2193.7,867.177s11.026,1.8,12.062-4.975,3.155-11.111-3.841-12.55-8.762.945-9.667,3.125S2190.855,866.534,2193.7,867.177Z" transform="translate(-2125.67 -845.097)"/><path class="w" d="M2197.236,834.362c.1-.115.331-.207.845-.235a2.086,2.086,0,0,0-.96-.27,2.584,2.584,0,0,0-1.717-2.287,1.541,1.541,0,0,1,.747,1.112c-1.424-1.463-4.476-2.527-12.927-1.86-11.137.879-7.467,8.01-6.025,8.86s5.071-1.48,7.757-1.267,3.2,4.1,4.109,4.628.553-.409,1.786-.967,1.35,1.486.994,2.814,1.338,3.081,1.338,3.081l1.712-1.844c1.712-1.844,3.325-9.653,2.547-11.318Z" transform="translate(-2113.14 -830.618)"/><path class="p" d="M2010.866,986.547s.38-1.5-.66-2.172-2-2.506-2.434-2.258c-.907.514.5,2.112.24,4.106C2007.922,986.922,2009.547,988.751,2010.866,986.547Z" transform="translate(-1982.349 -948.553)"/><path class="q" d="M2276.122,1083.613c-.069-3.6-.03-7.614.232-11.866.015-.285.03-.574.042-.862-1.048-5.193-2.634-9.8-4.968-9.95C2271.428,1060.935,2264.476,1071.861,2276.122,1083.613Z" transform="translate(-2186.261 -1009.935)"/><path class="p" d="M2316.442,1244.378s-.58,5.634-1.215,6.7-3.343,4.471-4.5,5.139.7-4.487.469-5.49-.949,1.831-1.458,1.9-.378-2.484-.4-3.412,2.473-3.22,3.351-5.2S2316.442,1244.378,2316.442,1244.378Z" transform="translate(-2217.385 -1151.858)"/><path class="u" d="M2246.214,951.442s6.977,3.3,10.322,8.382c5.188,7.878,11.2,36.59,11.314,39.249s-4.39,21.429-4.39,21.429-4.565-.3-5.742-2.6c0,0,.912-19.286.334-20.526s-19.031-25.871-16.956-31.127S2246.214,951.442,2246.214,951.442Z" transform="translate(-2164.122 -924.688)"/><path class="o" d="M1897.658,992.732l.368,3.293-3.975-.893Z" transform="translate(-1894.051 -956.835)"/></g><path class="b" d="M2520.3,1628.5h-20.106c-1.077-.914.746-2.989,2.65-3.129a11.736,11.736,0,0,1,3.069.363c.276-3.675,1.857-20.2,7.812-19.531,6.7.743,0,7.275-1.893,11.143a91.912,91.912,0,0,0-3.556,8.91c.543.118,1.106.234,1.681.339.887-2.725,4.19-11.89,8.389-11.356,4.93.625,2.948,4.3-.546,6.482-2.564,1.6-5.712,3.884-7.208,4.985a21.327,21.327,0,0,0,3.932.315C2517.964,1626.941,2519.645,1627.955,2520.3,1628.5Z" transform="translate(-1985.597 -1320.718)"/><path class="b" d="M482.291,1633.417c-1.066-1.673-4.272-6.018-8.543-5.443-4.653.626,5.14,3.694,8.138,5.456a4.967,4.967,0,0,1-1.659-.194c-2-.714-5.437.656-6.535,1.137h19.082a3.023,3.023,0,0,0-1.364-1.745,3.412,3.412,0,0,0-1.756-.156c1.135-1.337,1.922-5.61-1.236-4.511-2.308.8-2.3,3.414-2.075,4.958-.491.077-.989.155-1.481.225-.95-4.842-4.31-19.033-11.121-19.411-6.9-.384,5.855,14.717,10.1,19.547C483.3,1633.345,482.776,1633.394,482.291,1633.417Z" transform="translate(-406.555 -1326.589)"/></g><path class="x" d="M670.594,440.665H107.618a1.849,1.849,0,0,1-2.012-1.625h0a1.85,1.85,0,0,1,2.012-1.624H670.594a1.85,1.85,0,0,1,2.012,1.624h0A1.85,1.85,0,0,1,670.594,440.665Z" transform="translate(90.455 189.302)"/><path class="y" d="M423.872,449.319H182.5a1.849,1.849,0,0,1-2.012-1.624h0a1.849,1.849,0,0,1,2.012-1.624H423.872a1.849,1.849,0,0,1,2.012,1.624h0A1.849,1.849,0,0,1,423.872,449.319Z" transform="translate(108.355 189.302)"/><path class="y" d="M546.51,449.319H385.084a1.849,1.849,0,0,1-2.012-1.624h0a1.849,1.849,0,0,1,2.012-1.624H546.51a1.849,1.849,0,0,1,2.012,1.624h0A1.849,1.849,0,0,1,546.51,449.319Z" transform="translate(156.779 189.302)"/><path class="z" d="M548.14,458.432H258.863a1.849,1.849,0,0,1-2.012-1.624h0a1.849,1.849,0,0,1,2.012-1.624H548.14a1.849,1.849,0,0,1,2.012,1.624h0A1.849,1.849,0,0,1,548.14,458.432Z" transform="translate(126.608 189.302)"/><path class="z" d="M566.551,458.432h-65.6a1.85,1.85,0,0,1-2.012-1.624h0a1.85,1.85,0,0,1,2.012-1.624h65.6a1.849,1.849,0,0,1,2.012,1.624h0A1.849,1.849,0,0,1,566.551,458.432Z" transform="translate(184.475 189.302)"/></g></svg>