<svg id="OBJECTS" xmlns="http://www.w3.org/2000/svg" viewBox="0 0 377.54 232.72"><defs><style>.cls-1{opacity:0.22;}.cls-2{fill:#a2dbf1;}.cls-3{opacity:0.3;}.cls-4{fill:#222221;}.cls-5{fill:#b3b3b3;}.cls-6{fill:#3e3e3d;}.cls-7{fill:#6f6f6f;}.cls-8{fill:#fff;}.cls-12,.cls-9{fill:none;stroke:#425973;stroke-linecap:round;stroke-linejoin:round;}.cls-9{stroke-width:3.3px;}.cls-10{fill:#dd9ab2;}.cls-11{fill:#d6819f;}.cls-12{stroke-width:2.75px;}.cls-13{fill:#e9c2d0;}.cls-14{fill:#db9022;}</style></defs><title>218339-P106FR-372</title><g class="cls-1"><path class="cls-2" d="M268.77,112.85c-39.14,12.5-163.11-49.12-153.41,35.05,1.52,12.51,9.58,30.19,2.77,41.87-4.93,8.75-14,13.88-22.71,17.28-22.81,9.28-31.3,26.69-25.53,51.53,15.46,66.95,99.58,51.07,143.75,31.22,31.41-14.77,68.45-17.31,101-4.81,25.48,10.17,41.36,31.52,71.27,25.26,26.52-5.32,30.52-30.36,22.78-53.67-4.4-14.42-7.56-20.51,1.16-34.43,7.36-13.82,20.3-24.3,21.3-40.49.21-17.54-7.85-35.22-23.44-41.86-12.77-5.44-24.34-3.24-37-6.58-28.08-7.9-46.13-51.53-81-36.52-8.68,4.1-13.57,13.54-23,16.3" transform="translate(-65.7 -78.66)"/></g><g class="cls-3"><path class="cls-2" d="M254.58,106.84c3.55,0,3.55-5.5,0-5.5s-3.55,5.5,0,5.5Z" transform="translate(-65.7 -78.66)"/><path class="cls-2" d="M91.64,191.41c7.1,0,7.1-11,0-11s-7.09,11,0,11Z" transform="translate(-65.7 -78.66)"/><path class="cls-2" d="M422.33,235.27c7.09,0,7.09-11,0-11s-7.09,11,0,11Z" transform="translate(-65.7 -78.66)"/><path class="cls-2" d="M236,104.09c7.09,0,7.09-11,0-11s-7.1,11,0,11Z" transform="translate(-65.7 -78.66)"/><path class="cls-2" d="M433.33,217.81c9.22,0,9.22-14.3,0-14.3s-9.22,14.3,0,14.3Z" transform="translate(-65.7 -78.66)"/><path class="cls-2" d="M73.08,209.56c9.22,0,9.22-14.3,0-14.3s-9.22,14.3,0,14.3Z" transform="translate(-65.7 -78.66)"/><path class="cls-2" d="M378.33,123.62c9.22,0,9.22-14.3,0-14.3s-9.22,14.3,0,14.3Z" transform="translate(-65.7 -78.66)"/><path class="cls-2" d="M251.83,95.16c10.64,0,10.64-16.5,0-16.5s-10.64,16.5,0,16.5Z" transform="translate(-65.7 -78.66)"/><path class="cls-2" d="M439.24,230.73c5.32,0,5.32-8.25,0-8.25s-5.32,8.25,0,8.25Z" transform="translate(-65.7 -78.66)"/><path class="cls-2" d="M71.16,186.59c5.32,0,5.32-8.25,0-8.25s-5.32,8.25,0,8.25Z" transform="translate(-65.7 -78.66)"/><path class="cls-2" d="M395.52,131.59c5.32,0,5.32-8.25,0-8.25s-5.32,8.25,0,8.25Z" transform="translate(-65.7 -78.66)"/><path class="cls-2" d="M394.14,116.47c3.55,0,3.55-5.5,0-5.5s-3.54,5.5,0,5.5Z" transform="translate(-65.7 -78.66)"/><path class="cls-2" d="M115.57,107c7.09,0,7.09-11,0-11s-7.1,11,0,11Z" transform="translate(-65.7 -78.66)"/><path class="cls-2" d="M428.52,296.59c7.09,0,7.09-11,0-11s-7.1,11,0,11Z" transform="translate(-65.7 -78.66)"/><path class="cls-2" d="M71,301.41c7.09,0,7.09-11,0-11s-7.1,11,0,11Z" transform="translate(-65.7 -78.66)"/><path class="cls-2" d="M132.07,98.73c3.55,0,3.55-5.5,0-5.5s-3.55,5.5,0,5.5Z" transform="translate(-65.7 -78.66)"/><path class="cls-2" d="M429.21,274.59c3.54,0,3.54-5.5,0-5.5s-3.55,5.5,0,5.5Z" transform="translate(-65.7 -78.66)"/><path class="cls-2" d="M87.52,308.28c3.54,0,3.54-5.5,0-5.5s-3.55,5.5,0,5.5Z" transform="translate(-65.7 -78.66)"/></g><path class="cls-4" d="M166,215.68c-3.7,1.31-6.15,1.56-8.05-2.19-1.46-2.88-2.43-5.86-4.27-8.56-4-5.86-7.85-6.25-14.24-5.42s-15-.79-16-8.12c-.68-5.22-.72-10-3-14.91-1.13-2.41-4.68-.31-3.56,2.08,2.54,5.42,1.43,11.33,3.28,16.85s8.16,7.41,13.43,8c4,.47,7.48-.49,11.39-.48,4.19,0,7.06,7.2,8.39,10.36,2.77,6.59,6.7,8.8,13.69,6.33,2.49-.88,1.42-4.87-1.1-4Z" transform="translate(-65.7 -78.66)"/><path class="cls-4" d="M122.44,170.91a12.34,12.34,0,0,1-4.54,3.53c-1.9,1-.23,3.81,1.66,2.85a15.77,15.77,0,0,0,5.73-4.71,1.65,1.65,0,0,0-.59-2.26,1.69,1.69,0,0,0-2.26.59Z" transform="translate(-65.7 -78.66)"/><path class="cls-4" d="M116.53,166.52c0,3.49.52,7,.55,10.45a1.65,1.65,0,0,0,3.3,0c0-3.49-.54-7-.55-10.45a1.65,1.65,0,0,0-3.3,0Z" transform="translate(-65.7 -78.66)"/><path class="cls-4" d="M111,169.89c2.21,2.76,4.45,5.51,7.49,7.4,1.81,1.13,3.46-1.72,1.66-2.85-2.77-1.73-4.8-4.37-6.81-6.89-1.33-1.66-3.65.69-2.34,2.34Z" transform="translate(-65.7 -78.66)"/><path class="cls-4" d="M108.21,174.84a10.74,10.74,0,0,0,11,2.62c2-.62,1.16-3.81-.88-3.18a7.39,7.39,0,0,1-7.74-1.78c-1.55-1.46-3.89.87-2.34,2.34Z" transform="translate(-65.7 -78.66)"/><path class="cls-4" d="M334.74,225.92c.15-5.39,1.95-7.19,7.16-7.61a98.29,98.29,0,0,0,10.15-.86c5.11-.95,5-8,7-11.62,3-5.55,11.11-5,16.34-6.6,5.76-1.8,8-6.68,8.31-12.36.16-2.66-4-2.64-4.12,0-.51,8.45-6.7,8.74-13.51,10.14-6,1.24-10.06,4.53-12.15,10.31-.65,1.81-.81,5.58-3,6.16-3.49.93-7.51.5-11.1.89-6.74.73-9.07,5.15-9.24,11.55-.08,2.66,4.05,2.65,4.12,0Z" transform="translate(-65.7 -78.66)"/><path class="cls-4" d="M374,181.81a13,13,0,0,0,7.2,7.2,1.65,1.65,0,0,0,2-1.15,1.69,1.69,0,0,0-1.15-2,9.32,9.32,0,0,1-4.9-4.9,1.69,1.69,0,0,0-2-1.15,1.65,1.65,0,0,0-1.15,2Z" transform="translate(-65.7 -78.66)"/><path class="cls-4" d="M378.88,177.52v8.25a1.65,1.65,0,0,0,3.3,0v-8.25a1.65,1.65,0,0,0-3.3,0Z" transform="translate(-65.7 -78.66)"/><path class="cls-4" d="M384.44,178.18a15.23,15.23,0,0,1-5.08,7c-1.65,1.35.7,3.67,2.34,2.34a18.4,18.4,0,0,0,5.92-8.43c.7-2-2.49-2.88-3.18-.88Z" transform="translate(-65.7 -78.66)"/><path class="cls-4" d="M388.46,181.64a12.7,12.7,0,0,1-6.17,4.74c-1.94.79-1.09,4,.88,3.18,3.29-1.35,6.21-3.2,8.14-6.26,1.13-1.8-1.72-3.46-2.85-1.66Z" transform="translate(-65.7 -78.66)"/><path class="cls-5" d="M354.41,285.68c0,2.89-21.61,3.73-23.94,3.73H168.79c-2.33,0-23.94-.84-23.94-3.73l19.72-29.55c0-2.88,1.89-5.22,4.22-5.22H330.47c2.33,0,4.22,2.34,4.22,5.22Z" transform="translate(-65.7 -78.66)"/><polygon class="cls-6" points="150.68 200.44 109.13 200.44 116.4 182.84 153.99 182.84 150.68 200.44"/><polygon class="cls-6" points="217.18 200.44 258.73 200.44 251.46 182.84 213.88 182.84 217.18 200.44"/><polygon class="cls-6" points="263.35 200.44 277.98 200.44 266.01 182.84 254.97 182.84 263.35 200.44"/><polygon class="cls-6" points="104.52 200.44 89.88 200.44 101.86 182.84 112.89 182.84 104.52 200.44"/><polygon class="cls-6" points="213.53 200.44 154.34 200.44 157.64 182.84 210.23 182.84 213.53 200.44"/><rect class="cls-5" x="93.49" y="186.06" width="180.88" height="2.69"/><rect class="cls-5" x="91.53" y="192.66" width="184.8" height="2.69"/><path class="cls-6" d="M355.51,292.53c0,2.33-.48,4.22-2.81,4.22H146.56c-2.33,0-2.81-1.89-2.81-4.22v-3.62c0-2.34.48-4.23,2.81-4.23H352.7c2.33,0,2.81,1.89,2.81,4.23Z" transform="translate(-65.7 -78.66)"/><path class="cls-7" d="M288.27,290.82a2.21,2.21,0,0,1-2.2,2.2H213.19a2.21,2.21,0,0,1-2.2-2.2h0a2.2,2.2,0,0,1,2.2-2.2h72.88a2.2,2.2,0,0,1,2.2,2.2Z" transform="translate(-65.7 -78.66)"/><rect class="cls-6" x="96.76" y="61.03" width="174.35" height="116.68" rx="4.23"/><path class="cls-8" d="M249.63,145.56a1.76,1.76,0,0,0,0-3.52,1.76,1.76,0,0,0,0,3.52Z" transform="translate(-65.7 -78.66)"/><rect class="cls-8" x="108.96" y="69.97" width="149.94" height="100.34" rx="3.63"/><line class="cls-9" x1="162.11" y1="107.7" x2="149.66" y2="120.14"/><line class="cls-9" x1="162.11" y1="120.15" x2="149.66" y2="107.7"/><line class="cls-9" x1="218.21" y1="107.7" x2="205.76" y2="120.14"/><line class="cls-9" x1="218.21" y1="120.15" x2="205.76" y2="107.7"/><path class="cls-10" d="M278.32,213.82V226.1a4.4,4.4,0,0,1-4.4,4.4h-2.38a4.4,4.4,0,0,1-4.4-4.4V213.82" transform="translate(-65.7 -78.66)"/><polygon class="cls-11" points="208.96 135.8 207.03 150.1 205.1 135.8 208.96 135.8"/><line class="cls-12" x1="146.64" y1="135.15" x2="221.23" y2="135.15"/><path class="cls-13" d="M200.13,212c7.09,0,7.09-11,0-11s-7.09,11,0,11Z" transform="translate(-65.7 -78.66)"/><path class="cls-13" d="M299.13,212c7.09,0,7.09-11,0-11s-7.09,11,0,11Z" transform="translate(-65.7 -78.66)"/><path class="cls-14" d="M308.48,125.27v36.3c0,3.55,5.5,3.55,5.5,0v-36.3c0-3.55-5.5-3.55-5.5,0Z" transform="translate(-65.7 -78.66)"/><path class="cls-14" d="M311.23,175.59c5.32,0,5.32-8.25,0-8.25s-5.32,8.25,0,8.25Z" transform="translate(-65.7 -78.66)"/></svg>