<svg id="Authentication-vector" xmlns="http://www.w3.org/2000/svg" xmlns:xlink="http://www.w3.org/1999/xlink" width="737.376" height="549.506" viewBox="0 0 737.376 549.506">
  <defs>
    <clipPath id="clip-path">
      <rect id="Rectangle_5327" data-name="Rectangle 5327" width="737.376" height="549.506" fill="none"/>
    </clipPath>
    <clipPath id="clip-path-5">
      <rect id="Rectangle_5271" data-name="Rectangle 5271" width="235.499" height="370.419" fill="none"/>
    </clipPath>
    <clipPath id="clip-path-6">
      <rect id="Rectangle_5273" data-name="Rectangle 5273" width="3.047" height="4.063" fill="none"/>
    </clipPath>
    <clipPath id="clip-path-7">
      <rect id="Rectangle_5275" data-name="Rectangle 5275" width="3.048" height="5.418" fill="none"/>
    </clipPath>
    <clipPath id="clip-path-8">
      <rect id="Rectangle_5277" data-name="Rectangle 5277" width="3.047" height="6.774" fill="none"/>
    </clipPath>
    <clipPath id="clip-path-9">
      <rect id="Rectangle_5279" data-name="Rectangle 5279" width="3.048" height="8.129" fill="none"/>
    </clipPath>
    <clipPath id="clip-path-10">
      <rect id="Rectangle_5281" data-name="Rectangle 5281" width="1.807" height="4.061" fill="none"/>
    </clipPath>
    <clipPath id="clip-path-11">
      <rect id="Rectangle_5283" data-name="Rectangle 5283" width="14.391" height="7.029" fill="none"/>
    </clipPath>
    <clipPath id="clip-path-12">
      <rect id="Rectangle_5284" data-name="Rectangle 5284" width="12.17" height="11.754" fill="none"/>
    </clipPath>
    <clipPath id="clip-path-13">
      <rect id="Rectangle_5285" data-name="Rectangle 5285" width="12.125" height="9.686" fill="none"/>
    </clipPath>
    <clipPath id="clip-path-14">
      <rect id="Rectangle_5286" data-name="Rectangle 5286" width="24.587" height="15.069" fill="none"/>
    </clipPath>
    <clipPath id="clip-path-16">
      <rect id="Rectangle_5289" data-name="Rectangle 5289" width="173.707" height="173.416" fill="none"/>
    </clipPath>
    <clipPath id="clip-path-20">
      <rect id="Rectangle_5293" data-name="Rectangle 5293" width="87.426" height="76.36" fill="none"/>
    </clipPath>
    <clipPath id="clip-path-22">
      <rect id="Rectangle_5295" data-name="Rectangle 5295" width="49.531" height="132.617" fill="none"/>
    </clipPath>
    <clipPath id="clip-path-24">
      <rect id="Rectangle_5297" data-name="Rectangle 5297" width="49.547" height="132.838" fill="none"/>
    </clipPath>
    <clipPath id="clip-path-26">
      <rect id="Rectangle_5299" data-name="Rectangle 5299" width="116.922" height="71.132" fill="none"/>
    </clipPath>
    <clipPath id="clip-path-27">
      <rect id="Rectangle_5300" data-name="Rectangle 5300" width="22.64" height="53.188" fill="none"/>
    </clipPath>
    <clipPath id="clip-path-28">
      <rect id="Rectangle_5301" data-name="Rectangle 5301" width="57.932" height="92.329" fill="none"/>
    </clipPath>
    <clipPath id="clip-path-29">
      <rect id="Rectangle_5302" data-name="Rectangle 5302" width="122.896" height="8.619" fill="none"/>
    </clipPath>
    <clipPath id="clip-path-30">
      <rect id="Rectangle_5303" data-name="Rectangle 5303" width="16.489" height="17.595" fill="none"/>
    </clipPath>
    <clipPath id="clip-path-31">
      <rect id="Rectangle_5304" data-name="Rectangle 5304" width="175.288" height="129.36" fill="none"/>
    </clipPath>
    <clipPath id="clip-path-32">
      <rect id="Rectangle_5305" data-name="Rectangle 5305" width="11.968" height="15.308" fill="none"/>
    </clipPath>
    <clipPath id="clip-path-33">
      <rect id="Rectangle_5306" data-name="Rectangle 5306" width="85.695" height="130.497" fill="none"/>
    </clipPath>
    <clipPath id="clip-path-35">
      <rect id="Rectangle_5308" data-name="Rectangle 5308" width="25.425" height="14.621" fill="none"/>
    </clipPath>
    <clipPath id="clip-path-36">
      <rect id="Rectangle_5309" data-name="Rectangle 5309" width="47.657" height="18.439" fill="none"/>
    </clipPath>
    <clipPath id="clip-path-37">
      <rect id="Rectangle_5314" data-name="Rectangle 5314" width="4.612" height="12.522" fill="none"/>
    </clipPath>
    <clipPath id="clip-path-38">
      <rect id="Rectangle_5316" data-name="Rectangle 5316" width="4.613" height="12.522" fill="none"/>
    </clipPath>
    <clipPath id="clip-path-39">
      <rect id="Rectangle_5317" data-name="Rectangle 5317" width="42.417" height="56.377" fill="none"/>
    </clipPath>
    <clipPath id="clip-path-40">
      <rect id="Rectangle_5318" data-name="Rectangle 5318" width="12.478" height="33.113" fill="none"/>
    </clipPath>
    <clipPath id="clip-path-41">
      <rect id="Rectangle_5319" data-name="Rectangle 5319" width="5.294" height="16.587" fill="none"/>
    </clipPath>
    <clipPath id="clip-path-42">
      <rect id="Rectangle_5320" data-name="Rectangle 5320" width="12.913" height="11.848" fill="none"/>
    </clipPath>
    <clipPath id="clip-path-43">
      <rect id="Rectangle_5321" data-name="Rectangle 5321" width="16.297" height="26.987" fill="none"/>
    </clipPath>
    <clipPath id="clip-path-44">
      <rect id="Rectangle_5322" data-name="Rectangle 5322" width="24.205" height="62.476" fill="none"/>
    </clipPath>
    <clipPath id="clip-path-45">
      <rect id="Rectangle_5323" data-name="Rectangle 5323" width="31.135" height="73.177" fill="none"/>
    </clipPath>
    <clipPath id="clip-path-46">
      <rect id="Rectangle_5324" data-name="Rectangle 5324" width="42.296" height="49.891" fill="none"/>
    </clipPath>
    <clipPath id="clip-path-47">
      <rect id="Rectangle_5325" data-name="Rectangle 5325" width="47.232" height="62.341" fill="none"/>
    </clipPath>
  </defs>
  <g id="Group_8601" data-name="Group 8601" clip-path="url(#clip-path)">
    <rect id="Rectangle_5245" data-name="Rectangle 5245" width="737.376" height="0.369" transform="translate(0 482.902)" fill="#ebebeb"/>
    <rect id="Rectangle_5246" data-name="Rectangle 5246" width="48.847" height="0.369" transform="translate(614.646 506.64)" fill="#ebebeb"/>
    <rect id="Rectangle_5247" data-name="Rectangle 5247" width="12.82" height="0.369" transform="translate(475.648 510.641)" fill="#ebebeb"/>
    <rect id="Rectangle_5248" data-name="Rectangle 5248" width="28.303" height="0.369" transform="translate(584.866 492.945)" fill="#ebebeb"/>
    <rect id="Rectangle_5249" data-name="Rectangle 5249" width="63.699" height="0.369" transform="translate(77.364 495.423)" fill="#ebebeb"/>
    <rect id="Rectangle_5250" data-name="Rectangle 5250" width="9.34" height="0.369" transform="translate(154.194 495.423)" fill="#ebebeb"/>
    <rect id="Rectangle_5251" data-name="Rectangle 5251" width="138.149" height="0.367" transform="translate(193.887 501.65)" fill="#ebebeb"/>
    <g id="Group_8471" data-name="Group 8471">
      <g id="Group_8470" data-name="Group 8470" clip-path="url(#clip-path)">
        <path id="Path_21493" data-name="Path 21493" d="M331.4,417.129H46.625a8.427,8.427,0,0,1-8.418-8.418V8.418A8.428,8.428,0,0,1,46.625,0H331.4a8.428,8.428,0,0,1,8.416,8.418V408.712a8.427,8.427,0,0,1-8.416,8.418M46.625.369a8.057,8.057,0,0,0-8.049,8.049V408.712a8.057,8.057,0,0,0,8.049,8.049H331.4a8.058,8.058,0,0,0,8.048-8.049V8.418A8.058,8.058,0,0,0,331.4.369Z" transform="translate(18.139 0)" fill="#ebebeb"/>
        <path id="Path_21494" data-name="Path 21494" d="M547.695,417.129H262.921a8.426,8.426,0,0,1-8.416-8.418V8.418A8.427,8.427,0,0,1,262.921,0H547.695a8.428,8.428,0,0,1,8.418,8.418V408.712a8.427,8.427,0,0,1-8.418,8.418M262.921.369a8.057,8.057,0,0,0-8.048,8.049V408.712a8.057,8.057,0,0,0,8.048,8.049H547.695a8.058,8.058,0,0,0,8.049-8.049V8.418A8.058,8.058,0,0,0,547.695.369Z" transform="translate(120.827 0)" fill="#ebebeb"/>
        <path id="Path_21495" data-name="Path 21495" d="M388.72,264.7v20.94l8.846,6.431h-41.3l13.193-4.889V266.16Z" transform="translate(169.139 125.666)" fill="#e0e0e0"/>
        <path id="Path_21496" data-name="Path 21496" d="M302.74,348.816H487.078V282.85H302.74Zm3.32-61.692H450.345v21.561H306.06Z" transform="translate(143.727 134.284)" fill="#e0e0e0"/>
        <path id="Path_21497" data-name="Path 21497" d="M302.74,348.816H454.784V282.85H302.74Zm3.32-61.692H450.345v21.561H306.06Z" transform="translate(143.727 134.284)" fill="#ebebeb"/>
        <rect id="Rectangle_5252" data-name="Rectangle 5252" width="29.738" height="21.556" transform="translate(449.785 421.411)" fill="#e0e0e0"/>
        <rect id="Rectangle_5253" data-name="Rectangle 5253" width="36.791" height="10.777" transform="translate(557.281 432.19)" fill="#e0e0e0"/>
        <rect id="Rectangle_5254" data-name="Rectangle 5254" width="27.697" height="6.402" transform="translate(526.87 436.565)" fill="#e0e0e0"/>
        <rect id="Rectangle_5255" data-name="Rectangle 5255" width="26.386" height="13.096" transform="translate(494.082 429.873)" fill="#e0e0e0"/>
        <path id="Path_21498" data-name="Path 21498" d="M391.615,303.551l.79,2.576H403l.791-2.576h13.981V332.17h-46.4V303.551Z" transform="translate(176.306 144.112)" fill="#e0e0e0"/>
        <path id="Path_21499" data-name="Path 21499" d="M352.2,303.551l.79,2.576h10.59l.79-2.576h20.251V332.17h-46.4V303.551Z" transform="translate(160.572 144.112)" fill="#e0e0e0"/>
        <path id="Path_21500" data-name="Path 21500" d="M325.335,303.551l.79,2.576h10.59l.79-2.576h13.981V332.17h-46.4V303.551Z" transform="translate(144.839 144.112)" fill="#e0e0e0"/>
        <path id="Path_21501" data-name="Path 21501" d="M322.7,301.884H459.833a5.206,5.206,0,0,0,5.206-5.206V217.935a5.206,5.206,0,0,0-5.206-5.207H322.7a5.206,5.206,0,0,0-5.206,5.207v78.743a5.206,5.206,0,0,0,5.206,5.206" transform="translate(150.729 100.993)" fill="#e0e0e0"/>
        <path id="Path_21502" data-name="Path 21502" d="M320.345,301.884H457.482a5.206,5.206,0,0,0,5.206-5.206V217.935a5.206,5.206,0,0,0-5.206-5.207H320.345a5.206,5.206,0,0,0-5.206,5.207v78.743a5.206,5.206,0,0,0,5.206,5.206" transform="translate(149.613 100.993)" fill="#e6e6e6"/>
        <rect id="Rectangle_5256" data-name="Rectangle 5256" width="138.88" height="80.486" transform="translate(469.086 318.056)" fill="#f0f0f0"/>
        <rect id="Rectangle_5257" data-name="Rectangle 5257" width="174.956" height="180.778" transform="translate(106.937 77.705)" fill="#ebebeb"/>
        <rect id="Rectangle_5258" data-name="Rectangle 5258" width="174.956" height="180.778" transform="translate(113.049 77.705)" fill="#f0f0f0"/>
        <rect id="Rectangle_5259" data-name="Rectangle 5259" width="165.907" height="172.292" transform="translate(117.461 81.989)" fill="#e0e0e0"/>
        <rect id="Rectangle_5260" data-name="Rectangle 5260" width="161.764" height="172.289" transform="translate(117.458 81.987)" fill="#f5f5f5"/>
        <rect id="Rectangle_5261" data-name="Rectangle 5261" width="3.284" height="172.292" transform="translate(196.731 81.989)" fill="#ebebeb"/>
        <path id="Path_21503" data-name="Path 21503" d="M148.407,55.594l46.107,172.289h4.426L152.831,55.594Z" transform="translate(70.457 26.394)" fill="#fff"/>
        <rect id="Rectangle_5262" data-name="Rectangle 5262" width="2.815" height="178.252" transform="translate(198.608 79.331)" fill="#f0f0f0"/>
        <path id="Path_21504" data-name="Path 21504" d="M159.754,55.594l43.625,163.047V129.021L183.737,55.594Z" transform="translate(75.844 26.394)" fill="#fff"/>
        <path id="Path_21505" data-name="Path 21505" d="M79.646,66.2V82.733l37.5,140.118h4.424Z" transform="translate(37.812 31.426)" fill="#fff"/>
        <path id="Path_21506" data-name="Path 21506" d="M79.646,88.839v89.622l9,33.639h23.982Z" transform="translate(37.812 42.177)" fill="#fff"/>
        <rect id="Rectangle_5263" data-name="Rectangle 5263" width="105.929" height="128.895" transform="translate(483.305 88.004)" fill="#e6e6e6"/>
        <path id="Path_21507" data-name="Path 21507" d="M401.033,146.239l-55.667-54.71,60.226-9.938Z" transform="translate(163.963 38.735)" fill="#e0e0e0"/>
        <path id="Path_21508" data-name="Path 21508" d="M347.165,130.138l-2.756-41.955,41.911,10.3,3.044,32.1Z" transform="translate(163.509 41.865)" fill="#f0f0f0"/>
        <path id="Path_21509" data-name="Path 21509" d="M405.823,82.049a16.921,16.921,0,1,0-16.92,16.92,16.92,16.92,0,0,0,16.92-16.92" transform="translate(176.6 30.92)" fill="#fafafa"/>
        <path id="Path_21510" data-name="Path 21510" d="M355.272,129.418a8.206,8.206,0,1,0-8.206,8.206,8.205,8.205,0,0,0,8.206-8.206" transform="translate(160.875 57.546)" fill="#e0e0e0"/>
        <path id="Path_21511" data-name="Path 21511" d="M345.746,146.48l23.7-14.422-19.919-16.411Z" transform="translate(164.144 54.904)" fill="#f5f5f5"/>
        <rect id="Rectangle_5264" data-name="Rectangle 5264" width="4.657" height="102.924" transform="translate(537.878 104.399)" fill="#e0e0e0"/>
        <rect id="Rectangle_5265" data-name="Rectangle 5265" width="6.026" height="98.37" transform="translate(493.25 104.401)" fill="#ebebeb"/>
        <rect id="Rectangle_5266" data-name="Rectangle 5266" width="30.79" height="30.79" transform="translate(547.809 172.446)" fill="#ebebeb"/>
        <path id="Path_21512" data-name="Path 21512" d="M152.877,319.747l-19.495-56.19s27.04,20.046,26.86-2.18-12.319-4.965-16.533-13.175,12-8.121,6.309-20.571-21.854,6.678-24.709-4.352-7.406-16.638-19.179-15.647c0,0-6.362,14.51,1.436,24.993s-19.29,2.085-16.538,12.631,11.8,19.751,15.781,12.324,9.039,6.8,2.23,10.468,8.9,19.545,12.35,11.221a87.313,87.313,0,0,1,8.851-15.737l17.967,60.118Z" transform="translate(43.122 98.521)" fill="#ebebeb"/>
        <path id="Path_21513" data-name="Path 21513" d="M146.527,306.921l21.978-35.934s-21.738,9.785-18.256-5.566,9.273-1.575,13.431-6.62-7.073-7.431-1.257-15.187,14.112,7.924,17.755.723,7.638-10.393,15.635-7.93c0,0,2.209,11-4.771,17.078s13.032,4.356,9.534,11.238-11.146,11.885-12.782,6.144-7.282,3.342-3.124,6.906-9.112,12.179-10.241,5.9a61.833,61.833,0,0,0-3.747-12.226l-21.515,38.883Z" transform="translate(69.564 111.844)" fill="#e6e6e6"/>
        <path id="Path_21514" data-name="Path 21514" d="M141.953,321.772l10.065-57.884s-23.173,23.847-26.534,2.149,11.218-6.8,14.022-15.478-12.988-6.008-9.424-19.052,22.368,3.034,23.4-8.173,4.573-17.4,16.209-18.309c0,0,8.512,13.136,2.578,24.6S191.4,228.584,190.4,239.3s-8.357,21.133-13.425,14.528-7.729,8.071-.507,10.559S170.9,284.864,166.211,277.3a86.2,86.2,0,0,0-11.134-13.933l-7.949,61.471Z" transform="translate(59.336 97.336)" fill="#f5f5f5"/>
        <path id="Path_21515" data-name="Path 21515" d="M130.687,350.447h34.551a4.573,4.573,0,0,0,4.564-4.292l3.662-59.592a4.572,4.572,0,0,0-4.563-4.852H127.025a4.571,4.571,0,0,0-4.563,4.852l3.662,59.592a4.573,4.573,0,0,0,4.563,4.292" transform="translate(58.135 133.744)" fill="#ebebeb"/>
        <path id="Path_21516" data-name="Path 21516" d="M124.225,289.209h50.56a4.572,4.572,0,1,0,0-9.143h-50.56a4.572,4.572,0,0,0,0,9.143" transform="translate(56.806 132.962)" fill="#f5f5f5"/>
      </g>
    </g>
    <g id="Group_8473" data-name="Group 8473">
      <g id="Group_8472" data-name="Group 8472" clip-path="url(#clip-path)">
        <path id="Path_21517" data-name="Path 21517" d="M627.988,366.662c0,9.223-128.019,16.7-285.938,16.7s-285.938-7.475-285.938-16.7,128.019-16.7,285.938-16.7,285.938,7.477,285.938,16.7" transform="translate(26.639 166.146)" fill="#f5f5f5"/>
      </g>
    </g>
    <g id="Group_8505" data-name="Group 8505">
      <g id="Group_8504" data-name="Group 8504" clip-path="url(#clip-path)">
        <path id="Path_21518" data-name="Path 21518" d="M432.143,66.6V481.7a6.474,6.474,0,0,1-6.574,6.477H202.518a5.8,5.8,0,0,1-5.874-5.945V66.071a5.231,5.231,0,0,1,5.033-5.439h52.958a4.123,4.123,0,0,1,3.771,2.635l2.424,5.971a4.12,4.12,0,0,0,3.771,2.607H364.31a4.079,4.079,0,0,0,3.771-2.565l2.426-6a4.136,4.136,0,0,1,3.771-2.649H426.4a5.914,5.914,0,0,1,5.747,5.971" transform="translate(93.357 28.785)" fill="#263238"/>
        <rect id="Rectangle_5269" data-name="Rectangle 5269" width="235.499" height="370.42" transform="translate(290.003 117.101)" fill="#5e61a8"/>
        <g id="Group_8476" data-name="Group 8476" transform="translate(290.003 117.101)" opacity="0.7" style="mix-blend-mode: normal;isolation: isolate">
          <g id="Group_8475" data-name="Group 8475">
            <g id="Group_8474" data-name="Group 8474" clip-path="url(#clip-path-5)">
              <rect id="Rectangle_5270" data-name="Rectangle 5270" width="235.499" height="370.42" fill="#fff"/>
            </g>
          </g>
        </g>
        <g id="Group_8479" data-name="Group 8479" transform="translate(317.827 103.212)" opacity="0.6" style="mix-blend-mode: normal;isolation: isolate">
          <g id="Group_8478" data-name="Group 8478">
            <g id="Group_8477" data-name="Group 8477" clip-path="url(#clip-path-6)">
              <rect id="Rectangle_5272" data-name="Rectangle 5272" width="3.047" height="4.063" transform="translate(0 0)" fill="#fff"/>
            </g>
          </g>
        </g>
        <g id="Group_8482" data-name="Group 8482" transform="translate(312.86 101.857)" opacity="0.6" style="mix-blend-mode: normal;isolation: isolate">
          <g id="Group_8481" data-name="Group 8481">
            <g id="Group_8480" data-name="Group 8480" clip-path="url(#clip-path-7)">
              <rect id="Rectangle_5274" data-name="Rectangle 5274" width="3.047" height="5.418" transform="translate(0 0)" fill="#fff"/>
            </g>
          </g>
        </g>
        <g id="Group_8485" data-name="Group 8485" transform="translate(307.894 100.501)" opacity="0.6" style="mix-blend-mode: normal;isolation: isolate">
          <g id="Group_8484" data-name="Group 8484">
            <g id="Group_8483" data-name="Group 8483" clip-path="url(#clip-path-8)">
              <rect id="Rectangle_5276" data-name="Rectangle 5276" width="3.047" height="6.774" fill="#fff"/>
            </g>
          </g>
        </g>
        <g id="Group_8488" data-name="Group 8488" transform="translate(302.928 99.146)" opacity="0.6" style="mix-blend-mode: normal;isolation: isolate">
          <g id="Group_8487" data-name="Group 8487">
            <g id="Group_8486" data-name="Group 8486" clip-path="url(#clip-path-9)">
              <rect id="Rectangle_5278" data-name="Rectangle 5278" width="3.047" height="8.129" fill="#fff"/>
            </g>
          </g>
        </g>
        <g id="Group_8491" data-name="Group 8491" transform="translate(496.409 101.73)" opacity="0.6" style="mix-blend-mode: normal;isolation: isolate">
          <g id="Group_8490" data-name="Group 8490">
            <g id="Group_8489" data-name="Group 8489" clip-path="url(#clip-path-10)">
              <rect id="Rectangle_5280" data-name="Rectangle 5280" width="1.807" height="4.063" transform="translate(0 -0.001)" fill="#fff"/>
            </g>
          </g>
        </g>
        <g id="Group_8494" data-name="Group 8494" transform="translate(499.458 100.246)" opacity="0.6" style="mix-blend-mode: normal;isolation: isolate">
          <g id="Group_8493" data-name="Group 8493">
            <g id="Group_8492" data-name="Group 8492" clip-path="url(#clip-path-11)">
              <rect id="Rectangle_5282" data-name="Rectangle 5282" width="14.391" height="7.027" transform="translate(0 0.001)" fill="#fff"/>
            </g>
          </g>
        </g>
        <path id="Path_21519" data-name="Path 21519" d="M276.676,124.641a35.281,35.281,0,0,1-4.486,17.284c-.209.379-.42.743-.645,1.108a35.172,35.172,0,0,1-7.975,9.167,2.012,2.012,0,0,1-.183.155,35.54,35.54,0,0,1-9.994,5.663c-.028,0-.041.013-.056.013a35.265,35.265,0,0,1-12.21,2.159,33.561,33.561,0,0,1-3.967-.224,34.664,34.664,0,0,1-6.518-1.346,35.253,35.253,0,0,1-13.835-8.073c-.015,0-.028-.015-.043-.029a35.545,35.545,0,1,1,59.912-25.876" transform="translate(97.599 42.297)" fill="#5e61a8"/>
        <path id="Path_21520" data-name="Path 21520" d="M268.352,139.611c-.211.379-.42.743-.645,1.108a95.1,95.1,0,0,0-24.139,2.733c-.9.211-1.795.435-2.65.646-.6.153-1.2.321-1.793.476-2.258.6-4.359,1.233-6.266,1.836-.295.1-.575.183-.841.28-.211.056-.407.127-.6.2H231.4c-2.2.729-4.066,1.4-5.51,1.948-2.131.8-3.351,1.332-3.351,1.332a25.294,25.294,0,0,1-1.92-2.832.894.894,0,0,0-.1-.153v-.015c-3.2-5.368-8.8-17.746-6.181-35.338,2.929-19.681,19.274-18.434,25.077-17.34a18.392,18.392,0,0,1,2.047.463s18.28,4.317,18.952,15.7a40.516,40.516,0,0,0,.56,4.542c1.6,9.307,5.945,20.8,7.374,24.419" transform="translate(101.438 44.61)" fill="#263238"/>
        <path id="Path_21521" data-name="Path 21521" d="M245.867,140.053c-.028,0-.043.013-.056.013a35.264,35.264,0,0,1-12.209,2.159,33.564,33.564,0,0,1-3.967-.224,34.666,34.666,0,0,1-6.518-1.345l-1.136-9.281-.547-4.443,24.322,3.448.028,2.075.071,6.111v.45Z" transform="translate(105.126 60.261)" fill="#407bff"/>
        <path id="Path_21522" data-name="Path 21522" d="M259.787,133a35.525,35.525,0,0,1-9.994,5.663c-.028,0-.043.015-.056.015a35.3,35.3,0,0,1-12.209,2.158,33.542,33.542,0,0,1-3.967-.224,34.664,34.664,0,0,1-6.518-1.345,35.272,35.272,0,0,1-13.836-8.074c-.013,0-.028-.015-.041-.028,1.121-.168,2.256-.308,3.392-.448l.28-.028c1.332-.155,2.678-.28,4.023-.394,1.584-.125,3.169-.224,4.766-.293.1,0,.183-.015.28-.015.631-.028,1.289-.041,1.935-.069.785-.028,1.556-.043,2.327-.056.476-.015.981-.015,1.472-.015h1.233c3,.015,5.986.112,8.972.323,1.022.071,2.045.153,3.056.252.532.056,1.065.1,1.6.155.771.112,1.556.224,2.34.364.17.013.338.041.506.069l.364.056h.028c.925.155,1.836.323,2.733.478.435.069.855.168,1.29.237.265.056.532.1.813.155s.588.112.87.168c.5.1.966.2,1.444.293.349.071.7.14,1.037.211.659.14,1.289.28,1.864.392" transform="translate(101.2 61.647)" fill="#263238"/>
        <path id="Path_21523" data-name="Path 21523" d="M237.968,143.431c-10.133-1.728-13.016-6.213-13.016-6.213,4.327-3.749,3.811-9.573,2.9-13.23a20.756,20.756,0,0,0-1.118-3.385l12.17,2.8a35.36,35.36,0,0,0-.689,5.145,15.532,15.532,0,0,0,.189,3.808c.683,3.7,2.768,3.837,2.768,3.837,1.986,4.113-3.2,7.235-3.2,7.235" transform="translate(106.797 57.257)" fill="#e4897b"/>
        <g id="Group_8497" data-name="Group 8497" transform="translate(333.527 177.86)" opacity="0.2" style="mix-blend-mode: normal;isolation: isolate">
          <g id="Group_8496" data-name="Group 8496">
            <g id="Group_8495" data-name="Group 8495" clip-path="url(#clip-path-12)">
              <path id="Path_21524" data-name="Path 21524" d="M237.639,128.55a15.457,15.457,0,0,0,.189,3.808c-4.843-.842-8.372-4.892-10.552-8.371a20.77,20.77,0,0,0-1.118-3.383l12.17,2.8a35.36,35.36,0,0,0-.689,5.145" transform="translate(-226.158 -120.603)"/>
            </g>
          </g>
        </g>
        <path id="Path_21525" data-name="Path 21525" d="M237.858,98.873c11.516.494,14.958,6.819,15.292,18.723.417,14.876-3.323,25.271-17.585,21.486-19.371-5.142-16.831-41.031,2.293-40.209" transform="translate(105.499 46.934)" fill="#e4897b"/>
        <path id="Path_21526" data-name="Path 21526" d="M238.163,110.912a24.41,24.41,0,0,0,3.146,4.92A3.169,3.169,0,0,1,238.218,117Z" transform="translate(113.069 52.656)" fill="#de5753"/>
        <path id="Path_21527" data-name="Path 21527" d="M235.2,104.694s-3.218-.559-5.069,1.526" transform="translate(109.253 49.671)" fill="none" stroke="#263238" stroke-linecap="round" stroke-linejoin="round" stroke-width="0.725"/>
        <path id="Path_21528" data-name="Path 21528" d="M239.254,104.625a5.376,5.376,0,0,1,4.55,1.144" transform="translate(113.587 49.614)" fill="none" stroke="#263238" stroke-linecap="round" stroke-linejoin="round" stroke-width="0.725"/>
        <path id="Path_21529" data-name="Path 21529" d="M225.382,119.237s5.79-9.23,5.288-16.57c0,0,23.221-8.343,23.353,14.868,0,0,3.113-20.473-16.663-21.781-19.745-1.307-20.937,27.658-11.083,36.726,0,0-4.48-7.47-.9-13.243" transform="translate(104.556 45.44)" fill="#263238"/>
        <path id="Path_21530" data-name="Path 21530" d="M227.6,114.932a5.057,5.057,0,0,0-5.24-4.849c-3.585.236-5.6,7.489,3.2,9.632,1.262.307,2.034-.907,2.04-4.783" transform="translate(104.115 52.257)" fill="#e4897b"/>
        <path id="Path_21531" data-name="Path 21531" d="M240.806,118.5a29.043,29.043,0,0,0-2.1,3.663c-.24-.068-.479-.134-.715-.214-3.224-.99-4.392-2.514-4.71-3.9a4.368,4.368,0,0,1,.074-2.057,4.188,4.188,0,0,1,.437-1.093c1.4,1.546,4.33,2.7,5.923,3.25.665.237,1.094.354,1.094.354" transform="translate(110.707 54.549)" fill="#263238"/>
        <path id="Path_21532" data-name="Path 21532" d="M239.661,118.15l-.647,1.063c-3.035-.939-5.045-2.007-5.713-3.219a4.245,4.245,0,0,1,.438-1.094c1.4,1.546,4.33,2.7,5.923,3.25" transform="translate(110.76 54.549)" fill="#fff"/>
        <path id="Path_21533" data-name="Path 21533" d="M237.961,120.94c-3.225-.99-4.393-2.513-4.71-3.9a10.936,10.936,0,0,1,3.362,1.808,4.087,4.087,0,0,1,1.348,2.1" transform="translate(110.737 55.563)" fill="#de5753"/>
        <path id="Path_21534" data-name="Path 21534" d="M239.474,102S234.02,120.75,222.1,120s7.521-23.957,7.521-23.957,19.787-6.511,28.949,4.241-3.6,18.03-3.6,18.03,1.364-14.644-15.5-16.309" transform="translate(103.607 44.667)" fill="#263238"/>
        <path id="Path_21535" data-name="Path 21535" d="M235.424,98.536s.852,13-8.782,17.134" transform="translate(107.599 46.78)" fill="none" stroke="#263238" stroke-linecap="round" stroke-linejoin="round" stroke-width="0.5"/>
        <path id="Path_21536" data-name="Path 21536" d="M234.256,110.945c.106.891-.289,1.669-.883,1.74s-1.161-.594-1.267-1.485.289-1.669.883-1.74,1.161.594,1.267,1.485" transform="translate(110.185 51.964)" fill="#263238"/>
        <path id="Path_21537" data-name="Path 21537" d="M232.535,109.826l1.846-.99s-.77,1.745-1.846.99" transform="translate(110.397 51.67)" fill="#263238"/>
        <path id="Path_21538" data-name="Path 21538" d="M241.749,109.927c.1.891-.291,1.669-.885,1.74s-1.159-.594-1.267-1.484.289-1.671.883-1.742,1.162.594,1.268,1.485" transform="translate(113.741 51.481)" fill="#263238"/>
        <path id="Path_21539" data-name="Path 21539" d="M240.027,108.808l1.846-.99s-.77,1.745-1.846.99" transform="translate(113.954 51.187)" fill="#263238"/>
        <path id="Path_21540" data-name="Path 21540" d="M248.8,133.125a2.012,2.012,0,0,1-.183.155,35.54,35.54,0,0,1-9.994,5.663c-.028,0-.041.013-.056.013l.043-1.051.013-.406-.013-.043-1.935-3.911,1-2.327.841-1.948.855,1.851Z" transform="translate(112.364 61.371)" fill="#407bff"/>
        <g id="Group_8500" data-name="Group 8500" transform="translate(349.043 190.641)" opacity="0.6" style="mix-blend-mode: normal;isolation: isolate">
          <g id="Group_8499" data-name="Group 8499">
            <g id="Group_8498" data-name="Group 8498" clip-path="url(#clip-path-13)">
              <path id="Path_21541" data-name="Path 21541" d="M248.8,133.125a2.012,2.012,0,0,1-.183.155,35.54,35.54,0,0,1-9.994,5.663c-.028,0-.041.013-.056.013l.043-1.051.013-.406-.013-.043-1.935-3.911,1-2.327.841-1.948.855,1.851Z" transform="translate(-236.679 -129.27)" fill="#fff"/>
            </g>
          </g>
        </g>
        <path id="Path_21542" data-name="Path 21542" d="M237.794,134.347l-4.038,5.06L233.547,142a34.664,34.664,0,0,1-6.518-1.346,35.254,35.254,0,0,1-13.836-8.074l3.351-.476.28-.028,7.094-1.009,1.429-4.135,7.22,4.3,5.215,3.112Z" transform="translate(101.214 60.261)" fill="#407bff"/>
        <g id="Group_8503" data-name="Group 8503" transform="translate(314.406 187.193)" opacity="0.6" style="mix-blend-mode: normal;isolation: isolate">
          <g id="Group_8502" data-name="Group 8502">
            <g id="Group_8501" data-name="Group 8501" clip-path="url(#clip-path-14)">
              <path id="Path_21543" data-name="Path 21543" d="M237.779,134.347l-4.023,5.06L233.545,142a34.625,34.625,0,0,1-6.517-1.346,35.243,35.243,0,0,1-13.836-8.074l3.631-.5,7.092-1v-.013l1.431-4.135,7.219,4.3Z" transform="translate(-213.192 -126.932)" fill="#fff"/>
            </g>
          </g>
        </g>
        <path id="Path_21544" data-name="Path 21544" d="M261.655,136.685A9.658,9.658,0,1,1,252,127.027a9.658,9.658,0,0,1,9.658,9.658" transform="translate(115.051 60.306)" fill="#fff"/>
        <path id="Path_21545" data-name="Path 21545" d="M259.786,136.23a8.244,8.244,0,1,1-8.244-8.244,8.244,8.244,0,0,1,8.244,8.244" transform="translate(115.506 60.762)" fill="#263238"/>
        <path id="Path_21546" data-name="Path 21546" d="M246.021,134.477l3.789,3.336,4.668-6.411" transform="translate(116.799 62.384)" fill="none" stroke="#fff" stroke-width="1"/>
        <path id="Path_21547" data-name="Path 21547" d="M269.124,105.41h77.5a1.654,1.654,0,0,0,0-3.308h-77.5a1.654,1.654,0,0,0,0,3.308" transform="translate(126.983 48.473)" fill="#263238"/>
        <path id="Path_21548" data-name="Path 21548" d="M364.252,108.514H268.691a1.22,1.22,0,0,0,0,2.441h95.561a1.22,1.22,0,0,0,0-2.441" transform="translate(126.983 51.517)" fill="#263238"/>
        <path id="Path_21549" data-name="Path 21549" d="M336.216,113.245H268.69a1.22,1.22,0,0,0,0,2.441h67.526a1.22,1.22,0,0,0,0-2.441" transform="translate(126.982 53.763)" fill="#263238"/>
        <rect id="Rectangle_5287" data-name="Rectangle 5287" width="229.879" height="229.879" transform="translate(292.812 212.134)" fill="#8792df"/>
        <path id="Path_21550" data-name="Path 21550" d="M353.588,321.538,347.1,315.95l-6.484,5.588V306.164h12.969Z" transform="translate(161.71 145.352)" fill="#303187"/>
        <path id="Path_21551" data-name="Path 21551" d="M337.473,306.164h-9.76a2.42,2.42,0,0,0-2.42,2.42v6.675a2.419,2.419,0,0,0,2.42,2.42h3.315v3.859l2.517-3.859h3.927a2.42,2.42,0,0,0,2.42-2.42v-6.675a2.421,2.421,0,0,0-2.42-2.42" transform="translate(154.434 145.352)" fill="#303187"/>
        <path id="Path_21552" data-name="Path 21552" d="M325.114,308c-1.8-2.963-5.281-1.848-7.088.435-1.781-2.3-5.249-3.458-7.083-.516-3.092,4.96,3.2,9.607,6.17,11.429.336.209.615.382.848.518.233-.133.515-.3.852-.507,2.994-1.789,9.337-6.364,6.3-11.359" transform="translate(147.225 145.352)" fill="#303187"/>
      </g>
    </g>
    <path id="Path_21553" data-name="Path 21553" d="M294.981,172.26l9.862-9.273,9.772,9.368,11.857-6.529,7.135,11.5,13.109-3.374,4.05,12.916,13.537-.009.711,13.518,13.112,3.358-2.674,13.27,11.867,6.512-5.89,12.189,9.873,9.258-8.735,10.341,7.26,11.425-11.033,7.843,4.191,12.87L370.35,292.3l.858,13.509-13.447,1.559-2.528,13.3-13.41-1.835-5.756,12.251-12.534-5.111L314.912,336.4l-10.869-8.07L293.1,336.3l-8.52-10.518L272,330.772l-5.636-12.307-13.429,1.7-2.4-13.321L237.1,305.16l.99-13.5L225.5,286.686l4.315-12.83-10.956-7.949,7.371-11.354-8.636-10.424,9.963-9.164-5.772-12.245,11.929-6.4-2.545-13.295,13.145-3.231.842-13.51,13.535.139,4.174-12.876,13.077,3.5,7.245-11.435Z" transform="translate(103.304 77.378)" fill="#5e61a8"/>
    <g id="Group_8513" data-name="Group 8513">
      <g id="Group_8512" data-name="Group 8512" clip-path="url(#clip-path)">
        <g id="Group_8508" data-name="Group 8508" transform="translate(322.374 243.315)" opacity="0.4" style="mix-blend-mode: normal;isolation: isolate">
          <g id="Group_8507" data-name="Group 8507">
            <g id="Group_8506" data-name="Group 8506" clip-path="url(#clip-path-16)">
              <path id="Path_21554" data-name="Path 21554" d="M383.567,257.307l8.735-10.34-9.873-9.26,5.889-12.187-11.866-6.514,2.674-13.27-13.113-3.357L365.3,188.86l-13.535.009-4.05-12.916-13.109,3.376-7.135-11.5-11.858,6.529-9.77-9.368-9.862,9.272-11.794-6.642-7.247,11.434-13.075-3.5-4.175,12.876-13.535-.14-.841,13.51-13.145,3.231,2.544,13.295-11.928,6.4,5.771,12.243-9.962,9.164,8.635,10.424-7.371,11.354,10.957,7.949-4.317,12.83,12.59,4.974-.99,13.5,13.431,1.687,2.4,13.321,13.428-1.7L273,332.771l12.581-4.992L294.1,338.3l10.946-7.964,10.869,8.068,8.621-10.435,12.534,5.113,5.755-12.252,13.411,1.835,2.528-13.3,13.447-1.557L371.35,294.3l12.636-4.853-4.191-12.872,11.033-7.843Zm-2.718,9.472-9.744,6.925,3.7,11.367-11.161,4.284.76,11.932-11.876,1.376L350.3,314.409l-11.844-1.621-5.082,10.82-11.07-4.514-7.614,9.216-9.6-7.126-9.667,7.033-7.524-9.291-11.112,4.409-4.979-10.869-11.858,1.506-2.121-11.766-11.861-1.489.875-11.923L235.721,284.4l3.811-11.332-9.676-7.02,6.51-10.027-7.626-9.207,8.8-8.092-5.1-10.814,10.534-5.651-2.248-11.74,11.609-2.854.743-11.932,11.953.124,3.687-11.372,11.549,3.091,6.4-10.1,10.416,5.868,8.708-8.189,8.63,8.272,10.472-5.766,6.3,10.16,11.577-2.98,3.576,11.407,11.956-.007.627,11.94,11.581,2.963-2.361,11.721,10.48,5.752-5.2,10.763,8.72,8.179-7.714,9.13Z" transform="translate(-218.595 -164.987)"/>
            </g>
          </g>
        </g>
        <g id="Group_8511" data-name="Group 8511" transform="translate(320.899 240.366)" opacity="0.4" style="mix-blend-mode: normal;isolation: isolate">
          <g id="Group_8510" data-name="Group 8510">
            <g id="Group_8509" data-name="Group 8509" clip-path="url(#clip-path-16)">
              <path id="Path_21555" data-name="Path 21555" d="M294.981,172.26l9.862-9.273,9.772,9.368,11.857-6.529,7.135,11.5,13.109-3.374,4.05,12.916,13.537-.009.711,13.518,13.112,3.358-2.674,13.27,11.867,6.512-5.89,12.189,9.873,9.258-8.735,10.341,7.26,11.425-11.033,7.843,4.191,12.87L370.35,292.3l.858,13.509-13.447,1.559-2.528,13.3-13.41-1.835-5.756,12.251-12.534-5.111L314.912,336.4l-10.869-8.07L293.1,336.3l-8.52-10.518L272,330.772l-5.636-12.307-13.429,1.7-2.4-13.321L237.1,305.16l.99-13.5L225.5,286.686l4.315-12.83-10.956-7.949,7.371-11.354-8.636-10.424,9.963-9.164-5.772-12.245,11.929-6.4-2.545-13.295,13.145-3.231.842-13.51,13.535.139,4.174-12.876,13.077,3.5,7.245-11.435Z" transform="translate(-217.595 -162.987)"/>
            </g>
          </g>
        </g>
      </g>
    </g>
    <path id="Path_21556" data-name="Path 21556" d="M382.567,255.307l8.735-10.34-9.873-9.26,5.889-12.187-11.866-6.514,2.674-13.27-13.114-3.357L364.3,186.86l-13.535.009-4.05-12.916-13.109,3.376-7.135-11.5-11.858,6.529-9.77-9.368-9.862,9.272-11.794-6.642-7.247,11.434-13.075-3.5-4.175,12.876-13.535-.14-.841,13.51-13.145,3.231,2.544,13.295-11.928,6.4,5.771,12.243-9.962,9.164,8.635,10.424-7.371,11.354,10.957,7.949-4.317,12.83,12.59,4.974-.99,13.5,13.431,1.687,2.4,13.321,13.428-1.7L272,330.771l12.581-4.992L293.1,336.3l10.946-7.964,10.869,8.068,8.621-10.435,12.534,5.113,5.755-12.252,13.411,1.835,2.528-13.3,13.447-1.557L370.35,292.3l12.636-4.853-4.191-12.872,11.033-7.843Zm-2.718,9.472-9.744,6.925,3.7,11.367-11.161,4.284.76,11.932-11.876,1.376L349.3,312.409l-11.844-1.621-5.082,10.82-11.07-4.514-7.614,9.216-9.6-7.126-9.667,7.033-7.524-9.291-11.112,4.409-4.979-10.869-11.859,1.506-2.121-11.766-11.861-1.489.875-11.923L234.721,282.4l3.811-11.332-9.676-7.02,6.51-10.027-7.626-9.207,8.8-8.092-5.1-10.814,10.534-5.651-2.248-11.74,11.609-2.854.743-11.932,11.953.124,3.687-11.372,11.549,3.091,6.4-10.1,10.416,5.868,8.708-8.189,8.63,8.272,10.472-5.766,6.3,10.16,11.577-2.98,3.576,11.407,11.956-.007.627,11.94,11.581,2.963-2.361,11.721,10.48,5.752-5.2,10.763,8.72,8.179-7.714,9.13Z" transform="translate(103.304 77.379)" fill="#407bff"/>
    <g id="Group_8521" data-name="Group 8521">
      <g id="Group_8520" data-name="Group 8520" clip-path="url(#clip-path)">
        <g id="Group_8516" data-name="Group 8516" transform="translate(320.899 240.366)" opacity="0.6" style="mix-blend-mode: normal;isolation: isolate">
          <g id="Group_8515" data-name="Group 8515">
            <g id="Group_8514" data-name="Group 8514" clip-path="url(#clip-path-16)">
              <path id="Path_21557" data-name="Path 21557" d="M382.567,255.307l8.735-10.34-9.873-9.26,5.889-12.187-11.866-6.514,2.674-13.27-13.114-3.357L364.3,186.86l-13.535.009-4.05-12.916-13.109,3.376-7.135-11.5-11.858,6.529-9.77-9.368-9.862,9.272-11.794-6.642-7.247,11.434-13.075-3.5-4.175,12.876-13.535-.14-.841,13.51-13.145,3.231,2.544,13.295-11.928,6.4,5.771,12.243-9.962,9.164,8.635,10.424-7.371,11.354,10.957,7.949-4.317,12.83,12.59,4.974-.99,13.5,13.431,1.687,2.4,13.321,13.428-1.7L272,330.771l12.581-4.992L293.1,336.3l10.946-7.964,10.869,8.068,8.621-10.435,12.534,5.113,5.755-12.252,13.411,1.835,2.528-13.3,13.447-1.557L370.35,292.3l12.636-4.853-4.191-12.872,11.033-7.843Zm-2.718,9.472-9.744,6.925,3.7,11.367-11.161,4.284.76,11.932-11.876,1.376L349.3,312.409l-11.844-1.621-5.082,10.82-11.07-4.514-7.614,9.216-9.6-7.126-9.667,7.033-7.524-9.291-11.112,4.409-4.979-10.869-11.859,1.506-2.121-11.766-11.861-1.489.875-11.923L234.721,282.4l3.811-11.332-9.676-7.02,6.51-10.027-7.626-9.207,8.8-8.092-5.1-10.814,10.534-5.651-2.248-11.74,11.609-2.854.743-11.932,11.953.124,3.687-11.372,11.549,3.091,6.4-10.1,10.416,5.868,8.708-8.189,8.63,8.272,10.472-5.766,6.3,10.16,11.577-2.98,3.576,11.407,11.956-.007.627,11.94,11.581,2.963-2.361,11.721,10.48,5.752-5.2,10.763,8.72,8.179-7.714,9.13Z" transform="translate(-217.595 -162.987)" fill="#fff"/>
            </g>
          </g>
        </g>
        <g id="Group_8519" data-name="Group 8519" transform="translate(362.245 290.765)" opacity="0.4" style="mix-blend-mode: normal;isolation: isolate">
          <g id="Group_8518" data-name="Group 8518">
            <g id="Group_8517" data-name="Group 8517" clip-path="url(#clip-path-20)">
              <path id="Path_21558" data-name="Path 21558" d="M247.8,229.151s7.523-1.3,11.217,0,19.358,28.073,19.358,28.073,30.393-41.792,54.681-60.064c0,0-31.523,28.222-49.8,75.6,0,0-6.151,2.722-10.493-2.138-1.258-1.408-15.377-25.519-18.091-26.423-2.147-.717-9.046-.363-9.046-.363Z" transform="translate(-245.631 -197.163)"/>
            </g>
          </g>
        </g>
        <path id="Path_21559" data-name="Path 21559" d="M246.8,228.151s7.523-1.3,11.217,0,19.358,28.073,19.358,28.073,30.393-41.792,54.681-60.064c0,0-31.523,28.222-49.8,75.6,0,0-6.151,2.722-10.493-2.138-1.258-1.408-15.377-25.519-18.091-26.423-2.147-.717-9.046-.363-9.046-.363Z" transform="translate(116.139 93.128)" fill="#fff"/>
      </g>
    </g>
    <g id="Group_8532" data-name="Group 8532">
      <g id="Group_8531" data-name="Group 8531" clip-path="url(#clip-path)">
        <g id="Group_8524" data-name="Group 8524" transform="translate(533.734 360.598)" style="mix-blend-mode: normal;isolation: isolate">
          <g id="Group_8523" data-name="Group 8523">
            <g id="Group_8522" data-name="Group 8522" clip-path="url(#clip-path-22)">
              <path id="Path_21560" data-name="Path 21560" d="M400.5,375.894s-8.592-18.746,1.225-37.226,12.661-22.832,6.4-26.618S399,326.833,399,326.833s-5.275-12.774-.919-26.144,7.086-35.145,1.139-37.479-1.136,27.163-6.3,37.22c0,0-4.334-11.195-5.048-21.933s.4-27.885-4.3-32.284-7.706-1.355-3.09,22.342a247.932,247.932,0,0,1,4.582,42.961s-10.195-31.086-17.038-31.992-6.834,9.16-.978,17.892,17.153,24.373,19.005,32.422c0,0-11.19-23.394-21.257-16.224s8.762,21.3,17.154,26.405,14.22,37.111,14.22,37.111Z" transform="translate(-361.914 -244.514)" fill="#6773ce"/>
            </g>
          </g>
        </g>
        <g id="Group_8527" data-name="Group 8527" transform="translate(533.734 360.598)" opacity="0.2" style="mix-blend-mode: normal;isolation: isolate">
          <g id="Group_8526" data-name="Group 8526">
            <g id="Group_8525" data-name="Group 8525" clip-path="url(#clip-path-22)">
              <path id="Path_21561" data-name="Path 21561" d="M400.5,375.894s-8.592-18.746,1.225-37.226,12.661-22.832,6.4-26.618S399,326.833,399,326.833s-5.275-12.774-.919-26.144,7.086-35.145,1.139-37.479-1.136,27.163-6.3,37.22c0,0-4.334-11.195-5.048-21.933s.4-27.885-4.3-32.284-7.706-1.355-3.09,22.342a247.932,247.932,0,0,1,4.582,42.961s-10.195-31.086-17.038-31.992-6.834,9.16-.978,17.892,17.153,24.373,19.005,32.422c0,0-11.19-23.394-21.257-16.224s8.762,21.3,17.154,26.405,14.22,37.111,14.22,37.111Z" transform="translate(-361.914 -244.514)"/>
            </g>
          </g>
        </g>
        <g id="Group_8530" data-name="Group 8530" transform="translate(553.882 368)" style="mix-blend-mode: normal;isolation: isolate">
          <g id="Group_8529" data-name="Group 8529">
            <g id="Group_8528" data-name="Group 8528" clip-path="url(#clip-path-24)">
              <path id="Path_21562" data-name="Path 21562" d="M387.23,381.2s8.366-18.872-1.671-37.2-12.935-22.642-6.723-26.52,9.306,14.646,9.306,14.646,5.12-12.852.6-26.156-7.507-35.036-1.587-37.46,1.46,27.146,6.741,37.124c0,0,4.2-11.258,4.786-22.006s-.736-27.876,3.908-32.344,7.689-1.47,3.358,22.294a248.081,248.081,0,0,0-4.066,43.024s9.82-31.234,16.651-32.242,6.943,9.058,1.192,17.875-16.858,24.627-18.614,32.7c0,0,10.91-23.558,21.061-16.538s-8.5,21.428-16.836,26.658-13.773,37.32-13.773,37.32Z" transform="translate(-375.576 -249.533)" fill="#6773ce"/>
            </g>
          </g>
        </g>
      </g>
    </g>
    <path id="Path_21563" data-name="Path 21563" d="M431.891,329.691H362.78l5.592,49.457H426.3Z" transform="translate(172.231 156.522)" fill="#263238"/>
    <g id="Group_8600" data-name="Group 8600">
      <g id="Group_8599" data-name="Group 8599" clip-path="url(#clip-path)">
        <path id="Path_21564" data-name="Path 21564" d="M101.558,358.679l42.491-4.176V302.161H160.89v52.326l42.663,4.193a8.272,8.272,0,0,1,7.464,8.234v6.38H94.094v-6.38a8.272,8.272,0,0,1,7.464-8.234" transform="translate(44.671 143.452)" fill="#263238"/>
        <g id="Group_8535" data-name="Group 8535" transform="translate(138.765 445.612)" opacity="0.1" style="mix-blend-mode: normal;isolation: isolate">
          <g id="Group_8534" data-name="Group 8534">
            <g id="Group_8533" data-name="Group 8533" clip-path="url(#clip-path-26)">
              <path id="Path_21565" data-name="Path 21565" d="M101.558,358.679l42.491-4.176V302.161H160.89v52.326l42.663,4.193a8.272,8.272,0,0,1,7.464,8.234v6.38H94.094v-6.38a8.272,8.272,0,0,1,7.464-8.234" transform="translate(-94.093 -302.16)" fill="#fff"/>
            </g>
          </g>
        </g>
        <path id="Path_21566" data-name="Path 21566" d="M162.862,359.3a11.011,11.011,0,1,0,11.011-11.011A11.01,11.01,0,0,0,162.862,359.3" transform="translate(77.319 165.354)" fill="#263238"/>
        <path id="Path_21567" data-name="Path 21567" d="M111.7,359.3a11.01,11.01,0,1,1-11.011-11.011A11.01,11.01,0,0,1,111.7,359.3" transform="translate(42.574 165.354)" fill="#263238"/>
        <path id="Path_21568" data-name="Path 21568" d="M132.1,327.986h10.45a6.1,6.1,0,0,0,6.1-6.1V274.8H126v47.093a6.094,6.094,0,0,0,6.1,6.1" transform="translate(59.819 130.461)" fill="#263238"/>
        <g id="Group_8538" data-name="Group 8538" transform="translate(185.82 405.259)" opacity="0.2" style="mix-blend-mode: normal;isolation: isolate">
          <g id="Group_8537" data-name="Group 8537">
            <g id="Group_8536" data-name="Group 8536" clip-path="url(#clip-path-27)">
              <path id="Path_21569" data-name="Path 21569" d="M132.1,327.986h10.45a6.1,6.1,0,0,0,6.1-6.1V274.8H126v47.093a6.094,6.094,0,0,0,6.1,6.1" transform="translate(-126.001 -274.798)" fill="#fff"/>
            </g>
          </g>
        </g>
        <path id="Path_21570" data-name="Path 21570" d="M100.372,212.191s12.618,78.768,37.512,92.33H112.571s-25-26.835-32.62-92.33Z" transform="translate(37.957 100.738)" fill="#263238"/>
        <g id="Group_8541" data-name="Group 8541" transform="translate(117.908 312.929)" opacity="0.1" style="mix-blend-mode: normal;isolation: isolate">
          <g id="Group_8540" data-name="Group 8540">
            <g id="Group_8539" data-name="Group 8539" clip-path="url(#clip-path-28)">
              <path id="Path_21571" data-name="Path 21571" d="M100.372,212.191s12.618,78.768,37.512,92.33H112.571s-25-26.835-32.62-92.33Z" transform="translate(-79.951 -212.191)" fill="#fff"/>
            </g>
          </g>
        </g>
        <path id="Path_21572" data-name="Path 21572" d="M202.291,267.246H103.6a7.375,7.375,0,0,0-7.374,7.374v9.865H209.664V274.62a7.375,7.375,0,0,0-7.374-7.374" transform="translate(45.683 126.876)" fill="#303187"/>
        <path id="Path_21573" data-name="Path 21573" d="M212.949,273.091H95.985a2.965,2.965,0,0,0-2.966,2.966v2.687a2.966,2.966,0,0,0,2.966,2.967H212.949a2.966,2.966,0,0,0,2.966-2.967v-2.687a2.965,2.965,0,0,0-2.966-2.966" transform="translate(44.161 129.651)" fill="#263238"/>
        <g id="Group_8544" data-name="Group 8544" transform="translate(137.18 402.742)" opacity="0.6" style="mix-blend-mode: normal;isolation: isolate">
          <g id="Group_8543" data-name="Group 8543">
            <g id="Group_8542" data-name="Group 8542" clip-path="url(#clip-path-29)">
              <path id="Path_21574" data-name="Path 21574" d="M212.949,273.091H95.985a2.965,2.965,0,0,0-2.966,2.966v2.687a2.966,2.966,0,0,0,2.966,2.967H212.949a2.966,2.966,0,0,0,2.966-2.967v-2.687a2.965,2.965,0,0,0-2.966-2.966" transform="translate(-93.019 -273.091)" fill="#fff"/>
            </g>
          </g>
        </g>
        <path id="Path_21575" data-name="Path 21575" d="M87.375,241.789h40.548c11.878,0,19.594-9.525,17.232-21.275L142,204.83c-2.36-11.749-13.9-21.273-25.782-21.273H75.674c-11.878,0-19.594,9.524-17.231,21.273l3.15,15.684c2.36,11.749,13.9,21.275,25.782,21.275" transform="translate(27.544 87.144)" fill="#303187"/>
        <path id="Path_21576" data-name="Path 21576" d="M103.814,170.387h25.835l2.373,15.414-22.984,4.008Z" transform="translate(49.286 80.892)" fill="#5e61a8"/>
        <path id="Path_21577" data-name="Path 21577" d="M227.235,324.1l-9.272,3.626-6.673-12.569-6.061-11.434,10.281-6.16,6.209,14.034Z" transform="translate(97.433 141.268)" fill="#e4897b"/>
        <g id="Group_8547" data-name="Group 8547" transform="translate(302.662 438.828)" opacity="0.2" style="mix-blend-mode: normal;isolation: isolate">
          <g id="Group_8546" data-name="Group 8546">
            <g id="Group_8545" data-name="Group 8545" clip-path="url(#clip-path-30)">
              <path id="Path_21578" data-name="Path 21578" d="M221.718,311.6l-10.428,3.56-6.061-11.435,10.281-6.16Z" transform="translate(-205.229 -297.561)"/>
            </g>
          </g>
        </g>
        <path id="Path_21579" data-name="Path 21579" d="M271.534,341.893l-12.619,6.772s-47.671-83.826-55.005-83.13-76.879,45.024-98.087,28.654-.572-65.652-.572-65.652,41.441-15.75,46.2-6.108c.925,1.864,4.6,8.812,5.578,12.021.935,3.022,1.641,5.569,1.641,5.569a.044.044,0,0,0,.028-.019c1.336-.54,44.67-18.309,64.016-8.785,19.653,9.691,48.823,110.679,48.823,110.679" transform="translate(45.693 104.115)" fill="#6773ce"/>
        <g id="Group_8550" data-name="Group 8550" transform="translate(141.939 323.419)" opacity="0.3" style="mix-blend-mode: normal;isolation: isolate">
          <g id="Group_8549" data-name="Group 8549">
            <g id="Group_8548" data-name="Group 8548" clip-path="url(#clip-path-31)">
              <path id="Path_21580" data-name="Path 21580" d="M271.534,341.893l-12.619,6.772s-47.671-83.826-55.005-83.13-76.879,45.024-98.087,28.654-.572-65.652-.572-65.652,41.441-15.75,46.2-6.108c.925,1.864,4.6,8.812,5.578,12.021.935,3.022,1.641,5.569,1.641,5.569a.044.044,0,0,0,.028-.019c1.336-.54,44.67-18.309,64.016-8.785,19.653,9.691,48.823,110.679,48.823,110.679" transform="translate(-96.246 -219.304)" fill="#6773ce"/>
            </g>
          </g>
        </g>
        <path id="Path_21581" data-name="Path 21581" d="M171.835,357.943l-9.891-1.134L161.9,342.85l-.022-12.807,11.962-.565-1.054,15.071Z" transform="translate(76.851 156.421)" fill="#e4897b"/>
        <g id="Group_8553" data-name="Group 8553" transform="translate(238.712 485.967)" opacity="0.2" style="mix-blend-mode: normal;isolation: isolate">
          <g id="Group_8552" data-name="Group 8552">
            <g id="Group_8551" data-name="Group 8551" clip-path="url(#clip-path-32)">
              <path id="Path_21582" data-name="Path 21582" d="M172.753,344.833,161.872,343.1l-.006-12.941,11.968-.633Z" transform="translate(-161.866 -329.525)"/>
            </g>
          </g>
        </g>
        <path id="Path_21583" data-name="Path 21583" d="M202.366,307.174l18.464-9.248,1.919,7.824-13.978,7.213Z" transform="translate(96.074 141.441)" fill="#263238"/>
        <path id="Path_21584" data-name="Path 21584" d="M124.956,281.409s3.041-.345,49.68-8.986c0,0,1.053,59.651,3.265,104.109l14.366.463s20.607-98.685,18.188-113.581S190.3,246.5,190.3,246.5s-30.787,23.918-65.343,34.91" transform="translate(59.323 117.026)" fill="#5e61a8"/>
        <g id="Group_8556" data-name="Group 8556" transform="translate(184.279 363.525)" opacity="0.4" style="mix-blend-mode: normal;isolation: isolate">
          <g id="Group_8555" data-name="Group 8555">
            <g id="Group_8554" data-name="Group 8554" clip-path="url(#clip-path-33)">
              <path id="Path_21585" data-name="Path 21585" d="M124.956,281.409s3.041-.345,49.68-8.986c0,0,1.053,59.651,3.265,104.109l14.366.463s20.607-98.685,18.188-113.581S190.3,246.5,190.3,246.5s-30.787,23.918-65.343,34.91" transform="translate(-124.956 -246.499)" fill="#5e61a8"/>
            </g>
          </g>
        </g>
        <g id="Group_8559" data-name="Group 8559" transform="translate(184.279 363.525)" opacity="0.3" style="mix-blend-mode: normal;isolation: isolate">
          <g id="Group_8558" data-name="Group 8558">
            <g id="Group_8557" data-name="Group 8557" clip-path="url(#clip-path-33)">
              <path id="Path_21586" data-name="Path 21586" d="M124.956,281.409s3.041-.345,49.68-8.986c0,0,1.053,59.651,3.265,104.109l14.366.463s20.607-98.685,18.188-113.581S190.3,246.5,190.3,246.5s-30.787,23.918-65.343,34.91" transform="translate(-124.956 -246.499)" fill="#5e61a8"/>
            </g>
          </g>
        </g>
        <path id="Path_21587" data-name="Path 21587" d="M159.068,332.124l19.594-.457-2.681,8.074-15.893.145Z" transform="translate(75.518 157.46)" fill="#263238"/>
        <g id="Group_8562" data-name="Group 8562" transform="translate(178.935 338.563)" opacity="0.3" style="mix-blend-mode: normal;isolation: isolate">
          <g id="Group_8561" data-name="Group 8561">
            <g id="Group_8560" data-name="Group 8560" clip-path="url(#clip-path-35)">
              <path id="Path_21588" data-name="Path 21588" d="M146.757,235.143l-25.425,9.052s13.366-9.98,23.782-14.621c.936,3.022,1.643,5.569,1.643,5.569" transform="translate(-121.332 -229.573)"/>
            </g>
          </g>
        </g>
        <path id="Path_21589" data-name="Path 21589" d="M101.362,226.675l-.373,7.546,47.657-10.1-1.109-8.337Z" transform="translate(47.945 102.443)" fill="#263238"/>
        <g id="Group_8565" data-name="Group 8565" transform="translate(148.934 318.227)" opacity="0.2" style="mix-blend-mode: normal;isolation: isolate">
          <g id="Group_8564" data-name="Group 8564">
            <g id="Group_8563" data-name="Group 8563" clip-path="url(#clip-path-36)">
              <path id="Path_21590" data-name="Path 21590" d="M101.362,226.675l-.373,7.546,47.657-10.1-1.109-8.337Z" transform="translate(-100.989 -215.783)"/>
            </g>
          </g>
        </g>
        <rect id="Rectangle_5310" data-name="Rectangle 5310" width="2.413" height="12.289" transform="matrix(0.983, -0.182, 0.182, 0.983, 161.393, 324.939)" fill="#8792df"/>
        <rect id="Rectangle_5311" data-name="Rectangle 5311" width="10.663" height="8.087" transform="translate(174.175 323.771) rotate(-12.703)" fill="#fff"/>
        <rect id="Rectangle_5312" data-name="Rectangle 5312" width="2.413" height="12.288" transform="matrix(0.983, -0.182, 0.182, 0.983, 190.378, 317.793)" fill="#8792df"/>
        <g id="Group_8568" data-name="Group 8568" transform="translate(161.393 324.5)" opacity="0.3" style="mix-blend-mode: normal;isolation: isolate">
          <g id="Group_8567" data-name="Group 8567">
            <g id="Group_8566" data-name="Group 8566" clip-path="url(#clip-path-37)">
              <rect id="Rectangle_5313" data-name="Rectangle 5313" width="2.413" height="12.289" transform="matrix(0.983, -0.182, 0.182, 0.983, 0, 0.438)" fill="#fff"/>
            </g>
          </g>
        </g>
        <g id="Group_8571" data-name="Group 8571" transform="translate(190.377 317.354)" opacity="0.3" style="mix-blend-mode: normal;isolation: isolate">
          <g id="Group_8570" data-name="Group 8570">
            <g id="Group_8569" data-name="Group 8569" clip-path="url(#clip-path-38)">
              <rect id="Rectangle_5315" data-name="Rectangle 5315" width="2.413" height="12.288" transform="matrix(0.983, -0.182, 0.182, 0.983, 0.001, 0.44)" fill="#fff"/>
            </g>
          </g>
        </g>
        <path id="Path_21591" data-name="Path 21591" d="M241.835,331.516a13.287,13.287,0,0,0-4.79-.54s-5.986-2.5-13.215-14.408l-6.178.813a5.139,5.139,0,0,0-4.275,4.05,2.923,2.923,0,0,0-.058.877,34.985,34.985,0,0,0,1.085,4.384c1.19,4.541,5.606,14.025,5.606,14.025l1.009-.41-3.168-8.949c-1.062-3.042,2.641-.472,4.6,2.475s4.735,5.8,11.338,3.3c7.688-2.949,10.733-4.533,8.046-5.62" transform="translate(101.269 150.292)" fill="#303187"/>
        <path id="Path_21592" data-name="Path 21592" d="M222.261,314.423s9.924,15.069,14.79,17.572c0,0-5.462,4.367-12.743-2.678-9.415-9.111-10.984-5.989-10.984-5.989a29.247,29.247,0,0,1,.249-5.339c.752-3.46,8.688-3.566,8.688-3.566" transform="translate(101.265 149.273)" fill="#e4897b"/>
        <path id="Path_21593" data-name="Path 21593" d="M186.9,366.949a13.281,13.281,0,0,0-4.525-1.661s-5.224-3.846-9.422-17.131l-6.2-.675a5.139,5.139,0,0,0-5.113,2.92,2.927,2.927,0,0,0-.264.839,34.952,34.952,0,0,0,.016,4.516c.08,4.694,2.118,14.956,2.118,14.956l1.078-.159-.956-9.446c-.31-3.208,2.678.168,3.883,3.5s3.224,6.757,10.23,5.9c8.169-1.043,11.5-1.86,9.149-3.553" transform="translate(76.587 164.958)" fill="#303187"/>
        <path id="Path_21594" data-name="Path 21594" d="M172.157,345.754s6.067,16.994,10.2,20.579c0,0-6.341,2.947-11.743-5.625-6.986-11.084-9.25-8.424-9.25-8.424a29.133,29.133,0,0,1,1.507-5.126c1.55-3.182,9.287-1.4,9.287-1.4" transform="translate(76.608 163.913)" fill="#e4897b"/>
        <path id="Path_21595" data-name="Path 21595" d="M130.187,135.877S106.906,124.559,99.2,148.92s2.171,41.184,2.171,41.184,26.941-6.908,49.633-2.087c0,0-4.9-20.76-3.724-32.683s-17.1-19.456-17.1-19.456" transform="translate(45.701 63.262)" fill="#263238"/>
        <path id="Path_21596" data-name="Path 21596" d="M131.587,172.434c5.114.233,26.559,29.028,26.559,29.028l7.962-10.351s12.277,23.853,6.206,35.205-38.078-19.681-38.078-19.681Z" transform="translate(62.471 81.864)" fill="#abaec9"/>
        <g id="Group_8574" data-name="Group 8574" transform="translate(194.055 254.301)" opacity="0.6" style="mix-blend-mode: normal;isolation: isolate">
          <g id="Group_8573" data-name="Group 8573">
            <g id="Group_8572" data-name="Group 8572" clip-path="url(#clip-path-39)">
              <path id="Path_21597" data-name="Path 21597" d="M131.585,172.436,133.7,195.4l.54,11.227s5.263,5.1,11.916,10.4c9.77,7.8,22.548,16.031,26.164,9.284,6.072-11.348-6.207-35.205-6.207-35.205l-7.961,10.35-.055-.081c-1.214-1.74-21.557-28.728-26.507-28.943" transform="translate(-131.585 -172.436)" fill="#fff"/>
            </g>
          </g>
        </g>
        <g id="Group_8577" data-name="Group 8577" transform="translate(196.167 265.784)" opacity="0.2" style="mix-blend-mode: normal;isolation: isolate">
          <g id="Group_8576" data-name="Group 8576">
            <g id="Group_8575" data-name="Group 8575" clip-path="url(#clip-path-40)">
              <path id="Path_21598" data-name="Path 21598" d="M133.017,191.705l.54,11.227s5.262,5.1,11.915,10.4c.634-13.481-11.915-33.113-11.915-33.113Z" transform="translate(-133.017 -180.223)"/>
            </g>
          </g>
        </g>
        <g id="Group_8580" data-name="Group 8580" transform="translate(217.516 281.92)" opacity="0.2" style="mix-blend-mode: normal;isolation: isolate">
          <g id="Group_8579" data-name="Group 8579">
            <g id="Group_8578" data-name="Group 8578" clip-path="url(#clip-path-41)">
              <path id="Path_21599" data-name="Path 21599" d="M150.594,192.57l-1.144,2.193,3.337,12.988s-9.205-8.378-3.337-16.587Z" transform="translate(-147.493 -191.164)"/>
            </g>
          </g>
        </g>
        <path id="Path_21600" data-name="Path 21600" d="M152.234,198.418c0,.354,0,.723-.015,1.091-.029,1.593-.059,3.274-.1,5.058,0,.147,0,.295-.015.457-.03.959-.044,1.947-.074,2.964,0,.177-.015.339-.015.516-.059,1.43-.1,2.92-.162,4.483-.015.206-.015.413-.029.619-.074,2.006-.162,4.115-.265,6.341-.236,5-.516,10.545-.87,16.694v.015l-.664.162L104.968,247.5l-.177.044s1.814-24.1-1.3-37.739a3.1,3.1,0,0,0-.088-.354c-.044-.206-.088-.413-.147-.619-.1-.383-.206-.767-.295-1.165s-.206-.8-.324-1.209c-.4-1.46-.826-2.979-1.283-4.572-.295-1.062-.619-2.153-.959-3.274-.059-.192-.118-.369-.177-.56-.4-1.327-.826-2.7-1.268-4.115-.133-.413-.251-.811-.383-1.239-.649-2.02-1.342-4.159-2.094-6.4q-1.239-3.783-2.714-8.037a129.013,129.013,0,0,1,15.765-3.952c.752-.147,1.519-.28,2.286-.413.811-.147,1.622-.28,2.419-.4,4.041-.649,8.126-1.106,12.211-1.4q2.455-.177,4.911-.265c.988,0,2.006,0,3.023.03h.413l2.92.088c.457.015.914.044,1.372.059l.87.044.944.044c.531.029,1.032.059,1.534.088.383.029.752.044,1.121.074.723.044,1.4.088,2.02.133.28.029.546.044.8.074l.708.044c.236.03.442.044.649.059s.369.03.531.044c.737.059,1.195.1,1.283.118l.015.015s.044,0,.118.074l.1.1a1.911,1.911,0,0,1,.251.383,11.892,11.892,0,0,1,.959,3.023c.059.295.118.619.192.973.088.516.177,1.106.28,1.755.074.457.133.944.192,1.475.044.472.1.959.147,1.49a161.976,161.976,0,0,1,.442,16.4" transform="translate(44.513 81.576)" fill="#263238"/>
        <path id="Path_21601" data-name="Path 21601" d="M121.309,185.923c-10.727-1.376-13.953-5.964-13.953-5.964,4.386-4.129,3.59-10.229,2.47-14.034a21.852,21.852,0,0,0-1.323-3.508l12.913,2.416a37.06,37.06,0,0,0-.5,5.437,16.217,16.217,0,0,0,.364,4c.876,3.858,3.076,3.913,3.076,3.913,2.267,4.237-3.05,7.745-3.05,7.745" transform="translate(50.968 77.108)" fill="#e4897b"/>
        <g id="Group_8583" data-name="Group 8583" transform="translate(159.471 239.525)" opacity="0.2" style="mix-blend-mode: normal;isolation: isolate">
          <g id="Group_8582" data-name="Group 8582">
            <g id="Group_8581" data-name="Group 8581" clip-path="url(#clip-path-42)">
              <path id="Path_21602" data-name="Path 21602" d="M120.547,170.271a16.276,16.276,0,0,0,.364,3.994c-5.128-.674-9.014-4.777-11.456-8.338a21.781,21.781,0,0,0-1.323-3.508l12.914,2.416a37.068,37.068,0,0,0-.5,5.437" transform="translate(-108.134 -162.417)"/>
            </g>
          </g>
        </g>
        <path id="Path_21603" data-name="Path 21603" d="M125.284,139.587c11.882,2.424,14.408,9.567,12.78,21.989-2.035,15.523-7.647,25.7-21.835,19.4-19.271-8.555-10.677-45.418,9.055-41.392" transform="translate(50.041 66.124)" fill="#e4897b"/>
        <path id="Path_21604" data-name="Path 21604" d="M122.742,152.884a25.592,25.592,0,0,0,2.451,5.634,3.335,3.335,0,0,1-3.407.7Z" transform="translate(57.818 72.582)" fill="#de5753"/>
        <path id="Path_21605" data-name="Path 21605" d="M120.468,145.746s-3.25-1.115-5.52.745" transform="translate(54.572 69.036)" fill="none" stroke="#263238" stroke-linecap="round" stroke-linejoin="round" stroke-width="0.725"/>
        <path id="Path_21606" data-name="Path 21606" d="M124.617,146.5a5.656,5.656,0,0,1,4.536,1.942" transform="translate(59.162 69.542)" fill="none" stroke="#263238" stroke-linecap="round" stroke-linejoin="round" stroke-width="0.725"/>
        <path id="Path_21607" data-name="Path 21607" d="M108.967,158.639s7.548-8.629,8.244-16.337c0,0,25.509-4.815,21.794,19.322,0,0,6.631-20.753-13.7-25.392-20.3-4.634-26.341,25.258-17.609,36.314,0,0-3.414-8.5,1.268-13.907" transform="translate(49.286 64.447)" fill="#263238"/>
        <path id="Path_21608" data-name="Path 21608" d="M111.014,155.145a5.322,5.322,0,0,0-4.64-5.908c-3.764-.35-7.061,6.852,1.727,10.537,1.261.529,2.264-.6,2.913-4.629" transform="translate(48.668 70.845)" fill="#e4897b"/>
        <path id="Path_21609" data-name="Path 21609" d="M124.059,161.179a30.58,30.58,0,0,0-2.792,3.457c-.237-.111-.475-.22-.706-.341-3.185-1.563-4.147-3.34-4.246-4.837a4.578,4.578,0,0,1,.417-2.125,4.441,4.441,0,0,1,.636-1.063c1.193,1.838,4.05,3.523,5.613,4.359.652.357,1.078.55,1.078.55" transform="translate(55.217 74.19)" fill="#263238"/>
        <path id="Path_21610" data-name="Path 21610" d="M122.846,160.629l-.849,1c-3-1.479-4.908-2.923-5.4-4.293a4.441,4.441,0,0,1,.636-1.063c1.195,1.838,4.051,3.523,5.614,4.359" transform="translate(55.354 74.19)" fill="#fff"/>
        <path id="Path_21611" data-name="Path 21611" d="M120.559,163.269c-3.185-1.563-4.146-3.34-4.246-4.836a11.4,11.4,0,0,1,3.193,2.436,4.278,4.278,0,0,1,1.053,2.4" transform="translate(55.22 75.217)" fill="#de5753"/>
        <path id="Path_21612" data-name="Path 21612" d="M126.486,142.723s-8.776,18.575-21.036,15.812,11.789-23.642,11.789-23.642,21.638-3.48,29.371,9.211-6.729,18.132-6.729,18.132,3.846-14.986-13.4-19.514" transform="translate(48.41 63.834)" fill="#263238"/>
        <path id="Path_21613" data-name="Path 21613" d="M122.557,139.1s-1.271,13.646-11.968,16.343" transform="translate(52.502 66.04)" fill="none" stroke="#263238" stroke-linecap="round" stroke-linejoin="round" stroke-width="0.5"/>
        <path id="Path_21614" data-name="Path 21614" d="M118.456,152.22c-.038.942-.578,1.687-1.206,1.662s-1.108-.811-1.069-1.753.577-1.687,1.206-1.661,1.108.81,1.069,1.752" transform="translate(55.156 71.435)" fill="#263238"/>
        <path id="Path_21615" data-name="Path 21615" d="M116.819,150.725,118.9,150s-1.09,1.686-2.082.723" transform="translate(55.46 71.214)" fill="#263238"/>
        <path id="Path_21616" data-name="Path 21616" d="M126.41,152.406c-.038.942-.578,1.687-1.206,1.662s-1.108-.81-1.071-1.753.578-1.686,1.208-1.661,1.108.81,1.069,1.752" transform="translate(58.931 71.523)" fill="#263238"/>
        <path id="Path_21617" data-name="Path 21617" d="M124.772,150.91l2.082-.723s-1.09,1.686-2.082.723" transform="translate(59.236 71.302)" fill="#263238"/>
        <path id="Path_21618" data-name="Path 21618" d="M136.885,193.619A1.09,1.09,0,0,0,138,194.857h12.333a1.435,1.435,0,0,0,1.4-1.239l2.753-24.341a1.235,1.235,0,0,0-1.113-1.407H141.035a1.6,1.6,0,0,0-1.4,1.407Z" transform="translate(64.983 79.697)" fill="#263238"/>
        <g id="Group_8586" data-name="Group 8586" transform="translate(203.189 247.568)" opacity="0.5">
          <g id="Group_8585" data-name="Group 8585">
            <g id="Group_8584" data-name="Group 8584" clip-path="url(#clip-path-43)">
              <path id="Path_21619" data-name="Path 21619" d="M140.579,169.119l-2.79,24.575a.934.934,0,0,0,.97,1.164h10.457c.7,0,1.986-.386,2.066-1.08l2.79-24.659c.078-.693-1.119-1.248-1.82-1.248H141.8a1.271,1.271,0,0,0-1.217,1.248" transform="translate(-137.778 -167.871)" fill="#fff"/>
            </g>
          </g>
        </g>
        <path id="Path_21620" data-name="Path 21620" d="M159.639,193.779l-6.428-10.907s.019-5.735-.543-7.085-6.859-4.393-8.1-3.939-1.687,11.705-.562,13.22,5.06,3.2,5.06,3.2l-.27,2.137,3.755,11.357Z" transform="translate(68.063 81.563)" fill="#e4897b"/>
        <path id="Path_21621" data-name="Path 21621" d="M160.1,186.553l-2.137-2.137-10.12,11.357,1.441,4.5Z" transform="translate(70.189 87.552)" fill="#abaec9"/>
        <path id="Path_21622" data-name="Path 21622" d="M121.744,170.387l-1.28,4.718,2.61,3.837,5.782,53.921,15.812-2.333c-1.085-42.017-1.544-42.238-7.568-57.358l-14.186-.985Z" transform="translate(57.191 80.892)" fill="#abaec9"/>
        <g id="Group_8589" data-name="Group 8589" transform="translate(177.655 251.279)" opacity="0.6" style="mix-blend-mode: normal;isolation: isolate">
          <g id="Group_8588" data-name="Group 8588">
            <g id="Group_8587" data-name="Group 8587" clip-path="url(#clip-path-44)">
              <path id="Path_21623" data-name="Path 21623" d="M121.744,170.387l-1.28,4.718,2.61,3.837,5.782,53.921,15.812-2.333c-1.085-42.017-1.544-42.238-7.568-57.358l-14.186-.985Z" transform="translate(-120.464 -170.387)" fill="#fff"/>
            </g>
          </g>
        </g>
        <path id="Path_21624" data-name="Path 21624" d="M109.315,170.387l14.051,5.884-3.454,5.868,3.408,55.2-21.3,6.225S86.564,203,94.486,178.942l13.953-4.032Z" transform="translate(43.785 80.892)" fill="#abaec9"/>
        <g id="Group_8592" data-name="Group 8592" transform="translate(136.014 251.28)" opacity="0.6" style="mix-blend-mode: normal;isolation: isolate">
          <g id="Group_8591" data-name="Group 8591">
            <g id="Group_8590" data-name="Group 8590" clip-path="url(#clip-path-45)">
              <path id="Path_21625" data-name="Path 21625" d="M122.773,228.6l.546,8.745-9.5,2.773-11.8,3.451a176.571,176.571,0,0,1-9.084-37.075c-1.136-9.6-1.106-19.5,1.549-27.548l13.951-4.026.87-4.527,14.054,5.884-3.451,5.87,1.357,21.915Z" transform="translate(-92.228 -170.388)" fill="#fff"/>
            </g>
          </g>
        </g>
        <g id="Group_8595" data-name="Group 8595" transform="translate(136.724 274.567)" opacity="0.2" style="mix-blend-mode: normal;isolation: isolate">
          <g id="Group_8594" data-name="Group 8594">
            <g id="Group_8593" data-name="Group 8593" clip-path="url(#clip-path-46)">
              <path id="Path_21626" data-name="Path 21626" d="M135.006,203.86s-5.294,7.713-12.462,17.24c-2.773,3.687-5.825,7.639-8.952,11.518l-11.8,3.451a176.571,176.571,0,0,1-9.084-37.075c5.781-5.8,12.86-12.816,12.86-12.816s3.244,10.028,1.814,18.744l13.656-8.362,4.247-2.6Z" transform="translate(-92.71 -186.178)"/>
            </g>
          </g>
        </g>
        <path id="Path_21627" data-name="Path 21627" d="M113.575,201.866,128.187,190.4s2.212-6.151,3.1-7.219,13.7-5.8,14.77-5.923.063,10.5-1.6,12.3-11.922,5.367-11.922,5.367l-15.3,14.41Z" transform="translate(53.92 84.154)" fill="#e4897b"/>
        <path id="Path_21628" data-name="Path 21628" d="M96.193,176.188c-8.58,4.3-12.4,52.762,2.5,61.131s37.168-29.445,37.168-29.445l-8.651-9.179s-18.139,15.187-20.329,13.792.3-16.237.3-16.237,2.551-4.491-2.817-11.55-8.176-8.512-8.176-8.512" transform="translate(42.079 83.646)" fill="#abaec9"/>
        <g id="Group_8598" data-name="Group 8598" transform="translate(130.712 259.834)" opacity="0.6" style="mix-blend-mode: normal;isolation: isolate">
          <g id="Group_8597" data-name="Group 8597">
            <g id="Group_8596" data-name="Group 8596" clip-path="url(#clip-path-47)">
              <path id="Path_21629" data-name="Path 21629" d="M96.193,176.188c-8.58,4.3-12.4,52.762,2.5,61.131s37.168-29.445,37.168-29.445l-8.651-9.179s-18.139,15.187-20.329,13.792.3-16.237.3-16.237,2.551-4.491-2.817-11.55-8.176-8.512-8.176-8.512" transform="translate(-88.633 -176.188)" fill="#fff"/>
            </g>
          </g>
        </g>
        <path id="Path_21630" data-name="Path 21630" d="M124.217,205.043l2.59-1.556-9.717-14.246-3.567,1.989Z" transform="translate(53.895 89.843)" fill="#abaec9"/>
      </g>
    </g>
  </g>
</svg>
