<svg id="checked" xmlns="http://www.w3.org/2000/svg" width="92" height="92" viewBox="0 0 92 92">
  <g id="Group_3408" data-name="Group 3408" transform="translate(21.844 11.559)">
    <g id="Group_3407" data-name="Group 3407">
      <path id="Path_14608" data-name="Path 14608" d="M189.093,65.346a3.466,3.466,0,0,0-4.9-.006l-41.6,41.487-15.008-16.3a3.467,3.467,0,1,0-5.1,4.7l17.452,18.954a3.463,3.463,0,0,0,2.477,1.118h.074a3.471,3.471,0,0,0,2.448-1.011L189.086,70.25A3.467,3.467,0,0,0,189.093,65.346Z" transform="translate(-121.568 -64.327)" fill="#219991"/>
    </g>
  </g>
  <g id="Group_3410" data-name="Group 3410">
    <g id="Group_3409" data-name="Group 3409">
      <path id="Path_14609" data-name="Path 14609" d="M88.533,42.533A3.467,3.467,0,0,0,85.065,46,39.065,39.065,0,1,1,46,6.935,3.467,3.467,0,1,0,46,0,46,46,0,1,0,92,46,3.467,3.467,0,0,0,88.533,42.533Z" fill="#219991"/>
    </g>
  </g>
</svg>
