<svg xmlns="http://www.w3.org/2000/svg" width="62.595" height="65.5" viewBox="0 0 62.595 65.5">
  <path id="calorie" d="M-2698.665-223.675a27.361,27.361,0,0,1-9.034-19.754,36.09,36.09,0,0,1,6.722-21.136,31.64,31.64,0,0,1,6.789-7.1,1.1,1.1,0,0,1,1.26.022.924.924,0,0,1,.313,1.076,12.552,12.552,0,0,0-.753,4.166,6.065,6.065,0,0,0,2.287,5.1,34.915,34.915,0,0,1,2.715-8.462c3.213-6.693,8.208-10.231,14.445-10.231a.957.957,0,0,1,.787,1.564,9.041,9.041,0,0,0-1.911,8.923,8.572,8.572,0,0,0,2.932,4.472,15.041,15.041,0,0,0,1.546-9.8,1.021,1.021,0,0,1,1.471-.989c15.59,7.266,23.493,18.166,23.493,32.4a28.014,28.014,0,0,1-8.3,19.343A30.826,30.826,0,0,1-2676.1-215,32.888,32.888,0,0,1-2698.665-223.675Zm-.657-39.765a34.289,34.289,0,0,0-6.33,20.011c0,14.377,13.53,26.521,29.546,26.521,17.022,0,28.455-13.713,28.455-26.521,0-12.938-6.96-22.985-20.7-29.887.4,6.323-2.442,9.943-2.574,10.107a1.068,1.068,0,0,1-1.142.333c-2.009-.624-4.046-3.138-4.954-6.115a10.867,10.867,0,0,1,1.021-8.944c-4.456.695-7.983,3.7-10.5,8.946a33.164,33.164,0,0,0-2.782,9.378,1.042,1.042,0,0,1-1.476.753,7.826,7.826,0,0,1-4.66-7.6,12.731,12.731,0,0,1,.113-1.671A34,34,0,0,0-2699.322-263.44Zm4.657,34.194a4.166,4.166,0,0,1-4.3-4.008v-19.334a4.166,4.166,0,0,1,4.3-4.008h26.816a.991.991,0,0,1,1.024.954.991.991,0,0,1-1.024.955h-26.816a2.182,2.182,0,0,0-2.252,2.1v19.334a2.181,2.181,0,0,0,2.252,2.1h37.12a2.181,2.181,0,0,0,2.252-2.1v-19.334a2.182,2.182,0,0,0-2.252-2.1h-5.391a.991.991,0,0,1-1.023-.955.991.991,0,0,1,1.023-.954h5.391a4.166,4.166,0,0,1,4.3,4.008v19.334a4.166,4.166,0,0,1-4.3,4.008Zm21-10.165c0-1.668,1.478-2.132,3.624-2.132h.638v-.188a1.255,1.255,0,0,0-1.369-1.334c-1.2,0-1.4.449-1.774.449-.451,0-.684-.508-.684-.928,0-.595,1.384-1.044,2.49-1.044,2.426,0,3.344,1.363,3.344,2.828v3.553c0,.333-.419.594-.98.594-.513,0-.9-.261-.9-.594v-.421a3.166,3.166,0,0,1-2.365,1.146A1.837,1.837,0,0,1-2673.661-239.411Zm2.007-.247a.74.74,0,0,0,.824.783,1.571,1.571,0,0,0,1.431-1.392v-.3h-.233C-2670.674-240.571-2671.654-240.469-2671.654-239.657Zm-8.573-.8v-1.16c0-1.668,1.011-2.974,3.361-2.974,1.462,0,2.489.566,2.489,1.131,0,.348-.311.913-.794.913-.342,0-.622-.4-1.54-.4-1.058,0-1.509.492-1.509,1.334v1.16c0,.841.451,1.334,1.525,1.334.933,0,1.167-.435,1.556-.435a.9.9,0,0,1,.856.885c0,.58-1.105,1.188-2.568,1.188C-2679.2-237.483-2680.226-238.758-2680.226-240.455Zm-2.194,2.712-2.1-2.886-.965.827v1.595c0,.29-.467.595-1.027.595-.575,0-.98-.305-.98-.595v-9.73c0-.348.405-.58.98-.58.56,0,1.027.232,1.027.58v6.076l2.925-2.567a.65.65,0,0,1,.4-.145,1.089,1.089,0,0,1,.98.9.477.477,0,0,1-.17.348l-1.837,1.551,2.288,3.046a.491.491,0,0,1,.108.305c0,.435-.653.928-1.135.928A.614.614,0,0,1-2682.42-237.743Zm16.663-.464v-9.73c0-.348.405-.58,1-.58.544,0,1.012.232,1.012.58v9.73c0,.29-.468.595-1.012.595C-2665.353-237.613-2665.758-237.918-2665.758-238.208Z" transform="translate(2707.949 280.25)" fill="#fff" stroke="#fff" stroke-width="0.5" opacity="0.7"/>
</svg>
