<svg xmlns="http://www.w3.org/2000/svg" width="69.615" height="66.667" viewBox="0 0 69.615 66.667">
  <path id="Union_5" data-name="Union 5" d="M-3120.627-144.334a1.368,1.368,0,0,1-.977-.407l-8.422-8.569-.025-.027a31.884,31.884,0,0,1-12.982-5.845,30.991,30.991,0,0,1-12.083-20.412l-.285-1.979a1.321,1.321,0,0,1,.262-.993,1.364,1.364,0,0,1,.9-.52l2.231-.3.031,0a32.7,32.7,0,0,1,4.148-.2,27.371,27.371,0,0,1-.553-11.213l.285-1.861a1.358,1.358,0,0,1,1.547-1.124l2.128.315.03,0a30.8,30.8,0,0,1,13.277,5.652,29.2,29.2,0,0,1,9.2-12.235c.12-.1.255-.206.311-.255a1.367,1.367,0,0,1,1.008-.431,1.37,1.37,0,0,1,1.061.511c.1.111.494.42.81.669a25.375,25.375,0,0,1,8.785,11.627,30.822,30.822,0,0,1,13.123-5.538l.03,0,2.128-.315a1.357,1.357,0,0,1,1.547,1.124l.285,1.861a26.647,26.647,0,0,1-.586,11.214,32.74,32.74,0,0,1,4.181.2l.031,0,2.231.3a1.361,1.361,0,0,1,.9.519,1.326,1.326,0,0,1,.262.994l-.285,1.979a31.029,31.029,0,0,1-2.7,8.955,1.369,1.369,0,0,1-1.808.643,1.329,1.329,0,0,1-.654-1.78,28.37,28.37,0,0,0,2.473-8.193l.093-.649-.863-.116A29.246,29.246,0,0,0-3110.545-175c-4.208,3.184-7.075,8.955-8.724,17.592l9.346-8.025a1.376,1.376,0,0,1,1.918.128,1.323,1.323,0,0,1-.131,1.888l-9.357,8.035a29.151,29.151,0,0,0,17.654-5.918,29.247,29.247,0,0,0,2.417-2.042,1.375,1.375,0,0,1,1.923.041,1.323,1.323,0,0,1-.042,1.892,31.944,31.944,0,0,1-2.641,2.231,31.843,31.843,0,0,1-13.074,5.867l-.018.018-8.375,8.554a1.368,1.368,0,0,1-.978.41Zm0-3.264,5.059-5.168q-.955.057-1.917.057-1.555,0-3.12-.149c-1.038.1-2.075.148-3.106.148q-1,0-2-.062Zm-31.025-33.136-.863.117.094.649a28.333,28.333,0,0,0,11.047,18.665,29.2,29.2,0,0,0,17.654,5.918l-9.356-8.034a1.323,1.323,0,0,1-.131-1.888,1.376,1.376,0,0,1,1.918-.129l9.267,7.957c.012-.062.023-.124.035-.187-1.636-8.485-4.477-14.158-8.679-17.338a29.18,29.18,0,0,0-17.657-5.917A29.978,29.978,0,0,0-3151.654-180.734Zm5.961-13.673a24.848,24.848,0,0,0,.728,10.985,31.875,31.875,0,0,1,15.953,6.3,22.576,22.576,0,0,1,7.024,9.689,26.064,26.064,0,0,0-5.241-16.729,27.7,27.7,0,0,0-17.614-10.667l-.768-.114Zm49.322-.425a27.689,27.689,0,0,0-17.613,10.667,26.062,26.062,0,0,0-5.241,16.726,22.8,22.8,0,0,1,7.022-9.686,31.879,31.879,0,0,1,15.913-6.293,24.216,24.216,0,0,0,.77-10.989l-.083-.539Zm-32.521,4.845a30.072,30.072,0,0,1,3.852,4.236,29.12,29.12,0,0,1,4.433,8.561,29.115,29.115,0,0,1,4.433-8.561,29.935,29.935,0,0,1,3.982-4.352,22.4,22.4,0,0,0-8.234-11.366l-.2-.158A26.068,26.068,0,0,0-3128.892-189.987Zm34.538,23.7A1.348,1.348,0,0,1-3093-167.63h0a1.349,1.349,0,0,1,1.36,1.338,1.349,1.349,0,0,1-1.36,1.338A1.349,1.349,0,0,1-3094.354-166.292Zm-14.856-31.542a1.323,1.323,0,0,1,0-1.892l2.294-2.258a1.376,1.376,0,0,1,1.924,0,1.322,1.322,0,0,1,0,1.892l-2.294,2.258a1.367,1.367,0,0,1-.962.392A1.367,1.367,0,0,1-3109.21-197.834Zm-24.715,0-2.3-2.258a1.322,1.322,0,0,1,0-1.892,1.374,1.374,0,0,1,1.922,0l2.3,2.258a1.323,1.323,0,0,1,0,1.892,1.367,1.367,0,0,1-.961.393A1.364,1.364,0,0,1-3133.926-197.833Zm41.894-.67a1.323,1.323,0,0,1,0-1.892l.942-.927a1.375,1.375,0,0,1,1.923,0,1.321,1.321,0,0,1,0,1.892l-.942.927a1.368,1.368,0,0,1-.962.392A1.368,1.368,0,0,1-3092.031-198.5Zm-58.658,0-.942-.927a1.322,1.322,0,0,1,0-1.892,1.374,1.374,0,0,1,1.922,0l.943.927a1.323,1.323,0,0,1,0,1.892,1.368,1.368,0,0,1-.961.392A1.366,1.366,0,0,1-3150.69-198.5Zm28.723-9.43v-1.729a1.349,1.349,0,0,1,1.36-1.339,1.349,1.349,0,0,1,1.359,1.339v1.729a1.349,1.349,0,0,1-1.359,1.338A1.349,1.349,0,0,1-3121.967-207.933Z" transform="translate(3155.415 211)" fill="#fff" opacity="0.7"/>
</svg>
