<svg xmlns="http://www.w3.org/2000/svg" width="64.052" height="87.555" viewBox="0 0 64.052 87.555">
  <path id="Path_14279" data-name="Path 14279" d="M108.88,63.377c4.557,1.561,8.581,2.555,14.362,4.331C121.021,95.772,94.484,84.627,108.88,63.377ZM132.573,37.6c-.3-8.426-1.784-19.48-13.606-17.748-5.542,1.446-9.637,7.533-11.562,18.033a50.427,50.427,0,0,0,.8,18.736c1.139,3.423.752,3.213,1.976,3.863,4.739,1.068,9.43,2.249,14.208,3.454C129.248,60.509,133.234,42.313,132.573,37.6ZM96.09,36.951a50.461,50.461,0,0,0,.8-18.736C94.97,7.714,90.875,1.627,85.332.181,73.51-1.551,72.026,9.5,71.726,17.929c-.661,4.715,3.326,22.912,8.18,26.339,4.777-1.205,9.468-2.386,14.208-3.454C95.338,40.164,94.95,40.374,96.09,36.951ZM81.058,48.041c2.22,28.063,28.757,16.918,14.361-4.331C90.862,45.27,86.839,46.264,81.058,48.041Z" transform="translate(-70.124 1.505)" fill="none" stroke="#fff" stroke-width="3" opacity="0.55"/>
</svg>
