<svg id="email-img" xmlns="http://www.w3.org/2000/svg" xmlns:xlink="http://www.w3.org/1999/xlink" width="242.635" height="214.287" viewBox="0 0 242.635 214.287">
  <defs>
    <clipPath id="clip-path">
      <rect id="Rectangle_5211" data-name="Rectangle 5211" width="242.635" height="214.287" fill="none"/>
    </clipPath>
    <clipPath id="clip-path-3">
      <rect id="Rectangle_5207" data-name="Rectangle 5207" width="202.626" height="178.265" fill="none"/>
    </clipPath>
    <clipPath id="clip-path-4">
      <rect id="Rectangle_5208" data-name="Rectangle 5208" width="117.899" height="111.945" fill="none"/>
    </clipPath>
    <clipPath id="clip-path-5">
      <rect id="Rectangle_5209" data-name="Rectangle 5209" width="117.9" height="43.02" fill="none"/>
    </clipPath>
  </defs>
  <g id="Group_7999" data-name="Group 7999" clip-path="url(#clip-path)">
    <g id="Group_7998" data-name="Group 7998">
      <g id="Group_7997" data-name="Group 7997" clip-path="url(#clip-path)">
        <g id="Group_7990" data-name="Group 7990" transform="translate(14.817 31.681)" opacity="0.58">
          <g id="Group_7989" data-name="Group 7989">
            <g id="Group_7988" data-name="Group 7988" clip-path="url(#clip-path-3)">
              <path id="Path_21421" data-name="Path 21421" d="M54.434,207.5S3.085,190,15.651,155.77s29.25-49.917,11.7-78.041S49.472,28.8,108.827,29.238,264.154,90.98,188.327,207.5Z" transform="translate(-13.671 -29.231)" fill="#d4d2de"/>
            </g>
          </g>
        </g>
        <path id="Path_21422" data-name="Path 21422" d="M58.005,193.268l9.625-15.136s-14.4,12.728-14.4,12.49-10.96-24.5-10.96-24.5,5.55,22.75,5.391,26.092c0,0-5.557-5.058-8.188-5.472s3.615,4.75,3.608,7.78H57.431Z" transform="translate(3.255 13.924)" fill="#50c9b5"/>
        <path id="Path_21423" data-name="Path 21423" d="M52.353,98.029l-1.413-4.987L61.5,87.3l9.515,32a25.966,25.966,0,0,0,1.4,3.906,2.38,2.38,0,0,0,1.244,1.19,1.612,1.612,0,0,0,1.382-.078q2.162-1.175,4.049-5.856a27.846,27.846,0,0,0,1.786-10.925,26.672,26.672,0,0,0-9.972-20.059,23.914,23.914,0,0,0-9.266-4.5,27.756,27.756,0,0,0-11.157-.261A39.608,39.608,0,0,0,38.06,87.186a45.55,45.55,0,0,0-11.041,8.2,34.476,34.476,0,0,0-6.909,10.083,31.166,31.166,0,0,0-2.609,11.6,38.857,38.857,0,0,0,1.2,11.068,45.983,45.983,0,0,0,4.223,10.82,32.632,32.632,0,0,0,9.583,11.1A29.012,29.012,0,0,0,45.667,155.3a37.239,37.239,0,0,0,15.6-1.381,60.313,60.313,0,0,0,17.086-8.433A45.192,45.192,0,0,0,89.076,135.3a28.1,28.1,0,0,0,4.918-11.694l8.523-4.633a32.25,32.25,0,0,1-1.267,10.591,34.99,34.99,0,0,1-4.745,9.914,46.329,46.329,0,0,1-8.141,8.962,65.428,65.428,0,0,1-11.473,7.793,64.638,64.638,0,0,1-19.129,7.056,41.383,41.383,0,0,1-17.313-.231A35.923,35.923,0,0,1,26,155.879a44.362,44.362,0,0,1-10.865-13.4A50.193,50.193,0,0,1,9.314,125a41.669,41.669,0,0,1,9.591-32.95A51.6,51.6,0,0,1,34.217,79.738a47.743,47.743,0,0,1,15.154-5.363,35.172,35.172,0,0,1,14.333.477,31.651,31.651,0,0,1,12.267,6.112,36.829,36.829,0,0,1,9.223,11.291,34.445,34.445,0,0,1,3.311,23.783,30.421,30.421,0,0,1-4.9,11.061,26.568,26.568,0,0,1-9.15,8.06,11.006,11.006,0,0,1-5.64,1.639,6.178,6.178,0,0,1-4.3-2.195,17.666,17.666,0,0,1-5.643,8.692,16.99,16.99,0,0,1-9.221,3.923A16.586,16.586,0,0,1,39.6,145.088a21.144,21.144,0,0,1-8.148-8.737,34.4,34.4,0,0,1-4.021-13.834A29.061,29.061,0,0,1,29.7,108.375a20.326,20.326,0,0,1,9.154-10.006q7.2-3.916,13.5-.34m-10.62,32.628q2.611,4.8,6,6.275a7.213,7.213,0,0,0,6.636-.289,10.122,10.122,0,0,0,4.99-6.6,22.17,22.17,0,0,0,.22-9.944,32.75,32.75,0,0,0-3.339-9.668,15.432,15.432,0,0,0-2.577-3.551,10.342,10.342,0,0,0-3.1-2.177,7.37,7.37,0,0,0-3.415-.656,8.2,8.2,0,0,0-3.5,1.046,10.107,10.107,0,0,0-4.852,6.19,20.38,20.38,0,0,0-.47,9.482,31.246,31.246,0,0,0,3.406,9.892" transform="translate(0.748 6.191)" fill="#a3b2f8"/>
        <path id="Path_21424" data-name="Path 21424" d="M158.843,159.865l-4.086,6.264a8.335,8.335,0,0,0,12.129-.7c.231.757.483,1.591.753,2.477.951,3.122,2.091,6.878,3.041,10.033-2.411,10.179-4.505,19.132-4.505,19.517,0,.913,16.327,0,16.327,0s-.266-4.531-.62-10.747l5.379-5.81.97-1.045,0-.007a5.51,5.51,0,0,0,6.411,1.155l-1.967-3.949,4.947.119a5.514,5.514,0,1,0-10.562.809c-.127.088-.257.179-.392.27-1.4.96-3.314,2.2-5.077,3.326-.283-5.067-.584-10.65-.835-15.622-.094-1.883-.182-3.681-.257-5.329A13.438,13.438,0,0,0,200,151.4l-10.562-2.016,7.527-9.41A13.43,13.43,0,0,0,175.8,156.447c-.2.815-.4,1.676-.613,2.571-.773,3.23-1.652,6.917-2.555,10.7-1.191-1.983-2.437-4.05-3.5-5.8-.254-.423-.5-.825-.73-1.205a8.336,8.336,0,1,0-16.2-3.463Z" transform="translate(12.757 11.344)" fill="#50c9b5"/>
        <path id="Path_21425" data-name="Path 21425" d="M173.411,157.387a31.243,31.243,0,0,0,5.57,6.94c-.094-1.883-.182-3.681-.257-5.33a16.89,16.89,0,0,1-4.7-4.18c-.2.815-.4,1.675-.613,2.571" transform="translate(14.535 12.976)" fill="#75dbbb"/>
        <path id="Path_21426" data-name="Path 21426" d="M165.751,163.315c.231.757.483,1.59.753,2.477A12.084,12.084,0,0,0,168,161.8c-.253-.422-.5-.824-.729-1.2a9.79,9.79,0,0,1-1.516,2.717" transform="translate(13.893 13.461)" fill="#75dbbb"/>
        <path id="Path_21427" data-name="Path 21427" d="M184,174.956c.111.7.366,1.792.591,2.649l.971-1.046,0-.007a8.581,8.581,0,0,1-1.173-1.866c-.126.088-.256.179-.392.27" transform="translate(15.423 14.642)" fill="#75dbbb"/>
        <path id="Path_21428" data-name="Path 21428" d="M160.515,79.491a.231.231,0,0,1-.186-.093.233.233,0,0,1,.046-.326c.2-.152.409-.3.616-.452a.234.234,0,0,1,.271.38c-.2.145-.408.295-.606.444a.231.231,0,0,1-.14.047" transform="translate(13.435 6.586)" fill="#097292"/>
        <path id="Path_21429" data-name="Path 21429" d="M136.164,133.692a.213.213,0,0,1-.073-.012.232.232,0,0,1-.15-.294c.155-.473.32-.956.49-1.435a.233.233,0,0,1,.439.155c-.168.477-.332.956-.486,1.425a.232.232,0,0,1-.221.16m1.008-2.848a.223.223,0,0,1-.083-.015.233.233,0,0,1-.134-.3c.178-.469.364-.944.554-1.41a.233.233,0,1,1,.431.176c-.187.463-.373.934-.549,1.4a.234.234,0,0,1-.218.151m1.135-2.8a.232.232,0,0,1-.214-.325c.2-.463.408-.929.617-1.384a.233.233,0,1,1,.424.2c-.208.452-.414.915-.612,1.373a.232.232,0,0,1-.215.141m1.26-2.743a.227.227,0,0,1-.1-.024.233.233,0,0,1-.107-.312c.221-.454.45-.909.68-1.354a.233.233,0,0,1,.414.215c-.228.44-.454.892-.674,1.344a.235.235,0,0,1-.21.131m39.679-.332h-.009c-.494-.017-1.006-.054-1.522-.109a.233.233,0,1,1,.05-.464c.5.054,1,.09,1.488.106a.234.234,0,0,1-.008.467m1.508-.01a.233.233,0,0,1-.012-.466,14.824,14.824,0,0,0,1.478-.144.233.233,0,0,1,.068.462c-.489.073-1,.122-1.524.148h-.011m-4.507-.306a.237.237,0,0,1-.039,0c-.489-.082-.991-.182-1.491-.3a.233.233,0,0,1,.1-.455c.492.112.986.21,1.466.292a.233.233,0,0,1-.039.463m7.483-.15a.233.233,0,0,1-.062-.457,10.783,10.783,0,0,0,1.392-.486.233.233,0,1,1,.184.428,11.18,11.18,0,0,1-1.452.507.253.253,0,0,1-.062.008m-10.423-.515a.21.21,0,0,1-.063-.009c-.482-.134-.971-.284-1.452-.443a.233.233,0,1,1,.146-.443c.475.157.956.3,1.432.438a.233.233,0,0,1-.063.457m13.177-.684a.233.233,0,0,1-.126-.43,8.589,8.589,0,0,0,1.165-.889.233.233,0,1,1,.314.345,9.038,9.038,0,0,1-1.229.938.231.231,0,0,1-.125.037m-16.039-.264a.223.223,0,0,1-.083-.015c-.477-.183-.951-.377-1.406-.578a.233.233,0,0,1,.188-.427c.449.2.915.389,1.385.569a.233.233,0,0,1-.083.451m-29.491-.422a.231.231,0,0,1-.112-.028.233.233,0,0,1-.092-.316c.243-.444.494-.888.745-1.319a.233.233,0,1,1,.4.234c-.249.428-.5.868-.739,1.309a.233.233,0,0,1-.2.12m26.731-.794a.229.229,0,0,1-.105-.026l-.177-.09c-.387-.2-.777-.416-1.159-.642a.233.233,0,0,1,.236-.4c.375.221.757.432,1.137.63l.172.089a.233.233,0,0,1-.105.441m21.018-.538a.234.234,0,0,1-.184-.377,9.444,9.444,0,0,0,.81-1.226.233.233,0,0,1,.409.225,9.919,9.919,0,0,1-.851,1.288.232.232,0,0,1-.183.09m-23.615-.993a.232.232,0,0,1-.13-.04c-.416-.28-.831-.579-1.236-.887A.233.233,0,1,1,164,119c.4.3.806.6,1.214.87a.233.233,0,0,1,.063.324.23.23,0,0,1-.193.1m-22.616-.283a.23.23,0,0,1-.122-.036.233.233,0,0,1-.076-.321c.267-.431.54-.862.813-1.278a.233.233,0,1,1,.39.256c-.271.413-.542.84-.806,1.267a.234.234,0,0,1-.2.112m47.7-1.347a.223.223,0,0,1-.083-.015.234.234,0,0,1-.134-.3,11.994,11.994,0,0,0,.442-1.41.233.233,0,1,1,.452.112,12.2,12.2,0,0,1-.458,1.465.232.232,0,0,1-.218.15m-27.478-.2a.229.229,0,0,1-.152-.056c-.383-.326-.763-.67-1.129-1.02a.233.233,0,1,1,.322-.337c.361.344.734.682,1.11,1a.233.233,0,0,1-.151.411m-18.565-.98a.237.237,0,0,1-.133-.042.234.234,0,0,1-.057-.325c.289-.414.586-.828.884-1.23a.233.233,0,1,1,.375.277c-.3.4-.591.809-.877,1.219a.235.235,0,0,1-.192.1m16.38-1.1a.23.23,0,0,1-.169-.073c-.347-.366-.688-.748-1.016-1.133a.233.233,0,0,1,.355-.3c.322.379.658.754,1,1.114a.232.232,0,0,1-.169.393m30.389-.643h-.03a.233.233,0,0,1-.2-.261,13.883,13.883,0,0,0,.108-1.478.233.233,0,0,1,.233-.229h0a.234.234,0,0,1,.229.238,14.259,14.259,0,0,1-.112,1.528.233.233,0,0,1-.231.2m-44.971-.68a.232.232,0,0,1-.182-.377c.314-.4.637-.792.959-1.174a.233.233,0,1,1,.357.3c-.32.377-.639.768-.951,1.162a.233.233,0,0,1-.183.088m12.628-.974a.233.233,0,0,1-.185-.092c-.307-.4-.607-.814-.893-1.23a.233.233,0,1,1,.384-.264c.282.41.578.817.879,1.212a.234.234,0,0,1-.184.375m-10.68-1.329a.232.232,0,0,1-.172-.389c.339-.375.688-.747,1.037-1.107a.233.233,0,0,1,.335.325c-.346.355-.69.723-1.026,1.095a.233.233,0,0,1-.173.076m43.084-.026a.233.233,0,0,1-.232-.215,14.2,14.2,0,0,0-.2-1.47.233.233,0,0,1,.458-.087,15.106,15.106,0,0,1,.207,1.517.233.233,0,0,1-.214.253h-.02m-34.113-1.13a.232.232,0,0,1-.2-.112c-.266-.43-.521-.874-.762-1.315a.233.233,0,1,1,.409-.223c.237.435.49.87.75,1.294a.233.233,0,0,1-.076.321.228.228,0,0,1-.122.035m-6.868-1.006a.232.232,0,0,1-.16-.4c.366-.35.741-.7,1.116-1.026a.233.233,0,1,1,.309.349c-.37.327-.741.669-1.1,1.014a.231.231,0,0,1-.161.064m40.42-.822a.233.233,0,0,1-.223-.166,13.058,13.058,0,0,0-.509-1.389.233.233,0,0,1,.428-.186,13.769,13.769,0,0,1,.528,1.44.235.235,0,0,1-.156.292.246.246,0,0,1-.067.01m-34.994-.82a.233.233,0,0,1-.21-.132c-.219-.456-.427-.923-.62-1.388a.233.233,0,0,1,.43-.179c.19.457.395.917.61,1.366a.234.234,0,0,1-.109.311.224.224,0,0,1-.1.023m-3.166-.353a.233.233,0,0,1-.147-.414c.392-.32.8-.633,1.2-.933a.233.233,0,0,1,.28.374c-.4.3-.794.606-1.181.921a.236.236,0,0,1-.147.052m36.957-1.585a.232.232,0,0,1-.2-.114c-.138-.232-.284-.458-.435-.674-.128-.183-.263-.364-.4-.538a.233.233,0,1,1,.364-.292c.145.181.287.371.422.563.157.224.31.461.453.7a.233.233,0,0,1-.081.32.225.225,0,0,1-.119.033M154.65,106.8a.233.233,0,0,1-.131-.426c.418-.286.846-.564,1.273-.827a.233.233,0,0,1,.245.4c-.421.26-.843.534-1.256.815a.234.234,0,0,1-.131.041m-.4-.629a.232.232,0,0,1-.22-.156c-.168-.479-.324-.966-.464-1.448a.234.234,0,1,1,.449-.13c.137.475.29.953.455,1.423a.233.233,0,0,1-.142.3.245.245,0,0,1-.078.013m2.969-.955a.233.233,0,0,1-.113-.437c.442-.246.894-.483,1.344-.706a.233.233,0,0,1,.207.417c-.443.22-.889.454-1.324.7a.225.225,0,0,1-.114.029m30.1-.541a.23.23,0,0,1-.159-.063,10.8,10.8,0,0,0-1.145-.929.233.233,0,1,1,.269-.382,11.365,11.365,0,0,1,1.194.97.233.233,0,0,1-.159.4m-27.4-.8a.234.234,0,0,1-.093-.448c.462-.2.935-.395,1.406-.573a.233.233,0,0,1,.166.436c-.464.177-.93.366-1.384.566a.245.245,0,0,1-.094.02m-6.505-.6a.232.232,0,0,1-.227-.182c-.113-.5-.211-1-.293-1.493a.233.233,0,0,1,.461-.076c.079.487.176.98.286,1.466a.232.232,0,0,1-.176.279.213.213,0,0,1-.052.007m31.45-.34a.234.234,0,0,1-.109-.027,13.889,13.889,0,0,0-1.343-.625.233.233,0,1,1,.174-.432,14.059,14.059,0,0,1,1.388.647.233.233,0,0,1-.111.438m-22.129-.128a.233.233,0,0,1-.073-.455c.253-.081.507-.161.759-.236.044-.013.286-.085.7-.193a.233.233,0,1,1,.118.451c-.41.107-.644.177-.687.19-.247.074-.5.152-.747.233a.246.246,0,0,1-.073.011m2.914-.779a.233.233,0,0,1-.05-.461c.487-.109.986-.212,1.484-.308a.233.233,0,0,1,.088.458c-.493.094-.987.2-1.471.3a.262.262,0,0,1-.051.005m16.427-.223a.246.246,0,0,1-.067-.01c-.461-.138-.945-.261-1.443-.366a.233.233,0,0,1,.1-.456c.508.108,1.006.234,1.478.375a.234.234,0,0,1-.066.457m-13.463-.344a.233.233,0,0,1-.037-.463c.5-.08,1.006-.153,1.5-.216a.233.233,0,0,1,.059.463c-.49.062-.99.133-1.486.212a.224.224,0,0,1-.037,0m10.518-.288a.185.185,0,0,1-.034,0c-.478-.067-.978-.122-1.485-.164a.233.233,0,0,1,.038-.465c.516.042,1.025.1,1.513.167a.234.234,0,0,1-.033.465m-7.526-.092a.233.233,0,0,1-.022-.465c.509-.048,1.019-.086,1.513-.114a.233.233,0,0,1,.026.466c-.489.027-.992.065-1.5.112H171.6m4.521-.157h-.008c-.488-.015-1-.018-1.5-.01a.234.234,0,0,1-.007-.467c.507-.008,1.024,0,1.518.011a.233.233,0,0,1-.007.466m-23.2-.622a.234.234,0,0,1-.232-.21c-.051-.505-.087-1.016-.105-1.518a.233.233,0,1,1,.466-.017c.018.492.053.994.1,1.489a.233.233,0,0,1-.208.256h-.024m-.111-3.012H152.8a.234.234,0,0,1-.227-.241c.014-.507.047-1.019.1-1.521a.233.233,0,0,1,.464.046c-.048.491-.079.992-.093,1.489a.233.233,0,0,1-.233.227m.29-3a.234.234,0,0,1-.23-.271c.083-.5.185-1,.3-1.493a.233.233,0,0,1,.454.108c-.116.481-.216.972-.3,1.461a.232.232,0,0,1-.23.2m.7-2.931a.221.221,0,0,1-.069-.011.231.231,0,0,1-.153-.292c.152-.482.322-.966.507-1.437a.234.234,0,0,1,.435.171c-.182.461-.349.934-.5,1.406a.233.233,0,0,1-.222.163m1.1-2.8a.234.234,0,0,1-.21-.334c.216-.454.451-.909.7-1.353a.234.234,0,0,1,.408.229c-.244.434-.475.879-.686,1.324a.233.233,0,0,1-.21.133m1.473-2.629a.236.236,0,0,1-.127-.037.233.233,0,0,1-.068-.323c.273-.421.566-.841.87-1.25a.233.233,0,0,1,.374.279c-.3.4-.585.813-.854,1.226a.232.232,0,0,1-.2.105m1.8-2.418a.234.234,0,0,1-.179-.384c.324-.384.665-.765,1.016-1.134a.233.233,0,0,1,.338.321c-.344.363-.68.737-1,1.114a.232.232,0,0,1-.178.082m2.074-2.187a.233.233,0,0,1-.159-.4c.365-.345.748-.684,1.136-1.011a.233.233,0,0,1,.3.357c-.382.322-.758.656-1.117.995a.23.23,0,0,1-.159.063" transform="translate(11.393 6.693)" fill="#097292"/>
        <path id="Path_21430" data-name="Path 21430" d="M135.559,131.6a.267.267,0,0,1-.064-.009.233.233,0,0,1-.16-.288c.053-.187.124-.434.212-.73a.233.233,0,0,1,.447.133c-.088.295-.157.538-.21.724a.233.233,0,0,1-.224.17" transform="translate(11.343 10.931)" fill="#097292"/>
        <path id="Path_21431" data-name="Path 21431" d="M202.918,194.045c0,2.4-38.823,4.342-86.714,4.342s-86.714-1.944-86.714-4.342S68.313,189.7,116.2,189.7s86.714,1.944,86.714,4.342" transform="translate(2.472 15.901)" fill="#afafaf"/>
        <g id="Group_7993" data-name="Group 7993" transform="translate(60.771 97.264)" opacity="0.2" style="mix-blend-mode: multiply;isolation: isolate">
          <g id="Group_7992" data-name="Group 7992">
            <g id="Group_7991" data-name="Group 7991" clip-path="url(#clip-path-4)">
              <path id="Path_21432" data-name="Path 21432" d="M173.964,135.307a1.2,1.2,0,0,0-.011-.165,1.668,1.668,0,0,0-.022-.193c-.007-.053-.014-.107-.025-.16s-.017-.1-.028-.158-.029-.132-.047-.2a3.78,3.78,0,0,0-.126-.4l0-.011c-.033-.082-.064-.165-.1-.244a4.156,4.156,0,0,0-.469-.822c-.042-.062-.089-.122-.139-.183a3.958,3.958,0,0,0-.344-.379c-.039-.039-.079-.078-.121-.114a2.2,2.2,0,0,0-.168-.146.157.157,0,0,0-.029-.022l-.229-.176h0l-6.6-5.006V105.537a7.906,7.906,0,0,0-7.906-7.905H126.918l-9.191-6.978a4.47,4.47,0,0,0-5.411,0l-9.191,6.978H70.988a7.906,7.906,0,0,0-7.906,7.905v22.49l-5.143,3.9-.229.176a.121.121,0,0,0-.028.022,4.4,4.4,0,0,0-1.609,3.408V197.27c0,.066,0,.132.005.2v.047c0,.024,0,.049.005.073,0,.055.009.112.015.167v.022h0c0,.02.007.038.009.057.005.043.011.088.017.131l.007.047c0,.011,0,.025.008.036s.007.031.01.047c.009.049.018.1.029.145l.013.056c.015.061.03.12.048.181l.008.028.01.033q.011.042.026.085c0,.016.011.031.016.048.03.093.065.185.1.276l.007.017v0c.028.066.056.131.088.2.014.031.03.062.046.093s.042.082.063.122a.218.218,0,0,0,.015.027l.027.048.034.057.05.083.057.089.085.125c.008.01.014.021.021.03l0,.005.011.014a4.444,4.444,0,0,0,.383.461h0l.105.107.042.04c.043.041.088.081.132.121l.076.065c.036.03.073.06.109.089l.089.069c.057.043.116.086.177.126.037.025.075.049.113.073s.062.039.094.057l.08.049.051.029c.015.009.03.015.046.023l.044.023c.036.018.072.038.108.055.069.034.139.066.21.1l.057.023c.062.025.124.049.186.07l.027.011.06.018c.07.024.142.046.214.065l.03.009.125.031.064.015.015,0c.08.017.163.034.246.044l.017,0,.08.011.014,0,.021,0c.046.005.091.012.137.016a.211.211,0,0,1,.026,0l.038,0,.073,0c.1.007.192.011.289.011H169.554c.1,0,.2,0,.3-.011l.1-.006c.018,0,.033,0,.047,0l.078-.011c.015,0,.029,0,.043,0l.09-.011s.007,0,.014,0l.054-.011.1-.017.046-.008.016,0c.086-.017.17-.038.255-.061l.035-.01c.087-.024.172-.051.257-.08l.046-.013c.014,0,.025-.011.039-.014l.025-.011c.079-.029.156-.062.232-.1.037-.015.074-.031.109-.049.086-.04.17-.085.253-.13l.011-.005c.026-.013.052-.029.078-.046l.079-.047.007,0a1.019,1.019,0,0,0,.1-.061c.01-.005.02-.013.029-.02l.109-.076c.031-.022.063-.044.094-.065a.083.083,0,0,1,.022-.018l.025-.021c.063-.048.124-.1.183-.148l0,0c.008-.008.018-.014.026-.022l.008-.008c.039-.035.077-.068.115-.1.009-.009.018-.016.027-.024l.034-.035a4.529,4.529,0,0,0,.38-.422l.068-.087.009-.012.049-.064c.014-.024.03-.047.047-.069.054-.079.106-.16.156-.243l.037-.064.054-.093c.017-.031.036-.067.05-.1s.026-.051.038-.077l.014-.027.085-.185a.209.209,0,0,1,.01-.028c.011-.031.025-.063.039-.1v-.005a.55.55,0,0,0,.024-.061l.016-.044,0-.008,0-.009c.005-.014.01-.029.015-.044s.017-.05.025-.075l.026-.083.01-.033a.067.067,0,0,0,.008-.025c0-.013.007-.028.011-.042.013-.048.025-.1.037-.146l.005-.022v0c.007-.031.015-.063.022-.1l0-.009,0-.012c0-.023.008-.047.012-.069s.014-.065.018-.1l0-.025.005-.034c0-.024.007-.049.009-.074s0-.026.005-.039l.01-.059c0-.014,0-.028,0-.042s0-.048,0-.072c.011-.121.017-.244.017-.369V135.536c0-.075,0-.154-.008-.229" transform="translate(-56.071 -89.742)" fill="#4076a3"/>
            </g>
          </g>
        </g>
        <path id="Path_21433" data-name="Path 21433" d="M177.31,132.335V194.07c0,.075,0,.15-.008.23,0,.035,0,.07-.007.106a.919.919,0,0,1-.008.105c0,.014,0,.027,0,.041s-.008.048-.011.068c0,.053-.014.108-.022.161s-.017.1-.028.153a.486.486,0,0,1-.018.076.154.154,0,0,1-.011.057.53.53,0,0,1-.017.075c-.011.046-.025.092-.036.135a.052.052,0,0,1-.008.025c-.025.08-.047.157-.075.233l0,.01c-.014.041-.029.079-.043.116s-.028.068-.039.1a.173.173,0,0,0-.011.03c-.043.1-.086.2-.135.288-.015.028-.033.065-.051.1s-.036.061-.053.093-.033.061-.054.09c-.036.061-.075.121-.114.179-.025.039-.05.07-.072.107-.061.079-.118.157-.182.232-.047.057-.093.111-.14.163s-.1.1-.147.152c-.021.025-.046.047-.07.072a.618.618,0,0,1-.068.062c-.025.025-.054.05-.082.076a.15.15,0,0,0-.025.021c-.068.062-.14.117-.211.171a.283.283,0,0,0-.022.018c-.056.039-.114.081-.174.121-.022.015-.04.029-.057.039-.033.022-.065.043-.1.061a.561.561,0,0,1-.079.047.874.874,0,0,1-.086.05,3.9,3.9,0,0,1-.63.289c-.014,0-.025.012-.039.015s-.033.011-.047.014a1.608,1.608,0,0,1-.154.05c-.089.029-.179.05-.268.072l-.14.034c-.028.007-.061.01-.089.014s-.076.013-.112.021l-.014,0-.089.011c-.015,0-.029,0-.043,0l-.079.01c-.014,0-.028,0-.047,0l-.164.01c-.079.005-.158.008-.236.008H63.827c-.078,0-.157,0-.235-.008-.054,0-.112-.007-.165-.01s-.121-.012-.182-.022a1,1,0,0,1-.1-.015c-.086-.011-.171-.028-.254-.046a.576.576,0,0,1-.072-.018c-.09-.022-.179-.042-.269-.072-.053-.018-.1-.031-.154-.05a4.944,4.944,0,0,1-.694-.3l-.16-.1c-.061-.036-.122-.075-.179-.114a4.439,4.439,0,0,1-.941-.855,2.432,2.432,0,0,1-.182-.236,4.154,4.154,0,0,1-.491-.88c-.028-.072-.056-.15-.086-.224s-.05-.153-.075-.233-.043-.157-.061-.235-.033-.147-.047-.222a.328.328,0,0,0-.008-.035c-.011-.073-.021-.148-.028-.219a.032.032,0,0,1,0-.018c-.008-.056-.011-.109-.014-.168-.011-.111-.015-.222-.015-.336V132.335a4.4,4.4,0,0,1,1.609-3.408.227.227,0,0,1,.029-.021l.229-.176a4.38,4.38,0,0,1,2.549-.812H172.893a2.993,2.993,0,0,1,.314.014.17.17,0,0,1,.057,0c.1.008.2.017.3.031l.068.012c.086.014.171.033.254.053a.471.471,0,0,1,.065.015c.1.025.2.053.3.086s.19.064.279.1a3.392,3.392,0,0,1,.376.176c.068.033.135.068.2.107a2.753,2.753,0,0,1,.328.215s0,0,0,0l.229.176a.158.158,0,0,1,.028.021,1.836,1.836,0,0,1,.168.147c.043.036.082.075.121.113a3.955,3.955,0,0,1,.344.38q.075.091.14.182a4.189,4.189,0,0,1,.468.823c.036.079.068.161.1.244l0,.011a4.129,4.129,0,0,1,.125.4c.018.068.033.132.047.2s.022.1.029.157.017.107.025.161.017.129.022.193a1.4,1.4,0,0,1,.01.165c0,.075.008.154.008.228" transform="translate(4.98 10.722)" fill="#dfe5ea"/>
        <path id="Path_21434" data-name="Path 21434" d="M177.025,134.027H59.655a4.405,4.405,0,0,1,1.344-1.9.229.229,0,0,1,.029-.022l.229-.176,54.377-41.277a4.47,4.47,0,0,1,5.411,0l54.373,41.277s0,0,0,0l.229.176a.16.16,0,0,1,.028.022,2.227,2.227,0,0,1,.168.146c.043.036.082.075.122.115a3.818,3.818,0,0,1,.342.379c.051.061.1.121.14.182a4.077,4.077,0,0,1,.468.823c.036.078.068.16.1.243l0,.011" transform="translate(5 7.522)" fill="#3b77a8"/>
        <path id="Path_21435" data-name="Path 21435" d="M168.3,197.863H65.878V102a4.975,4.975,0,0,1,4.975-4.975h92.476A4.975,4.975,0,0,1,168.3,102Z" transform="translate(5.522 8.132)" fill="#fff"/>
        <path id="Path_21436" data-name="Path 21436" d="M153.411,117.969H78.965a2.325,2.325,0,1,1,0-4.65h74.446a2.325,2.325,0,0,1,0,4.65" transform="translate(6.424 9.498)" fill="#cacfe6"/>
        <path id="Path_21437" data-name="Path 21437" d="M153.411,127.133H78.965a2.325,2.325,0,1,1,0-4.65h74.446a2.325,2.325,0,0,1,0,4.65" transform="translate(6.424 10.266)" fill="#cacfe6"/>
        <path id="Path_21438" data-name="Path 21438" d="M153.411,136.3H78.965a2.325,2.325,0,1,1,0-4.65h74.446a2.325,2.325,0,1,1,0,4.65" transform="translate(6.424 11.034)" fill="#cacfe6"/>
        <path id="Path_21439" data-name="Path 21439" d="M153.411,145.46H78.965a2.324,2.324,0,1,1,0-4.648h74.446a2.324,2.324,0,1,1,0,4.648" transform="translate(6.424 11.803)" fill="#cacfe6"/>
        <path id="Path_21440" data-name="Path 21440" d="M153.411,154.626H78.965a2.325,2.325,0,1,1,0-4.65h74.446a2.325,2.325,0,0,1,0,4.65" transform="translate(6.424 12.571)" fill="#cacfe6"/>
        <path id="Path_21441" data-name="Path 21441" d="M118.362,164.859v0a2.856,2.856,0,0,1-.608.5L64.07,198.486h-.243a4.3,4.3,0,0,1-1.281-.19l-.168-.053a4.385,4.385,0,0,1-1.82-1.205c-.047-.05-.093-.1-.14-.161a4.1,4.1,0,0,1-.368-.518c-.039-.061-.072-.121-.107-.182s-.068-.129-.1-.194a4.394,4.394,0,0,1-.436-1.913V132.336a4.4,4.4,0,0,1,1.608-3.408.231.231,0,0,1,.029-.022l.229-.176a4.381,4.381,0,0,1,2.55-.812h1.008l4.714,2.908L113,157.638l1.634,1.008,3.118,1.925a2.856,2.856,0,0,1,.608.5v0a2.826,2.826,0,0,1,0,3.784" transform="translate(4.98 10.722)" fill="#2c2d8b"/>
        <path id="Path_21442" data-name="Path 21442" d="M172.807,132.335V194.07c0,.075,0,.15-.008.23,0,.035,0,.07-.007.106a.923.923,0,0,1-.008.105c0,.014,0,.027,0,.041s-.008.048-.011.068c0,.053-.014.108-.022.161s-.017.1-.028.153c0,.008,0,.02,0,.025a.376.376,0,0,1-.015.051.154.154,0,0,1-.011.057.524.524,0,0,1-.017.075c-.011.046-.022.09-.036.135a.052.052,0,0,1-.008.025,2.344,2.344,0,0,1-.075.233l0,.01a1.141,1.141,0,0,1-.043.116c-.011.031-.025.063-.039.1l-.011.03c-.043.1-.086.2-.135.288-.015.028-.033.065-.051.1s-.036.061-.053.093-.033.061-.054.09c-.036.061-.075.121-.114.179-.025.039-.05.07-.072.107-.061.081-.121.157-.182.232-.047.057-.093.111-.14.163s-.1.1-.147.152c-.021.025-.046.047-.07.072a.617.617,0,0,1-.068.062c-.025.025-.054.05-.082.076a.149.149,0,0,0-.025.021c-.068.062-.14.117-.211.171-.007,0-.014.012-.022.018-.056.039-.114.081-.174.121-.022.015-.04.029-.057.039-.033.022-.065.043-.1.061a.563.563,0,0,1-.079.047.875.875,0,0,1-.086.05,3.9,3.9,0,0,1-.63.289c-.014,0-.028.012-.039.015l-.047.014a1.605,1.605,0,0,1-.154.05c-.089.029-.179.05-.268.072l-.14.034c-.028.007-.061.01-.089.014s-.076.013-.112.021h-.011c-.031,0-.064.011-.092.014s-.029,0-.043,0-.05.008-.079.01c-.014,0-.028,0-.047,0l-.164.01c-.079.005-.158.008-.236.008h-.243l-53.685-33.124a2.836,2.836,0,0,1-.6-.5v0a2.817,2.817,0,0,1,0-3.784v0a2.8,2.8,0,0,1,.6-.5l3.116-1.924,1.634-1.009,43.455-26.81,4.714-2.908h1.009a2.993,2.993,0,0,1,.314.014.17.17,0,0,1,.057,0c.1.008.2.017.3.031l.068.012c.086.014.171.033.254.053a.472.472,0,0,1,.065.015c.1.025.2.053.3.086s.19.064.279.1a3.4,3.4,0,0,1,.376.176c.068.033.135.068.2.107a2.749,2.749,0,0,1,.328.215s0,0,0,0l.229.176a.159.159,0,0,1,.028.021,1.84,1.84,0,0,1,.168.147c.043.036.082.075.121.113a3.949,3.949,0,0,1,.344.38q.075.091.14.182a4.19,4.19,0,0,1,.468.823c.036.079.068.161.1.244l0,.011a4.112,4.112,0,0,1,.125.4c.018.068.033.132.047.2s.022.1.029.157.017.107.025.161.017.129.022.193a1.4,1.4,0,0,1,.01.165c0,.075.008.154.008.228" transform="translate(9.482 10.722)" fill="#2c2d8b"/>
        <g id="Group_7996" data-name="Group 7996" transform="translate(64.39 166.188)" opacity="0.29">
          <g id="Group_7995" data-name="Group 7995">
            <g id="Group_7994" data-name="Group 7994" clip-path="url(#clip-path-5)">
              <path id="Path_21443" data-name="Path 21443" d="M177.31,191.1v.642a4.517,4.517,0,0,1-4.417,4.611H63.827a4.517,4.517,0,0,1-4.417-4.611V191.1l56.1-36.908a5.152,5.152,0,0,1,5.7,0Z" transform="translate(-59.41 -153.336)" fill="#474747"/>
            </g>
          </g>
        </g>
        <path id="Path_21444" data-name="Path 21444" d="M177.31,191.185v.616a4.417,4.417,0,0,1-4.417,4.417H63.827A4.417,4.417,0,0,1,59.41,191.8v-.616l56.1-35.358a5.344,5.344,0,0,1,5.7,0Z" transform="translate(4.98 12.992)" fill="#475497"/>
        <path id="Path_21445" data-name="Path 21445" d="M110.973,108.8H78.965a2.325,2.325,0,0,1,0-4.65h32.008a2.325,2.325,0,0,1,0,4.65" transform="translate(6.424 8.73)" fill="#2c2d8b"/>
        <path id="Path_21446" data-name="Path 21446" d="M155.4,87.655l3.7-33.8L212.265,49.1Z" transform="translate(13.025 4.115)" fill="#5c61ac"/>
        <path id="Path_21447" data-name="Path 21447" d="M159,64.614c.279-.1,54.235-15.516,54.235-15.516l-69.373.864Z" transform="translate(12.058 4.115)" fill="#8393e2"/>
        <path id="Path_21448" data-name="Path 21448" d="M163.169,68.02,155.4,86.069l26.067-17.226Z" transform="translate(13.025 5.701)" fill="#00205b"/>
        <path id="Path_21449" data-name="Path 21449" d="M162.568,69.606l15.24,14.667L211.664,49.1Z" transform="translate(13.626 4.115)" fill="#8393e2"/>
        <path id="Path_21450" data-name="Path 21450" d="M41.256,45.589a8.343,8.343,0,1,1-8.343-8.343,8.343,8.343,0,0,1,8.343,8.343" transform="translate(2.059 3.122)" fill="#ff931e"/>
        <path id="Path_21451" data-name="Path 21451" d="M224.861,88.328a6.4,6.4,0,1,1-6.4-6.4,6.4,6.4,0,0,1,6.4,6.4" transform="translate(17.774 6.867)" fill="#ff931e"/>
        <path id="Path_21452" data-name="Path 21452" d="M168.78,33.074a2.7,2.7,0,1,1-2.7-2.7,2.7,2.7,0,0,1,2.7,2.7" transform="translate(13.693 2.546)" fill="#ff931e"/>
        <path id="Path_21453" data-name="Path 21453" d="M119.724,5.622A5.622,5.622,0,1,1,114.1,0a5.621,5.621,0,0,1,5.622,5.622" transform="translate(9.093)" fill="#a3b2f8"/>
        <path id="Path_21454" data-name="Path 21454" d="M213.753,114.1a3.846,3.846,0,1,1-3.846-3.846,3.847,3.847,0,0,1,3.846,3.846" transform="translate(17.272 9.241)" fill="#a3b2f8"/>
        <path id="Path_21455" data-name="Path 21455" d="M8.434,143.283a4.217,4.217,0,1,1-4.217-4.217,4.217,4.217,0,0,1,4.217,4.217" transform="translate(0 11.656)" fill="#a3b2f8"/>
        <path id="Path_21456" data-name="Path 21456" d="M78,56.634a4.889,4.889,0,1,1-4.889-4.889A4.89,4.89,0,0,1,78,56.634" transform="translate(5.718 4.337)" fill="#a3b2f8"/>
      </g>
    </g>
  </g>
</svg>
