<?xml version="1.0" encoding="utf-8"?>
<!-- Generator: Adobe Illustrator 24.0.2, SVG Export Plug-In . SVG Version: 6.00 Build 0)  -->
<svg version="1.1" id="Layer_1" xmlns="http://www.w3.org/2000/svg" xmlns:xlink="http://www.w3.org/1999/xlink" x="0px" y="0px"
	 width="374.5px" height="117.7px" viewBox="0 0 374.5 117.7" style="enable-background:new 0 0 374.5 117.7;" xml:space="preserve"
	>
<style type="text/css">
	.st0{fill:#00A6D1;}
</style>
<g id="XMLID_751_">
	<g id="XMLID_759_">
		<path id="XMLID_772_" class="st0" d="M58.9,117.7C26.8,117.8-0.5,91.5,0.1,58c0.2-15.6,5.8-29.1,16.8-40.3C28.3,6,42.5,0,58.9,0
			C75,0,89,5.7,100.4,17.2c11.5,11.5,17.3,25.6,17.3,41.9c-0.1,16.3-6,30.3-17.6,41.7C88.7,112,74.8,117.5,58.9,117.7z M73.5,25.6
			C58.5,48.3,43.8,70.9,29,93.3c0,1.5,0,2.9,0,4.3c0.4,0.7,1,0.7,1.6,0.7c6.9,0,13.8,0,20.8,0c0.3,0,0.5-0.1,0.9-0.1
			c0-2,0-3.9,0-5.9c-2.8,0-5.4,0-8.3,0C59,69.7,73.8,47.2,88.6,24.7c0-1.3,0-2.7,0-4.1c0-0.5-0.2-0.9-0.7-1.2c-7,0-14.1,0-21.3,0
			c-0.3,0-0.6,0-0.8,0.1c0,0-0.1,0-0.1,0.1c0,0,0,0.1-0.1,0.1c-0.2,1.3-0.1,5.2,0.1,6C68.2,25.6,70.7,25.6,73.5,25.6z M68.9,98.3
			c0.4,0,0.8,0.1,1.2,0.1c2.1,0,4.3,0,6.4,0c3.3,0,6.6,0,9.9,0c1.1,0,1.5-0.4,1.5-1.5c0-5.7,0-11.4,0-17.2c0-0.6-0.1-1.1-0.8-1.5
			c-0.6,0-1.3,0-2.1,0c-0.2,0-0.4,0-0.5,0c-0.6,0.1-0.9,0.3-1,0.9c-0.1,0.3-0.1,0.6-0.1,0.8c0,1.4,0,2.9,0,4.3
			c0,0.8-0.2,1.5-0.4,2.3c-1.1,3.4-4.4,5.5-7.8,5.4c-1.8,0-3.5,0-5.3,0c-0.3,0-0.7,0-1,0.1C68.9,94.2,68.9,96.2,68.9,98.3z
			 M47.2,19.2c-0.4,0-0.8,0-1.1,0c-4.1,0-8.1,0-12.2,0c-1.3,0-1.5,0.3-1.5,1.5c0,2.6,0,5.3,0,7.9c0,2.7,0,5.5,0,8.2
			c0,0.6,0.1,1.1,0.7,1.4c1.1,0,2.1,0,3,0c0.6-0.3,0.7-0.8,0.6-1.3c0-1.4,0-2.9,0-4.3c0.1-2.3,1-4.2,2.9-5.6c1.3-1,2.7-1.4,4.3-1.4
			c1.1,0,2.2,0.1,3.3-0.1C47.2,23.5,47.2,21.4,47.2,19.2z"/>
	</g>
	<g id="XMLID_332_">
		<path id="XMLID_757_" class="st0" d="M161.2,47.4v3.1l-13.4,16h13.6v3.8h-19.5v-3.1l13.4-15.9h-13.1l0-3.8H161.2z"/>
		<path id="XMLID_755_" class="st0" d="M182.1,47.4v3.8h-12.4v5.6h11.1v3.8h-11.1v5.7h12.8v3.8h-17.1V47.4H182.1z"/>
		<path id="XMLID_753_" class="st0" d="M188.9,47.4l6.7,18l6.8-18h4.5l-9.1,22.8h-4.5l-9-22.8H188.9z"/>
		<path id="XMLID_586_" class="st0" d="M232.2,58.8c0,6.6-5.3,11.6-12.2,11.6c-6.9,0-12.2-5.1-12.2-11.6c0-6.6,5.3-11.6,12.2-11.6
			C227,47.3,232.2,52.3,232.2,58.8z M212.4,58.8c0,4.3,3.6,7.7,7.8,7.7c4.2,0,7.6-3.4,7.6-7.7c0-4.3-3.5-7.6-7.6-7.6
			C215.9,51.2,212.4,54.5,212.4,58.8z"/>
		<path id="XMLID_583_" d="M250.3,47.4v9.8h11.4v-9.8h4.4v22.8h-4.4V61h-11.4v9.3h-4.4V47.4H250.3z"/>
		<path id="XMLID_384_" d="M288.4,47.4v3.8H276v5.6h11.1v3.8H276v5.7h12.8v3.8h-17.1V47.4H288.4z"/>
		<path id="XMLID_345_" d="M308.1,65.4h-11.2l-2,4.8h-4.5l10-22.8h4.5l9.9,22.8h-4.7L308.1,65.4z M306.5,61.7l-4-9.6l-4,9.6H306.5z"
			/>
		<path id="XMLID_342_" d="M322,47.4v18.9h9.9v3.9h-14.2V47.4H322z"/>
		<path id="XMLID_340_" d="M351.3,47.4v3.9h-7.1v19h-4.4v-19h-7.1v-3.9H351.3z"/>
		<path id="XMLID_333_" d="M358.8,47.4v9.8h11.4v-9.8h4.4v22.8h-4.4V61h-11.4v9.3h-4.4V47.4H358.8z"/>
	</g>
</g>
</svg>
