<svg xmlns="http://www.w3.org/2000/svg" width="181" height="56" viewBox="0 0 181 56">
  <g id="LOGO" transform="translate(-17 -11)">
    <g id="Group_3" data-name="Group 3" transform="translate(-397.062 10.977)">
      <g id="Group_1" data-name="Group 1" transform="translate(414.062 0.023)">
        <path id="Path_1" data-name="Path 1" d="M442.041,56.023a27.958,27.958,0,0,1-27.975-28.41A27.157,27.157,0,0,1,422.04,8.457,27.978,27.978,0,0,1,461.827,8.2a27.135,27.135,0,0,1,8.221,19.953,27.072,27.072,0,0,1-8.378,19.838A27.429,27.429,0,0,1,442.041,56.023Zm6.941-43.808-21.13,32.21v2.051a.733.733,0,0,0,.751.345q4.94,0,9.88,0c.128,0,.257-.027.449-.048,0-.933.01-1.84-.01-2.794h-3.927l21.2-32.222c0-.641,0-1.292,0-1.944a.58.58,0,0,0-.355-.565H445.717c-.132,0-.265.018-.4.03-.014,0-.028.016-.04.026a.415.415,0,0,0-.034.037,14.988,14.988,0,0,0,.044,2.874Zm-2.158,34.579c.209.01.388.027.567.027,1.019,0,2.038,0,3.057,0,1.571,0,3.141,0,4.711,0,.533,0,.73-.2.73-.723,0-2.723,0-5.446,0-8.169a.64.64,0,0,0-.4-.69H454.5c-.084,0-.168,0-.251,0a.487.487,0,0,0-.5.411,1.7,1.7,0,0,0-.029.4c0,.685.02,1.371-.01,2.055a4.056,4.056,0,0,1-.193,1.073,3.834,3.834,0,0,1-3.718,2.593c-.835-.019-1.671,0-2.506,0-.159,0-.318.022-.478.034ZM436.5,9.153h-.506q-2.906,0-5.811,0c-.6,0-.735.14-.737.736,0,1.252,0,2.5,0,3.757,0,1.3,0,2.605,0,3.907,0,.282.027.537.318.673h1.451a.594.594,0,0,0,.308-.626c-.005-.684-.022-1.37,0-2.054a3.315,3.315,0,0,1,1.36-2.664,3.432,3.432,0,0,1,2.057-.661,10.312,10.312,0,0,0,1.561-.038Z" transform="translate(-414.062 -0.023)" fill="#00a6d1"/>
      </g>
      <g id="Group_2" data-name="Group 2" transform="translate(481.546 22.511)">
        <path id="Path_2" data-name="Path 2" d="M565.1,47.416v1.46l-6.4,7.592h6.475v1.817h-9.286V56.81l6.4-7.578h-6.211l.016-1.817Z" transform="translate(-555.892 -47.354)" fill="#00a6d1"/>
        <path id="Path_3" data-name="Path 3" d="M587.318,47.416v1.817h-5.885v2.686h5.28v1.817h-5.28v2.733h6.071v1.817h-8.152V47.416Z" transform="translate(-568.19 -47.354)" fill="#00a6d1"/>
        <path id="Path_4" data-name="Path 4" d="M600.416,47.416l3.2,8.556,3.23-8.556h2.143l-4.348,10.869h-2.158l-4.3-10.869Z" transform="translate(-578.059 -47.354)" fill="#00a6d1"/>
        <path id="Path_5" data-name="Path 5" d="M633.483,52.782a5.8,5.8,0,1,1-5.792-5.5A5.574,5.574,0,0,1,633.483,52.782Zm-9.456,0a3.688,3.688,0,0,0,3.7,3.664,3.649,3.649,0,1,0-3.7-3.664Z" transform="translate(-590.492 -47.285)" fill="#00a6d1"/>
      </g>
    </g>
    <text id="Health" transform="translate(134 45)" font-size="16" font-family="Arial-BoldMT, Arial" font-weight="700"><tspan x="0" y="0">HEALTH</tspan></text>
  </g>
</svg>
