<svg xmlns="http://www.w3.org/2000/svg" width="15.422" height="37.717" viewBox="0 0 15.422 37.717">
  <g id="IRL-logo-small" transform="translate(-727 -97)">
    <path id="Path_18878" data-name="Path 18878" d="M5.191,10.761a1.8,1.8,0,0,0,.135-1.042c-.063-.26-.476-.44-.548-.449H4.706a3.592,3.592,0,0,0-.9.144l-.1.045a3.125,3.125,0,0,0-.359.2v2.317c.332-.153.736-.305.9-.386a2.919,2.919,0,0,0,.943-.826Z" transform="translate(723.653 93.361)" fill="#fff"/>
    <path id="Path_18879" data-name="Path 18879" d="M4.913,15.348l.117-.063.7-.485.09-.117V14.62a2.191,2.191,0,0,0,.207-.9c0-.5-.6-.682-.6-.682H5.308a5.389,5.389,0,0,0-.6.189,3.368,3.368,0,0,0-.9.368l-.153.117L3.35,13.9v1.931c.377-.081.826-.171.9-.207a3.215,3.215,0,0,0,.656-.26" transform="translate(723.653 92.976)" fill="#fff"/>
    <path id="Path_18880" data-name="Path 18880" d="M13.042,31.824l-.26-1.8A2.631,2.631,0,0,0,12.5,29.3l-.278-.081H12.09l-.225.108-.233.153-.054.054V29.6c-.054.269-.225,1.275-.225,1.41s-.368,2.5-.368,2.5l-.126,2.649,1.392.09,1.1.081-.135-2.29-.135-2.182" transform="translate(722.887 91.326)" fill="#fff"/>
    <path id="Path_18881" data-name="Path 18881" d="M17.523,38.023l-1.5-.458a5.2,5.2,0,0,1-1.069.674c-.422.117-2.865,1.1-2.99,1.06h-.135l-.485.045-1.895.224H8.974l-1.8-.485H7.052c-.449-.224-2.236-1.167-2.416-1.3s.072-.566.072-.566-.162-.332-.2-.449.4-.251.674-.485a10.884,10.884,0,0,1,2.155-1.167,4.49,4.49,0,0,0,.9-.359V32.671s.117-1.6.117-1.931.575-3.394.575-3.394l.189-3.394a18.688,18.688,0,0,0-.9-3.377l-.4-1.518V16.74a6.511,6.511,0,0,0-.9.557,4.077,4.077,0,0,1-1.32.467L3.46,18.24V42.118H18.78V38.669c-.368-.207-.736-.4-1.114-.593l-.144-.054" transform="translate(723.642 92.599)" fill="#fff"/>
    <path id="Path_18882" data-name="Path 18882" d="M3.35,3V6.161a24.245,24.245,0,0,1,2.613-.9c.117,0,1.518-.287,1.85-.332a5.271,5.271,0,0,1,2.407.1c.476.3,1.087,1.006.9,1.643a6.16,6.16,0,0,1-.332,1.078l-.386.9-.18.494.126.18a.512.512,0,0,1,.189-.108,7.822,7.822,0,0,0,.835-.512h0a9.949,9.949,0,0,1,.97-.377,1.6,1.6,0,0,1,.961,0,8.208,8.208,0,0,1,.772.548c.054.108.431.18.431.18l.961.135.144.1a8.594,8.594,0,0,1-1.2.476,4.373,4.373,0,0,0-1.114.7c-.5.4-1.8,1.114-1.841,1.41l-.09.18a16.469,16.469,0,0,1-1.14,1.383l-.368.521a8.477,8.477,0,0,0-.53,1.931v1.06l.18,1.123v.144l.4.853v.045c.377.225.35-.216.35-.216l-.153-.629c-.054-.189-.153-1.383-.153-1.383a1.257,1.257,0,0,1,.126-.566.745.745,0,0,1,.207-.242.8.8,0,0,1,.278-.135,2.317,2.317,0,0,1,.79-.072.647.647,0,0,1,.593.4c.072.278.117.79.144.9v.072l-.135,1.14a4.49,4.49,0,0,0,.054.593s.3.108.35-.117l.108-.7.251-2.047.135-1.8s.189-1.275.26-1.437a1.572,1.572,0,0,1,.709-.413,1.078,1.078,0,0,1,.97.207v.063l-.108.539-.494,1.365-.117,1.149v3.26l-.458,3.134-.153,2.371.269,1.8s.458,3.4.449,3.529.126,3.421.126,3.421l.054.5.665.189,1.257.368,1.8-1.176.682-.4V3Z" transform="translate(723.653 94)" fill="#fff"/>
  </g>
</svg>
