<svg xmlns="http://www.w3.org/2000/svg" width="139.191" height="37.716" viewBox="0 0 139.191 37.716"><defs><style>.a{fill:#fff;}</style></defs><g transform="translate(0 0.03)"><path class="a" d="M78.026,26.107a15.158,15.158,0,0,0-4.014-.647c-4.23,0-5.909,2.443-5.882,4.553.063,5.666,7.184,4.077,7.247,7.768,0,1.14-.817,2.479-3.287,2.479a10.776,10.776,0,0,1-3.457-.593l-.4,2.2a15.607,15.607,0,0,0,4.418.691c4.355,0,6.349-2.631,6.286-5.388-.072-5.64-7.283-4.634-7.319-7.579,0-1.1.9-1.8,2.766-1.8a11.62,11.62,0,0,1,3.152.458L78,26.125" transform="translate(-9.957 -5.321)"/><path class="a" d="M56.866,28.976H56.3c-2.119,0-3.529,1.2-4.661,3.592v9.77H48.2V26.175a30.837,30.837,0,0,0,3.412-.494v3.861c.979-1.841,2.4-4.032,4.921-4.032a7.183,7.183,0,0,1,.79.072l-.485,3.439" transform="translate(-7.924 -5.326)"/><path class="a" d="M93.228,41.644V30.7c0-2.47-.9-3.2-2.4-3.2s-2.963,1.123-4.3,2.936V41.644H83.08v-21.9a20.564,20.564,0,0,0,3.448-.512v8.531a6.78,6.78,0,0,1,5.46-2.928A4.364,4.364,0,0,1,96.2,27.366a7.678,7.678,0,0,1,.485,3.412V41.635H93.228" transform="translate(-11.482 -4.685)"/><path class="a" d="M39.48,41.878v-21.9a16.873,16.873,0,0,0,3.745-.745V41.878Z" transform="translate(-7.035 -4.685)"/><path class="a" d="M62.509,20.843a2.047,2.047,0,0,1-.835-.108,1.9,1.9,0,0,1-.718-.431,2.083,2.083,0,0,1-.494-.682,2.119,2.119,0,0,1,0-1.643,2.074,2.074,0,0,1,1.2-1.131,2.021,2.021,0,0,1,.835-.108,2.074,2.074,0,0,1,1.356.638,2.064,2.064,0,0,1-1.347,3.457Z" transform="translate(-9.158 -4.431)"/><path class="a" d="M60.65,42.11V25.946h.314a16.505,16.505,0,0,0,3.107-.476V42.11H60.65" transform="translate(-9.194 -5.322)"/><path class="a" d="M108,41.878v-21.9a20.708,20.708,0,0,0,3.754-.745V39.354h6.78v2.523H108" transform="translate(-14.023 -4.685)"/><path class="a" d="M141.074,18.942a10.965,10.965,0,0,0-1.625-.171c-2.128,0-2.82,1.194-2.82,4.724v1.087h3.754l-.341,2.038h-3.412v14.3h-3.475V26.62H130.46l.332-2.038h2.4v-1.32c0-4.49,1.733-6.5,5.55-6.5a13.856,13.856,0,0,1,2.793.269Z" transform="translate(-16.314 -4.433)"/><path class="a" d="M124.469,20.843a2.137,2.137,0,0,1-.826-.108,2.038,2.038,0,0,1-.718-.44,1.957,1.957,0,0,1-.494-.682,2.053,2.053,0,0,1,.494-2.335,2.021,2.021,0,0,1,.718-.431,1.85,1.85,0,0,1,.826-.108,2.056,2.056,0,0,1,1.455.6,2.03,2.03,0,0,1,.593,1.428,2.056,2.056,0,0,1-2.056,2.056" transform="translate(-15.478 -4.43)"/><path class="a" d="M122.94,42.11V25.946h.341a27.9,27.9,0,0,0,3.107-.476V42.11H122.94" transform="translate(-15.547 -5.322)"/><path class="a" d="M150,26.2c1.868,0,2.91,1.742,2.99,4.957h-6.286c.126-3.179,1.275-4.957,3.278-4.957Zm6.771,7c0-5.846-2.353-8.863-6.771-8.863s-7.094,3.089-7.094,8.334c0,5.756,2.586,8.809,7.489,8.809a11.881,11.881,0,0,0,5.9-1.509l-.691-1.868a10.129,10.129,0,0,1-4.23.979c-3.08,0-4.49-1.679-4.661-5.46v-.422Z" transform="translate(-17.584 -5.205)"/><path class="a" d="M5.191,10.761a1.8,1.8,0,0,0,.135-1.042c-.063-.26-.476-.44-.548-.449H4.706a3.592,3.592,0,0,0-.9.144l-.1.045a3.125,3.125,0,0,0-.359.2v2.317c.332-.153.736-.305.9-.386a2.919,2.919,0,0,0,.943-.826Z" transform="translate(-3.35 -3.669)"/><path class="a" d="M4.913,15.348l.117-.063.7-.485.09-.117V14.62a2.191,2.191,0,0,0,.207-.9c0-.5-.6-.682-.6-.682H5.308a5.389,5.389,0,0,0-.6.189,3.368,3.368,0,0,0-.9.368l-.153.117L3.35,13.9v1.931c.377-.081.826-.171.9-.207a3.215,3.215,0,0,0,.656-.26" transform="translate(-3.35 -4.054)"/><path class="a" d="M13.042,31.824l-.26-1.8a2.631,2.631,0,0,0-.287-.727l-.278-.081H12.09l-.225.108-.233.153-.054.054V29.6c-.054.269-.225,1.275-.225,1.41s-.368,2.505-.368,2.505l-.126,2.649,1.392.09,1.1.081-.135-2.29-.135-2.182" transform="translate(-4.116 -5.704)"/><path class="a" d="M17.523,38.023l-1.5-.458a5.2,5.2,0,0,1-1.069.674c-.422.117-2.865,1.1-2.99,1.06h-.135l-.485.045-1.895.224H8.974l-1.8-.485H7.052c-.449-.224-2.236-1.167-2.416-1.3s.072-.566.072-.566-.162-.332-.2-.449.4-.251.674-.485a10.884,10.884,0,0,1,2.155-1.167,4.49,4.49,0,0,0,.9-.359V32.671s.117-1.6.117-1.931.575-3.394.575-3.394l.189-3.394a18.688,18.688,0,0,0-.9-3.377l-.4-1.518V16.74a6.511,6.511,0,0,0-.9.557,4.077,4.077,0,0,1-1.32.467L3.46,18.24V42.118H18.78V38.669c-.368-.207-.736-.4-1.114-.593l-.144-.054" transform="translate(-3.361 -4.431)"/><path class="a" d="M3.35,3V6.161a24.245,24.245,0,0,1,2.613-.9c.117,0,1.518-.287,1.85-.332a5.271,5.271,0,0,1,2.407.1c.476.3,1.087,1.006.9,1.643a6.16,6.16,0,0,1-.332,1.078l-.386.9-.18.494.126.18a.512.512,0,0,1,.189-.108,7.822,7.822,0,0,0,.835-.512h0a9.949,9.949,0,0,1,.97-.377,1.6,1.6,0,0,1,.961,0,8.208,8.208,0,0,1,.772.548c.054.108.431.18.431.18l.961.135.144.1a8.594,8.594,0,0,1-1.2.476,4.373,4.373,0,0,0-1.114.7c-.5.4-1.8,1.114-1.841,1.41l-.09.18a16.469,16.469,0,0,1-1.14,1.383l-.368.521a8.477,8.477,0,0,0-.53,1.931v1.06l.18,1.123v.144l.4.853v.045c.377.225.35-.216.35-.216l-.153-.629c-.054-.189-.153-1.383-.153-1.383a1.257,1.257,0,0,1,.126-.566.745.745,0,0,1,.207-.242.8.8,0,0,1,.278-.135,2.317,2.317,0,0,1,.79-.072.647.647,0,0,1,.593.4c.072.278.117.79.144.9v.072l-.135,1.14a4.49,4.49,0,0,0,.054.593s.3.108.35-.117l.108-.7.251-2.047.135-1.8s.189-1.275.26-1.437a1.572,1.572,0,0,1,.709-.413,1.078,1.078,0,0,1,.97.207v.063l-.108.539-.494,1.365-.117,1.149v3.26l-.458,3.134-.153,2.371.269,1.8s.458,3.4.449,3.529.126,3.421.126,3.421l.054.5.665.189,1.257.368,1.8-1.176.682-.4V3Z" transform="translate(-3.35 -3.03)"/></g></svg>