<svg xmlns="http://www.w3.org/2000/svg" width="106.742" height="24.937" viewBox="0 0 106.742 24.937">
  <g id="IRH-logo-text" transform="translate(-759.448 -109.33)">
    <path id="Path_18867" data-name="Path 18867" d="M78.026,26.107a15.158,15.158,0,0,0-4.014-.647c-4.23,0-5.909,2.443-5.882,4.553.063,5.666,7.184,4.077,7.247,7.768,0,1.14-.817,2.479-3.287,2.479a10.776,10.776,0,0,1-3.457-.593l-.4,2.2a15.607,15.607,0,0,0,4.418.691c4.355,0,6.349-2.631,6.286-5.388-.072-5.64-7.283-4.634-7.319-7.579,0-1.1.9-1.8,2.766-1.8a11.62,11.62,0,0,1,3.152.458L78,26.125" transform="translate(717.046 91.709)" fill="#fff"/>
    <path id="Path_18868" data-name="Path 18868" d="M56.866,28.976H56.3c-2.119,0-3.529,1.2-4.661,3.592v9.77H48.2V26.175a30.837,30.837,0,0,0,3.412-.494v3.861c.979-1.841,2.4-4.032,4.921-4.032a7.183,7.183,0,0,1,.79.072l-.485,3.439" transform="translate(719.079 91.704)" fill="#fff"/>
    <path id="Path_18869" data-name="Path 18869" d="M93.228,41.644V30.7c0-2.47-.9-3.2-2.4-3.2s-2.963,1.123-4.3,2.936V41.644H83.08v-21.9a20.564,20.564,0,0,0,3.448-.512v8.531a6.78,6.78,0,0,1,5.46-2.928A4.364,4.364,0,0,1,96.2,27.366a7.678,7.678,0,0,1,.485,3.412V41.635H93.228" transform="translate(715.521 92.345)" fill="#fff"/>
    <path id="Path_18870" data-name="Path 18870" d="M39.48,41.878v-21.9a16.873,16.873,0,0,0,3.745-.745V41.878Z" transform="translate(719.968 92.345)" fill="#fff"/>
    <path id="Path_18871" data-name="Path 18871" d="M62.509,20.843a2.047,2.047,0,0,1-.835-.108,1.9,1.9,0,0,1-.718-.431,2.083,2.083,0,0,1-.494-.682,2.119,2.119,0,0,1,0-1.643,2.074,2.074,0,0,1,1.2-1.131,2.021,2.021,0,0,1,.835-.108,2.054,2.054,0,0,1,.009,4.1Z" transform="translate(717.845 92.599)" fill="#fff"/>
    <path id="Path_18872" data-name="Path 18872" d="M60.65,42.11V25.946h.314a16.506,16.506,0,0,0,3.107-.476V42.11H60.65" transform="translate(717.809 91.708)" fill="#fff"/>
    <path id="Path_18873" data-name="Path 18873" d="M108,41.878v-21.9a20.708,20.708,0,0,0,3.754-.745V39.354h6.78v2.523H108" transform="translate(712.98 92.345)" fill="#fff"/>
    <path id="Path_18874" data-name="Path 18874" d="M141.074,18.942a10.965,10.965,0,0,0-1.625-.171c-2.128,0-2.82,1.194-2.82,4.724v1.087h3.754l-.341,2.038H136.63v14.3h-3.475V26.62H130.46l.332-2.038h2.4v-1.32c0-4.49,1.733-6.5,5.55-6.5a13.856,13.856,0,0,1,2.793.269Z" transform="translate(710.689 92.597)" fill="#fff"/>
    <path id="Path_18875" data-name="Path 18875" d="M124.469,20.843a2.137,2.137,0,0,1-.826-.108,2.038,2.038,0,0,1-.718-.44,1.957,1.957,0,0,1-.494-.682,2.053,2.053,0,0,1,.494-2.335,2.021,2.021,0,0,1,.718-.431,1.85,1.85,0,0,1,.826-.108,2.056,2.056,0,0,1,1.455.6,2.03,2.03,0,0,1,.593,1.428,2.056,2.056,0,0,1-2.056,2.056" transform="translate(711.525 92.6)" fill="#fff"/>
    <path id="Path_18876" data-name="Path 18876" d="M122.94,42.11V25.946h.341a27.9,27.9,0,0,0,3.107-.476V42.11H122.94" transform="translate(711.456 91.708)" fill="#fff"/>
    <path id="Path_18877" data-name="Path 18877" d="M150,26.2c1.868,0,2.91,1.742,2.99,4.957H146.7c.126-3.179,1.275-4.957,3.278-4.957Zm6.771,7c0-5.846-2.353-8.863-6.771-8.863s-7.094,3.089-7.094,8.334c0,5.756,2.586,8.809,7.489,8.809a11.881,11.881,0,0,0,5.9-1.509L155.6,38.1a10.129,10.129,0,0,1-4.23.979c-3.08,0-4.49-1.679-4.661-5.46V33.2Z" transform="translate(709.419 91.825)" fill="#fff"/>
  </g>
</svg>
