<svg id="login-logo" xmlns="http://www.w3.org/2000/svg" width="317.667" height="146.535" viewBox="0 0 317.667 146.535">
  <g id="Group_6188" data-name="Group 6188">
    <path id="Path_18810" data-name="Path 18810" d="M317.667,0H30.01L0,137.751l317.667,8.784Z" fill="#5261ac"/>
  </g>
  <path id="Path_18811" data-name="Path 18811" d="M107.921,45.491a24.729,24.729,0,0,0-6.548-1.058c-6.894,0-9.629,3.977-9.593,7.425C91.89,61.091,103.525,58.5,103.6,64.52c.018,1.861-1.331,4.032-5.362,4.032a17.36,17.36,0,0,1-5.635-.967l-.657,3.594a25.649,25.649,0,0,0,7.2,1.131c7.095,0,10.34-4.287,10.286-8.757-.11-9.2-11.873-7.553-11.927-12.352-.036-1.788,1.422-2.992,4.5-2.992a18.9,18.9,0,0,1,5.142.748l.767-3.466" transform="translate(60.144 22.077)" fill="#fff"/>
  <path id="Path_18812" data-name="Path 18812" d="M85.981,50.162h-.93c-3.447,0-5.745,1.952-7.587,5.838V71.946H71.848V45.619a50.794,50.794,0,0,0,5.617-.839V51c1.587-2.992,3.9-6.568,8.024-6.568a12.06,12.06,0,0,1,1.277.11l-.784,5.619" transform="translate(50.897 22.077)" fill="#fff"/>
  <path id="Path_18813" data-name="Path 18813" d="M123.271,74.746V56.921c0-4.014-1.458-5.2-3.9-5.2-2.462,0-4.832,1.824-7.021,4.78V74.746H106.73v-35.7a33.562,33.562,0,0,0,5.617-.839V52.1c2.68-3.375,5.708-4.762,8.882-4.762a7.091,7.091,0,0,1,6.857,4.123c.638,1.387.8,2.737.8,5.565v17.7h-5.617" transform="translate(67.079 19.186)" fill="#fff"/>
  <path id="Path_18814" data-name="Path 18814" d="M63.127,75.129v-35.7A27.9,27.9,0,0,0,69.237,38.2V75.129Z" transform="translate(46.852 19.186)" fill="#fff"/>
  <path id="Path_18815" data-name="Path 18815" d="M87.558,42.407a3.357,3.357,0,1,1,2.206-1.075A3.354,3.354,0,0,1,87.558,42.407Z" transform="translate(56.506 18.027)" fill="#fff"/>
  <path id="Path_18816" data-name="Path 18816" d="M84.306,71.623V45.26l.547-.055a26.735,26.735,0,0,0,5.07-.785V71.605H84.306" transform="translate(56.677 22.071)" fill="#fff"/>
  <path id="Path_18817" data-name="Path 18817" d="M131.646,75.129v-35.7a34.509,34.509,0,0,0,6.109-1.222v32.8h11.051v4.123h-17.16" transform="translate(78.638 19.186)" fill="#fff"/>
  <path id="Path_18818" data-name="Path 18818" d="M171.431,39.3a16.763,16.763,0,0,0-2.644-.274c-3.465,0-4.6,1.934-4.6,7.7V48.5h6.11l-.548,3.321H164.19v23.3h-5.671v-23.3h-4.45l.548-3.321h3.9V46.309c0-7.3,2.827-10.6,9.045-10.6a23.507,23.507,0,0,1,4.56.438Z" transform="translate(89.04 18.03)" fill="#fff"/>
  <path id="Path_18819" data-name="Path 18819" d="M149.518,42.408a3.346,3.346,0,1,1,2.367-.981,3.361,3.361,0,0,1-2.367.981" transform="translate(85.257 18.027)" fill="#fff"/>
  <path id="Path_18820" data-name="Path 18820" d="M146.6,71.623V45.26l.546-.055a44.8,44.8,0,0,0,5.071-.785V71.605H146.6" transform="translate(85.573 22.071)" fill="#fff"/>
  <path id="Path_18821" data-name="Path 18821" d="M178.127,46.346c3.045,0,4.742,2.846,4.869,8.082H172.784c.2-5.181,2.079-8.082,5.343-8.082Zm11.033,11.4c-.073-9.524-3.83-14.45-11.033-14.45-7.295,0-11.563,5.036-11.563,13.592,0,9.378,4.213,14.358,12.2,14.358a19.354,19.354,0,0,0,9.628-2.463l-1.13-3.047a16.61,16.61,0,0,1-6.894,1.605c-5.033,0-7.385-2.737-7.6-8.9v-.693Z" transform="translate(94.836 21.55)" fill="#fff"/>
  <path id="Path_18822" data-name="Path 18822" d="M30.009,30.676a3,3,0,0,0,.219-1.7c-.109-.42-.784-.712-.894-.73l-.128-.018a5.882,5.882,0,0,0-1.459.237l-.164.073A3.371,3.371,0,0,0,27,28.87v3.777c.547-.255,1.2-.511,1.5-.639A4.667,4.667,0,0,0,30.009,30.676Z" transform="translate(30.092 14.561)" fill="#fff"/>
  <path id="Path_18823" data-name="Path 18823" d="M29.553,35.8l.182-.109,1.112-.839.146-.183.055-.109a3.627,3.627,0,0,0,.328-1.46c0-.821-.985-1.113-.985-1.113l-.2-.018c-.255.055-.8.255-.985.31a5.456,5.456,0,0,0-1.422.6l-.255.182L27,33.412V36.55c.62-.128,1.35-.274,1.514-.328a5.331,5.331,0,0,0,1.058-.42" transform="translate(30.092 16.295)" fill="#fff"/>
  <path id="Path_18824" data-name="Path 18824" d="M38.086,52.441l-.42-2.956a4.207,4.207,0,0,0-.474-1.186l-.456-.128h-.2l-.365.182-.383.237-.091.091-.055.109c-.091.438-.365,2.08-.365,2.3,0,.237-.6,4.05-.6,4.05l-.2,4.324,2.261.146,1.787.128L38.3,56l-.219-3.558" transform="translate(33.56 23.811)" fill="#fff"/>
  <path id="Path_18825" data-name="Path 18825" d="M50.088,70.41l-2.444-.748a8.262,8.262,0,0,1-1.751,1.095c-.675.2-4.669,1.788-4.869,1.733l-.219.018-.784.073-3.1.365-.419.018-.347-.036-2.991-.785-.2-.055c-.729-.365-3.647-1.9-3.939-2.116-.328-.274.11-.93.11-.93a7.188,7.188,0,0,1-.31-.73c-.055-.219.657-.4,1.094-.785a17.193,17.193,0,0,1,3.575-1.861,7.327,7.327,0,0,0,1.4-.584V62.966l.055-1.277s.182-2.609.182-3.156c0-.566.948-5.528.948-5.528l.31-5.528c.073-1.095-1.477-5.51-1.477-5.51l-.657-2.481-.036-.237-.055-3.539a10.622,10.622,0,0,0-1.532.912,6.654,6.654,0,0,1-2.152.766L27,38.154v38.97H52.131V71.468q-.888-.51-1.806-.967l-.237-.091" transform="translate(30.092 18.03)" fill="#fff"/>
  <path id="Path_18826" data-name="Path 18826" d="M27,22v5.108a39.2,39.2,0,0,1,4.267-1.46c.182-.073,2.462-.474,3.009-.547.547-.091,3.137-.328,3.884.164.766.493,1.769,1.642,1.532,2.682a9.636,9.636,0,0,1-.547,1.752l-.62,1.514-.4.766.2.292a1.187,1.187,0,0,1,.31-.182A13.966,13.966,0,0,0,40,31.25h.018a14.068,14.068,0,0,1,1.568-.6,2.572,2.572,0,0,1,1.568-.036,12.488,12.488,0,0,1,1.258.894c.091.182.711.292.711.292l1.568.219.237.146a15.993,15.993,0,0,1-1.951.785,6.982,6.982,0,0,0-1.824,1.131c-.821.657-2.845,1.824-2.991,2.3l-.146.292a28.126,28.126,0,0,1-1.787,2.3l-.6.858a13.458,13.458,0,0,0-.948,3.138V44.7l.292,1.824.018.128.036.109.657,1.387.073.073c.62.365.565-.347.565-.347l-.31-1.095c-.091-.31-.255-2.262-.255-2.262a2.184,2.184,0,0,1,.2-.912,1.277,1.277,0,0,1,.8-.62,3.824,3.824,0,0,1,1.277-.11,1.036,1.036,0,0,1,.967.657,14.8,14.8,0,0,1,.237,1.478v.11l-.219,1.861a6.567,6.567,0,0,0,.091.967s.474.182.565-.183l.182-1.149.4-3.339.219-2.9s.31-2.08.438-2.335a2.474,2.474,0,0,1,1.149-.675,1.762,1.762,0,0,1,1.587.328l.055.109-.182.876-.8,2.226-.182,1.879.055,3.248V48.09L43.851,53.2l-.365,3.831.438,2.992s.748,5.546.73,5.747c-.018.183.2,5.583.2,5.583l.091.821,1.094.31,2.043.6,2.936-1.916,1.113-.657V22Z" transform="translate(30.092 11.67)" fill="#fff"/>
</svg>
