<svg xmlns="http://www.w3.org/2000/svg" width="92.059" height="122.359" viewBox="0 0 92.059 122.359">
  <path id="Path_14244" data-name="Path 14244" d="M493.849,17.354Q459.29,70.036,425.217,121.972v6.661a2.383,2.383,0,0,0,2.44,1.122q16.044-.007,32.089-.006c.417,0,.834-.087,1.457-.156,0-3.029.033-5.978-.031-9.075H448.417q34.562-52.532,68.854-104.657c0-2.082-.008-4.2,0-6.313a1.882,1.882,0,0,0-1.153-1.834c-10.841,0-21.859,0-32.878,0-.43,0-.861.059-1.29.1-.046,0-.092.051-.13.085a1.381,1.381,0,0,0-.111.119,48.7,48.7,0,0,0,.144,9.334ZM486.84,129.669c.678.034,1.26.087,1.841.088,3.31.009,6.621,0,9.929,0,5.1,0,10.2.014,15.3,0,1.731,0,2.371-.641,2.372-2.349.008-8.845-.008-17.688.008-26.532a2.078,2.078,0,0,0-1.3-2.242h-3.2c-.272,0-.545-.014-.815.011a1.583,1.583,0,0,0-1.612,1.335,5.5,5.5,0,0,0-.092,1.29c-.01,2.225.065,4.452-.033,6.673a13.186,13.186,0,0,1-.626,3.487,12.453,12.453,0,0,1-12.076,8.421c-2.712-.06-5.426-.014-8.14,0-.516,0-1.032.073-1.552.111ZM453.307,7.409h-1.644q-9.437,0-18.874,0c-1.933,0-2.388.454-2.393,2.389-.011,4.068,0,8.135,0,12.2,0,4.231.009,8.461-.008,12.691,0,.916.088,1.743,1.032,2.185h4.713a1.93,1.93,0,0,0,1-2.032c-.017-2.222-.072-4.449.009-6.67a10.766,10.766,0,0,1,4.419-8.651,11.148,11.148,0,0,1,6.681-2.148,33.5,33.5,0,0,0,5.069-.122Z" transform="translate(-425.217 -7.409)" fill="#fff" opacity="0.31"/>
</svg>
