<svg xmlns="http://www.w3.org/2000/svg" width="400.62" height="159.499" viewBox="0 0 400.62 159.499">
  <g id="work_life_logo-01" data-name="work life logo-01" transform="translate(-23.86 -20.011)">
    <text id="WORK" transform="translate(23.86 125.05)" fill="#5dc4ba" font-size="58.91" font-family="BrandonGrotesque-Regular, Brandon Grotesque"><tspan x="0" y="0">WORK</tspan></text>
    <path id="Path_18808" data-name="Path 18808" d="M211.58,104.14A101.9,101.9,0,0,0,252.24,55.9c3.32-8.27,6.17-17.72,3.11-26.52a13.81,13.81,0,0,0-8.26-8.64c-4.86-1.72-9.84-.23-13.86,2.73s-7,7.22-9.37,11.53a132.891,132.891,0,0,0-16.41,51.79c-1.1,10.7-2,23.51,3,33.4,4.42,8.63,13.3,13.4,22.86,13.48,11.32.1,21.32-5,28.77-13.38,8.14-9.11,12.66-20.83,16.92-32.09l-7-2.61c-3.42,14-2.49,31.37,11.29,39.55s28.08-1.52,38.18-11A100.78,100.78,0,0,0,345.4,79.39c5.23-12.62,8.64-27.47,7.41-41.2-.28-3.06-1.44-6.39-4.09-8.17a7.89,7.89,0,0,0-9.08.43c-2.91,2.13-4.44,5.56-5.91,8.73q-2.49,5.35-4.61,10.86a184.14,184.14,0,0,0-10.05,93.09,172.667,172.667,0,0,0,5.08,23c1.79,6.08,5.07,13.82,12.7,13.36,6.9-.43,10.37-7.69,12-13.51a49,49,0,0,0,1.48-18.74,51.7,51.7,0,0,0-16.8-32.6,42.449,42.449,0,0,0-7.44-5.31l-2.49,6.73a91.38,91.38,0,0,0,52.11-8.6c7.87-3.88,15.89-8.88,21.8-15.44,5.06-5.63,9.39-14.18,6-21.72-3.66-8-14-9.87-21.38-6-8,4.18-12.57,13.36-14.69,21.8-4.43,17.59,1.39,37.05,18.67,45.1a27.22,27.22,0,0,0,26.5-1.66,25.46,25.46,0,0,0,11.81-23.28c-.38-4.76-7.7-3.42-7.32,1.32.5,6.09-3.07,11.73-7.82,15.25a19.2,19.2,0,0,1-17.54,2.61c-14.05-4.64-20-19.43-18-33.27,1-6.72,3.67-14.57,8.88-19.21,3.8-3.39,12.32-5.33,14.4,1.14,1.76,5.49-3.43,11.87-7.18,15.24a75.551,75.551,0,0,1-17.95,11.78,84.26,84.26,0,0,1-47.57,7.58c-3.5-.46-5.74,4.89-2.49,6.74a42.69,42.69,0,0,1,19,23.18c3.26,9.2,3.68,20.63-.62,29.59-.72,1.49-2.16,4.13-4.15,3.92s-3.19-3.33-3.82-5c-2.29-6-3.55-12.61-4.73-18.88a174.5,174.5,0,0,1-2.89-39.9,176.831,176.831,0,0,1,6.15-39.53,174.612,174.612,0,0,1,6.46-19q1.89-4.65,4-9.2a15,15,0,0,1,1.91-3.28c.25-.3,1.34-1.21,1.24-1.25,1.42.51,1.13,4.49,1.13,5.61,0,3-.16,6-.46,9A89.751,89.751,0,0,1,341.6,68a95,95,0,0,1-16.53,31.39,88,88,0,0,1-14.21,14.14c-5.14,4.06-11.56,8.26-18.43,7.26-5.86-.85-10.52-5.67-12.8-10.89-3-6.76-2.33-14.68-.62-21.67,1.11-4.52-5.22-7.21-7-2.61-5.87,15.49-13.34,35.51-31.41,39.83-6.82,1.63-14.89,1.1-20.21-4-6.74-6.44-6.49-17.37-6.15-25.95.81-20.38,6.39-41.92,17.43-59.24,2.75-4.31,11-13.55,15.78-6.22,3.83,5.85,1,14.47-1.11,20.36a93.56,93.56,0,0,1-38,47,3.83,3.83,0,0,0-1.79,4.94c.76,1.66,3.25,2.85,5,1.79" fill="#fff"/>
    <path id="Path_18809" data-name="Path 18809" d="M277.75,73.81c8.12.74,9.27-11.87,1.14-12.6s-9.26,11.87-1.14,12.6" fill="#fff"/>
  </g>
</svg>
