<svg xmlns="http://www.w3.org/2000/svg" width="173.31" height="69" viewBox="0 0 173.31 69">
  <g id="work_life_logo-01" data-name="work life logo-01" transform="translate(-23.86 -20.011)">
    <text id="WORK" transform="translate(23.86 64.63)" fill="#5dc4ba" font-size="25" font-family="SegoeUI, Segoe UI"><tspan x="0" y="0">WORK</tspan></text>
    <path id="Path_18808" data-name="Path 18808" d="M208.547,56.406a44.082,44.082,0,0,0,17.59-20.869c1.436-3.578,2.669-7.666,1.345-11.473a5.974,5.974,0,0,0-3.573-3.738,6.438,6.438,0,0,0-6,1.181,15.1,15.1,0,0,0-4.053,4.988,57.489,57.489,0,0,0-7.1,22.4c-.476,4.629-.865,10.171,1.3,14.449a10.99,10.99,0,0,0,9.889,5.832,16.331,16.331,0,0,0,12.446-5.788c3.521-3.941,5.477-9.011,7.32-13.882l-3.028-1.129c-1.48,6.056-1.077,13.571,4.884,17.109s12.148-.658,16.517-4.759A43.6,43.6,0,0,0,266.438,45.7c2.263-5.459,3.738-11.884,3.206-17.823a4.689,4.689,0,0,0-1.769-3.534,3.413,3.413,0,0,0-3.928.186A9.171,9.171,0,0,0,261.39,28.3q-1.077,2.314-1.994,4.7a79.659,79.659,0,0,0-4.348,40.271,74.692,74.692,0,0,0,2.2,9.95c.774,2.63,2.193,5.979,5.494,5.78,2.985-.186,4.486-3.327,5.191-5.844a21.2,21.2,0,0,0,.64-8.107,22.366,22.366,0,0,0-7.268-14.1,18.364,18.364,0,0,0-3.219-2.3l-1.077,2.911a39.531,39.531,0,0,0,22.543-3.72,31.267,31.267,0,0,0,9.431-6.679c2.189-2.436,4.062-6.134,2.6-9.4-1.583-3.461-6.056-4.27-9.249-2.6-3.461,1.808-5.438,5.78-6.355,9.431-1.916,7.61.6,16.028,8.077,19.51a11.776,11.776,0,0,0,11.464-.718,11.014,11.014,0,0,0,5.109-10.071c-.164-2.059-3.331-1.48-3.167.571a7.721,7.721,0,0,1-3.383,6.6,8.306,8.306,0,0,1-7.588,1.129c-6.078-2.007-8.652-8.405-7.787-14.393.433-2.907,1.588-6.3,3.842-8.31,1.644-1.467,5.33-2.306,6.229.493.761,2.375-1.484,5.135-3.106,6.593a32.683,32.683,0,0,1-7.765,5.1,36.451,36.451,0,0,1-20.579,3.279c-1.514-.2-2.483,2.115-1.077,2.916a18.468,18.468,0,0,1,8.219,10.028c1.41,3.98,1.592,8.925-.268,12.8-.311.645-.934,1.787-1.8,1.7s-1.38-1.441-1.653-2.163a47.913,47.913,0,0,1-2.046-8.168,75.491,75.491,0,0,1-1.25-17.261,76.5,76.5,0,0,1,2.661-17.1,75.536,75.536,0,0,1,2.795-8.22q.818-2.012,1.73-3.98a6.489,6.489,0,0,1,.826-1.419c.108-.13.58-.523.536-.541.614.221.489,1.942.489,2.427,0,1.3-.069,2.6-.2,3.893a38.827,38.827,0,0,1-1.492,7.484,41.1,41.1,0,0,1-7.151,13.579,38.069,38.069,0,0,1-6.147,6.117c-2.224,1.756-5,3.573-7.973,3.141a7.669,7.669,0,0,1-5.537-4.711c-1.3-2.924-1.008-6.351-.268-9.375.48-1.955-2.258-3.119-3.028-1.129-2.539,6.7-5.771,15.362-13.588,17.231-2.95.705-6.441.476-8.743-1.73-2.916-2.786-2.808-7.514-2.661-11.226.35-8.816,2.764-18.135,7.54-25.627,1.19-1.865,4.759-5.862,6.827-2.691,1.657,2.531.433,6.26-.48,8.808A40.475,40.475,0,0,1,207.145,53.49a1.657,1.657,0,0,0-.774,2.137,1.64,1.64,0,0,0,2.163.774" transform="translate(-103.479)" fill="#5262ad"/>
    <path id="Path_18809" data-name="Path 18809" d="M274.6,66.643c3.513.32,4.01-5.135.493-5.451s-4.006,5.135-.493,5.451" transform="translate(-140.905 -23.359)" fill="#5262ad"/>
  </g>
</svg>
